<svg width="550" height="559" viewBox="0 0 550 559" fill="none" xmlns="http://www.w3.org/2000/svg">
<rect width="550" height="559" rx="12" fill="#F4F1EC"/>
<rect x="63" y="208" width="423" height="51" rx="12" fill="#3A7D6B"/>
<rect x="63" y="284" width="423" height="51" rx="12" fill="white"/>
<rect x="63" y="360" width="423" height="51" rx="12" fill="white"/>
<rect x="63" y="436" width="423" height="51" rx="12" fill="white"/>
<path d="M97.1564 242.168C96.0524 242.168 95.0764 241.976 94.2284 241.592C93.3964 241.208 92.7404 240.672 92.2604 239.984C91.7804 239.296 91.5244 238.528 91.4924 237.68H93.2684C93.3484 238.496 93.7084 239.216 94.3484 239.84C94.9884 240.448 95.9244 240.752 97.1564 240.752C98.2924 240.752 99.1884 240.464 99.8444 239.888C100.516 239.296 100.852 238.552 100.852 237.656C100.852 236.936 100.668 236.36 100.3 235.928C99.9324 235.48 99.4764 235.152 98.9324 234.944C98.3884 234.72 97.6364 234.48 96.6764 234.224C95.5564 233.92 94.6684 233.624 94.0124 233.336C93.3564 233.048 92.7964 232.6 92.3324 231.992C91.8684 231.384 91.6364 230.56 91.6364 229.52C91.6364 228.656 91.8604 227.888 92.3084 227.216C92.7564 226.528 93.3884 225.992 94.2044 225.608C95.0204 225.224 95.9564 225.032 97.0124 225.032C98.5644 225.032 99.8124 225.416 100.756 226.184C101.716 226.936 102.268 227.912 102.412 229.112H100.588C100.476 228.424 100.1 227.816 99.4604 227.288C98.8204 226.744 97.9564 226.472 96.8684 226.472C95.8604 226.472 95.0204 226.744 94.3484 227.288C93.6764 227.816 93.3404 228.544 93.3404 229.472C93.3404 230.176 93.5244 230.744 93.8924 231.176C94.2604 231.608 94.7164 231.936 95.2604 232.16C95.8204 232.384 96.5724 232.624 97.5164 232.88C98.6044 233.184 99.4844 233.488 100.156 233.792C100.828 234.08 101.396 234.528 101.86 235.136C102.324 235.744 102.556 236.56 102.556 237.584C102.556 238.368 102.348 239.112 101.932 239.816C101.516 240.52 100.9 241.088 100.084 241.52C99.2684 241.952 98.2924 242.168 97.1564 242.168ZM117.155 228.896V242H115.475V239.696C115.091 240.512 114.499 241.136 113.699 241.568C112.899 242 112.003 242.216 111.011 242.216C109.443 242.216 108.163 241.736 107.171 240.776C106.179 239.8 105.683 238.392 105.683 236.552V228.896H107.339V236.36C107.339 237.784 107.691 238.872 108.395 239.624C109.115 240.376 110.091 240.752 111.323 240.752C112.587 240.752 113.595 240.352 114.347 239.552C115.099 238.752 115.475 237.576 115.475 236.024V228.896H117.155ZM122.646 231.776C123.062 230.896 123.718 230.168 124.614 229.592C125.526 229 126.606 228.704 127.854 228.704C129.038 228.704 130.102 228.984 131.046 229.544C132.006 230.088 132.75 230.872 133.278 231.896C133.822 232.904 134.094 234.08 134.094 235.424C134.094 236.768 133.822 237.952 133.278 238.976C132.75 240 132.006 240.792 131.046 241.352C130.102 241.912 129.038 242.192 127.854 242.192C126.622 242.192 125.55 241.904 124.638 241.328C123.726 240.736 123.062 240 122.646 239.12V248.192H120.99V228.896H122.646V231.776ZM132.39 235.424C132.39 234.336 132.174 233.4 131.742 232.616C131.326 231.816 130.75 231.208 130.014 230.792C129.278 230.376 128.446 230.168 127.518 230.168C126.622 230.168 125.798 230.384 125.046 230.816C124.31 231.248 123.726 231.864 123.294 232.664C122.862 233.464 122.646 234.392 122.646 235.448C122.646 236.504 122.862 237.432 123.294 238.232C123.726 239.032 124.31 239.648 125.046 240.08C125.798 240.512 126.622 240.728 127.518 240.728C128.446 240.728 129.278 240.52 130.014 240.104C130.75 239.672 131.326 239.056 131.742 238.256C132.174 237.44 132.39 236.496 132.39 235.424ZM138.842 231.776C139.258 230.896 139.914 230.168 140.81 229.592C141.722 229 142.802 228.704 144.05 228.704C145.234 228.704 146.298 228.984 147.242 229.544C148.202 230.088 148.946 230.872 149.474 231.896C150.018 232.904 150.29 234.08 150.29 235.424C150.29 236.768 150.018 237.952 149.474 238.976C148.946 240 148.202 240.792 147.242 241.352C146.298 241.912 145.234 242.192 144.05 242.192C142.818 242.192 141.746 241.904 140.834 241.328C139.922 240.736 139.258 240 138.842 239.12V248.192H137.186V228.896H138.842V231.776ZM148.586 235.424C148.586 234.336 148.37 233.4 147.938 232.616C147.522 231.816 146.946 231.208 146.21 230.792C145.474 230.376 144.642 230.168 143.714 230.168C142.818 230.168 141.994 230.384 141.242 230.816C140.506 231.248 139.922 231.864 139.49 232.664C139.058 233.464 138.842 234.392 138.842 235.448C138.842 236.504 139.058 237.432 139.49 238.232C139.922 239.032 140.506 239.648 141.242 240.08C141.994 240.512 142.818 240.728 143.714 240.728C144.642 240.728 145.474 240.52 146.21 240.104C146.946 239.672 147.522 239.056 147.938 238.256C148.37 237.44 148.586 236.496 148.586 235.424ZM159.117 242.192C157.885 242.192 156.773 241.92 155.781 241.376C154.805 240.816 154.029 240.032 153.453 239.024C152.893 238 152.613 236.808 152.613 235.448C152.613 234.088 152.901 232.904 153.477 231.896C154.053 230.872 154.837 230.088 155.829 229.544C156.821 228.984 157.933 228.704 159.165 228.704C160.397 228.704 161.509 228.984 162.501 229.544C163.509 230.088 164.293 230.872 164.853 231.896C165.429 232.904 165.717 234.088 165.717 235.448C165.717 236.792 165.429 237.976 164.853 239C164.277 240.024 163.485 240.816 162.477 241.376C161.469 241.92 160.349 242.192 159.117 242.192ZM159.117 240.728C159.981 240.728 160.781 240.536 161.517 240.152C162.253 239.752 162.845 239.16 163.293 238.376C163.757 237.576 163.989 236.6 163.989 235.448C163.989 234.296 163.765 233.328 163.317 232.544C162.869 231.744 162.277 231.152 161.541 230.768C160.805 230.368 160.005 230.168 159.141 230.168C158.277 230.168 157.477 230.368 156.741 230.768C156.005 231.152 155.413 231.744 154.965 232.544C154.533 233.328 154.317 234.296 154.317 235.448C154.317 236.6 154.533 237.576 154.965 238.376C155.413 239.16 155.997 239.752 156.717 240.152C157.453 240.536 158.253 240.728 159.117 240.728ZM170.459 231.224C170.827 230.408 171.387 229.776 172.139 229.328C172.907 228.88 173.843 228.656 174.947 228.656V230.408H174.491C173.275 230.408 172.299 230.736 171.563 231.392C170.827 232.048 170.459 233.144 170.459 234.68V242H168.779V228.896H170.459V231.224ZM179.659 230.312V238.448C179.659 239.248 179.811 239.8 180.115 240.104C180.419 240.408 180.955 240.56 181.723 240.56H183.259V242H181.459C180.275 242 179.395 241.728 178.819 241.184C178.243 240.624 177.955 239.712 177.955 238.448V230.312H176.131V228.896H177.955V225.608H179.659V228.896H183.259V230.312H179.659ZM205.071 225.224V242H203.391V234.152H194.295V242H192.615V225.224H194.295V232.76H203.391V225.224H205.071ZM214.64 242.192C213.408 242.192 212.296 241.92 211.304 241.376C210.328 240.816 209.552 240.032 208.976 239.024C208.416 238 208.136 236.808 208.136 235.448C208.136 234.088 208.424 232.904 209 231.896C209.576 230.872 210.36 230.088 211.352 229.544C212.344 228.984 213.456 228.704 214.688 228.704C215.92 228.704 217.032 228.984 218.024 229.544C219.032 230.088 219.816 230.872 220.376 231.896C220.952 232.904 221.24 234.088 221.24 235.448C221.24 236.792 220.952 237.976 220.376 239C219.8 240.024 219.008 240.816 218 241.376C216.992 241.92 215.872 242.192 214.64 242.192ZM214.64 240.728C215.504 240.728 216.304 240.536 217.04 240.152C217.776 239.752 218.368 239.16 218.816 238.376C219.28 237.576 219.512 236.6 219.512 235.448C219.512 234.296 219.288 233.328 218.84 232.544C218.392 231.744 217.8 231.152 217.064 230.768C216.328 230.368 215.528 230.168 214.664 230.168C213.8 230.168 213 230.368 212.264 230.768C211.528 231.152 210.936 231.744 210.488 232.544C210.056 233.328 209.84 234.296 209.84 235.448C209.84 236.6 210.056 237.576 210.488 238.376C210.936 239.16 211.52 239.752 212.24 240.152C212.976 240.536 213.776 240.728 214.64 240.728ZM239.903 228.656C241.439 228.656 242.687 229.144 243.647 230.12C244.623 231.08 245.111 232.48 245.111 234.32V242H243.455V234.512C243.455 233.088 243.111 232 242.423 231.248C241.735 230.496 240.799 230.12 239.615 230.12C238.383 230.12 237.399 230.528 236.663 231.344C235.927 232.16 235.559 233.344 235.559 234.896V242H233.903V234.512C233.903 233.088 233.559 232 232.871 231.248C232.183 230.496 231.239 230.12 230.039 230.12C228.807 230.12 227.823 230.528 227.087 231.344C226.351 232.16 225.983 233.344 225.983 234.896V242H224.303V228.896H225.983V231.152C226.399 230.336 226.991 229.72 227.759 229.304C228.527 228.872 229.383 228.656 230.327 228.656C231.463 228.656 232.455 228.928 233.303 229.472C234.167 230.016 234.791 230.816 235.175 231.872C235.527 230.832 236.127 230.04 236.975 229.496C237.839 228.936 238.815 228.656 239.903 228.656ZM260.698 234.776C260.698 235.352 260.682 235.792 260.65 236.096H249.778C249.826 237.088 250.066 237.936 250.498 238.64C250.93 239.344 251.498 239.88 252.202 240.248C252.906 240.6 253.674 240.776 254.506 240.776C255.594 240.776 256.506 240.512 257.242 239.984C257.994 239.456 258.49 238.744 258.73 237.848H260.506C260.186 239.128 259.498 240.176 258.442 240.992C257.402 241.792 256.09 242.192 254.506 242.192C253.274 242.192 252.17 241.92 251.194 241.376C250.218 240.816 249.45 240.032 248.89 239.024C248.346 238 248.074 236.808 248.074 235.448C248.074 234.088 248.346 232.896 248.89 231.872C249.434 230.848 250.194 230.064 251.17 229.52C252.146 228.976 253.258 228.704 254.506 228.704C255.754 228.704 256.842 228.976 257.77 229.52C258.714 230.064 259.434 230.8 259.93 231.728C260.442 232.64 260.698 233.656 260.698 234.776ZM258.994 234.728C259.01 233.752 258.81 232.92 258.394 232.232C257.994 231.544 257.442 231.024 256.738 230.672C256.034 230.32 255.266 230.144 254.434 230.144C253.186 230.144 252.122 230.544 251.242 231.344C250.362 232.144 249.874 233.272 249.778 234.728H258.994Z" fill="white"/>
<path d="M145.216 301.224L138.856 318H136.936L130.576 301.224H132.4L137.896 316.176L143.44 301.224H145.216ZM146.972 311.424C146.972 310.08 147.236 308.904 147.764 307.896C148.308 306.872 149.052 306.088 149.996 305.544C150.956 304.984 152.036 304.704 153.236 304.704C154.484 304.704 155.556 304.992 156.452 305.568C157.364 306.144 158.02 306.88 158.42 307.776V304.896H160.1V318H158.42V315.096C158.004 315.992 157.34 316.736 156.428 317.328C155.532 317.904 154.46 318.192 153.212 318.192C152.028 318.192 150.956 317.912 149.996 317.352C149.052 316.792 148.308 316 147.764 314.976C147.236 313.952 146.972 312.768 146.972 311.424ZM158.42 311.448C158.42 310.392 158.204 309.464 157.772 308.664C157.34 307.864 156.748 307.248 155.996 306.816C155.26 306.384 154.444 306.168 153.548 306.168C152.62 306.168 151.788 306.376 151.052 306.792C150.316 307.208 149.732 307.816 149.3 308.616C148.884 309.4 148.676 310.336 148.676 311.424C148.676 312.496 148.884 313.44 149.3 314.256C149.732 315.056 150.316 315.672 151.052 316.104C151.788 316.52 152.62 316.728 153.548 316.728C154.444 316.728 155.26 316.512 155.996 316.08C156.748 315.648 157.34 315.032 157.772 314.232C158.204 313.432 158.42 312.504 158.42 311.448ZM163.168 311.448C163.168 310.088 163.44 308.904 163.984 307.896C164.528 306.872 165.28 306.088 166.24 305.544C167.2 304.984 168.296 304.704 169.528 304.704C171.144 304.704 172.472 305.104 173.512 305.904C174.568 306.704 175.248 307.792 175.552 309.168H173.752C173.528 308.224 173.04 307.488 172.288 306.96C171.552 306.416 170.632 306.144 169.528 306.144C168.648 306.144 167.856 306.344 167.152 306.744C166.448 307.144 165.888 307.744 165.472 308.544C165.072 309.328 164.872 310.296 164.872 311.448C164.872 312.6 165.072 313.576 165.472 314.376C165.888 315.176 166.448 315.776 167.152 316.176C167.856 316.576 168.648 316.776 169.528 316.776C170.632 316.776 171.552 316.512 172.288 315.984C173.04 315.44 173.528 314.688 173.752 313.728H175.552C175.248 315.072 174.568 316.152 173.512 316.968C172.456 317.784 171.128 318.192 169.528 318.192C168.296 318.192 167.2 317.92 166.24 317.376C165.28 316.816 164.528 316.032 163.984 315.024C163.44 314 163.168 312.808 163.168 311.448ZM190.006 304.896V318H188.326V315.696C187.942 316.512 187.35 317.136 186.55 317.568C185.75 318 184.854 318.216 183.862 318.216C182.294 318.216 181.014 317.736 180.022 316.776C179.03 315.8 178.534 314.392 178.534 312.552V304.896H180.19V312.36C180.19 313.784 180.542 314.872 181.246 315.624C181.966 316.376 182.942 316.752 184.174 316.752C185.438 316.752 186.446 316.352 187.198 315.552C187.95 314.752 188.326 313.576 188.326 312.024V304.896H190.006ZM205.194 304.896V318H203.514V315.696C203.13 316.512 202.538 317.136 201.738 317.568C200.938 318 200.042 318.216 199.05 318.216C197.482 318.216 196.202 317.736 195.21 316.776C194.218 315.8 193.722 314.392 193.722 312.552V304.896H195.378V312.36C195.378 313.784 195.73 314.872 196.434 315.624C197.154 316.376 198.13 316.752 199.362 316.752C200.626 316.752 201.634 316.352 202.386 315.552C203.138 314.752 203.514 313.576 203.514 312.024V304.896H205.194ZM224.629 304.656C226.165 304.656 227.413 305.144 228.373 306.12C229.349 307.08 229.837 308.48 229.837 310.32V318H228.181V310.512C228.181 309.088 227.837 308 227.149 307.248C226.461 306.496 225.525 306.12 224.341 306.12C223.109 306.12 222.125 306.528 221.389 307.344C220.653 308.16 220.285 309.344 220.285 310.896V318H218.629V310.512C218.629 309.088 218.285 308 217.597 307.248C216.909 306.496 215.965 306.12 214.765 306.12C213.533 306.12 212.549 306.528 211.813 307.344C211.077 308.16 210.709 309.344 210.709 310.896V318H209.029V304.896H210.709V307.152C211.125 306.336 211.717 305.72 212.485 305.304C213.253 304.872 214.109 304.656 215.053 304.656C216.189 304.656 217.181 304.928 218.029 305.472C218.893 306.016 219.517 306.816 219.901 307.872C220.253 306.832 220.853 306.04 221.701 305.496C222.565 304.936 223.541 304.656 224.629 304.656ZM239.386 311.448C239.386 310.088 239.658 308.904 240.202 307.896C240.746 306.872 241.498 306.088 242.458 305.544C243.418 304.984 244.514 304.704 245.746 304.704C247.362 304.704 248.69 305.104 249.73 305.904C250.786 306.704 251.466 307.792 251.77 309.168H249.97C249.746 308.224 249.258 307.488 248.506 306.96C247.77 306.416 246.85 306.144 245.746 306.144C244.866 306.144 244.074 306.344 243.37 306.744C242.666 307.144 242.106 307.744 241.69 308.544C241.29 309.328 241.09 310.296 241.09 311.448C241.09 312.6 241.29 313.576 241.69 314.376C242.106 315.176 242.666 315.776 243.37 316.176C244.074 316.576 244.866 316.776 245.746 316.776C246.85 316.776 247.77 316.512 248.506 315.984C249.258 315.44 249.746 314.688 249.97 313.728H251.77C251.466 315.072 250.786 316.152 249.73 316.968C248.674 317.784 247.346 318.192 245.746 318.192C244.514 318.192 243.418 317.92 242.458 317.376C241.498 316.816 240.746 316.032 240.202 315.024C239.658 314 239.386 312.808 239.386 311.448ZM256.553 300.24V318H254.873V300.24H256.553ZM272.214 310.776C272.214 311.352 272.198 311.792 272.166 312.096H261.294C261.342 313.088 261.582 313.936 262.014 314.64C262.446 315.344 263.014 315.88 263.718 316.248C264.422 316.6 265.19 316.776 266.022 316.776C267.11 316.776 268.022 316.512 268.758 315.984C269.51 315.456 270.006 314.744 270.246 313.848H272.022C271.702 315.128 271.014 316.176 269.958 316.992C268.918 317.792 267.606 318.192 266.022 318.192C264.79 318.192 263.686 317.92 262.71 317.376C261.734 316.816 260.966 316.032 260.406 315.024C259.862 314 259.59 312.808 259.59 311.448C259.59 310.088 259.862 308.896 260.406 307.872C260.95 306.848 261.71 306.064 262.686 305.52C263.662 304.976 264.774 304.704 266.022 304.704C267.27 304.704 268.358 304.976 269.286 305.52C270.23 306.064 270.95 306.8 271.446 307.728C271.958 308.64 272.214 309.656 272.214 310.776ZM270.51 310.728C270.526 309.752 270.326 308.92 269.91 308.232C269.51 307.544 268.958 307.024 268.254 306.672C267.55 306.32 266.782 306.144 265.95 306.144C264.702 306.144 263.638 306.544 262.758 307.344C261.878 308.144 261.39 309.272 261.294 310.728H270.51ZM274.519 311.424C274.519 310.08 274.783 308.904 275.311 307.896C275.855 306.872 276.599 306.088 277.543 305.544C278.503 304.984 279.583 304.704 280.783 304.704C282.031 304.704 283.103 304.992 283.999 305.568C284.911 306.144 285.567 306.88 285.967 307.776V304.896H287.647V318H285.967V315.096C285.551 315.992 284.887 316.736 283.975 317.328C283.079 317.904 282.007 318.192 280.759 318.192C279.575 318.192 278.503 317.912 277.543 317.352C276.599 316.792 275.855 316 275.311 314.976C274.783 313.952 274.519 312.768 274.519 311.424ZM285.967 311.448C285.967 310.392 285.751 309.464 285.319 308.664C284.887 307.864 284.295 307.248 283.543 306.816C282.807 306.384 281.991 306.168 281.095 306.168C280.167 306.168 279.335 306.376 278.599 306.792C277.863 307.208 277.279 307.816 276.847 308.616C276.431 309.4 276.223 310.336 276.223 311.424C276.223 312.496 276.431 313.44 276.847 314.256C277.279 315.056 277.863 315.672 278.599 316.104C279.335 316.52 280.167 316.728 281.095 316.728C281.991 316.728 282.807 316.512 283.543 316.08C284.295 315.648 284.887 315.032 285.319 314.232C285.751 313.432 285.967 312.504 285.967 311.448ZM297.627 304.656C299.195 304.656 300.475 305.144 301.467 306.12C302.459 307.08 302.955 308.48 302.955 310.32V318H301.299V310.512C301.299 309.088 300.939 308 300.219 307.248C299.515 306.496 298.547 306.12 297.315 306.12C296.051 306.12 295.043 306.52 294.291 307.32C293.539 308.12 293.163 309.296 293.163 310.848V318H291.483V304.896H293.163V307.128C293.579 306.328 294.179 305.72 294.963 305.304C295.747 304.872 296.635 304.656 297.627 304.656ZM318.526 310.776C318.526 311.352 318.51 311.792 318.478 312.096H307.606C307.654 313.088 307.894 313.936 308.326 314.64C308.758 315.344 309.326 315.88 310.03 316.248C310.734 316.6 311.502 316.776 312.334 316.776C313.422 316.776 314.334 316.512 315.07 315.984C315.822 315.456 316.318 314.744 316.558 313.848H318.334C318.014 315.128 317.326 316.176 316.27 316.992C315.23 317.792 313.918 318.192 312.334 318.192C311.102 318.192 309.998 317.92 309.022 317.376C308.046 316.816 307.278 316.032 306.718 315.024C306.174 314 305.902 312.808 305.902 311.448C305.902 310.088 306.174 308.896 306.718 307.872C307.262 306.848 308.022 306.064 308.998 305.52C309.974 304.976 311.086 304.704 312.334 304.704C313.582 304.704 314.67 304.976 315.598 305.52C316.542 306.064 317.262 306.8 317.758 307.728C318.27 308.64 318.526 309.656 318.526 310.776ZM316.822 310.728C316.838 309.752 316.638 308.92 316.222 308.232C315.822 307.544 315.27 307.024 314.566 306.672C313.862 306.32 313.094 306.144 312.262 306.144C311.014 306.144 309.95 306.544 309.07 307.344C308.19 308.144 307.702 309.272 307.606 310.728H316.822ZM323.28 307.224C323.648 306.408 324.208 305.776 324.96 305.328C325.728 304.88 326.664 304.656 327.768 304.656V306.408H327.312C326.096 306.408 325.12 306.736 324.384 307.392C323.648 308.048 323.28 309.144 323.28 310.68V318H321.6V304.896H323.28V307.224ZM334.807 318.192C333.303 318.192 332.071 317.848 331.111 317.16C330.167 316.456 329.639 315.504 329.527 314.304H331.255C331.335 315.04 331.679 315.64 332.287 316.104C332.911 316.552 333.743 316.776 334.783 316.776C335.695 316.776 336.407 316.56 336.919 316.128C337.447 315.696 337.711 315.16 337.711 314.52C337.711 314.072 337.567 313.704 337.279 313.416C336.991 313.128 336.623 312.904 336.175 312.744C335.743 312.568 335.151 312.384 334.399 312.192C333.423 311.936 332.631 311.68 332.023 311.424C331.415 311.168 330.895 310.792 330.463 310.296C330.047 309.784 329.839 309.104 329.839 308.256C329.839 307.616 330.031 307.024 330.415 306.48C330.799 305.936 331.343 305.504 332.047 305.184C332.751 304.864 333.551 304.704 334.447 304.704C335.855 304.704 336.991 305.064 337.855 305.784C338.719 306.488 339.183 307.464 339.247 308.712H337.567C337.519 307.944 337.215 307.328 336.655 306.864C336.111 306.384 335.359 306.144 334.399 306.144C333.551 306.144 332.863 306.344 332.335 306.744C331.807 307.144 331.543 307.64 331.543 308.232C331.543 308.744 331.695 309.168 331.999 309.504C332.319 309.824 332.711 310.08 333.175 310.272C333.639 310.448 334.263 310.648 335.047 310.872C335.991 311.128 336.743 311.376 337.303 311.616C337.863 311.856 338.343 312.208 338.743 312.672C339.143 313.136 339.351 313.752 339.367 314.52C339.367 315.224 339.175 315.856 338.791 316.416C338.407 316.96 337.871 317.392 337.183 317.712C336.495 318.032 335.703 318.192 334.807 318.192Z" fill="#0D0D0D"/>
<path d="M141.64 390.016H134.008L132.544 394H130.768L136.888 377.44H138.784L144.88 394H143.104L141.64 390.016ZM141.136 388.624L137.824 379.552L134.512 388.624H141.136ZM148.416 378.424C148.08 378.424 147.792 378.304 147.552 378.064C147.312 377.824 147.192 377.528 147.192 377.176C147.192 376.824 147.312 376.536 147.552 376.312C147.792 376.072 148.08 375.952 148.416 375.952C148.752 375.952 149.04 376.072 149.28 376.312C149.52 376.536 149.64 376.824 149.64 377.176C149.64 377.528 149.52 377.824 149.28 378.064C149.04 378.304 148.752 378.424 148.416 378.424ZM149.256 380.896V394H147.576V380.896H149.256ZM154.741 383.224C155.109 382.408 155.669 381.776 156.421 381.328C157.189 380.88 158.125 380.656 159.229 380.656V382.408H158.773C157.557 382.408 156.581 382.736 155.845 383.392C155.109 384.048 154.741 385.144 154.741 386.68V394H153.061V380.896H154.741V383.224ZM170.526 382.312V390.448C170.526 391.248 170.678 391.8 170.982 392.104C171.286 392.408 171.822 392.56 172.59 392.56H174.126V394H172.326C171.142 394 170.262 393.728 169.686 393.184C169.11 392.624 168.822 391.712 168.822 390.448V382.312H166.998V380.896H168.822V377.608H170.526V380.896H174.126V382.312H170.526ZM178.577 383.224C178.945 382.408 179.505 381.776 180.257 381.328C181.025 380.88 181.961 380.656 183.065 380.656V382.408H182.609C181.393 382.408 180.417 382.736 179.681 383.392C178.945 384.048 178.577 385.144 178.577 386.68V394H176.897V380.896H178.577V383.224ZM197.448 386.776C197.448 387.352 197.432 387.792 197.4 388.096H186.528C186.576 389.088 186.816 389.936 187.248 390.64C187.68 391.344 188.248 391.88 188.952 392.248C189.656 392.6 190.424 392.776 191.256 392.776C192.344 392.776 193.256 392.512 193.992 391.984C194.744 391.456 195.24 390.744 195.48 389.848H197.256C196.936 391.128 196.248 392.176 195.192 392.992C194.152 393.792 192.84 394.192 191.256 394.192C190.024 394.192 188.92 393.92 187.944 393.376C186.968 392.816 186.2 392.032 185.64 391.024C185.096 390 184.824 388.808 184.824 387.448C184.824 386.088 185.096 384.896 185.64 383.872C186.184 382.848 186.944 382.064 187.92 381.52C188.896 380.976 190.008 380.704 191.256 380.704C192.504 380.704 193.592 380.976 194.52 381.52C195.464 382.064 196.184 382.8 196.68 383.728C197.192 384.64 197.448 385.656 197.448 386.776ZM195.744 386.728C195.76 385.752 195.56 384.92 195.144 384.232C194.744 383.544 194.192 383.024 193.488 382.672C192.784 382.32 192.016 382.144 191.184 382.144C189.936 382.144 188.872 382.544 187.992 383.344C187.112 384.144 186.624 385.272 186.528 386.728H195.744ZM199.754 387.424C199.754 386.08 200.018 384.904 200.546 383.896C201.09 382.872 201.834 382.088 202.778 381.544C203.738 380.984 204.818 380.704 206.018 380.704C207.266 380.704 208.338 380.992 209.234 381.568C210.146 382.144 210.802 382.88 211.202 383.776V380.896H212.882V394H211.202V391.096C210.786 391.992 210.122 392.736 209.21 393.328C208.314 393.904 207.242 394.192 205.994 394.192C204.81 394.192 203.738 393.912 202.778 393.352C201.834 392.792 201.09 392 200.546 390.976C200.018 389.952 199.754 388.768 199.754 387.424ZM211.202 387.448C211.202 386.392 210.986 385.464 210.554 384.664C210.122 383.864 209.53 383.248 208.778 382.816C208.042 382.384 207.226 382.168 206.33 382.168C205.402 382.168 204.57 382.376 203.834 382.792C203.098 383.208 202.514 383.816 202.082 384.616C201.666 385.4 201.458 386.336 201.458 387.424C201.458 388.496 201.666 389.44 202.082 390.256C202.514 391.056 203.098 391.672 203.834 392.104C204.57 392.52 205.402 392.728 206.33 392.728C207.226 392.728 208.042 392.512 208.778 392.08C209.53 391.648 210.122 391.032 210.554 390.232C210.986 389.432 211.202 388.504 211.202 387.448ZM218.901 382.312V390.448C218.901 391.248 219.053 391.8 219.357 392.104C219.661 392.408 220.197 392.56 220.965 392.56H222.501V394H220.701C219.517 394 218.637 393.728 218.061 393.184C217.485 392.624 217.197 391.712 217.197 390.448V382.312H215.373V380.896H217.197V377.608H218.901V380.896H222.501V382.312H218.901ZM240.872 380.656C242.408 380.656 243.656 381.144 244.616 382.12C245.592 383.08 246.08 384.48 246.08 386.32V394H244.424V386.512C244.424 385.088 244.08 384 243.392 383.248C242.704 382.496 241.768 382.12 240.584 382.12C239.352 382.12 238.368 382.528 237.632 383.344C236.896 384.16 236.528 385.344 236.528 386.896V394H234.872V386.512C234.872 385.088 234.528 384 233.84 383.248C233.152 382.496 232.208 382.12 231.008 382.12C229.776 382.12 228.792 382.528 228.056 383.344C227.32 384.16 226.952 385.344 226.952 386.896V394H225.272V380.896H226.952V383.152C227.368 382.336 227.96 381.72 228.728 381.304C229.496 380.872 230.352 380.656 231.296 380.656C232.432 380.656 233.424 380.928 234.272 381.472C235.136 382.016 235.76 382.816 236.144 383.872C236.496 382.832 237.096 382.04 237.944 381.496C238.808 380.936 239.784 380.656 240.872 380.656ZM261.667 386.776C261.667 387.352 261.651 387.792 261.619 388.096H250.747C250.795 389.088 251.035 389.936 251.467 390.64C251.899 391.344 252.467 391.88 253.171 392.248C253.875 392.6 254.643 392.776 255.475 392.776C256.563 392.776 257.475 392.512 258.211 391.984C258.963 391.456 259.459 390.744 259.699 389.848H261.475C261.155 391.128 260.467 392.176 259.411 392.992C258.371 393.792 257.059 394.192 255.475 394.192C254.243 394.192 253.139 393.92 252.163 393.376C251.187 392.816 250.419 392.032 249.859 391.024C249.315 390 249.043 388.808 249.043 387.448C249.043 386.088 249.315 384.896 249.859 383.872C250.403 382.848 251.163 382.064 252.139 381.52C253.115 380.976 254.227 380.704 255.475 380.704C256.723 380.704 257.811 380.976 258.739 381.52C259.683 382.064 260.403 382.8 260.899 383.728C261.411 384.64 261.667 385.656 261.667 386.776ZM259.963 386.728C259.979 385.752 259.779 384.92 259.363 384.232C258.963 383.544 258.411 383.024 257.707 382.672C257.003 382.32 256.235 382.144 255.403 382.144C254.155 382.144 253.091 382.544 252.211 383.344C251.331 384.144 250.843 385.272 250.747 386.728H259.963ZM270.884 380.656C272.452 380.656 273.732 381.144 274.724 382.12C275.716 383.08 276.212 384.48 276.212 386.32V394H274.556V386.512C274.556 385.088 274.196 384 273.476 383.248C272.772 382.496 271.804 382.12 270.572 382.12C269.308 382.12 268.3 382.52 267.548 383.32C266.796 384.12 266.42 385.296 266.42 386.848V394H264.74V380.896H266.42V383.128C266.836 382.328 267.436 381.72 268.22 381.304C269.004 380.872 269.892 380.656 270.884 380.656ZM282.112 382.312V390.448C282.112 391.248 282.264 391.8 282.568 392.104C282.872 392.408 283.408 392.56 284.176 392.56H285.712V394H283.912C282.728 394 281.848 393.728 281.272 393.184C280.696 392.624 280.408 391.712 280.408 390.448V382.312H278.584V380.896H280.408V377.608H282.112V380.896H285.712V382.312H282.112Z" fill="#0D0D0D"/>
<path d="M144.376 453.224V470H142.696V462.152H133.6V470H131.92V453.224H133.6V460.76H142.696V453.224H144.376ZM147.441 463.424C147.441 462.08 147.705 460.904 148.233 459.896C148.777 458.872 149.521 458.088 150.465 457.544C151.425 456.984 152.505 456.704 153.705 456.704C154.953 456.704 156.025 456.992 156.921 457.568C157.833 458.144 158.489 458.88 158.889 459.776V456.896H160.569V470H158.889V467.096C158.473 467.992 157.809 468.736 156.897 469.328C156.001 469.904 154.929 470.192 153.681 470.192C152.497 470.192 151.425 469.912 150.465 469.352C149.521 468.792 148.777 468 148.233 466.976C147.705 465.952 147.441 464.768 147.441 463.424ZM158.889 463.448C158.889 462.392 158.673 461.464 158.241 460.664C157.809 459.864 157.217 459.248 156.465 458.816C155.729 458.384 154.913 458.168 154.017 458.168C153.089 458.168 152.257 458.376 151.521 458.792C150.785 459.208 150.201 459.816 149.769 460.616C149.353 461.4 149.145 462.336 149.145 463.424C149.145 464.496 149.353 465.44 149.769 466.256C150.201 467.056 150.785 467.672 151.521 468.104C152.257 468.52 153.089 468.728 154.017 468.728C154.913 468.728 155.729 468.512 156.465 468.08C157.217 467.648 157.809 467.032 158.241 466.232C158.673 465.432 158.889 464.504 158.889 463.448ZM165.244 454.424C164.908 454.424 164.62 454.304 164.38 454.064C164.14 453.824 164.02 453.528 164.02 453.176C164.02 452.824 164.14 452.536 164.38 452.312C164.62 452.072 164.908 451.952 165.244 451.952C165.58 451.952 165.868 452.072 166.108 452.312C166.348 452.536 166.468 452.824 166.468 453.176C166.468 453.528 166.348 453.824 166.108 454.064C165.868 454.304 165.58 454.424 165.244 454.424ZM166.084 456.896V470H164.404V456.896H166.084ZM171.569 459.224C171.937 458.408 172.497 457.776 173.249 457.328C174.017 456.88 174.953 456.656 176.057 456.656V458.408H175.601C174.385 458.408 173.409 458.736 172.673 459.392C171.937 460.048 171.569 461.144 171.569 462.68V470H169.889V456.896H171.569V459.224ZM184.402 463.448C184.402 462.088 184.674 460.904 185.218 459.896C185.762 458.872 186.514 458.088 187.474 457.544C188.434 456.984 189.53 456.704 190.762 456.704C192.378 456.704 193.706 457.104 194.746 457.904C195.802 458.704 196.482 459.792 196.786 461.168H194.986C194.762 460.224 194.274 459.488 193.522 458.96C192.786 458.416 191.866 458.144 190.762 458.144C189.882 458.144 189.09 458.344 188.386 458.744C187.682 459.144 187.122 459.744 186.706 460.544C186.306 461.328 186.106 462.296 186.106 463.448C186.106 464.6 186.306 465.576 186.706 466.376C187.122 467.176 187.682 467.776 188.386 468.176C189.09 468.576 189.882 468.776 190.762 468.776C191.866 468.776 192.786 468.512 193.522 467.984C194.274 467.44 194.762 466.688 194.986 465.728H196.786C196.482 467.072 195.802 468.152 194.746 468.968C193.69 469.784 192.362 470.192 190.762 470.192C189.53 470.192 188.434 469.92 187.474 469.376C186.514 468.816 185.762 468.032 185.218 467.024C184.674 466 184.402 464.808 184.402 463.448ZM199.121 463.424C199.121 462.08 199.385 460.904 199.913 459.896C200.457 458.872 201.201 458.088 202.145 457.544C203.105 456.984 204.185 456.704 205.385 456.704C206.633 456.704 207.705 456.992 208.601 457.568C209.513 458.144 210.169 458.88 210.569 459.776V456.896H212.249V470H210.569V467.096C210.153 467.992 209.489 468.736 208.577 469.328C207.681 469.904 206.609 470.192 205.361 470.192C204.177 470.192 203.105 469.912 202.145 469.352C201.201 468.792 200.457 468 199.913 466.976C199.385 465.952 199.121 464.768 199.121 463.424ZM210.569 463.448C210.569 462.392 210.353 461.464 209.921 460.664C209.489 459.864 208.897 459.248 208.145 458.816C207.409 458.384 206.593 458.168 205.697 458.168C204.769 458.168 203.937 458.376 203.201 458.792C202.465 459.208 201.881 459.816 201.449 460.616C201.033 461.4 200.825 462.336 200.825 463.424C200.825 464.496 201.033 465.44 201.449 466.256C201.881 467.056 202.465 467.672 203.201 468.104C203.937 468.52 204.769 468.728 205.697 468.728C206.593 468.728 207.409 468.512 208.145 468.08C208.897 467.648 209.489 467.032 209.921 466.232C210.353 465.432 210.569 464.504 210.569 463.448ZM217.764 459.224C218.132 458.408 218.692 457.776 219.444 457.328C220.212 456.88 221.148 456.656 222.252 456.656V458.408H221.796C220.58 458.408 219.604 458.736 218.868 459.392C218.132 460.048 217.764 461.144 217.764 462.68V470H216.084V456.896H217.764V459.224ZM236.635 462.776C236.635 463.352 236.619 463.792 236.587 464.096H225.715C225.763 465.088 226.003 465.936 226.435 466.64C226.867 467.344 227.435 467.88 228.139 468.248C228.843 468.6 229.611 468.776 230.443 468.776C231.531 468.776 232.443 468.512 233.179 467.984C233.931 467.456 234.427 466.744 234.667 465.848H236.443C236.123 467.128 235.435 468.176 234.379 468.992C233.339 469.792 232.027 470.192 230.443 470.192C229.211 470.192 228.107 469.92 227.131 469.376C226.155 468.816 225.387 468.032 224.827 467.024C224.283 466 224.011 464.808 224.011 463.448C224.011 462.088 224.283 460.896 224.827 459.872C225.371 458.848 226.131 458.064 227.107 457.52C228.083 456.976 229.195 456.704 230.443 456.704C231.691 456.704 232.779 456.976 233.707 457.52C234.651 458.064 235.371 458.8 235.867 459.728C236.379 460.64 236.635 461.656 236.635 462.776ZM234.931 462.728C234.947 461.752 234.747 460.92 234.331 460.232C233.931 459.544 233.379 459.024 232.675 458.672C231.971 458.32 231.203 458.144 230.371 458.144C229.123 458.144 228.059 458.544 227.179 459.344C226.299 460.144 225.811 461.272 225.715 462.728H234.931Z" fill="#0D0D0D"/>
<path d="M53.95 67.76C55.13 67.98 56.1 68.57 56.86 69.53C57.62 70.49 58 71.59 58 72.83C58 73.95 57.72 74.94 57.16 75.8C56.62 76.64 55.83 77.3 54.79 77.78C53.75 78.26 52.52 78.5 51.1 78.5H42.07V57.56H50.71C52.13 57.56 53.35 57.79 54.37 58.25C55.41 58.71 56.19 59.35 56.71 60.17C57.25 60.99 57.52 61.92 57.52 62.96C57.52 64.18 57.19 65.2 56.53 66.02C55.89 66.84 55.03 67.42 53.95 67.76ZM46.27 66.2H50.11C51.11 66.2 51.88 65.98 52.42 65.54C52.96 65.08 53.23 64.43 53.23 63.59C53.23 62.75 52.96 62.1 52.42 61.64C51.88 61.18 51.11 60.95 50.11 60.95H46.27V66.2ZM50.5 75.08C51.52 75.08 52.31 74.84 52.87 74.36C53.45 73.88 53.74 73.2 53.74 72.32C53.74 71.42 53.44 70.72 52.84 70.22C52.24 69.7 51.43 69.44 50.41 69.44H46.27V75.08H50.5Z" fill="#1F5C4D"/>
<path d="M86.808 62.648C86.808 63.992 86.484 65.252 85.836 66.428C85.212 67.604 84.216 68.552 82.848 69.272C81.504 69.992 79.8 70.352 77.736 70.352H73.524V80H68.484V54.872H77.736C79.68 54.872 81.336 55.208 82.704 55.88C84.072 56.552 85.092 57.476 85.764 58.652C86.46 59.828 86.808 61.16 86.808 62.648ZM77.52 66.284C78.912 66.284 79.944 65.972 80.616 65.348C81.288 64.7 81.624 63.8 81.624 62.648C81.624 60.2 80.256 58.976 77.52 58.976H73.524V66.284H77.52ZM95.4263 63.152C96.0743 62.096 96.9143 61.268 97.9463 60.668C99.0023 60.068 100.202 59.768 101.546 59.768V65.06H100.214C98.6303 65.06 97.4303 65.432 96.6143 66.176C95.8223 66.92 95.4263 68.216 95.4263 70.064V80H90.3863V60.056H95.4263V63.152ZM113.797 80.324C111.877 80.324 110.149 79.904 108.613 79.064C107.077 78.2 105.865 76.988 104.977 75.428C104.113 73.868 103.681 72.068 103.681 70.028C103.681 67.988 104.125 66.188 105.013 64.628C105.925 63.068 107.161 61.868 108.721 61.028C110.281 60.164 112.021 59.732 113.941 59.732C115.861 59.732 117.601 60.164 119.161 61.028C120.721 61.868 121.945 63.068 122.833 64.628C123.745 66.188 124.201 67.988 124.201 70.028C124.201 72.068 123.733 73.868 122.797 75.428C121.885 76.988 120.637 78.2 119.053 79.064C117.493 79.904 115.741 80.324 113.797 80.324ZM113.797 75.932C114.709 75.932 115.561 75.716 116.353 75.284C117.169 74.828 117.817 74.156 118.297 73.268C118.777 72.38 119.017 71.3 119.017 70.028C119.017 68.132 118.513 66.68 117.505 65.672C116.521 64.64 115.309 64.124 113.869 64.124C112.429 64.124 111.217 64.64 110.233 65.672C109.273 66.68 108.793 68.132 108.793 70.028C108.793 71.924 109.261 73.388 110.197 74.42C111.157 75.428 112.357 75.932 113.797 75.932ZM126.602 69.956C126.602 67.94 126.998 66.152 127.79 64.592C128.606 63.032 129.71 61.832 131.102 60.992C132.494 60.152 134.042 59.732 135.746 59.732C137.042 59.732 138.278 60.02 139.454 60.596C140.63 61.148 141.566 61.892 142.262 62.828V53.36H147.374V80H142.262V77.048C141.638 78.032 140.762 78.824 139.634 79.424C138.506 80.024 137.198 80.324 135.71 80.324C134.03 80.324 132.494 79.892 131.102 79.028C129.71 78.164 128.606 76.952 127.79 75.392C126.998 73.808 126.602 71.996 126.602 69.956ZM142.298 70.028C142.298 68.804 142.058 67.76 141.578 66.896C141.098 66.008 140.45 65.336 139.634 64.88C138.818 64.4 137.942 64.16 137.006 64.16C136.07 64.16 135.206 64.388 134.414 64.844C133.622 65.3 132.974 65.972 132.47 66.86C131.99 67.724 131.75 68.756 131.75 69.956C131.75 71.156 131.99 72.212 132.47 73.124C132.974 74.012 133.622 74.696 134.414 75.176C135.23 75.656 136.094 75.896 137.006 75.896C137.942 75.896 138.818 75.668 139.634 75.212C140.45 74.732 141.098 74.06 141.578 73.196C142.058 72.308 142.298 71.252 142.298 70.028ZM171.125 60.056V80H166.049V77.48C165.401 78.344 164.549 79.028 163.493 79.532C162.461 80.012 161.333 80.252 160.109 80.252C158.549 80.252 157.169 79.928 155.969 79.28C154.769 78.608 153.821 77.636 153.125 76.364C152.453 75.068 152.117 73.532 152.117 71.756V60.056H157.157V71.036C157.157 72.62 157.553 73.844 158.345 74.708C159.137 75.548 160.217 75.968 161.585 75.968C162.977 75.968 164.069 75.548 164.861 74.708C165.653 73.844 166.049 72.62 166.049 71.036V60.056H171.125ZM174.801 70.028C174.801 67.964 175.221 66.164 176.061 64.628C176.901 63.068 178.065 61.868 179.553 61.028C181.041 60.164 182.745 59.732 184.665 59.732C187.137 59.732 189.177 60.356 190.785 61.604C192.417 62.828 193.509 64.556 194.061 66.788H188.625C188.337 65.924 187.845 65.252 187.149 64.772C186.477 64.268 185.637 64.016 184.629 64.016C183.189 64.016 182.049 64.544 181.209 65.6C180.369 66.632 179.949 68.108 179.949 70.028C179.949 71.924 180.369 73.4 181.209 74.456C182.049 75.488 183.189 76.004 184.629 76.004C186.669 76.004 188.001 75.092 188.625 73.268H194.061C193.509 75.428 192.417 77.144 190.785 78.416C189.153 79.688 187.113 80.324 184.665 80.324C182.745 80.324 181.041 79.904 179.553 79.064C178.065 78.2 176.901 77 176.061 75.464C175.221 73.904 174.801 72.092 174.801 70.028ZM203.622 64.196V73.844C203.622 74.516 203.778 75.008 204.09 75.32C204.426 75.608 204.978 75.752 205.746 75.752H208.086V80H204.918C200.67 80 198.546 77.936 198.546 73.808V64.196H196.17V60.056H198.546V55.124H203.622V60.056H208.086V64.196H203.622ZM229.433 64.196H225.941V80H220.829V64.196H218.561V60.056H220.829V59.048C220.829 56.6 221.525 54.8 222.917 53.648C224.309 52.496 226.409 51.956 229.217 52.028V56.276C227.993 56.252 227.141 56.456 226.661 56.888C226.181 57.32 225.941 58.1 225.941 59.228V60.056H229.433V64.196ZM235.255 57.68C234.367 57.68 233.623 57.404 233.023 56.852C232.447 56.276 232.159 55.568 232.159 54.728C232.159 53.888 232.447 53.192 233.023 52.64C233.623 52.064 234.367 51.776 235.255 51.776C236.143 51.776 236.875 52.064 237.451 52.64C238.051 53.192 238.351 53.888 238.351 54.728C238.351 55.568 238.051 56.276 237.451 56.852C236.875 57.404 236.143 57.68 235.255 57.68ZM237.739 60.056V80H232.699V60.056H237.739ZM247.758 63.152C248.406 62.096 249.246 61.268 250.278 60.668C251.334 60.068 252.534 59.768 253.878 59.768V65.06H252.546C250.962 65.06 249.762 65.432 248.946 66.176C248.154 66.92 247.758 68.216 247.758 70.064V80H242.718V60.056H247.758V63.152ZM264.905 80.324C263.273 80.324 261.809 80.036 260.513 79.46C259.217 78.86 258.185 78.056 257.417 77.048C256.673 76.04 256.265 74.924 256.193 73.7H261.269C261.365 74.468 261.737 75.104 262.385 75.608C263.057 76.112 263.885 76.364 264.869 76.364C265.829 76.364 266.573 76.172 267.101 75.788C267.653 75.404 267.929 74.912 267.929 74.312C267.929 73.664 267.593 73.184 266.921 72.872C266.273 72.536 265.229 72.176 263.789 71.792C262.301 71.432 261.077 71.06 260.117 70.676C259.181 70.292 258.365 69.704 257.669 68.912C256.997 68.12 256.661 67.052 256.661 65.708C256.661 64.604 256.973 63.596 257.597 62.684C258.245 61.772 259.157 61.052 260.333 60.524C261.533 59.996 262.937 59.732 264.545 59.732C266.921 59.732 268.817 60.332 270.233 61.532C271.649 62.708 272.429 64.304 272.573 66.32H267.749C267.677 65.528 267.341 64.904 266.741 64.448C266.165 63.968 265.385 63.728 264.401 63.728C263.489 63.728 262.781 63.896 262.277 64.232C261.797 64.568 261.557 65.036 261.557 65.636C261.557 66.308 261.893 66.824 262.565 67.184C263.237 67.52 264.281 67.868 265.697 68.228C267.137 68.588 268.325 68.96 269.261 69.344C270.197 69.728 271.001 70.328 271.673 71.144C272.369 71.936 272.729 72.992 272.753 74.312C272.753 75.464 272.429 76.496 271.781 77.408C271.157 78.32 270.245 79.04 269.045 79.568C267.869 80.072 266.489 80.324 264.905 80.324ZM282.758 64.196V73.844C282.758 74.516 282.914 75.008 283.226 75.32C283.562 75.608 284.114 75.752 284.882 75.752H287.222V80H284.054C279.806 80 277.682 77.936 277.682 73.808V64.196H275.306V60.056H277.682V55.124H282.758V60.056H287.222V64.196H282.758ZM314.761 65.024V69.272H299.497V65.024H314.761ZM341.952 80L336.408 70.208H334.032V80H328.992V54.872H338.424C340.368 54.872 342.024 55.22 343.392 55.916C344.76 56.588 345.78 57.512 346.452 58.688C347.148 59.84 347.496 61.136 347.496 62.576C347.496 64.232 347.016 65.732 346.056 67.076C345.096 68.396 343.668 69.308 341.772 69.812L347.784 80H341.952ZM334.032 66.428H338.244C339.612 66.428 340.632 66.104 341.304 65.456C341.976 64.784 342.312 63.86 342.312 62.684C342.312 61.532 341.976 60.644 341.304 60.02C340.632 59.372 339.612 59.048 338.244 59.048H334.032V66.428ZM350.758 69.956C350.758 67.94 351.154 66.152 351.946 64.592C352.762 63.032 353.854 61.832 355.222 60.992C356.614 60.152 358.162 59.732 359.866 59.732C361.354 59.732 362.65 60.032 363.754 60.632C364.882 61.232 365.782 61.988 366.454 62.9V60.056H371.53V80H366.454V77.084C365.806 78.02 364.906 78.8 363.754 79.424C362.626 80.024 361.318 80.324 359.83 80.324C358.15 80.324 356.614 79.892 355.222 79.028C353.854 78.164 352.762 76.952 351.946 75.392C351.154 73.808 350.758 71.996 350.758 69.956ZM366.454 70.028C366.454 68.804 366.214 67.76 365.734 66.896C365.254 66.008 364.606 65.336 363.79 64.88C362.974 64.4 362.098 64.16 361.162 64.16C360.226 64.16 359.362 64.388 358.57 64.844C357.778 65.3 357.13 65.972 356.626 66.86C356.146 67.724 355.906 68.756 355.906 69.956C355.906 71.156 356.146 72.212 356.626 73.124C357.13 74.012 357.778 74.696 358.57 75.176C359.386 75.656 360.25 75.896 361.162 75.896C362.098 75.896 362.974 75.668 363.79 75.212C364.606 74.732 365.254 74.06 365.734 73.196C366.214 72.308 366.454 71.252 366.454 70.028ZM387.505 59.768C389.881 59.768 391.801 60.524 393.265 62.036C394.729 63.524 395.461 65.612 395.461 68.3V80H390.421V68.984C390.421 67.4 390.025 66.188 389.233 65.348C388.441 64.484 387.361 64.052 385.993 64.052C384.601 64.052 383.497 64.484 382.681 65.348C381.889 66.188 381.493 67.4 381.493 68.984V80H376.453V60.056H381.493V62.54C382.165 61.676 383.017 61.004 384.049 60.524C385.105 60.02 386.257 59.768 387.505 59.768ZM408.066 59.732C409.554 59.732 410.862 60.032 411.99 60.632C413.118 61.208 414.006 61.964 414.654 62.9V60.056H419.73V80.144C419.73 81.992 419.358 83.636 418.614 85.076C417.87 86.54 416.754 87.692 415.266 88.532C413.778 89.396 411.978 89.828 409.866 89.828C407.034 89.828 404.706 89.168 402.882 87.848C401.082 86.528 400.062 84.728 399.822 82.448H404.826C405.09 83.36 405.654 84.08 406.518 84.608C407.406 85.16 408.474 85.436 409.722 85.436C411.186 85.436 412.374 84.992 413.286 84.104C414.198 83.24 414.654 81.92 414.654 80.144V77.048C414.006 77.984 413.106 78.764 411.954 79.388C410.826 80.012 409.53 80.324 408.066 80.324C406.386 80.324 404.85 79.892 403.458 79.028C402.066 78.164 400.962 76.952 400.146 75.392C399.354 73.808 398.958 71.996 398.958 69.956C398.958 67.94 399.354 66.152 400.146 64.592C400.962 63.032 402.054 61.832 403.422 60.992C404.814 60.152 406.362 59.732 408.066 59.732ZM414.654 70.028C414.654 68.804 414.414 67.76 413.934 66.896C413.454 66.008 412.806 65.336 411.99 64.88C411.174 64.4 410.298 64.16 409.362 64.16C408.426 64.16 407.562 64.388 406.77 64.844C405.978 65.3 405.33 65.972 404.826 66.86C404.346 67.724 404.106 68.756 404.106 69.956C404.106 71.156 404.346 72.212 404.826 73.124C405.33 74.012 405.978 74.696 406.77 75.176C407.586 75.656 408.45 75.896 409.362 75.896C410.298 75.896 411.174 75.668 411.99 75.212C412.806 74.732 413.454 74.06 413.934 73.196C414.414 72.308 414.654 71.252 414.654 70.028ZM443.192 69.596C443.192 70.316 443.144 70.964 443.048 71.54H428.468C428.588 72.98 429.092 74.108 429.98 74.924C430.868 75.74 431.96 76.148 433.256 76.148C435.128 76.148 436.46 75.344 437.252 73.736H442.688C442.112 75.656 441.008 77.24 439.376 78.488C437.744 79.712 435.74 80.324 433.364 80.324C431.444 80.324 429.716 79.904 428.18 79.064C426.668 78.2 425.48 76.988 424.616 75.428C423.776 73.868 423.356 72.068 423.356 70.028C423.356 67.964 423.776 66.152 424.616 64.592C425.456 63.032 426.632 61.832 428.144 60.992C429.656 60.152 431.396 59.732 433.364 59.732C435.26 59.732 436.952 60.14 438.44 60.956C439.952 61.772 441.116 62.936 441.932 64.448C442.772 65.936 443.192 67.652 443.192 69.596ZM437.972 68.156C437.948 66.86 437.48 65.828 436.568 65.06C435.656 64.268 434.54 63.872 433.22 63.872C431.972 63.872 430.916 64.256 430.052 65.024C429.212 65.768 428.696 66.812 428.504 68.156H437.972Z" fill="#0D0D0D"/>
<path d="M52.648 111.048C52.648 112.488 52.176 113.648 51.232 114.528C50.288 115.408 48.872 115.848 46.984 115.848H43.6V123H41.92V106.224H46.984C48.856 106.224 50.264 106.664 51.208 107.544C52.168 108.424 52.648 109.592 52.648 111.048ZM46.984 114.408C49.608 114.408 50.92 113.288 50.92 111.048C50.92 109.928 50.608 109.08 49.984 108.504C49.36 107.928 48.36 107.64 46.984 107.64H43.6V114.408H46.984ZM56.3069 107.424C55.9709 107.424 55.6829 107.304 55.4429 107.064C55.2029 106.824 55.0829 106.528 55.0829 106.176C55.0829 105.824 55.2029 105.536 55.4429 105.312C55.6829 105.072 55.9709 104.952 56.3069 104.952C56.6429 104.952 56.9309 105.072 57.1709 105.312C57.4109 105.536 57.5309 105.824 57.5309 106.176C57.5309 106.528 57.4109 106.824 57.1709 107.064C56.9309 107.304 56.6429 107.424 56.3069 107.424ZM57.1469 109.896V123H55.4669V109.896H57.1469ZM60.1833 116.448C60.1833 115.088 60.4553 113.904 60.9993 112.896C61.5433 111.872 62.2953 111.088 63.2553 110.544C64.2153 109.984 65.3113 109.704 66.5433 109.704C68.1593 109.704 69.4873 110.104 70.5273 110.904C71.5833 111.704 72.2633 112.792 72.5673 114.168H70.7673C70.5433 113.224 70.0553 112.488 69.3033 111.96C68.5673 111.416 67.6473 111.144 66.5433 111.144C65.6633 111.144 64.8713 111.344 64.1673 111.744C63.4633 112.144 62.9033 112.744 62.4873 113.544C62.0873 114.328 61.8873 115.296 61.8873 116.448C61.8873 117.6 62.0873 118.576 62.4873 119.376C62.9033 120.176 63.4633 120.776 64.1673 121.176C64.8713 121.576 65.6633 121.776 66.5433 121.776C67.6473 121.776 68.5673 121.512 69.3033 120.984C70.0553 120.44 70.5433 119.688 70.7673 118.728H72.5673C72.2633 120.072 71.5833 121.152 70.5273 121.968C69.4713 122.784 68.1433 123.192 66.5433 123.192C65.3113 123.192 64.2153 122.92 63.2553 122.376C62.2953 121.816 61.5433 121.032 60.9993 120.024C60.4553 119 60.1833 117.808 60.1833 116.448ZM82.75 123L77.35 117.12V123H75.67V105.24H77.35V115.752L82.63 109.896H84.982L78.766 116.424L85.03 123H82.75ZM95.9712 111.312V119.448C95.9712 120.248 96.1232 120.8 96.4272 121.104C96.7312 121.408 97.2672 121.56 98.0352 121.56H99.5712V123H97.7712C96.5872 123 95.7072 122.728 95.1312 122.184C94.5552 121.624 94.2672 120.712 94.2672 119.448V111.312H92.4432V109.896H94.2672V106.608H95.9712V109.896H99.5712V111.312H95.9712ZM108.582 109.656C109.574 109.656 110.462 109.864 111.246 110.28C112.046 110.696 112.67 111.336 113.118 112.2C113.582 113.048 113.814 114.088 113.814 115.32V123H112.158V115.512C112.158 114.088 111.798 113 111.078 112.248C110.374 111.496 109.406 111.12 108.174 111.12C106.91 111.12 105.902 111.52 105.15 112.32C104.398 113.12 104.022 114.296 104.022 115.848V123H102.342V105.24H104.022V112.128C104.438 111.344 105.046 110.736 105.846 110.304C106.662 109.872 107.574 109.656 108.582 109.656ZM129.385 115.776C129.385 116.352 129.369 116.792 129.337 117.096H118.465C118.513 118.088 118.753 118.936 119.185 119.64C119.617 120.344 120.185 120.88 120.889 121.248C121.593 121.6 122.361 121.776 123.193 121.776C124.281 121.776 125.193 121.512 125.929 120.984C126.681 120.456 127.177 119.744 127.417 118.848H129.193C128.873 120.128 128.185 121.176 127.129 121.992C126.089 122.792 124.777 123.192 123.193 123.192C121.961 123.192 120.857 122.92 119.881 122.376C118.905 121.816 118.137 121.032 117.577 120.024C117.033 119 116.761 117.808 116.761 116.448C116.761 115.088 117.033 113.896 117.577 112.872C118.121 111.848 118.881 111.064 119.857 110.52C120.833 109.976 121.945 109.704 123.193 109.704C124.441 109.704 125.529 109.976 126.457 110.52C127.401 111.064 128.121 111.8 128.617 112.728C129.129 113.64 129.385 114.656 129.385 115.776ZM127.681 115.728C127.697 114.752 127.497 113.92 127.081 113.232C126.681 112.544 126.129 112.024 125.425 111.672C124.721 111.32 123.953 111.144 123.121 111.144C121.873 111.144 120.809 111.544 119.929 112.344C119.049 113.144 118.561 114.272 118.465 115.728H127.681ZM140.701 112.776C141.117 111.896 141.773 111.168 142.669 110.592C143.581 110 144.661 109.704 145.909 109.704C147.093 109.704 148.157 109.984 149.101 110.544C150.061 111.088 150.805 111.872 151.333 112.896C151.877 113.904 152.149 115.08 152.149 116.424C152.149 117.768 151.877 118.952 151.333 119.976C150.805 121 150.061 121.792 149.101 122.352C148.157 122.912 147.093 123.192 145.909 123.192C144.677 123.192 143.605 122.904 142.693 122.328C141.781 121.736 141.117 121 140.701 120.12V129.192H139.045V109.896H140.701V112.776ZM150.445 116.424C150.445 115.336 150.229 114.4 149.797 113.616C149.381 112.816 148.805 112.208 148.069 111.792C147.333 111.376 146.501 111.168 145.573 111.168C144.677 111.168 143.853 111.384 143.101 111.816C142.365 112.248 141.781 112.864 141.349 113.664C140.917 114.464 140.701 115.392 140.701 116.448C140.701 117.504 140.917 118.432 141.349 119.232C141.781 120.032 142.365 120.648 143.101 121.08C143.853 121.512 144.677 121.728 145.573 121.728C146.501 121.728 147.333 121.52 148.069 121.104C148.805 120.672 149.381 120.056 149.797 119.256C150.229 118.44 150.445 117.496 150.445 116.424ZM156.92 112.224C157.288 111.408 157.848 110.776 158.6 110.328C159.368 109.88 160.304 109.656 161.408 109.656V111.408H160.952C159.736 111.408 158.76 111.736 158.024 112.392C157.288 113.048 156.92 114.144 156.92 115.68V123H155.24V109.896H156.92V112.224ZM169.672 123.192C168.44 123.192 167.328 122.92 166.336 122.376C165.36 121.816 164.584 121.032 164.008 120.024C163.448 119 163.168 117.808 163.168 116.448C163.168 115.088 163.456 113.904 164.032 112.896C164.608 111.872 165.392 111.088 166.384 110.544C167.376 109.984 168.488 109.704 169.72 109.704C170.952 109.704 172.064 109.984 173.056 110.544C174.064 111.088 174.848 111.872 175.408 112.896C175.984 113.904 176.272 115.088 176.272 116.448C176.272 117.792 175.984 118.976 175.408 120C174.832 121.024 174.04 121.816 173.032 122.376C172.024 122.92 170.904 123.192 169.672 123.192ZM169.672 121.728C170.536 121.728 171.336 121.536 172.072 121.152C172.808 120.752 173.4 120.16 173.848 119.376C174.312 118.576 174.544 117.6 174.544 116.448C174.544 115.296 174.32 114.328 173.872 113.544C173.424 112.744 172.832 112.152 172.096 111.768C171.36 111.368 170.56 111.168 169.696 111.168C168.832 111.168 168.032 111.368 167.296 111.768C166.56 112.152 165.968 112.744 165.52 113.544C165.088 114.328 164.872 115.296 164.872 116.448C164.872 117.6 165.088 118.576 165.52 119.376C165.968 120.16 166.552 120.752 167.272 121.152C168.008 121.536 168.808 121.728 169.672 121.728ZM178.566 116.424C178.566 115.08 178.838 113.904 179.382 112.896C179.926 111.872 180.67 111.088 181.614 110.544C182.574 109.984 183.654 109.704 184.854 109.704C186.006 109.704 187.046 109.984 187.974 110.544C188.902 111.104 189.582 111.832 190.014 112.728V105.24H191.694V123H190.014V120.072C189.614 120.984 188.958 121.736 188.046 122.328C187.134 122.904 186.062 123.192 184.83 123.192C183.63 123.192 182.55 122.912 181.59 122.352C180.646 121.792 179.902 121 179.358 119.976C178.83 118.952 178.566 117.768 178.566 116.424ZM190.014 116.448C190.014 115.392 189.798 114.464 189.366 113.664C188.934 112.864 188.342 112.248 187.59 111.816C186.854 111.384 186.038 111.168 185.142 111.168C184.214 111.168 183.382 111.376 182.646 111.792C181.91 112.208 181.326 112.816 180.894 113.616C180.478 114.4 180.27 115.336 180.27 116.424C180.27 117.496 180.478 118.44 180.894 119.256C181.326 120.056 181.91 120.672 182.646 121.104C183.382 121.52 184.214 121.728 185.142 121.728C186.038 121.728 186.854 121.512 187.59 121.08C188.342 120.648 188.934 120.032 189.366 119.232C189.798 118.432 190.014 117.504 190.014 116.448ZM206.881 109.896V123H205.201V120.696C204.817 121.512 204.225 122.136 203.425 122.568C202.625 123 201.729 123.216 200.737 123.216C199.169 123.216 197.889 122.736 196.897 121.776C195.905 120.8 195.409 119.392 195.409 117.552V109.896H197.065V117.36C197.065 118.784 197.417 119.872 198.121 120.624C198.841 121.376 199.817 121.752 201.049 121.752C202.313 121.752 203.321 121.352 204.073 120.552C204.825 119.752 205.201 118.576 205.201 117.024V109.896H206.881ZM209.949 116.448C209.949 115.088 210.221 113.904 210.765 112.896C211.309 111.872 212.061 111.088 213.021 110.544C213.981 109.984 215.077 109.704 216.309 109.704C217.925 109.704 219.253 110.104 220.293 110.904C221.349 111.704 222.029 112.792 222.333 114.168H220.533C220.309 113.224 219.821 112.488 219.069 111.96C218.333 111.416 217.413 111.144 216.309 111.144C215.429 111.144 214.637 111.344 213.933 111.744C213.229 112.144 212.669 112.744 212.253 113.544C211.853 114.328 211.653 115.296 211.653 116.448C211.653 117.6 211.853 118.576 212.253 119.376C212.669 120.176 213.229 120.776 213.933 121.176C214.637 121.576 215.429 121.776 216.309 121.776C217.413 121.776 218.333 121.512 219.069 120.984C219.821 120.44 220.309 119.688 220.533 118.728H222.333C222.029 120.072 221.349 121.152 220.293 121.968C219.237 122.784 217.909 123.192 216.309 123.192C215.077 123.192 213.981 122.92 213.021 122.376C212.061 121.816 211.309 121.032 210.765 120.024C210.221 119 209.949 117.808 209.949 116.448ZM227.62 111.312V119.448C227.62 120.248 227.772 120.8 228.076 121.104C228.38 121.408 228.916 121.56 229.684 121.56H231.22V123H229.42C228.236 123 227.356 122.728 226.78 122.184C226.204 121.624 225.916 120.712 225.916 119.448V111.312H224.092V109.896H225.916V106.608H227.62V109.896H231.22V111.312H227.62ZM245.736 111.312H242.688V123H241.008V111.312H239.184V109.896H241.008V108.984C241.008 107.56 241.368 106.512 242.088 105.84C242.824 105.168 244.008 104.832 245.64 104.832V106.272C244.552 106.272 243.784 106.48 243.336 106.896C242.904 107.312 242.688 108.008 242.688 108.984V109.896H245.736V111.312ZM247.613 116.424C247.613 115.08 247.877 113.904 248.405 112.896C248.949 111.872 249.693 111.088 250.637 110.544C251.597 109.984 252.677 109.704 253.877 109.704C255.125 109.704 256.197 109.992 257.093 110.568C258.005 111.144 258.661 111.88 259.061 112.776V109.896H260.741V123H259.061V120.096C258.645 120.992 257.981 121.736 257.069 122.328C256.173 122.904 255.101 123.192 253.853 123.192C252.669 123.192 251.597 122.912 250.637 122.352C249.693 121.792 248.949 121 248.405 119.976C247.877 118.952 247.613 117.768 247.613 116.424ZM259.061 116.448C259.061 115.392 258.845 114.464 258.413 113.664C257.981 112.864 257.389 112.248 256.637 111.816C255.901 111.384 255.085 111.168 254.189 111.168C253.261 111.168 252.429 111.376 251.693 111.792C250.957 112.208 250.373 112.816 249.941 113.616C249.525 114.4 249.317 115.336 249.317 116.424C249.317 117.496 249.525 118.44 249.941 119.256C250.373 120.056 250.957 120.672 251.693 121.104C252.429 121.52 253.261 121.728 254.189 121.728C255.085 121.728 255.901 121.512 256.637 121.08C257.389 120.648 257.981 120.032 258.413 119.232C258.845 118.432 259.061 117.504 259.061 116.448ZM280.176 109.656C281.712 109.656 282.96 110.144 283.92 111.12C284.896 112.08 285.384 113.48 285.384 115.32V123H283.728V115.512C283.728 114.088 283.384 113 282.696 112.248C282.008 111.496 281.072 111.12 279.888 111.12C278.656 111.12 277.672 111.528 276.936 112.344C276.2 113.16 275.832 114.344 275.832 115.896V123H274.176V115.512C274.176 114.088 273.832 113 273.144 112.248C272.456 111.496 271.512 111.12 270.312 111.12C269.08 111.12 268.096 111.528 267.36 112.344C266.624 113.16 266.256 114.344 266.256 115.896V123H264.576V109.896H266.256V112.152C266.672 111.336 267.264 110.72 268.032 110.304C268.8 109.872 269.656 109.656 270.6 109.656C271.736 109.656 272.728 109.928 273.576 110.472C274.44 111.016 275.064 111.816 275.448 112.872C275.8 111.832 276.4 111.04 277.248 110.496C278.112 109.936 279.088 109.656 280.176 109.656ZM289.955 107.424C289.619 107.424 289.331 107.304 289.091 107.064C288.851 106.824 288.731 106.528 288.731 106.176C288.731 105.824 288.851 105.536 289.091 105.312C289.331 105.072 289.619 104.952 289.955 104.952C290.291 104.952 290.579 105.072 290.819 105.312C291.059 105.536 291.179 105.824 291.179 106.176C291.179 106.528 291.059 106.824 290.819 107.064C290.579 107.304 290.291 107.424 289.955 107.424ZM290.795 109.896V123H289.115V109.896H290.795ZM296.28 105.24V123H294.6V105.24H296.28ZM310.884 109.896L303.108 129.168H301.356L303.9 122.928L298.524 109.896H300.372L304.836 121.08L309.156 109.896H310.884ZM314.698 120.216L312.202 126.504H311.05L312.826 120.216H314.698ZM326.081 111.312V119.448C326.081 120.248 326.233 120.8 326.537 121.104C326.841 121.408 327.377 121.56 328.145 121.56H329.681V123H327.881C326.697 123 325.817 122.728 325.241 122.184C324.665 121.624 324.377 120.712 324.377 119.448V111.312H322.553V109.896H324.377V106.608H326.081V109.896H329.681V111.312H326.081ZM338.691 109.656C339.683 109.656 340.571 109.864 341.355 110.28C342.155 110.696 342.779 111.336 343.227 112.2C343.691 113.048 343.923 114.088 343.923 115.32V123H342.267V115.512C342.267 114.088 341.907 113 341.187 112.248C340.483 111.496 339.515 111.12 338.283 111.12C337.019 111.12 336.011 111.52 335.259 112.32C334.507 113.12 334.131 114.296 334.131 115.848V123H332.451V105.24H334.131V112.128C334.547 111.344 335.155 110.736 335.955 110.304C336.771 109.872 337.683 109.656 338.691 109.656ZM359.495 115.776C359.495 116.352 359.479 116.792 359.447 117.096H348.575C348.623 118.088 348.863 118.936 349.295 119.64C349.727 120.344 350.295 120.88 350.999 121.248C351.703 121.6 352.471 121.776 353.303 121.776C354.391 121.776 355.303 121.512 356.039 120.984C356.791 120.456 357.287 119.744 357.527 118.848H359.303C358.983 120.128 358.295 121.176 357.239 121.992C356.199 122.792 354.887 123.192 353.303 123.192C352.071 123.192 350.967 122.92 349.991 122.376C349.015 121.816 348.247 121.032 347.687 120.024C347.143 119 346.871 117.808 346.871 116.448C346.871 115.088 347.143 113.896 347.687 112.872C348.231 111.848 348.991 111.064 349.967 110.52C350.943 109.976 352.055 109.704 353.303 109.704C354.551 109.704 355.639 109.976 356.567 110.52C357.511 111.064 358.231 111.8 358.727 112.728C359.239 113.64 359.495 114.656 359.495 115.776ZM357.791 115.728C357.807 114.752 357.607 113.92 357.191 113.232C356.791 112.544 356.239 112.024 355.535 111.672C354.831 111.32 354.063 111.144 353.231 111.144C351.983 111.144 350.919 111.544 350.039 112.344C349.159 113.144 348.671 114.272 348.575 115.728H357.791ZM368.712 109.656C370.28 109.656 371.56 110.144 372.552 111.12C373.544 112.08 374.04 113.48 374.04 115.32V123H372.384V115.512C372.384 114.088 372.024 113 371.304 112.248C370.6 111.496 369.632 111.12 368.4 111.12C367.136 111.12 366.128 111.52 365.376 112.32C364.624 113.12 364.248 114.296 364.248 115.848V123H362.568V109.896H364.248V112.128C364.664 111.328 365.264 110.72 366.048 110.304C366.832 109.872 367.72 109.656 368.712 109.656ZM386.526 111.312V119.448C386.526 120.248 386.678 120.8 386.982 121.104C387.286 121.408 387.822 121.56 388.59 121.56H390.126V123H388.326C387.142 123 386.262 122.728 385.686 122.184C385.11 121.624 384.822 120.712 384.822 119.448V111.312H382.998V109.896H384.822V106.608H386.526V109.896H390.126V111.312H386.526ZM399.137 109.656C400.129 109.656 401.017 109.864 401.801 110.28C402.601 110.696 403.225 111.336 403.673 112.2C404.137 113.048 404.369 114.088 404.369 115.32V123H402.713V115.512C402.713 114.088 402.353 113 401.633 112.248C400.929 111.496 399.961 111.12 398.729 111.12C397.465 111.12 396.457 111.52 395.705 112.32C394.953 113.12 394.577 114.296 394.577 115.848V123H392.897V105.24H394.577V112.128C394.993 111.344 395.601 110.736 396.401 110.304C397.217 109.872 398.129 109.656 399.137 109.656ZM419.94 115.776C419.94 116.352 419.924 116.792 419.892 117.096H409.02C409.068 118.088 409.308 118.936 409.74 119.64C410.172 120.344 410.74 120.88 411.444 121.248C412.148 121.6 412.916 121.776 413.748 121.776C414.836 121.776 415.748 121.512 416.484 120.984C417.236 120.456 417.732 119.744 417.972 118.848H419.748C419.428 120.128 418.74 121.176 417.684 121.992C416.644 122.792 415.332 123.192 413.748 123.192C412.516 123.192 411.412 122.92 410.436 122.376C409.46 121.816 408.692 121.032 408.132 120.024C407.588 119 407.316 117.808 407.316 116.448C407.316 115.088 407.588 113.896 408.132 112.872C408.676 111.848 409.436 111.064 410.412 110.52C411.388 109.976 412.5 109.704 413.748 109.704C414.996 109.704 416.084 109.976 417.012 110.52C417.956 111.064 418.676 111.8 419.172 112.728C419.684 113.64 419.94 114.656 419.94 115.776ZM418.236 115.728C418.252 114.752 418.052 113.92 417.636 113.232C417.236 112.544 416.684 112.024 415.98 111.672C415.276 111.32 414.508 111.144 413.676 111.144C412.428 111.144 411.364 111.544 410.484 112.344C409.604 113.144 409.116 114.272 409.02 115.728H418.236ZM435.84 109.656C436.832 109.656 437.72 109.864 438.504 110.28C439.304 110.696 439.928 111.336 440.376 112.2C440.84 113.048 441.072 114.088 441.072 115.32V123H439.416V115.512C439.416 114.088 439.056 113 438.336 112.248C437.632 111.496 436.664 111.12 435.432 111.12C434.168 111.12 433.16 111.52 432.408 112.32C431.656 113.12 431.28 114.296 431.28 115.848V123H429.6V105.24H431.28V112.128C431.696 111.344 432.304 110.736 433.104 110.304C433.92 109.872 434.832 109.656 435.84 109.656ZM456.643 115.776C456.643 116.352 456.627 116.792 456.595 117.096H445.723C445.771 118.088 446.011 118.936 446.443 119.64C446.875 120.344 447.443 120.88 448.147 121.248C448.851 121.6 449.619 121.776 450.451 121.776C451.539 121.776 452.451 121.512 453.187 120.984C453.939 120.456 454.435 119.744 454.675 118.848H456.451C456.131 120.128 455.443 121.176 454.387 121.992C453.347 122.792 452.035 123.192 450.451 123.192C449.219 123.192 448.115 122.92 447.139 122.376C446.163 121.816 445.395 121.032 444.835 120.024C444.291 119 444.019 117.808 444.019 116.448C444.019 115.088 444.291 113.896 444.835 112.872C445.379 111.848 446.139 111.064 447.115 110.52C448.091 109.976 449.203 109.704 450.451 109.704C451.699 109.704 452.787 109.976 453.715 110.52C454.659 111.064 455.379 111.8 455.875 112.728C456.387 113.64 456.643 114.656 456.643 115.776ZM454.939 115.728C454.955 114.752 454.755 113.92 454.339 113.232C453.939 112.544 453.387 112.024 452.683 111.672C451.979 111.32 451.211 111.144 450.379 111.144C449.131 111.144 448.067 111.544 447.187 112.344C446.307 113.144 445.819 114.272 445.723 115.728H454.939ZM461.397 105.24V123H459.717V105.24H461.397ZM466.857 112.776C467.273 111.896 467.929 111.168 468.825 110.592C469.737 110 470.817 109.704 472.065 109.704C473.249 109.704 474.313 109.984 475.257 110.544C476.217 111.088 476.961 111.872 477.489 112.896C478.033 113.904 478.305 115.08 478.305 116.424C478.305 117.768 478.033 118.952 477.489 119.976C476.961 121 476.217 121.792 475.257 122.352C474.313 122.912 473.249 123.192 472.065 123.192C470.833 123.192 469.761 122.904 468.849 122.328C467.937 121.736 467.273 121 466.857 120.12V129.192H465.201V109.896H466.857V112.776ZM476.601 116.424C476.601 115.336 476.385 114.4 475.953 113.616C475.537 112.816 474.961 112.208 474.225 111.792C473.489 111.376 472.657 111.168 471.729 111.168C470.833 111.168 470.009 111.384 469.257 111.816C468.521 112.248 467.937 112.864 467.505 113.664C467.073 114.464 466.857 115.392 466.857 116.448C466.857 117.504 467.073 118.432 467.505 119.232C467.937 120.032 468.521 120.648 469.257 121.08C470.009 121.512 470.833 121.728 471.729 121.728C472.657 121.728 473.489 121.52 474.225 121.104C474.961 120.672 475.537 120.056 475.953 119.256C476.385 118.44 476.601 117.496 476.601 116.424ZM481.685 123.12C481.333 123.12 481.037 123 480.797 122.76C480.573 122.52 480.461 122.224 480.461 121.872C480.461 121.52 480.573 121.232 480.797 121.008C481.037 120.768 481.333 120.648 481.685 120.648C482.021 120.648 482.301 120.768 482.525 121.008C482.765 121.232 482.885 121.52 482.885 121.872C482.885 122.224 482.765 122.52 482.525 122.76C482.301 123 482.021 123.12 481.685 123.12Z" fill="#0D0D0D"/>
<rect x="79" y="296" width="31" height="31" fill="#F4F1EC"/>
<rect x="79" y="370" width="31" height="31" fill="#F4F1EC"/>
<rect x="79" y="446" width="31" height="31" fill="#F4F1EC"/>
</svg>
