<svg width="550" height="559" viewBox="0 0 550 559" fill="none" xmlns="http://www.w3.org/2000/svg">
<rect width="550" height="559" rx="12" fill="#F4F1EC"/>
<rect x="63" y="208" width="423" height="51" rx="12" fill="#3A7D6B"/>
<rect x="63" y="284" width="423" height="51" rx="12" fill="white"/>
<rect x="63" y="360" width="423" height="51" rx="12" fill="white"/>
<rect x="63" y="436" width="423" height="51" rx="12" fill="white"/>
<path d="M97.1564 242.168C96.0524 242.168 95.0764 241.976 94.2284 241.592C93.3964 241.208 92.7404 240.672 92.2604 239.984C91.7804 239.296 91.5244 238.528 91.4924 237.68H93.2684C93.3484 238.496 93.7084 239.216 94.3484 239.84C94.9884 240.448 95.9244 240.752 97.1564 240.752C98.2924 240.752 99.1884 240.464 99.8444 239.888C100.516 239.296 100.852 238.552 100.852 237.656C100.852 236.936 100.668 236.36 100.3 235.928C99.9324 235.48 99.4764 235.152 98.9324 234.944C98.3884 234.72 97.6364 234.48 96.6764 234.224C95.5564 233.92 94.6684 233.624 94.0124 233.336C93.3564 233.048 92.7964 232.6 92.3324 231.992C91.8684 231.384 91.6364 230.56 91.6364 229.52C91.6364 228.656 91.8604 227.888 92.3084 227.216C92.7564 226.528 93.3884 225.992 94.2044 225.608C95.0204 225.224 95.9564 225.032 97.0124 225.032C98.5644 225.032 99.8124 225.416 100.756 226.184C101.716 226.936 102.268 227.912 102.412 229.112H100.588C100.476 228.424 100.1 227.816 99.4604 227.288C98.8204 226.744 97.9564 226.472 96.8684 226.472C95.8604 226.472 95.0204 226.744 94.3484 227.288C93.6764 227.816 93.3404 228.544 93.3404 229.472C93.3404 230.176 93.5244 230.744 93.8924 231.176C94.2604 231.608 94.7164 231.936 95.2604 232.16C95.8204 232.384 96.5724 232.624 97.5164 232.88C98.6044 233.184 99.4844 233.488 100.156 233.792C100.828 234.08 101.396 234.528 101.86 235.136C102.324 235.744 102.556 236.56 102.556 237.584C102.556 238.368 102.348 239.112 101.932 239.816C101.516 240.52 100.9 241.088 100.084 241.52C99.2684 241.952 98.2924 242.168 97.1564 242.168ZM117.155 228.896V242H115.475V239.696C115.091 240.512 114.499 241.136 113.699 241.568C112.899 242 112.003 242.216 111.011 242.216C109.443 242.216 108.163 241.736 107.171 240.776C106.179 239.8 105.683 238.392 105.683 236.552V228.896H107.339V236.36C107.339 237.784 107.691 238.872 108.395 239.624C109.115 240.376 110.091 240.752 111.323 240.752C112.587 240.752 113.595 240.352 114.347 239.552C115.099 238.752 115.475 237.576 115.475 236.024V228.896H117.155ZM122.646 231.776C123.062 230.896 123.718 230.168 124.614 229.592C125.526 229 126.606 228.704 127.854 228.704C129.038 228.704 130.102 228.984 131.046 229.544C132.006 230.088 132.75 230.872 133.278 231.896C133.822 232.904 134.094 234.08 134.094 235.424C134.094 236.768 133.822 237.952 133.278 238.976C132.75 240 132.006 240.792 131.046 241.352C130.102 241.912 129.038 242.192 127.854 242.192C126.622 242.192 125.55 241.904 124.638 241.328C123.726 240.736 123.062 240 122.646 239.12V248.192H120.99V228.896H122.646V231.776ZM132.39 235.424C132.39 234.336 132.174 233.4 131.742 232.616C131.326 231.816 130.75 231.208 130.014 230.792C129.278 230.376 128.446 230.168 127.518 230.168C126.622 230.168 125.798 230.384 125.046 230.816C124.31 231.248 123.726 231.864 123.294 232.664C122.862 233.464 122.646 234.392 122.646 235.448C122.646 236.504 122.862 237.432 123.294 238.232C123.726 239.032 124.31 239.648 125.046 240.08C125.798 240.512 126.622 240.728 127.518 240.728C128.446 240.728 129.278 240.52 130.014 240.104C130.75 239.672 131.326 239.056 131.742 238.256C132.174 237.44 132.39 236.496 132.39 235.424ZM138.842 231.776C139.258 230.896 139.914 230.168 140.81 229.592C141.722 229 142.802 228.704 144.05 228.704C145.234 228.704 146.298 228.984 147.242 229.544C148.202 230.088 148.946 230.872 149.474 231.896C150.018 232.904 150.29 234.08 150.29 235.424C150.29 236.768 150.018 237.952 149.474 238.976C148.946 240 148.202 240.792 147.242 241.352C146.298 241.912 145.234 242.192 144.05 242.192C142.818 242.192 141.746 241.904 140.834 241.328C139.922 240.736 139.258 240 138.842 239.12V248.192H137.186V228.896H138.842V231.776ZM148.586 235.424C148.586 234.336 148.37 233.4 147.938 232.616C147.522 231.816 146.946 231.208 146.21 230.792C145.474 230.376 144.642 230.168 143.714 230.168C142.818 230.168 141.994 230.384 141.242 230.816C140.506 231.248 139.922 231.864 139.49 232.664C139.058 233.464 138.842 234.392 138.842 235.448C138.842 236.504 139.058 237.432 139.49 238.232C139.922 239.032 140.506 239.648 141.242 240.08C141.994 240.512 142.818 240.728 143.714 240.728C144.642 240.728 145.474 240.52 146.21 240.104C146.946 239.672 147.522 239.056 147.938 238.256C148.37 237.44 148.586 236.496 148.586 235.424ZM159.117 242.192C157.885 242.192 156.773 241.92 155.781 241.376C154.805 240.816 154.029 240.032 153.453 239.024C152.893 238 152.613 236.808 152.613 235.448C152.613 234.088 152.901 232.904 153.477 231.896C154.053 230.872 154.837 230.088 155.829 229.544C156.821 228.984 157.933 228.704 159.165 228.704C160.397 228.704 161.509 228.984 162.501 229.544C163.509 230.088 164.293 230.872 164.853 231.896C165.429 232.904 165.717 234.088 165.717 235.448C165.717 236.792 165.429 237.976 164.853 239C164.277 240.024 163.485 240.816 162.477 241.376C161.469 241.92 160.349 242.192 159.117 242.192ZM159.117 240.728C159.981 240.728 160.781 240.536 161.517 240.152C162.253 239.752 162.845 239.16 163.293 238.376C163.757 237.576 163.989 236.6 163.989 235.448C163.989 234.296 163.765 233.328 163.317 232.544C162.869 231.744 162.277 231.152 161.541 230.768C160.805 230.368 160.005 230.168 159.141 230.168C158.277 230.168 157.477 230.368 156.741 230.768C156.005 231.152 155.413 231.744 154.965 232.544C154.533 233.328 154.317 234.296 154.317 235.448C154.317 236.6 154.533 237.576 154.965 238.376C155.413 239.16 155.997 239.752 156.717 240.152C157.453 240.536 158.253 240.728 159.117 240.728ZM170.459 231.224C170.827 230.408 171.387 229.776 172.139 229.328C172.907 228.88 173.843 228.656 174.947 228.656V230.408H174.491C173.275 230.408 172.299 230.736 171.563 231.392C170.827 232.048 170.459 233.144 170.459 234.68V242H168.779V228.896H170.459V231.224ZM179.659 230.312V238.448C179.659 239.248 179.811 239.8 180.115 240.104C180.419 240.408 180.955 240.56 181.723 240.56H183.259V242H181.459C180.275 242 179.395 241.728 178.819 241.184C178.243 240.624 177.955 239.712 177.955 238.448V230.312H176.131V228.896H177.955V225.608H179.659V228.896H183.259V230.312H179.659ZM205.071 225.224V242H203.391V234.152H194.295V242H192.615V225.224H194.295V232.76H203.391V225.224H205.071ZM214.64 242.192C213.408 242.192 212.296 241.92 211.304 241.376C210.328 240.816 209.552 240.032 208.976 239.024C208.416 238 208.136 236.808 208.136 235.448C208.136 234.088 208.424 232.904 209 231.896C209.576 230.872 210.36 230.088 211.352 229.544C212.344 228.984 213.456 228.704 214.688 228.704C215.92 228.704 217.032 228.984 218.024 229.544C219.032 230.088 219.816 230.872 220.376 231.896C220.952 232.904 221.24 234.088 221.24 235.448C221.24 236.792 220.952 237.976 220.376 239C219.8 240.024 219.008 240.816 218 241.376C216.992 241.92 215.872 242.192 214.64 242.192ZM214.64 240.728C215.504 240.728 216.304 240.536 217.04 240.152C217.776 239.752 218.368 239.16 218.816 238.376C219.28 237.576 219.512 236.6 219.512 235.448C219.512 234.296 219.288 233.328 218.84 232.544C218.392 231.744 217.8 231.152 217.064 230.768C216.328 230.368 215.528 230.168 214.664 230.168C213.8 230.168 213 230.368 212.264 230.768C211.528 231.152 210.936 231.744 210.488 232.544C210.056 233.328 209.84 234.296 209.84 235.448C209.84 236.6 210.056 237.576 210.488 238.376C210.936 239.16 211.52 239.752 212.24 240.152C212.976 240.536 213.776 240.728 214.64 240.728ZM239.903 228.656C241.439 228.656 242.687 229.144 243.647 230.12C244.623 231.08 245.111 232.48 245.111 234.32V242H243.455V234.512C243.455 233.088 243.111 232 242.423 231.248C241.735 230.496 240.799 230.12 239.615 230.12C238.383 230.12 237.399 230.528 236.663 231.344C235.927 232.16 235.559 233.344 235.559 234.896V242H233.903V234.512C233.903 233.088 233.559 232 232.871 231.248C232.183 230.496 231.239 230.12 230.039 230.12C228.807 230.12 227.823 230.528 227.087 231.344C226.351 232.16 225.983 233.344 225.983 234.896V242H224.303V228.896H225.983V231.152C226.399 230.336 226.991 229.72 227.759 229.304C228.527 228.872 229.383 228.656 230.327 228.656C231.463 228.656 232.455 228.928 233.303 229.472C234.167 230.016 234.791 230.816 235.175 231.872C235.527 230.832 236.127 230.04 236.975 229.496C237.839 228.936 238.815 228.656 239.903 228.656ZM260.698 234.776C260.698 235.352 260.682 235.792 260.65 236.096H249.778C249.826 237.088 250.066 237.936 250.498 238.64C250.93 239.344 251.498 239.88 252.202 240.248C252.906 240.6 253.674 240.776 254.506 240.776C255.594 240.776 256.506 240.512 257.242 239.984C257.994 239.456 258.49 238.744 258.73 237.848H260.506C260.186 239.128 259.498 240.176 258.442 240.992C257.402 241.792 256.09 242.192 254.506 242.192C253.274 242.192 252.17 241.92 251.194 241.376C250.218 240.816 249.45 240.032 248.89 239.024C248.346 238 248.074 236.808 248.074 235.448C248.074 234.088 248.346 232.896 248.89 231.872C249.434 230.848 250.194 230.064 251.17 229.52C252.146 228.976 253.258 228.704 254.506 228.704C255.754 228.704 256.842 228.976 257.77 229.52C258.714 230.064 259.434 230.8 259.93 231.728C260.442 232.64 260.698 233.656 260.698 234.776ZM258.994 234.728C259.01 233.752 258.81 232.92 258.394 232.232C257.994 231.544 257.442 231.024 256.738 230.672C256.034 230.32 255.266 230.144 254.434 230.144C253.186 230.144 252.122 230.544 251.242 231.344C250.362 232.144 249.874 233.272 249.778 234.728H258.994Z" fill="white"/>
<path d="M148.312 301.44V318H146.632V304.776L140.728 318H139.504L133.6 304.824V318H131.92V301.44H133.696L140.104 315.792L146.512 301.44H148.312ZM151.355 311.424C151.355 310.08 151.619 308.904 152.147 307.896C152.691 306.872 153.435 306.088 154.379 305.544C155.339 304.984 156.419 304.704 157.619 304.704C158.867 304.704 159.939 304.992 160.835 305.568C161.747 306.144 162.403 306.88 162.803 307.776V304.896H164.483V318H162.803V315.096C162.387 315.992 161.723 316.736 160.811 317.328C159.915 317.904 158.843 318.192 157.595 318.192C156.411 318.192 155.339 317.912 154.379 317.352C153.435 316.792 152.691 316 152.147 314.976C151.619 313.952 151.355 312.768 151.355 311.424ZM162.803 311.448C162.803 310.392 162.587 309.464 162.155 308.664C161.723 307.864 161.131 307.248 160.379 306.816C159.643 306.384 158.827 306.168 157.931 306.168C157.003 306.168 156.171 306.376 155.435 306.792C154.699 307.208 154.115 307.816 153.683 308.616C153.267 309.4 153.059 310.336 153.059 311.424C153.059 312.496 153.267 313.44 153.683 314.256C154.115 315.056 154.699 315.672 155.435 316.104C156.171 316.52 157.003 316.728 157.931 316.728C158.827 316.728 159.643 316.512 160.379 316.08C161.131 315.648 161.723 315.032 162.155 314.232C162.587 313.432 162.803 312.504 162.803 311.448ZM174.462 304.656C176.03 304.656 177.31 305.144 178.302 306.12C179.294 307.08 179.79 308.48 179.79 310.32V318H178.134V310.512C178.134 309.088 177.774 308 177.054 307.248C176.35 306.496 175.382 306.12 174.15 306.12C172.886 306.12 171.878 306.52 171.126 307.32C170.374 308.12 169.998 309.296 169.998 310.848V318H168.318V304.896H169.998V307.128C170.414 306.328 171.014 305.72 171.798 305.304C172.582 304.872 173.47 304.656 174.462 304.656ZM194.858 304.896V318H193.178V315.696C192.794 316.512 192.202 317.136 191.402 317.568C190.602 318 189.706 318.216 188.714 318.216C187.146 318.216 185.866 317.736 184.874 316.776C183.882 315.8 183.386 314.392 183.386 312.552V304.896H185.042V312.36C185.042 313.784 185.394 314.872 186.098 315.624C186.818 316.376 187.794 316.752 189.026 316.752C190.29 316.752 191.298 316.352 192.05 315.552C192.802 314.752 193.178 313.576 193.178 312.024V304.896H194.858ZM197.925 311.424C197.925 310.08 198.189 308.904 198.717 307.896C199.261 306.872 200.005 306.088 200.949 305.544C201.909 304.984 202.989 304.704 204.189 304.704C205.437 304.704 206.509 304.992 207.405 305.568C208.317 306.144 208.973 306.88 209.373 307.776V304.896H211.053V318H209.373V315.096C208.957 315.992 208.293 316.736 207.381 317.328C206.485 317.904 205.413 318.192 204.165 318.192C202.981 318.192 201.909 317.912 200.949 317.352C200.005 316.792 199.261 316 198.717 314.976C198.189 313.952 197.925 312.768 197.925 311.424ZM209.373 311.448C209.373 310.392 209.157 309.464 208.725 308.664C208.293 307.864 207.701 307.248 206.949 306.816C206.213 306.384 205.397 306.168 204.501 306.168C203.573 306.168 202.741 306.376 202.005 306.792C201.269 307.208 200.685 307.816 200.253 308.616C199.837 309.4 199.629 310.336 199.629 311.424C199.629 312.496 199.837 313.44 200.253 314.256C200.685 315.056 201.269 315.672 202.005 316.104C202.741 316.52 203.573 316.728 204.501 316.728C205.397 316.728 206.213 316.512 206.949 316.08C207.701 315.648 208.293 315.032 208.725 314.232C209.157 313.432 209.373 312.504 209.373 311.448ZM216.569 300.24V318H214.889V300.24H216.569ZM224.885 318.192C223.381 318.192 222.149 317.848 221.189 317.16C220.245 316.456 219.717 315.504 219.605 314.304H221.333C221.413 315.04 221.757 315.64 222.365 316.104C222.989 316.552 223.821 316.776 224.861 316.776C225.773 316.776 226.485 316.56 226.997 316.128C227.525 315.696 227.789 315.16 227.789 314.52C227.789 314.072 227.645 313.704 227.357 313.416C227.069 313.128 226.701 312.904 226.253 312.744C225.821 312.568 225.229 312.384 224.477 312.192C223.501 311.936 222.709 311.68 222.101 311.424C221.493 311.168 220.973 310.792 220.541 310.296C220.125 309.784 219.917 309.104 219.917 308.256C219.917 307.616 220.109 307.024 220.493 306.48C220.877 305.936 221.421 305.504 222.125 305.184C222.829 304.864 223.629 304.704 224.525 304.704C225.933 304.704 227.069 305.064 227.933 305.784C228.797 306.488 229.261 307.464 229.325 308.712H227.645C227.597 307.944 227.293 307.328 226.733 306.864C226.189 306.384 225.437 306.144 224.477 306.144C223.629 306.144 222.941 306.344 222.413 306.744C221.885 307.144 221.621 307.64 221.621 308.232C221.621 308.744 221.773 309.168 222.077 309.504C222.397 309.824 222.789 310.08 223.253 310.272C223.717 310.448 224.341 310.648 225.125 310.872C226.069 311.128 226.821 311.376 227.381 311.616C227.941 311.856 228.421 312.208 228.821 312.672C229.221 313.136 229.429 313.752 229.445 314.52C229.445 315.224 229.253 315.856 228.869 316.416C228.485 316.96 227.949 317.392 227.261 317.712C226.573 318.032 225.781 318.192 224.885 318.192ZM251.961 318L249.681 315.672C248.865 316.568 247.993 317.232 247.065 317.664C246.137 318.08 245.089 318.288 243.921 318.288C242.801 318.288 241.809 318.08 240.945 317.664C240.081 317.232 239.409 316.632 238.929 315.864C238.449 315.096 238.209 314.208 238.209 313.2C238.209 312.016 238.545 310.984 239.217 310.104C239.889 309.224 240.873 308.536 242.169 308.04C241.609 307.416 241.201 306.84 240.945 306.312C240.689 305.768 240.561 305.184 240.561 304.56C240.561 303.488 240.945 302.624 241.713 301.968C242.481 301.296 243.505 300.96 244.785 300.96C245.985 300.96 246.961 301.304 247.713 301.992C248.465 302.68 248.817 303.576 248.769 304.68H247.089C247.105 303.96 246.881 303.392 246.417 302.976C245.969 302.56 245.401 302.352 244.713 302.352C243.977 302.352 243.377 302.56 242.913 302.976C242.465 303.376 242.241 303.896 242.241 304.536C242.241 305.048 242.377 305.544 242.649 306.024C242.937 306.504 243.385 307.072 243.993 307.728L249.513 313.32C249.737 313.016 250.041 312.536 250.425 311.88L251.961 309.312H253.761L251.937 312.456C251.505 313.208 251.073 313.88 250.641 314.472L254.145 318H251.961ZM243.921 316.824C244.865 316.824 245.705 316.64 246.441 316.272C247.193 315.904 247.905 315.328 248.577 314.544L243.225 309.12C241.001 309.936 239.889 311.28 239.889 313.152C239.889 313.856 240.057 314.488 240.393 315.048C240.745 315.592 241.225 316.024 241.833 316.344C242.441 316.664 243.137 316.824 243.921 316.824ZM276.229 306.12C275.749 305.016 275.013 304.152 274.021 303.528C273.045 302.888 271.893 302.568 270.565 302.568C269.317 302.568 268.197 302.856 267.205 303.432C266.213 304.008 265.429 304.832 264.853 305.904C264.277 306.96 263.989 308.192 263.989 309.6C263.989 311.008 264.277 312.248 264.853 313.32C265.429 314.392 266.213 315.216 267.205 315.792C268.197 316.368 269.317 316.656 270.565 316.656C271.733 316.656 272.781 316.408 273.709 315.912C274.653 315.4 275.405 314.68 275.965 313.752C276.541 312.808 276.869 311.712 276.949 310.464H269.893V309.096H278.725V310.32C278.645 311.792 278.245 313.128 277.525 314.328C276.805 315.512 275.837 316.448 274.621 317.136C273.421 317.824 272.069 318.168 270.565 318.168C269.013 318.168 267.605 317.808 266.341 317.088C265.077 316.352 264.077 315.336 263.341 314.04C262.621 312.728 262.261 311.248 262.261 309.6C262.261 307.952 262.621 306.48 263.341 305.184C264.077 303.872 265.077 302.856 266.341 302.136C267.605 301.4 269.013 301.032 270.565 301.032C272.357 301.032 273.925 301.48 275.269 302.376C276.613 303.272 277.589 304.52 278.197 306.12H276.229ZM293.155 304.896V318H291.475V315.696C291.091 316.512 290.499 317.136 289.699 317.568C288.899 318 288.003 318.216 287.011 318.216C285.443 318.216 284.163 317.736 283.171 316.776C282.179 315.8 281.683 314.392 281.683 312.552V304.896H283.339V312.36C283.339 313.784 283.691 314.872 284.395 315.624C285.115 316.376 286.091 316.752 287.323 316.752C288.587 316.752 289.595 316.352 290.347 315.552C291.099 314.752 291.475 313.576 291.475 312.024V304.896H293.155ZM297.83 302.424C297.494 302.424 297.206 302.304 296.966 302.064C296.726 301.824 296.606 301.528 296.606 301.176C296.606 300.824 296.726 300.536 296.966 300.312C297.206 300.072 297.494 299.952 297.83 299.952C298.166 299.952 298.454 300.072 298.694 300.312C298.934 300.536 299.054 300.824 299.054 301.176C299.054 301.528 298.934 301.824 298.694 302.064C298.454 302.304 298.166 302.424 297.83 302.424ZM298.67 304.896V318H296.99V304.896H298.67ZM301.707 311.424C301.707 310.08 301.979 308.904 302.523 307.896C303.067 306.872 303.811 306.088 304.755 305.544C305.715 304.984 306.795 304.704 307.995 304.704C309.147 304.704 310.187 304.984 311.115 305.544C312.043 306.104 312.723 306.832 313.155 307.728V300.24H314.835V318H313.155V315.072C312.755 315.984 312.099 316.736 311.187 317.328C310.275 317.904 309.203 318.192 307.971 318.192C306.771 318.192 305.691 317.912 304.731 317.352C303.787 316.792 303.043 316 302.499 314.976C301.971 313.952 301.707 312.768 301.707 311.424ZM313.155 311.448C313.155 310.392 312.939 309.464 312.507 308.664C312.075 307.864 311.483 307.248 310.731 306.816C309.995 306.384 309.179 306.168 308.283 306.168C307.355 306.168 306.523 306.376 305.787 306.792C305.051 307.208 304.467 307.816 304.035 308.616C303.619 309.4 303.411 310.336 303.411 311.424C303.411 312.496 303.619 313.44 304.035 314.256C304.467 315.056 305.051 315.672 305.787 316.104C306.523 316.52 307.355 316.728 308.283 316.728C309.179 316.728 309.995 316.512 310.731 316.08C311.483 315.648 312.075 315.032 312.507 314.232C312.939 313.432 313.155 312.504 313.155 311.448ZM330.526 310.776C330.526 311.352 330.51 311.792 330.478 312.096H319.606C319.654 313.088 319.894 313.936 320.326 314.64C320.758 315.344 321.326 315.88 322.03 316.248C322.734 316.6 323.502 316.776 324.334 316.776C325.422 316.776 326.334 316.512 327.07 315.984C327.822 315.456 328.318 314.744 328.558 313.848H330.334C330.014 315.128 329.326 316.176 328.27 316.992C327.23 317.792 325.918 318.192 324.334 318.192C323.102 318.192 321.998 317.92 321.022 317.376C320.046 316.816 319.278 316.032 318.718 315.024C318.174 314 317.902 312.808 317.902 311.448C317.902 310.088 318.174 308.896 318.718 307.872C319.262 306.848 320.022 306.064 320.998 305.52C321.974 304.976 323.086 304.704 324.334 304.704C325.582 304.704 326.67 304.976 327.598 305.52C328.542 306.064 329.262 306.8 329.758 307.728C330.27 308.64 330.526 309.656 330.526 310.776ZM328.822 310.728C328.838 309.752 328.638 308.92 328.222 308.232C327.822 307.544 327.27 307.024 326.566 306.672C325.862 306.32 325.094 306.144 324.262 306.144C323.014 306.144 321.95 306.544 321.07 307.344C320.19 308.144 319.702 309.272 319.606 310.728H328.822ZM338.112 318.192C336.608 318.192 335.376 317.848 334.416 317.16C333.472 316.456 332.944 315.504 332.832 314.304H334.56C334.64 315.04 334.984 315.64 335.592 316.104C336.216 316.552 337.048 316.776 338.088 316.776C339 316.776 339.712 316.56 340.224 316.128C340.752 315.696 341.016 315.16 341.016 314.52C341.016 314.072 340.872 313.704 340.584 313.416C340.296 313.128 339.928 312.904 339.48 312.744C339.048 312.568 338.456 312.384 337.704 312.192C336.728 311.936 335.936 311.68 335.328 311.424C334.72 311.168 334.2 310.792 333.768 310.296C333.352 309.784 333.144 309.104 333.144 308.256C333.144 307.616 333.336 307.024 333.72 306.48C334.104 305.936 334.648 305.504 335.352 305.184C336.056 304.864 336.856 304.704 337.752 304.704C339.16 304.704 340.296 305.064 341.16 305.784C342.024 306.488 342.488 307.464 342.552 308.712H340.872C340.824 307.944 340.52 307.328 339.96 306.864C339.416 306.384 338.664 306.144 337.704 306.144C336.856 306.144 336.168 306.344 335.64 306.744C335.112 307.144 334.848 307.64 334.848 308.232C334.848 308.744 335 309.168 335.304 309.504C335.624 309.824 336.016 310.08 336.48 310.272C336.944 310.448 337.568 310.648 338.352 310.872C339.296 311.128 340.048 311.376 340.608 311.616C341.168 311.856 341.648 312.208 342.048 312.672C342.448 313.136 342.656 313.752 342.672 314.52C342.672 315.224 342.48 315.856 342.096 316.416C341.712 316.96 341.176 317.392 340.488 317.712C339.8 318.032 339.008 318.192 338.112 318.192Z" fill="#0D0D0D"/>
<path d="M137.008 394.168C135.904 394.168 134.928 393.976 134.08 393.592C133.248 393.208 132.592 392.672 132.112 391.984C131.632 391.296 131.376 390.528 131.344 389.68H133.12C133.2 390.496 133.56 391.216 134.2 391.84C134.84 392.448 135.776 392.752 137.008 392.752C138.144 392.752 139.04 392.464 139.696 391.888C140.368 391.296 140.704 390.552 140.704 389.656C140.704 388.936 140.52 388.36 140.152 387.928C139.784 387.48 139.328 387.152 138.784 386.944C138.24 386.72 137.488 386.48 136.528 386.224C135.408 385.92 134.52 385.624 133.864 385.336C133.208 385.048 132.648 384.6 132.184 383.992C131.72 383.384 131.488 382.56 131.488 381.52C131.488 380.656 131.712 379.888 132.16 379.216C132.608 378.528 133.24 377.992 134.056 377.608C134.872 377.224 135.808 377.032 136.864 377.032C138.416 377.032 139.664 377.416 140.608 378.184C141.568 378.936 142.12 379.912 142.264 381.112H140.44C140.328 380.424 139.952 379.816 139.312 379.288C138.672 378.744 137.808 378.472 136.72 378.472C135.712 378.472 134.872 378.744 134.2 379.288C133.528 379.816 133.192 380.544 133.192 381.472C133.192 382.176 133.376 382.744 133.744 383.176C134.112 383.608 134.568 383.936 135.112 384.16C135.672 384.384 136.424 384.624 137.368 384.88C138.456 385.184 139.336 385.488 140.008 385.792C140.68 386.08 141.248 386.528 141.712 387.136C142.176 387.744 142.408 388.56 142.408 389.584C142.408 390.368 142.2 391.112 141.784 391.816C141.368 392.52 140.752 393.088 139.936 393.52C139.12 393.952 138.144 394.168 137.008 394.168ZM147.31 383.776C147.726 382.896 148.382 382.168 149.278 381.592C150.19 381 151.27 380.704 152.518 380.704C153.702 380.704 154.766 380.984 155.71 381.544C156.67 382.088 157.414 382.872 157.942 383.896C158.486 384.904 158.758 386.08 158.758 387.424C158.758 388.768 158.486 389.952 157.942 390.976C157.414 392 156.67 392.792 155.71 393.352C154.766 393.912 153.702 394.192 152.518 394.192C151.286 394.192 150.214 393.904 149.302 393.328C148.39 392.736 147.726 392 147.31 391.12V400.192H145.654V380.896H147.31V383.776ZM157.054 387.424C157.054 386.336 156.838 385.4 156.406 384.616C155.99 383.816 155.414 383.208 154.678 382.792C153.942 382.376 153.11 382.168 152.182 382.168C151.286 382.168 150.462 382.384 149.71 382.816C148.974 383.248 148.39 383.864 147.958 384.664C147.526 385.464 147.31 386.392 147.31 387.448C147.31 388.504 147.526 389.432 147.958 390.232C148.39 391.032 148.974 391.648 149.71 392.08C150.462 392.512 151.286 392.728 152.182 392.728C153.11 392.728 153.942 392.52 154.678 392.104C155.414 391.672 155.99 391.056 156.406 390.256C156.838 389.44 157.054 388.496 157.054 387.424ZM161.082 387.424C161.082 386.08 161.346 384.904 161.874 383.896C162.418 382.872 163.162 382.088 164.106 381.544C165.066 380.984 166.146 380.704 167.346 380.704C168.594 380.704 169.666 380.992 170.562 381.568C171.474 382.144 172.13 382.88 172.53 383.776V380.896H174.21V394H172.53V391.096C172.114 391.992 171.45 392.736 170.538 393.328C169.642 393.904 168.57 394.192 167.322 394.192C166.138 394.192 165.066 393.912 164.106 393.352C163.162 392.792 162.418 392 161.874 390.976C161.346 389.952 161.082 388.768 161.082 387.424ZM172.53 387.448C172.53 386.392 172.314 385.464 171.882 384.664C171.45 383.864 170.858 383.248 170.106 382.816C169.37 382.384 168.554 382.168 167.658 382.168C166.73 382.168 165.898 382.376 165.162 382.792C164.426 383.208 163.842 383.816 163.41 384.616C162.994 385.4 162.786 386.336 162.786 387.424C162.786 388.496 162.994 389.44 163.41 390.256C163.842 391.056 164.426 391.672 165.162 392.104C165.898 392.52 166.73 392.728 167.658 392.728C168.554 392.728 169.37 392.512 170.106 392.08C170.858 391.648 171.45 391.032 171.882 390.232C172.314 389.432 172.53 388.504 172.53 387.448ZM179.725 383.224C180.093 382.408 180.653 381.776 181.405 381.328C182.173 380.88 183.109 380.656 184.213 380.656V382.408H183.757C182.541 382.408 181.565 382.736 180.829 383.392C180.093 384.048 179.725 385.144 179.725 386.68V394H178.045V380.896H179.725V383.224ZM198.596 386.776C198.596 387.352 198.58 387.792 198.548 388.096H187.676C187.724 389.088 187.964 389.936 188.396 390.64C188.828 391.344 189.396 391.88 190.1 392.248C190.804 392.6 191.572 392.776 192.404 392.776C193.492 392.776 194.404 392.512 195.14 391.984C195.892 391.456 196.388 390.744 196.628 389.848H198.404C198.084 391.128 197.396 392.176 196.34 392.992C195.3 393.792 193.988 394.192 192.404 394.192C191.172 394.192 190.068 393.92 189.092 393.376C188.116 392.816 187.348 392.032 186.788 391.024C186.244 390 185.972 388.808 185.972 387.448C185.972 386.088 186.244 384.896 186.788 383.872C187.332 382.848 188.092 382.064 189.068 381.52C190.044 380.976 191.156 380.704 192.404 380.704C193.652 380.704 194.74 380.976 195.668 381.52C196.612 382.064 197.332 382.8 197.828 383.728C198.34 384.64 198.596 385.656 198.596 386.776ZM196.892 386.728C196.908 385.752 196.708 384.92 196.292 384.232C195.892 383.544 195.34 383.024 194.636 382.672C193.932 382.32 193.164 382.144 192.332 382.144C191.084 382.144 190.02 382.544 189.14 383.344C188.26 384.144 187.772 385.272 187.676 386.728H196.892ZM209.912 383.776C210.328 382.896 210.984 382.168 211.88 381.592C212.792 381 213.872 380.704 215.12 380.704C216.304 380.704 217.368 380.984 218.312 381.544C219.272 382.088 220.016 382.872 220.544 383.896C221.088 384.904 221.36 386.08 221.36 387.424C221.36 388.768 221.088 389.952 220.544 390.976C220.016 392 219.272 392.792 218.312 393.352C217.368 393.912 216.304 394.192 215.12 394.192C213.888 394.192 212.816 393.904 211.904 393.328C210.992 392.736 210.328 392 209.912 391.12V400.192H208.256V380.896H209.912V383.776ZM219.656 387.424C219.656 386.336 219.44 385.4 219.008 384.616C218.592 383.816 218.016 383.208 217.28 382.792C216.544 382.376 215.712 382.168 214.784 382.168C213.888 382.168 213.064 382.384 212.312 382.816C211.576 383.248 210.992 383.864 210.56 384.664C210.128 385.464 209.912 386.392 209.912 387.448C209.912 388.504 210.128 389.432 210.56 390.232C210.992 391.032 211.576 391.648 212.312 392.08C213.064 392.512 213.888 392.728 214.784 392.728C215.712 392.728 216.544 392.52 217.28 392.104C218.016 391.672 218.592 391.056 219.008 390.256C219.44 389.44 219.656 388.496 219.656 387.424ZM223.683 387.424C223.683 386.08 223.947 384.904 224.475 383.896C225.019 382.872 225.763 382.088 226.707 381.544C227.667 380.984 228.747 380.704 229.947 380.704C231.195 380.704 232.267 380.992 233.163 381.568C234.075 382.144 234.731 382.88 235.131 383.776V380.896H236.811V394H235.131V391.096C234.715 391.992 234.051 392.736 233.139 393.328C232.243 393.904 231.171 394.192 229.923 394.192C228.739 394.192 227.667 393.912 226.707 393.352C225.763 392.792 225.019 392 224.475 390.976C223.947 389.952 223.683 388.768 223.683 387.424ZM235.131 387.448C235.131 386.392 234.915 385.464 234.483 384.664C234.051 383.864 233.459 383.248 232.707 382.816C231.971 382.384 231.155 382.168 230.259 382.168C229.331 382.168 228.499 382.376 227.763 382.792C227.027 383.208 226.443 383.816 226.011 384.616C225.595 385.4 225.387 386.336 225.387 387.424C225.387 388.496 225.595 389.44 226.011 390.256C226.443 391.056 227.027 391.672 227.763 392.104C228.499 392.52 229.331 392.728 230.259 392.728C231.155 392.728 231.971 392.512 232.707 392.08C233.459 391.648 234.051 391.032 234.483 390.232C234.915 389.432 235.131 388.504 235.131 387.448ZM242.327 383.224C242.695 382.408 243.255 381.776 244.007 381.328C244.775 380.88 245.711 380.656 246.815 380.656V382.408H246.359C245.143 382.408 244.167 382.736 243.431 383.392C242.695 384.048 242.327 385.144 242.327 386.68V394H240.647V380.896H242.327V383.224ZM251.526 382.312V390.448C251.526 391.248 251.678 391.8 251.982 392.104C252.286 392.408 252.822 392.56 253.59 392.56H255.126V394H253.326C252.142 394 251.262 393.728 250.686 393.184C250.11 392.624 249.822 391.712 249.822 390.448V382.312H247.998V380.896H249.822V377.608H251.526V380.896H255.126V382.312H251.526ZM262.409 394.192C260.905 394.192 259.673 393.848 258.713 393.16C257.769 392.456 257.241 391.504 257.129 390.304H258.857C258.937 391.04 259.281 391.64 259.889 392.104C260.513 392.552 261.345 392.776 262.385 392.776C263.297 392.776 264.009 392.56 264.521 392.128C265.049 391.696 265.313 391.16 265.313 390.52C265.313 390.072 265.169 389.704 264.881 389.416C264.593 389.128 264.225 388.904 263.777 388.744C263.345 388.568 262.753 388.384 262.001 388.192C261.025 387.936 260.233 387.68 259.625 387.424C259.017 387.168 258.497 386.792 258.065 386.296C257.649 385.784 257.441 385.104 257.441 384.256C257.441 383.616 257.633 383.024 258.017 382.48C258.401 381.936 258.945 381.504 259.649 381.184C260.353 380.864 261.153 380.704 262.049 380.704C263.457 380.704 264.593 381.064 265.457 381.784C266.321 382.488 266.785 383.464 266.849 384.712H265.169C265.121 383.944 264.817 383.328 264.257 382.864C263.713 382.384 262.961 382.144 262.001 382.144C261.153 382.144 260.465 382.344 259.937 382.744C259.409 383.144 259.145 383.64 259.145 384.232C259.145 384.744 259.297 385.168 259.601 385.504C259.921 385.824 260.313 386.08 260.777 386.272C261.241 386.448 261.865 386.648 262.649 386.872C263.593 387.128 264.345 387.376 264.905 387.616C265.465 387.856 265.945 388.208 266.345 388.672C266.745 389.136 266.953 389.752 266.969 390.52C266.969 391.224 266.777 391.856 266.393 392.416C266.009 392.96 265.473 393.392 264.785 393.712C264.097 394.032 263.305 394.192 262.409 394.192Z" fill="#0D0D0D"/>
<path d="M141.736 453.224V454.616H137.08V470H135.4V454.616H130.72V453.224H141.736ZM146.069 459.224C146.437 458.408 146.997 457.776 147.749 457.328C148.517 456.88 149.453 456.656 150.557 456.656V458.408H150.101C148.885 458.408 147.909 458.736 147.173 459.392C146.437 460.048 146.069 461.144 146.069 462.68V470H144.389V456.896H146.069V459.224ZM152.316 463.424C152.316 462.08 152.58 460.904 153.108 459.896C153.652 458.872 154.396 458.088 155.34 457.544C156.3 456.984 157.38 456.704 158.58 456.704C159.828 456.704 160.9 456.992 161.796 457.568C162.708 458.144 163.364 458.88 163.764 459.776V456.896H165.444V470H163.764V467.096C163.348 467.992 162.684 468.736 161.772 469.328C160.876 469.904 159.804 470.192 158.556 470.192C157.372 470.192 156.3 469.912 155.34 469.352C154.396 468.792 153.652 468 153.108 466.976C152.58 465.952 152.316 464.768 152.316 463.424ZM163.764 463.448C163.764 462.392 163.548 461.464 163.116 460.664C162.684 459.864 162.092 459.248 161.34 458.816C160.604 458.384 159.788 458.168 158.892 458.168C157.964 458.168 157.132 458.376 156.396 458.792C155.66 459.208 155.076 459.816 154.644 460.616C154.228 461.4 154.02 462.336 154.02 463.424C154.02 464.496 154.228 465.44 154.644 466.256C155.076 467.056 155.66 467.672 156.396 468.104C157.132 468.52 157.964 468.728 158.892 468.728C159.788 468.728 160.604 468.512 161.34 468.08C162.092 467.648 162.684 467.032 163.116 466.232C163.548 465.432 163.764 464.504 163.764 463.448ZM170.935 459.8C171.367 458.888 172.031 458.144 172.927 457.568C173.839 456.992 174.911 456.704 176.143 456.704C177.343 456.704 178.415 456.984 179.359 457.544C180.303 458.088 181.039 458.872 181.567 459.896C182.111 460.904 182.383 462.08 182.383 463.424C182.383 464.768 182.111 465.952 181.567 466.976C181.039 468 180.295 468.792 179.335 469.352C178.391 469.912 177.327 470.192 176.143 470.192C174.895 470.192 173.815 469.912 172.903 469.352C172.007 468.776 171.351 468.032 170.935 467.12V470H169.279V452.24H170.935V459.8ZM180.679 463.424C180.679 462.336 180.463 461.4 180.031 460.616C179.615 459.816 179.039 459.208 178.303 458.792C177.567 458.376 176.735 458.168 175.807 458.168C174.911 458.168 174.087 458.384 173.335 458.816C172.599 459.248 172.015 459.864 171.583 460.664C171.151 461.464 170.935 462.392 170.935 463.448C170.935 464.504 171.151 465.432 171.583 466.232C172.015 467.032 172.599 467.648 173.335 468.08C174.087 468.512 174.911 468.728 175.807 468.728C176.735 468.728 177.567 468.52 178.303 468.104C179.039 467.672 179.615 467.056 180.031 466.256C180.463 465.44 180.679 464.496 180.679 463.424ZM187.155 452.24V470H185.475V452.24H187.155ZM202.815 462.776C202.815 463.352 202.799 463.792 202.767 464.096H191.895C191.943 465.088 192.183 465.936 192.615 466.64C193.047 467.344 193.615 467.88 194.319 468.248C195.023 468.6 195.791 468.776 196.623 468.776C197.711 468.776 198.623 468.512 199.359 467.984C200.111 467.456 200.607 466.744 200.847 465.848H202.623C202.303 467.128 201.615 468.176 200.559 468.992C199.519 469.792 198.207 470.192 196.623 470.192C195.391 470.192 194.287 469.92 193.311 469.376C192.335 468.816 191.567 468.032 191.007 467.024C190.463 466 190.191 464.808 190.191 463.448C190.191 462.088 190.463 460.896 191.007 459.872C191.551 458.848 192.311 458.064 193.287 457.52C194.263 456.976 195.375 456.704 196.623 456.704C197.871 456.704 198.959 456.976 199.887 457.52C200.831 458.064 201.551 458.8 202.047 459.728C202.559 460.64 202.815 461.656 202.815 462.776ZM201.111 462.728C201.127 461.752 200.927 460.92 200.511 460.232C200.111 459.544 199.559 459.024 198.855 458.672C198.151 458.32 197.383 458.144 196.551 458.144C195.303 458.144 194.239 458.544 193.359 459.344C192.479 460.144 191.991 461.272 191.895 462.728H201.111ZM210.401 470.192C208.897 470.192 207.665 469.848 206.705 469.16C205.761 468.456 205.233 467.504 205.121 466.304H206.849C206.929 467.04 207.273 467.64 207.881 468.104C208.505 468.552 209.337 468.776 210.377 468.776C211.289 468.776 212.001 468.56 212.513 468.128C213.041 467.696 213.305 467.16 213.305 466.52C213.305 466.072 213.161 465.704 212.873 465.416C212.585 465.128 212.217 464.904 211.769 464.744C211.337 464.568 210.745 464.384 209.993 464.192C209.017 463.936 208.225 463.68 207.617 463.424C207.009 463.168 206.489 462.792 206.057 462.296C205.641 461.784 205.433 461.104 205.433 460.256C205.433 459.616 205.625 459.024 206.009 458.48C206.393 457.936 206.937 457.504 207.641 457.184C208.345 456.864 209.145 456.704 210.041 456.704C211.449 456.704 212.585 457.064 213.449 457.784C214.313 458.488 214.777 459.464 214.841 460.712H213.161C213.113 459.944 212.809 459.328 212.249 458.864C211.705 458.384 210.953 458.144 209.993 458.144C209.145 458.144 208.457 458.344 207.929 458.744C207.401 459.144 207.137 459.64 207.137 460.232C207.137 460.744 207.289 461.168 207.593 461.504C207.913 461.824 208.305 462.08 208.769 462.272C209.233 462.448 209.857 462.648 210.641 462.872C211.585 463.128 212.337 463.376 212.897 463.616C213.457 463.856 213.937 464.208 214.337 464.672C214.737 465.136 214.945 465.752 214.961 466.52C214.961 467.224 214.769 467.856 214.385 468.416C214.001 468.96 213.465 469.392 212.777 469.712C212.089 470.032 211.297 470.192 210.401 470.192ZM224.363 456.656C225.355 456.656 226.243 456.864 227.027 457.28C227.827 457.696 228.451 458.336 228.899 459.2C229.363 460.048 229.595 461.088 229.595 462.32V470H227.939V462.512C227.939 461.088 227.579 460 226.859 459.248C226.155 458.496 225.187 458.12 223.955 458.12C222.691 458.12 221.683 458.52 220.931 459.32C220.179 460.12 219.803 461.296 219.803 462.848V470H218.123V452.24H219.803V459.128C220.219 458.344 220.827 457.736 221.627 457.304C222.443 456.872 223.355 456.656 224.363 456.656ZM239.047 470.192C237.815 470.192 236.703 469.92 235.711 469.376C234.735 468.816 233.959 468.032 233.383 467.024C232.823 466 232.543 464.808 232.543 463.448C232.543 462.088 232.831 460.904 233.407 459.896C233.983 458.872 234.767 458.088 235.759 457.544C236.751 456.984 237.863 456.704 239.095 456.704C240.327 456.704 241.439 456.984 242.431 457.544C243.439 458.088 244.223 458.872 244.783 459.896C245.359 460.904 245.647 462.088 245.647 463.448C245.647 464.792 245.359 465.976 244.783 467C244.207 468.024 243.415 468.816 242.407 469.376C241.399 469.92 240.279 470.192 239.047 470.192ZM239.047 468.728C239.911 468.728 240.711 468.536 241.447 468.152C242.183 467.752 242.775 467.16 243.223 466.376C243.687 465.576 243.919 464.6 243.919 463.448C243.919 462.296 243.695 461.328 243.247 460.544C242.799 459.744 242.207 459.152 241.471 458.768C240.735 458.368 239.935 458.168 239.071 458.168C238.207 458.168 237.407 458.368 236.671 458.768C235.935 459.152 235.343 459.744 234.895 460.544C234.463 461.328 234.247 462.296 234.247 463.448C234.247 464.6 234.463 465.576 234.895 466.376C235.343 467.16 235.927 467.752 236.647 468.152C237.383 468.536 238.183 468.728 239.047 468.728ZM254.445 470.192C253.213 470.192 252.101 469.92 251.109 469.376C250.133 468.816 249.357 468.032 248.781 467.024C248.221 466 247.941 464.808 247.941 463.448C247.941 462.088 248.229 460.904 248.805 459.896C249.381 458.872 250.165 458.088 251.157 457.544C252.149 456.984 253.261 456.704 254.493 456.704C255.725 456.704 256.837 456.984 257.829 457.544C258.837 458.088 259.621 458.872 260.181 459.896C260.757 460.904 261.045 462.088 261.045 463.448C261.045 464.792 260.757 465.976 260.181 467C259.605 468.024 258.813 468.816 257.805 469.376C256.797 469.92 255.677 470.192 254.445 470.192ZM254.445 468.728C255.309 468.728 256.109 468.536 256.845 468.152C257.581 467.752 258.173 467.16 258.621 466.376C259.085 465.576 259.317 464.6 259.317 463.448C259.317 462.296 259.093 461.328 258.645 460.544C258.197 459.744 257.605 459.152 256.869 458.768C256.133 458.368 255.333 458.168 254.469 458.168C253.605 458.168 252.805 458.368 252.069 458.768C251.333 459.152 250.741 459.744 250.293 460.544C249.861 461.328 249.645 462.296 249.645 463.448C249.645 464.6 249.861 465.576 250.293 466.376C250.741 467.16 251.325 467.752 252.045 468.152C252.781 468.536 253.581 468.728 254.445 468.728ZM266.292 458.312V466.448C266.292 467.248 266.444 467.8 266.748 468.104C267.052 468.408 267.588 468.56 268.355 468.56H269.892V470H268.092C266.908 470 266.028 469.728 265.452 469.184C264.876 468.624 264.588 467.712 264.588 466.448V458.312H262.764V456.896H264.588V453.608H266.292V456.896H269.892V458.312H266.292ZM273.502 454.424C273.166 454.424 272.878 454.304 272.638 454.064C272.398 453.824 272.278 453.528 272.278 453.176C272.278 452.824 272.398 452.536 272.638 452.312C272.878 452.072 273.166 451.952 273.502 451.952C273.838 451.952 274.126 452.072 274.366 452.312C274.606 452.536 274.726 452.824 274.726 453.176C274.726 453.528 274.606 453.824 274.366 454.064C274.126 454.304 273.838 454.424 273.502 454.424ZM274.342 456.896V470H272.662V456.896H274.342ZM284.291 456.656C285.859 456.656 287.139 457.144 288.131 458.12C289.123 459.08 289.619 460.48 289.619 462.32V470H287.963V462.512C287.963 461.088 287.603 460 286.883 459.248C286.179 458.496 285.211 458.12 283.979 458.12C282.715 458.12 281.707 458.52 280.955 459.32C280.203 460.12 279.827 461.296 279.827 462.848V470H278.147V456.896H279.827V459.128C280.243 458.328 280.843 457.72 281.627 457.304C282.411 456.872 283.299 456.656 284.291 456.656ZM298.83 456.704C300.062 456.704 301.134 456.992 302.046 457.568C302.958 458.144 303.614 458.872 304.014 459.752V456.896H305.694V470.336C305.694 471.536 305.43 472.6 304.902 473.528C304.39 474.456 303.67 475.168 302.742 475.664C301.814 476.176 300.758 476.432 299.574 476.432C297.894 476.432 296.494 476.032 295.374 475.232C294.27 474.432 293.582 473.344 293.31 471.968H294.966C295.254 472.88 295.798 473.608 296.598 474.152C297.414 474.696 298.406 474.968 299.574 474.968C300.422 474.968 301.182 474.784 301.854 474.416C302.526 474.064 303.054 473.536 303.438 472.832C303.822 472.128 304.014 471.296 304.014 470.336V467.096C303.598 467.992 302.934 468.736 302.022 469.328C301.126 469.904 300.062 470.192 298.83 470.192C297.63 470.192 296.55 469.912 295.59 469.352C294.646 468.792 293.902 468 293.358 466.976C292.83 465.952 292.566 464.768 292.566 463.424C292.566 462.08 292.83 460.904 293.358 459.896C293.902 458.872 294.646 458.088 295.59 457.544C296.55 456.984 297.63 456.704 298.83 456.704ZM304.014 463.448C304.014 462.392 303.798 461.464 303.366 460.664C302.934 459.864 302.342 459.248 301.59 458.816C300.854 458.384 300.038 458.168 299.142 458.168C298.214 458.168 297.382 458.376 296.646 458.792C295.91 459.208 295.326 459.816 294.894 460.616C294.478 461.4 294.27 462.336 294.27 463.424C294.27 464.496 294.478 465.44 294.894 466.256C295.326 467.056 295.91 467.672 296.646 468.104C297.382 468.52 298.214 468.728 299.142 468.728C300.038 468.728 300.854 468.512 301.59 468.08C302.342 467.648 302.934 467.032 303.366 466.232C303.798 465.432 304.014 464.504 304.014 463.448Z" fill="#0D0D0D"/>
<path d="M54.91 74.51H46.57L45.19 78.5H40.78L48.31 57.53H53.2L60.73 78.5H56.29L54.91 74.51ZM53.77 71.15L50.74 62.39L47.71 71.15H53.77Z" fill="#1F5C4D"/>
<path d="M79.16 80.252C77.408 80.252 75.824 79.952 74.408 79.352C73.016 78.752 71.912 77.888 71.096 76.76C70.28 75.632 69.86 74.3 69.836 72.764H75.236C75.308 73.796 75.668 74.612 76.316 75.212C76.988 75.812 77.9 76.112 79.052 76.112C80.228 76.112 81.152 75.836 81.824 75.284C82.496 74.708 82.832 73.964 82.832 73.052C82.832 72.308 82.604 71.696 82.148 71.216C81.692 70.736 81.116 70.364 80.42 70.1C79.748 69.812 78.812 69.5 77.612 69.164C75.98 68.684 74.648 68.216 73.616 67.76C72.608 67.28 71.732 66.572 70.988 65.636C70.268 64.676 69.908 63.404 69.908 61.82C69.908 60.332 70.28 59.036 71.024 57.932C71.768 56.828 72.812 55.988 74.156 55.412C75.5 54.812 77.036 54.512 78.764 54.512C81.356 54.512 83.456 55.148 85.064 56.42C86.696 57.668 87.596 59.42 87.764 61.676H82.22C82.172 60.812 81.8 60.104 81.104 59.552C80.432 58.976 79.532 58.688 78.404 58.688C77.42 58.688 76.628 58.94 76.028 59.444C75.452 59.948 75.164 60.68 75.164 61.64C75.164 62.312 75.38 62.876 75.812 63.332C76.268 63.764 76.82 64.124 77.468 64.412C78.14 64.676 79.076 64.988 80.276 65.348C81.908 65.828 83.24 66.308 84.272 66.788C85.304 67.268 86.192 67.988 86.936 68.948C87.68 69.908 88.052 71.168 88.052 72.728C88.052 74.072 87.704 75.32 87.008 76.472C86.312 77.624 85.292 78.548 83.948 79.244C82.604 79.916 81.008 80.252 79.16 80.252ZM110.962 69.596C110.962 70.316 110.914 70.964 110.818 71.54H96.2375C96.3575 72.98 96.8615 74.108 97.7495 74.924C98.6375 75.74 99.7295 76.148 101.026 76.148C102.898 76.148 104.23 75.344 105.022 73.736H110.458C109.882 75.656 108.778 77.24 107.146 78.488C105.514 79.712 103.51 80.324 101.134 80.324C99.2135 80.324 97.4855 79.904 95.9495 79.064C94.4375 78.2 93.2495 76.988 92.3855 75.428C91.5455 73.868 91.1255 72.068 91.1255 70.028C91.1255 67.964 91.5455 66.152 92.3855 64.592C93.2255 63.032 94.4015 61.832 95.9135 60.992C97.4255 60.152 99.1655 59.732 101.134 59.732C103.03 59.732 104.722 60.14 106.21 60.956C107.722 61.772 108.886 62.936 109.702 64.448C110.542 65.936 110.962 67.652 110.962 69.596ZM105.742 68.156C105.718 66.86 105.25 65.828 104.338 65.06C103.426 64.268 102.31 63.872 100.99 63.872C99.7415 63.872 98.6855 64.256 97.8215 65.024C96.9815 65.768 96.4655 66.812 96.2735 68.156H105.742ZM119.68 63.152C120.328 62.096 121.168 61.268 122.2 60.668C123.256 60.068 124.456 59.768 125.8 59.768V65.06H124.468C122.884 65.06 121.684 65.432 120.868 66.176C120.076 66.92 119.68 68.216 119.68 70.064V80H114.64V60.056H119.68V63.152ZM137.511 75.356L142.551 60.056H147.915L140.535 80H134.415L127.071 60.056H132.471L137.511 75.356ZM153.302 57.68C152.414 57.68 151.67 57.404 151.07 56.852C150.494 56.276 150.206 55.568 150.206 54.728C150.206 53.888 150.494 53.192 151.07 52.64C151.67 52.064 152.414 51.776 153.302 51.776C154.19 51.776 154.922 52.064 155.498 52.64C156.098 53.192 156.398 53.888 156.398 54.728C156.398 55.568 156.098 56.276 155.498 56.852C154.922 57.404 154.19 57.68 153.302 57.68ZM155.786 60.056V80H150.746V60.056H155.786ZM159.469 70.028C159.469 67.964 159.889 66.164 160.729 64.628C161.569 63.068 162.733 61.868 164.221 61.028C165.709 60.164 167.413 59.732 169.333 59.732C171.805 59.732 173.845 60.356 175.453 61.604C177.085 62.828 178.177 64.556 178.729 66.788H173.293C173.005 65.924 172.513 65.252 171.817 64.772C171.145 64.268 170.305 64.016 169.297 64.016C167.857 64.016 166.717 64.544 165.877 65.6C165.037 66.632 164.617 68.108 164.617 70.028C164.617 71.924 165.037 73.4 165.877 74.456C166.717 75.488 167.857 76.004 169.297 76.004C171.337 76.004 172.669 75.092 173.293 73.268H178.729C178.177 75.428 177.085 77.144 175.453 78.416C173.821 79.688 171.781 80.324 169.333 80.324C167.413 80.324 165.709 79.904 164.221 79.064C162.733 78.2 161.569 77 160.729 75.464C159.889 73.904 159.469 72.092 159.469 70.028ZM200.962 69.596C200.962 70.316 200.914 70.964 200.818 71.54H186.238C186.358 72.98 186.862 74.108 187.75 74.924C188.638 75.74 189.73 76.148 191.026 76.148C192.898 76.148 194.23 75.344 195.022 73.736H200.458C199.882 75.656 198.778 77.24 197.146 78.488C195.514 79.712 193.51 80.324 191.134 80.324C189.214 80.324 187.486 79.904 185.95 79.064C184.438 78.2 183.25 76.988 182.386 75.428C181.546 73.868 181.125 72.068 181.125 70.028C181.125 67.964 181.546 66.152 182.386 64.592C183.226 63.032 184.402 61.832 185.914 60.992C187.426 60.152 189.166 59.732 191.134 59.732C193.03 59.732 194.722 60.14 196.21 60.956C197.722 61.772 198.886 62.936 199.702 64.448C200.542 65.936 200.962 67.652 200.962 69.596ZM195.742 68.156C195.718 66.86 195.25 65.828 194.338 65.06C193.426 64.268 192.31 63.872 190.99 63.872C189.742 63.872 188.686 64.256 187.822 65.024C186.982 65.768 186.466 66.812 186.274 68.156H195.742ZM222.362 64.196H218.87V80H213.758V64.196H211.49V60.056H213.758V59.048C213.758 56.6 214.454 54.8 215.846 53.648C217.238 52.496 219.338 51.956 222.146 52.028V56.276C220.922 56.252 220.07 56.456 219.59 56.888C219.11 57.32 218.87 58.1 218.87 59.228V60.056H222.362V64.196ZM228.185 57.68C227.297 57.68 226.553 57.404 225.953 56.852C225.377 56.276 225.089 55.568 225.089 54.728C225.089 53.888 225.377 53.192 225.953 52.64C226.553 52.064 227.297 51.776 228.185 51.776C229.073 51.776 229.805 52.064 230.381 52.64C230.981 53.192 231.281 53.888 231.281 54.728C231.281 55.568 230.981 56.276 230.381 56.852C229.805 57.404 229.073 57.68 228.185 57.68ZM230.669 60.056V80H225.629V60.056H230.669ZM240.688 63.152C241.336 62.096 242.176 61.268 243.208 60.668C244.264 60.068 245.464 59.768 246.808 59.768V65.06H245.476C243.892 65.06 242.692 65.432 241.876 66.176C241.084 66.92 240.688 68.216 240.688 70.064V80H235.648V60.056H240.688V63.152ZM257.835 80.324C256.203 80.324 254.739 80.036 253.443 79.46C252.147 78.86 251.115 78.056 250.347 77.048C249.603 76.04 249.195 74.924 249.123 73.7H254.199C254.295 74.468 254.667 75.104 255.315 75.608C255.987 76.112 256.815 76.364 257.799 76.364C258.759 76.364 259.503 76.172 260.031 75.788C260.583 75.404 260.859 74.912 260.859 74.312C260.859 73.664 260.523 73.184 259.851 72.872C259.203 72.536 258.159 72.176 256.719 71.792C255.231 71.432 254.007 71.06 253.047 70.676C252.111 70.292 251.295 69.704 250.599 68.912C249.927 68.12 249.591 67.052 249.591 65.708C249.591 64.604 249.903 63.596 250.527 62.684C251.175 61.772 252.087 61.052 253.263 60.524C254.463 59.996 255.867 59.732 257.475 59.732C259.851 59.732 261.747 60.332 263.163 61.532C264.579 62.708 265.359 64.304 265.503 66.32H260.679C260.607 65.528 260.271 64.904 259.671 64.448C259.095 63.968 258.315 63.728 257.331 63.728C256.419 63.728 255.711 63.896 255.207 64.232C254.727 64.568 254.487 65.036 254.487 65.636C254.487 66.308 254.823 66.824 255.495 67.184C256.167 67.52 257.211 67.868 258.627 68.228C260.067 68.588 261.255 68.96 262.191 69.344C263.127 69.728 263.931 70.328 264.603 71.144C265.299 71.936 265.659 72.992 265.683 74.312C265.683 75.464 265.359 76.496 264.711 77.408C264.087 78.32 263.175 79.04 261.975 79.568C260.799 80.072 259.419 80.324 257.835 80.324ZM275.688 64.196V73.844C275.688 74.516 275.844 75.008 276.156 75.32C276.492 75.608 277.044 75.752 277.812 75.752H280.152V80H276.984C272.736 80 270.612 77.936 270.612 73.808V64.196H268.236V60.056H270.612V55.124H275.688V60.056H280.152V64.196H275.688Z" fill="#0D0D0D"/>
<path d="M52.648 111.048C52.648 112.488 52.176 113.648 51.232 114.528C50.288 115.408 48.872 115.848 46.984 115.848H43.6V123H41.92V106.224H46.984C48.856 106.224 50.264 106.664 51.208 107.544C52.168 108.424 52.648 109.592 52.648 111.048ZM46.984 114.408C49.608 114.408 50.92 113.288 50.92 111.048C50.92 109.928 50.608 109.08 49.984 108.504C49.36 107.928 48.36 107.64 46.984 107.64H43.6V114.408H46.984ZM56.3069 107.424C55.9709 107.424 55.6829 107.304 55.4429 107.064C55.2029 106.824 55.0829 106.528 55.0829 106.176C55.0829 105.824 55.2029 105.536 55.4429 105.312C55.6829 105.072 55.9709 104.952 56.3069 104.952C56.6429 104.952 56.9309 105.072 57.1709 105.312C57.4109 105.536 57.5309 105.824 57.5309 106.176C57.5309 106.528 57.4109 106.824 57.1709 107.064C56.9309 107.304 56.6429 107.424 56.3069 107.424ZM57.1469 109.896V123H55.4669V109.896H57.1469ZM60.1833 116.448C60.1833 115.088 60.4553 113.904 60.9993 112.896C61.5433 111.872 62.2953 111.088 63.2553 110.544C64.2153 109.984 65.3113 109.704 66.5433 109.704C68.1593 109.704 69.4873 110.104 70.5273 110.904C71.5833 111.704 72.2633 112.792 72.5673 114.168H70.7673C70.5433 113.224 70.0553 112.488 69.3033 111.96C68.5673 111.416 67.6473 111.144 66.5433 111.144C65.6633 111.144 64.8713 111.344 64.1673 111.744C63.4633 112.144 62.9033 112.744 62.4873 113.544C62.0873 114.328 61.8873 115.296 61.8873 116.448C61.8873 117.6 62.0873 118.576 62.4873 119.376C62.9033 120.176 63.4633 120.776 64.1673 121.176C64.8713 121.576 65.6633 121.776 66.5433 121.776C67.6473 121.776 68.5673 121.512 69.3033 120.984C70.0553 120.44 70.5433 119.688 70.7673 118.728H72.5673C72.2633 120.072 71.5833 121.152 70.5273 121.968C69.4713 122.784 68.1433 123.192 66.5433 123.192C65.3113 123.192 64.2153 122.92 63.2553 122.376C62.2953 121.816 61.5433 121.032 60.9993 120.024C60.4553 119 60.1833 117.808 60.1833 116.448ZM82.75 123L77.35 117.12V123H75.67V105.24H77.35V115.752L82.63 109.896H84.982L78.766 116.424L85.03 123H82.75ZM95.9712 111.312V119.448C95.9712 120.248 96.1232 120.8 96.4272 121.104C96.7312 121.408 97.2672 121.56 98.0352 121.56H99.5712V123H97.7712C96.5872 123 95.7072 122.728 95.1312 122.184C94.5552 121.624 94.2672 120.712 94.2672 119.448V111.312H92.4432V109.896H94.2672V106.608H95.9712V109.896H99.5712V111.312H95.9712ZM108.582 109.656C109.574 109.656 110.462 109.864 111.246 110.28C112.046 110.696 112.67 111.336 113.118 112.2C113.582 113.048 113.814 114.088 113.814 115.32V123H112.158V115.512C112.158 114.088 111.798 113 111.078 112.248C110.374 111.496 109.406 111.12 108.174 111.12C106.91 111.12 105.902 111.52 105.15 112.32C104.398 113.12 104.022 114.296 104.022 115.848V123H102.342V105.24H104.022V112.128C104.438 111.344 105.046 110.736 105.846 110.304C106.662 109.872 107.574 109.656 108.582 109.656ZM129.385 115.776C129.385 116.352 129.369 116.792 129.337 117.096H118.465C118.513 118.088 118.753 118.936 119.185 119.64C119.617 120.344 120.185 120.88 120.889 121.248C121.593 121.6 122.361 121.776 123.193 121.776C124.281 121.776 125.193 121.512 125.929 120.984C126.681 120.456 127.177 119.744 127.417 118.848H129.193C128.873 120.128 128.185 121.176 127.129 121.992C126.089 122.792 124.777 123.192 123.193 123.192C121.961 123.192 120.857 122.92 119.881 122.376C118.905 121.816 118.137 121.032 117.577 120.024C117.033 119 116.761 117.808 116.761 116.448C116.761 115.088 117.033 113.896 117.577 112.872C118.121 111.848 118.881 111.064 119.857 110.52C120.833 109.976 121.945 109.704 123.193 109.704C124.441 109.704 125.529 109.976 126.457 110.52C127.401 111.064 128.121 111.8 128.617 112.728C129.129 113.64 129.385 114.656 129.385 115.776ZM127.681 115.728C127.697 114.752 127.497 113.92 127.081 113.232C126.681 112.544 126.129 112.024 125.425 111.672C124.721 111.32 123.953 111.144 123.121 111.144C121.873 111.144 120.809 111.544 119.929 112.344C119.049 113.144 118.561 114.272 118.465 115.728H127.681ZM141.229 111.312V119.448C141.229 120.248 141.381 120.8 141.685 121.104C141.989 121.408 142.525 121.56 143.293 121.56H144.829V123H143.029C141.845 123 140.965 122.728 140.389 122.184C139.813 121.624 139.525 120.712 139.525 119.448V111.312H137.701V109.896H139.525V106.608H141.229V109.896H144.829V111.312H141.229ZM158.4 109.896L150.624 129.168H148.872L151.416 122.928L146.04 109.896H147.888L152.352 121.08L156.672 109.896H158.4ZM162.334 112.776C162.75 111.896 163.406 111.168 164.302 110.592C165.214 110 166.294 109.704 167.542 109.704C168.726 109.704 169.79 109.984 170.734 110.544C171.694 111.088 172.438 111.872 172.966 112.896C173.51 113.904 173.782 115.08 173.782 116.424C173.782 117.768 173.51 118.952 172.966 119.976C172.438 121 171.694 121.792 170.734 122.352C169.79 122.912 168.726 123.192 167.542 123.192C166.31 123.192 165.238 122.904 164.326 122.328C163.414 121.736 162.75 121 162.334 120.12V129.192H160.678V109.896H162.334V112.776ZM172.078 116.424C172.078 115.336 171.862 114.4 171.43 113.616C171.014 112.816 170.438 112.208 169.702 111.792C168.966 111.376 168.134 111.168 167.206 111.168C166.31 111.168 165.486 111.384 164.734 111.816C163.998 112.248 163.414 112.864 162.982 113.664C162.55 114.464 162.334 115.392 162.334 116.448C162.334 117.504 162.55 118.432 162.982 119.232C163.414 120.032 163.998 120.648 164.734 121.08C165.486 121.512 166.31 121.728 167.206 121.728C168.134 121.728 168.966 121.52 169.702 121.104C170.438 120.672 171.014 120.056 171.43 119.256C171.862 118.44 172.078 117.496 172.078 116.424ZM188.729 115.776C188.729 116.352 188.713 116.792 188.681 117.096H177.809C177.857 118.088 178.097 118.936 178.529 119.64C178.961 120.344 179.529 120.88 180.233 121.248C180.937 121.6 181.705 121.776 182.537 121.776C183.625 121.776 184.537 121.512 185.273 120.984C186.025 120.456 186.521 119.744 186.761 118.848H188.537C188.217 120.128 187.529 121.176 186.473 121.992C185.433 122.792 184.121 123.192 182.537 123.192C181.305 123.192 180.201 122.92 179.225 122.376C178.249 121.816 177.481 121.032 176.921 120.024C176.377 119 176.105 117.808 176.105 116.448C176.105 115.088 176.377 113.896 176.921 112.872C177.465 111.848 178.225 111.064 179.201 110.52C180.177 109.976 181.289 109.704 182.537 109.704C183.785 109.704 184.873 109.976 185.801 110.52C186.745 111.064 187.465 111.8 187.961 112.728C188.473 113.64 188.729 114.656 188.729 115.776ZM187.025 115.728C187.041 114.752 186.841 113.92 186.425 113.232C186.025 112.544 185.473 112.024 184.769 111.672C184.065 111.32 183.297 111.144 182.465 111.144C181.217 111.144 180.153 111.544 179.273 112.344C178.393 113.144 177.905 114.272 177.809 115.728H187.025ZM204.125 123.192C202.893 123.192 201.781 122.92 200.789 122.376C199.813 121.816 199.037 121.032 198.461 120.024C197.901 119 197.621 117.808 197.621 116.448C197.621 115.088 197.909 113.904 198.485 112.896C199.061 111.872 199.845 111.088 200.837 110.544C201.829 109.984 202.941 109.704 204.173 109.704C205.405 109.704 206.517 109.984 207.509 110.544C208.517 111.088 209.301 111.872 209.861 112.896C210.437 113.904 210.725 115.088 210.725 116.448C210.725 117.792 210.437 118.976 209.861 120C209.285 121.024 208.493 121.816 207.485 122.376C206.477 122.92 205.357 123.192 204.125 123.192ZM204.125 121.728C204.989 121.728 205.789 121.536 206.525 121.152C207.261 120.752 207.853 120.16 208.301 119.376C208.765 118.576 208.997 117.6 208.997 116.448C208.997 115.296 208.773 114.328 208.325 113.544C207.877 112.744 207.285 112.152 206.549 111.768C205.813 111.368 205.013 111.168 204.149 111.168C203.285 111.168 202.485 111.368 201.749 111.768C201.013 112.152 200.421 112.744 199.973 113.544C199.541 114.328 199.325 115.296 199.325 116.448C199.325 117.6 199.541 118.576 199.973 119.376C200.421 120.16 201.005 120.752 201.725 121.152C202.461 121.536 203.261 121.728 204.125 121.728ZM218.947 111.312H215.899V123H214.219V111.312H212.395V109.896H214.219V108.984C214.219 107.56 214.579 106.512 215.299 105.84C216.035 105.168 217.219 104.832 218.851 104.832V106.272C217.763 106.272 216.995 106.48 216.547 106.896C216.115 107.312 215.899 108.008 215.899 108.984V109.896H218.947V111.312ZM234.418 109.656C235.41 109.656 236.298 109.864 237.082 110.28C237.882 110.696 238.506 111.336 238.954 112.2C239.418 113.048 239.65 114.088 239.65 115.32V123H237.994V115.512C237.994 114.088 237.634 113 236.914 112.248C236.21 111.496 235.242 111.12 234.01 111.12C232.746 111.12 231.738 111.52 230.986 112.32C230.234 113.12 229.858 114.296 229.858 115.848V123H228.178V105.24H229.858V112.128C230.274 111.344 230.882 110.736 231.682 110.304C232.498 109.872 233.41 109.656 234.418 109.656ZM255.221 115.776C255.221 116.352 255.205 116.792 255.173 117.096H244.301C244.349 118.088 244.589 118.936 245.021 119.64C245.453 120.344 246.021 120.88 246.725 121.248C247.429 121.6 248.197 121.776 249.029 121.776C250.117 121.776 251.029 121.512 251.765 120.984C252.517 120.456 253.013 119.744 253.253 118.848H255.029C254.709 120.128 254.021 121.176 252.965 121.992C251.925 122.792 250.613 123.192 249.029 123.192C247.797 123.192 246.693 122.92 245.717 122.376C244.741 121.816 243.973 121.032 243.413 120.024C242.869 119 242.597 117.808 242.597 116.448C242.597 115.088 242.869 113.896 243.413 112.872C243.957 111.848 244.717 111.064 245.693 110.52C246.669 109.976 247.781 109.704 249.029 109.704C250.277 109.704 251.365 109.976 252.293 110.52C253.237 111.064 253.957 111.8 254.453 112.728C254.965 113.64 255.221 114.656 255.221 115.776ZM253.517 115.728C253.533 114.752 253.333 113.92 252.917 113.232C252.517 112.544 251.965 112.024 251.261 111.672C250.557 111.32 249.789 111.144 248.957 111.144C247.709 111.144 246.645 111.544 245.765 112.344C244.885 113.144 244.397 114.272 244.301 115.728H253.517ZM259.975 105.24V123H258.295V105.24H259.975ZM265.435 112.776C265.851 111.896 266.507 111.168 267.403 110.592C268.315 110 269.395 109.704 270.643 109.704C271.827 109.704 272.891 109.984 273.835 110.544C274.795 111.088 275.539 111.872 276.067 112.896C276.611 113.904 276.883 115.08 276.883 116.424C276.883 117.768 276.611 118.952 276.067 119.976C275.539 121 274.795 121.792 273.835 122.352C272.891 122.912 271.827 123.192 270.643 123.192C269.411 123.192 268.339 122.904 267.427 122.328C266.515 121.736 265.851 121 265.435 120.12V129.192H263.779V109.896H265.435V112.776ZM275.179 116.424C275.179 115.336 274.963 114.4 274.531 113.616C274.115 112.816 273.539 112.208 272.803 111.792C272.067 111.376 271.235 111.168 270.307 111.168C269.411 111.168 268.587 111.384 267.835 111.816C267.099 112.248 266.515 112.864 266.083 113.664C265.651 114.464 265.435 115.392 265.435 116.448C265.435 117.504 265.651 118.432 266.083 119.232C266.515 120.032 267.099 120.648 267.835 121.08C268.587 121.512 269.411 121.728 270.307 121.728C271.235 121.728 272.067 121.52 272.803 121.104C273.539 120.672 274.115 120.056 274.531 119.256C274.963 118.44 275.179 117.496 275.179 116.424ZM281.511 120.216L279.015 126.504H277.863L279.639 120.216H281.511ZM292.893 111.312V119.448C292.893 120.248 293.045 120.8 293.349 121.104C293.653 121.408 294.189 121.56 294.957 121.56H296.493V123H294.693C293.509 123 292.629 122.728 292.053 122.184C291.477 121.624 291.189 120.712 291.189 119.448V111.312H289.365V109.896H291.189V106.608H292.893V109.896H296.493V111.312H292.893ZM305.504 109.656C306.496 109.656 307.384 109.864 308.168 110.28C308.968 110.696 309.592 111.336 310.04 112.2C310.504 113.048 310.736 114.088 310.736 115.32V123H309.08V115.512C309.08 114.088 308.72 113 308 112.248C307.296 111.496 306.328 111.12 305.096 111.12C303.832 111.12 302.824 111.52 302.072 112.32C301.32 113.12 300.944 114.296 300.944 115.848V123H299.264V105.24H300.944V112.128C301.36 111.344 301.968 110.736 302.768 110.304C303.584 109.872 304.496 109.656 305.504 109.656ZM326.307 115.776C326.307 116.352 326.291 116.792 326.259 117.096H315.387C315.435 118.088 315.675 118.936 316.107 119.64C316.539 120.344 317.107 120.88 317.811 121.248C318.515 121.6 319.283 121.776 320.115 121.776C321.203 121.776 322.115 121.512 322.851 120.984C323.603 120.456 324.099 119.744 324.339 118.848H326.115C325.795 120.128 325.107 121.176 324.051 121.992C323.011 122.792 321.699 123.192 320.115 123.192C318.883 123.192 317.779 122.92 316.803 122.376C315.827 121.816 315.059 121.032 314.499 120.024C313.955 119 313.683 117.808 313.683 116.448C313.683 115.088 313.955 113.896 314.499 112.872C315.043 111.848 315.803 111.064 316.779 110.52C317.755 109.976 318.867 109.704 320.115 109.704C321.363 109.704 322.451 109.976 323.379 110.52C324.323 111.064 325.043 111.8 325.539 112.728C326.051 113.64 326.307 114.656 326.307 115.776ZM324.603 115.728C324.619 114.752 324.419 113.92 324.003 113.232C323.603 112.544 323.051 112.024 322.347 111.672C321.643 111.32 320.875 111.144 320.043 111.144C318.795 111.144 317.731 111.544 316.851 112.344C315.971 113.144 315.483 114.272 315.387 115.728H324.603ZM335.525 109.656C337.093 109.656 338.373 110.144 339.365 111.12C340.357 112.08 340.853 113.48 340.853 115.32V123H339.197V115.512C339.197 114.088 338.837 113 338.117 112.248C337.413 111.496 336.445 111.12 335.213 111.12C333.949 111.12 332.941 111.52 332.189 112.32C331.437 113.12 331.061 114.296 331.061 115.848V123H329.381V109.896H331.061V112.128C331.477 111.328 332.077 110.72 332.861 110.304C333.645 109.872 334.533 109.656 335.525 109.656ZM353.338 111.312V119.448C353.338 120.248 353.49 120.8 353.794 121.104C354.098 121.408 354.634 121.56 355.402 121.56H356.938V123H355.138C353.954 123 353.074 122.728 352.498 122.184C351.922 121.624 351.634 120.712 351.634 119.448V111.312H349.81V109.896H351.634V106.608H353.338V109.896H356.938V111.312H353.338ZM365.949 109.656C366.941 109.656 367.829 109.864 368.613 110.28C369.413 110.696 370.037 111.336 370.485 112.2C370.949 113.048 371.181 114.088 371.181 115.32V123H369.525V115.512C369.525 114.088 369.165 113 368.445 112.248C367.741 111.496 366.773 111.12 365.541 111.12C364.277 111.12 363.269 111.52 362.517 112.32C361.765 113.12 361.389 114.296 361.389 115.848V123H359.709V105.24H361.389V112.128C361.805 111.344 362.413 110.736 363.213 110.304C364.029 109.872 364.941 109.656 365.949 109.656ZM386.753 115.776C386.753 116.352 386.737 116.792 386.705 117.096H375.833C375.881 118.088 376.121 118.936 376.553 119.64C376.985 120.344 377.553 120.88 378.257 121.248C378.961 121.6 379.729 121.776 380.561 121.776C381.649 121.776 382.561 121.512 383.297 120.984C384.049 120.456 384.545 119.744 384.785 118.848H386.561C386.241 120.128 385.553 121.176 384.497 121.992C383.457 122.792 382.145 123.192 380.561 123.192C379.329 123.192 378.225 122.92 377.249 122.376C376.273 121.816 375.505 121.032 374.945 120.024C374.401 119 374.129 117.808 374.129 116.448C374.129 115.088 374.401 113.896 374.945 112.872C375.489 111.848 376.249 111.064 377.225 110.52C378.201 109.976 379.313 109.704 380.561 109.704C381.809 109.704 382.897 109.976 383.825 110.52C384.769 111.064 385.489 111.8 385.985 112.728C386.497 113.64 386.753 114.656 386.753 115.776ZM385.049 115.728C385.065 114.752 384.865 113.92 384.449 113.232C384.049 112.544 383.497 112.024 382.793 111.672C382.089 111.32 381.321 111.144 380.489 111.144C379.241 111.144 378.177 111.544 377.297 112.344C376.417 113.144 375.929 114.272 375.833 115.728H385.049ZM398.068 112.776C398.484 111.896 399.14 111.168 400.036 110.592C400.948 110 402.028 109.704 403.276 109.704C404.46 109.704 405.524 109.984 406.468 110.544C407.428 111.088 408.172 111.872 408.7 112.896C409.244 113.904 409.516 115.08 409.516 116.424C409.516 117.768 409.244 118.952 408.7 119.976C408.172 121 407.428 121.792 406.468 122.352C405.524 122.912 404.46 123.192 403.276 123.192C402.044 123.192 400.972 122.904 400.06 122.328C399.148 121.736 398.484 121 398.068 120.12V129.192H396.412V109.896H398.068V112.776ZM407.812 116.424C407.812 115.336 407.596 114.4 407.164 113.616C406.748 112.816 406.172 112.208 405.436 111.792C404.7 111.376 403.868 111.168 402.94 111.168C402.044 111.168 401.22 111.384 400.468 111.816C399.732 112.248 399.148 112.864 398.716 113.664C398.284 114.464 398.068 115.392 398.068 116.448C398.068 117.504 398.284 118.432 398.716 119.232C399.148 120.032 399.732 120.648 400.468 121.08C401.22 121.512 402.044 121.728 402.94 121.728C403.868 121.728 404.7 121.52 405.436 121.104C406.172 120.672 406.748 120.056 407.164 119.256C407.596 118.44 407.812 117.496 407.812 116.424ZM414.288 112.224C414.656 111.408 415.216 110.776 415.968 110.328C416.736 109.88 417.672 109.656 418.776 109.656V111.408H418.32C417.104 111.408 416.128 111.736 415.392 112.392C414.656 113.048 414.288 114.144 414.288 115.68V123H412.608V109.896H414.288V112.224ZM427.039 123.192C425.807 123.192 424.695 122.92 423.703 122.376C422.727 121.816 421.951 121.032 421.375 120.024C420.815 119 420.535 117.808 420.535 116.448C420.535 115.088 420.823 113.904 421.399 112.896C421.975 111.872 422.759 111.088 423.751 110.544C424.743 109.984 425.855 109.704 427.087 109.704C428.319 109.704 429.431 109.984 430.423 110.544C431.431 111.088 432.215 111.872 432.775 112.896C433.351 113.904 433.639 115.088 433.639 116.448C433.639 117.792 433.351 118.976 432.775 120C432.199 121.024 431.407 121.816 430.399 122.376C429.391 122.92 428.271 123.192 427.039 123.192ZM427.039 121.728C427.903 121.728 428.703 121.536 429.439 121.152C430.175 120.752 430.767 120.16 431.215 119.376C431.679 118.576 431.911 117.6 431.911 116.448C431.911 115.296 431.687 114.328 431.239 113.544C430.791 112.744 430.199 112.152 429.463 111.768C428.727 111.368 427.927 111.168 427.063 111.168C426.199 111.168 425.399 111.368 424.663 111.768C423.927 112.152 423.335 112.744 422.887 113.544C422.455 114.328 422.239 115.296 422.239 116.448C422.239 117.6 422.455 118.576 422.887 119.376C423.335 120.16 423.919 120.752 424.639 121.152C425.375 121.536 426.175 121.728 427.039 121.728ZM435.933 116.424C435.933 115.08 436.205 113.904 436.749 112.896C437.293 111.872 438.037 111.088 438.981 110.544C439.941 109.984 441.021 109.704 442.221 109.704C443.373 109.704 444.413 109.984 445.341 110.544C446.269 111.104 446.949 111.832 447.381 112.728V105.24H449.061V123H447.381V120.072C446.981 120.984 446.325 121.736 445.413 122.328C444.501 122.904 443.429 123.192 442.197 123.192C440.997 123.192 439.917 122.912 438.957 122.352C438.013 121.792 437.269 121 436.725 119.976C436.197 118.952 435.933 117.768 435.933 116.424ZM447.381 116.448C447.381 115.392 447.165 114.464 446.733 113.664C446.301 112.864 445.709 112.248 444.957 111.816C444.221 111.384 443.405 111.168 442.509 111.168C441.581 111.168 440.749 111.376 440.013 111.792C439.277 112.208 438.693 112.816 438.261 113.616C437.845 114.4 437.637 115.336 437.637 116.424C437.637 117.496 437.845 118.44 438.261 119.256C438.693 120.056 439.277 120.672 440.013 121.104C440.749 121.52 441.581 121.728 442.509 121.728C443.405 121.728 444.221 121.512 444.957 121.08C445.709 120.648 446.301 120.032 446.733 119.232C447.165 118.432 447.381 117.504 447.381 116.448ZM464.249 109.896V123H462.569V120.696C462.185 121.512 461.593 122.136 460.793 122.568C459.993 123 459.097 123.216 458.105 123.216C456.537 123.216 455.257 122.736 454.265 121.776C453.273 120.8 452.777 119.392 452.777 117.552V109.896H454.433V117.36C454.433 118.784 454.785 119.872 455.489 120.624C456.209 121.376 457.185 121.752 458.417 121.752C459.681 121.752 460.689 121.352 461.441 120.552C462.193 119.752 462.569 118.576 462.569 117.024V109.896H464.249ZM467.316 116.448C467.316 115.088 467.588 113.904 468.132 112.896C468.676 111.872 469.428 111.088 470.388 110.544C471.348 109.984 472.444 109.704 473.676 109.704C475.292 109.704 476.62 110.104 477.66 110.904C478.716 111.704 479.396 112.792 479.7 114.168H477.9C477.676 113.224 477.188 112.488 476.436 111.96C475.7 111.416 474.78 111.144 473.676 111.144C472.796 111.144 472.004 111.344 471.3 111.744C470.596 112.144 470.036 112.744 469.62 113.544C469.22 114.328 469.02 115.296 469.02 116.448C469.02 117.6 469.22 118.576 469.62 119.376C470.036 120.176 470.596 120.776 471.3 121.176C472.004 121.576 472.796 121.776 473.676 121.776C474.78 121.776 475.7 121.512 476.436 120.984C477.188 120.44 477.676 119.688 477.9 118.728H479.7C479.396 120.072 478.716 121.152 477.66 121.968C476.604 122.784 475.276 123.192 473.676 123.192C472.444 123.192 471.348 122.92 470.388 122.376C469.428 121.816 468.676 121.032 468.132 120.024C467.588 119 467.316 117.808 467.316 116.448ZM484.987 111.312V119.448C484.987 120.248 485.139 120.8 485.443 121.104C485.747 121.408 486.283 121.56 487.051 121.56H488.587V123H486.787C485.603 123 484.723 122.728 484.147 122.184C483.571 121.624 483.283 120.712 483.283 119.448V111.312H481.459V109.896H483.283V106.608H484.987V109.896H488.587V111.312H484.987ZM491.646 123.12C491.294 123.12 490.998 123 490.758 122.76C490.534 122.52 490.422 122.224 490.422 121.872C490.422 121.52 490.534 121.232 490.758 121.008C490.998 120.768 491.294 120.648 491.646 120.648C491.982 120.648 492.262 120.768 492.486 121.008C492.726 121.232 492.846 121.52 492.846 121.872C492.846 122.224 492.726 122.52 492.486 122.76C492.262 123 491.982 123.12 491.646 123.12Z" fill="#0D0D0D"/>
<rect x="79" y="296" width="31" height="31" fill="#F4F1EC"/>
<rect x="79" y="370" width="31" height="31" fill="#F4F1EC"/>
<rect x="79" y="446" width="31" height="31" fill="#F4F1EC"/>
</svg>
