<svg width="550" height="559" viewBox="0 0 550 559" fill="none" xmlns="http://www.w3.org/2000/svg">
<rect width="550" height="559" rx="12" fill="#F4F1EC"/>
<rect x="63" y="208" width="423" height="51" rx="12" fill="#3A7D6B"/>
<rect x="63" y="284" width="423" height="51" rx="12" fill="white"/>
<rect x="63" y="360" width="423" height="51" rx="12" fill="white"/>
<rect x="63" y="436" width="423" height="51" rx="12" fill="white"/>
<path d="M97.1564 242.168C96.0524 242.168 95.0764 241.976 94.2284 241.592C93.3964 241.208 92.7404 240.672 92.2604 239.984C91.7804 239.296 91.5244 238.528 91.4924 237.68H93.2684C93.3484 238.496 93.7084 239.216 94.3484 239.84C94.9884 240.448 95.9244 240.752 97.1564 240.752C98.2924 240.752 99.1884 240.464 99.8444 239.888C100.516 239.296 100.852 238.552 100.852 237.656C100.852 236.936 100.668 236.36 100.3 235.928C99.9324 235.48 99.4764 235.152 98.9324 234.944C98.3884 234.72 97.6364 234.48 96.6764 234.224C95.5564 233.92 94.6684 233.624 94.0124 233.336C93.3564 233.048 92.7964 232.6 92.3324 231.992C91.8684 231.384 91.6364 230.56 91.6364 229.52C91.6364 228.656 91.8604 227.888 92.3084 227.216C92.7564 226.528 93.3884 225.992 94.2044 225.608C95.0204 225.224 95.9564 225.032 97.0124 225.032C98.5644 225.032 99.8124 225.416 100.756 226.184C101.716 226.936 102.268 227.912 102.412 229.112H100.588C100.476 228.424 100.1 227.816 99.4604 227.288C98.8204 226.744 97.9564 226.472 96.8684 226.472C95.8604 226.472 95.0204 226.744 94.3484 227.288C93.6764 227.816 93.3404 228.544 93.3404 229.472C93.3404 230.176 93.5244 230.744 93.8924 231.176C94.2604 231.608 94.7164 231.936 95.2604 232.16C95.8204 232.384 96.5724 232.624 97.5164 232.88C98.6044 233.184 99.4844 233.488 100.156 233.792C100.828 234.08 101.396 234.528 101.86 235.136C102.324 235.744 102.556 236.56 102.556 237.584C102.556 238.368 102.348 239.112 101.932 239.816C101.516 240.52 100.9 241.088 100.084 241.52C99.2684 241.952 98.2924 242.168 97.1564 242.168ZM117.155 228.896V242H115.475V239.696C115.091 240.512 114.499 241.136 113.699 241.568C112.899 242 112.003 242.216 111.011 242.216C109.443 242.216 108.163 241.736 107.171 240.776C106.179 239.8 105.683 238.392 105.683 236.552V228.896H107.339V236.36C107.339 237.784 107.691 238.872 108.395 239.624C109.115 240.376 110.091 240.752 111.323 240.752C112.587 240.752 113.595 240.352 114.347 239.552C115.099 238.752 115.475 237.576 115.475 236.024V228.896H117.155ZM122.646 231.776C123.062 230.896 123.718 230.168 124.614 229.592C125.526 229 126.606 228.704 127.854 228.704C129.038 228.704 130.102 228.984 131.046 229.544C132.006 230.088 132.75 230.872 133.278 231.896C133.822 232.904 134.094 234.08 134.094 235.424C134.094 236.768 133.822 237.952 133.278 238.976C132.75 240 132.006 240.792 131.046 241.352C130.102 241.912 129.038 242.192 127.854 242.192C126.622 242.192 125.55 241.904 124.638 241.328C123.726 240.736 123.062 240 122.646 239.12V248.192H120.99V228.896H122.646V231.776ZM132.39 235.424C132.39 234.336 132.174 233.4 131.742 232.616C131.326 231.816 130.75 231.208 130.014 230.792C129.278 230.376 128.446 230.168 127.518 230.168C126.622 230.168 125.798 230.384 125.046 230.816C124.31 231.248 123.726 231.864 123.294 232.664C122.862 233.464 122.646 234.392 122.646 235.448C122.646 236.504 122.862 237.432 123.294 238.232C123.726 239.032 124.31 239.648 125.046 240.08C125.798 240.512 126.622 240.728 127.518 240.728C128.446 240.728 129.278 240.52 130.014 240.104C130.75 239.672 131.326 239.056 131.742 238.256C132.174 237.44 132.39 236.496 132.39 235.424ZM138.842 231.776C139.258 230.896 139.914 230.168 140.81 229.592C141.722 229 142.802 228.704 144.05 228.704C145.234 228.704 146.298 228.984 147.242 229.544C148.202 230.088 148.946 230.872 149.474 231.896C150.018 232.904 150.29 234.08 150.29 235.424C150.29 236.768 150.018 237.952 149.474 238.976C148.946 240 148.202 240.792 147.242 241.352C146.298 241.912 145.234 242.192 144.05 242.192C142.818 242.192 141.746 241.904 140.834 241.328C139.922 240.736 139.258 240 138.842 239.12V248.192H137.186V228.896H138.842V231.776ZM148.586 235.424C148.586 234.336 148.37 233.4 147.938 232.616C147.522 231.816 146.946 231.208 146.21 230.792C145.474 230.376 144.642 230.168 143.714 230.168C142.818 230.168 141.994 230.384 141.242 230.816C140.506 231.248 139.922 231.864 139.49 232.664C139.058 233.464 138.842 234.392 138.842 235.448C138.842 236.504 139.058 237.432 139.49 238.232C139.922 239.032 140.506 239.648 141.242 240.08C141.994 240.512 142.818 240.728 143.714 240.728C144.642 240.728 145.474 240.52 146.21 240.104C146.946 239.672 147.522 239.056 147.938 238.256C148.37 237.44 148.586 236.496 148.586 235.424ZM159.117 242.192C157.885 242.192 156.773 241.92 155.781 241.376C154.805 240.816 154.029 240.032 153.453 239.024C152.893 238 152.613 236.808 152.613 235.448C152.613 234.088 152.901 232.904 153.477 231.896C154.053 230.872 154.837 230.088 155.829 229.544C156.821 228.984 157.933 228.704 159.165 228.704C160.397 228.704 161.509 228.984 162.501 229.544C163.509 230.088 164.293 230.872 164.853 231.896C165.429 232.904 165.717 234.088 165.717 235.448C165.717 236.792 165.429 237.976 164.853 239C164.277 240.024 163.485 240.816 162.477 241.376C161.469 241.92 160.349 242.192 159.117 242.192ZM159.117 240.728C159.981 240.728 160.781 240.536 161.517 240.152C162.253 239.752 162.845 239.16 163.293 238.376C163.757 237.576 163.989 236.6 163.989 235.448C163.989 234.296 163.765 233.328 163.317 232.544C162.869 231.744 162.277 231.152 161.541 230.768C160.805 230.368 160.005 230.168 159.141 230.168C158.277 230.168 157.477 230.368 156.741 230.768C156.005 231.152 155.413 231.744 154.965 232.544C154.533 233.328 154.317 234.296 154.317 235.448C154.317 236.6 154.533 237.576 154.965 238.376C155.413 239.16 155.997 239.752 156.717 240.152C157.453 240.536 158.253 240.728 159.117 240.728ZM170.459 231.224C170.827 230.408 171.387 229.776 172.139 229.328C172.907 228.88 173.843 228.656 174.947 228.656V230.408H174.491C173.275 230.408 172.299 230.736 171.563 231.392C170.827 232.048 170.459 233.144 170.459 234.68V242H168.779V228.896H170.459V231.224ZM179.659 230.312V238.448C179.659 239.248 179.811 239.8 180.115 240.104C180.419 240.408 180.955 240.56 181.723 240.56H183.259V242H181.459C180.275 242 179.395 241.728 178.819 241.184C178.243 240.624 177.955 239.712 177.955 238.448V230.312H176.131V228.896H177.955V225.608H179.659V228.896H183.259V230.312H179.659ZM205.071 225.224V242H203.391V234.152H194.295V242H192.615V225.224H194.295V232.76H203.391V225.224H205.071ZM214.64 242.192C213.408 242.192 212.296 241.92 211.304 241.376C210.328 240.816 209.552 240.032 208.976 239.024C208.416 238 208.136 236.808 208.136 235.448C208.136 234.088 208.424 232.904 209 231.896C209.576 230.872 210.36 230.088 211.352 229.544C212.344 228.984 213.456 228.704 214.688 228.704C215.92 228.704 217.032 228.984 218.024 229.544C219.032 230.088 219.816 230.872 220.376 231.896C220.952 232.904 221.24 234.088 221.24 235.448C221.24 236.792 220.952 237.976 220.376 239C219.8 240.024 219.008 240.816 218 241.376C216.992 241.92 215.872 242.192 214.64 242.192ZM214.64 240.728C215.504 240.728 216.304 240.536 217.04 240.152C217.776 239.752 218.368 239.16 218.816 238.376C219.28 237.576 219.512 236.6 219.512 235.448C219.512 234.296 219.288 233.328 218.84 232.544C218.392 231.744 217.8 231.152 217.064 230.768C216.328 230.368 215.528 230.168 214.664 230.168C213.8 230.168 213 230.368 212.264 230.768C211.528 231.152 210.936 231.744 210.488 232.544C210.056 233.328 209.84 234.296 209.84 235.448C209.84 236.6 210.056 237.576 210.488 238.376C210.936 239.16 211.52 239.752 212.24 240.152C212.976 240.536 213.776 240.728 214.64 240.728ZM239.903 228.656C241.439 228.656 242.687 229.144 243.647 230.12C244.623 231.08 245.111 232.48 245.111 234.32V242H243.455V234.512C243.455 233.088 243.111 232 242.423 231.248C241.735 230.496 240.799 230.12 239.615 230.12C238.383 230.12 237.399 230.528 236.663 231.344C235.927 232.16 235.559 233.344 235.559 234.896V242H233.903V234.512C233.903 233.088 233.559 232 232.871 231.248C232.183 230.496 231.239 230.12 230.039 230.12C228.807 230.12 227.823 230.528 227.087 231.344C226.351 232.16 225.983 233.344 225.983 234.896V242H224.303V228.896H225.983V231.152C226.399 230.336 226.991 229.72 227.759 229.304C228.527 228.872 229.383 228.656 230.327 228.656C231.463 228.656 232.455 228.928 233.303 229.472C234.167 230.016 234.791 230.816 235.175 231.872C235.527 230.832 236.127 230.04 236.975 229.496C237.839 228.936 238.815 228.656 239.903 228.656ZM260.698 234.776C260.698 235.352 260.682 235.792 260.65 236.096H249.778C249.826 237.088 250.066 237.936 250.498 238.64C250.93 239.344 251.498 239.88 252.202 240.248C252.906 240.6 253.674 240.776 254.506 240.776C255.594 240.776 256.506 240.512 257.242 239.984C257.994 239.456 258.49 238.744 258.73 237.848H260.506C260.186 239.128 259.498 240.176 258.442 240.992C257.402 241.792 256.09 242.192 254.506 242.192C253.274 242.192 252.17 241.92 251.194 241.376C250.218 240.816 249.45 240.032 248.89 239.024C248.346 238 248.074 236.808 248.074 235.448C248.074 234.088 248.346 232.896 248.89 231.872C249.434 230.848 250.194 230.064 251.17 229.52C252.146 228.976 253.258 228.704 254.506 228.704C255.754 228.704 256.842 228.976 257.77 229.52C258.714 230.064 259.434 230.8 259.93 231.728C260.442 232.64 260.698 233.656 260.698 234.776ZM258.994 234.728C259.01 233.752 258.81 232.92 258.394 232.232C257.994 231.544 257.442 231.024 256.738 230.672C256.034 230.32 255.266 230.144 254.434 230.144C253.186 230.144 252.122 230.544 251.242 231.344C250.362 232.144 249.874 233.272 249.778 234.728H258.994Z" fill="white"/>
<path d="M136.888 301.224C138.744 301.224 140.336 301.56 141.664 302.232C142.992 302.904 144.008 303.872 144.712 305.136C145.416 306.4 145.768 307.904 145.768 309.648C145.768 311.376 145.416 312.872 144.712 314.136C144.008 315.384 142.992 316.344 141.664 317.016C140.336 317.672 138.744 318 136.888 318H131.92V301.224H136.888ZM136.888 316.608C139.224 316.608 141 316 142.216 314.784C143.448 313.552 144.064 311.84 144.064 309.648C144.064 307.44 143.448 305.72 142.216 304.488C141 303.24 139.224 302.616 136.888 302.616H133.6V316.608H136.888ZM159.665 304.896L151.889 324.168H150.137L152.681 317.928L147.305 304.896H149.153L153.617 316.08L157.937 304.896H159.665ZM166.455 318.192C164.951 318.192 163.719 317.848 162.759 317.16C161.815 316.456 161.287 315.504 161.175 314.304H162.903C162.983 315.04 163.327 315.64 163.935 316.104C164.559 316.552 165.391 316.776 166.431 316.776C167.343 316.776 168.055 316.56 168.567 316.128C169.095 315.696 169.359 315.16 169.359 314.52C169.359 314.072 169.215 313.704 168.927 313.416C168.639 313.128 168.271 312.904 167.823 312.744C167.391 312.568 166.799 312.384 166.047 312.192C165.071 311.936 164.279 311.68 163.671 311.424C163.063 311.168 162.543 310.792 162.111 310.296C161.695 309.784 161.487 309.104 161.487 308.256C161.487 307.616 161.679 307.024 162.063 306.48C162.447 305.936 162.991 305.504 163.695 305.184C164.399 304.864 165.199 304.704 166.095 304.704C167.503 304.704 168.639 305.064 169.503 305.784C170.367 306.488 170.831 307.464 170.895 308.712H169.215C169.167 307.944 168.863 307.328 168.303 306.864C167.759 306.384 167.007 306.144 166.047 306.144C165.199 306.144 164.511 306.344 163.983 306.744C163.455 307.144 163.191 307.64 163.191 308.232C163.191 308.744 163.343 309.168 163.647 309.504C163.967 309.824 164.359 310.08 164.823 310.272C165.287 310.448 165.911 310.648 166.695 310.872C167.639 311.128 168.391 311.376 168.951 311.616C169.511 311.856 169.991 312.208 170.391 312.672C170.791 313.136 170.999 313.752 171.015 314.52C171.015 315.224 170.823 315.856 170.439 316.416C170.055 316.96 169.519 317.392 168.831 317.712C168.143 318.032 167.351 318.192 166.455 318.192ZM179.914 318.192C178.682 318.192 177.57 317.92 176.578 317.376C175.602 316.816 174.826 316.032 174.25 315.024C173.69 314 173.41 312.808 173.41 311.448C173.41 310.088 173.698 308.904 174.274 307.896C174.85 306.872 175.634 306.088 176.626 305.544C177.618 304.984 178.73 304.704 179.962 304.704C181.194 304.704 182.306 304.984 183.298 305.544C184.306 306.088 185.09 306.872 185.65 307.896C186.226 308.904 186.514 310.088 186.514 311.448C186.514 312.792 186.226 313.976 185.65 315C185.074 316.024 184.282 316.816 183.274 317.376C182.266 317.92 181.146 318.192 179.914 318.192ZM179.914 316.728C180.778 316.728 181.578 316.536 182.314 316.152C183.05 315.752 183.642 315.16 184.09 314.376C184.554 313.576 184.786 312.6 184.786 311.448C184.786 310.296 184.562 309.328 184.114 308.544C183.666 307.744 183.074 307.152 182.338 306.768C181.602 306.368 180.802 306.168 179.938 306.168C179.074 306.168 178.274 306.368 177.538 306.768C176.802 307.152 176.21 307.744 175.762 308.544C175.33 309.328 175.114 310.296 175.114 311.448C175.114 312.6 175.33 313.576 175.762 314.376C176.21 315.16 176.794 315.752 177.514 316.152C178.25 316.536 179.05 316.728 179.914 316.728ZM195.72 304.656C197.288 304.656 198.568 305.144 199.56 306.12C200.552 307.08 201.048 308.48 201.048 310.32V318H199.392V310.512C199.392 309.088 199.032 308 198.312 307.248C197.608 306.496 196.64 306.12 195.408 306.12C194.144 306.12 193.136 306.52 192.384 307.32C191.632 308.12 191.256 309.296 191.256 310.848V318H189.576V304.896H191.256V307.128C191.672 306.328 192.272 305.72 193.056 305.304C193.84 304.872 194.728 304.656 195.72 304.656ZM224.646 301.224L218.286 318H216.366L210.006 301.224H211.83L217.326 316.176L222.87 301.224H224.646ZM225.994 302.304V300.792H230.074V318H228.37V302.304H225.994ZM233.002 302.304V300.792H237.082V318H235.378V302.304H233.002ZM257.492 314.016H249.86L248.396 318H246.62L252.74 301.44H254.636L260.732 318H258.956L257.492 314.016ZM256.988 312.624L253.676 303.552L250.364 312.624H256.988ZM265.084 307.8C265.516 306.888 266.18 306.144 267.076 305.568C267.988 304.992 269.06 304.704 270.292 304.704C271.492 304.704 272.564 304.984 273.508 305.544C274.452 306.088 275.188 306.872 275.716 307.896C276.26 308.904 276.532 310.08 276.532 311.424C276.532 312.768 276.26 313.952 275.716 314.976C275.188 316 274.444 316.792 273.484 317.352C272.54 317.912 271.476 318.192 270.292 318.192C269.044 318.192 267.964 317.912 267.052 317.352C266.156 316.776 265.5 316.032 265.084 315.12V318H263.428V300.24H265.084V307.8ZM274.828 311.424C274.828 310.336 274.612 309.4 274.18 308.616C273.764 307.816 273.188 307.208 272.452 306.792C271.716 306.376 270.884 306.168 269.956 306.168C269.06 306.168 268.236 306.384 267.484 306.816C266.748 307.248 266.164 307.864 265.732 308.664C265.3 309.464 265.084 310.392 265.084 311.448C265.084 312.504 265.3 313.432 265.732 314.232C266.164 315.032 266.748 315.648 267.484 316.08C268.236 316.512 269.06 316.728 269.956 316.728C270.884 316.728 271.716 316.52 272.452 316.104C273.188 315.672 273.764 315.056 274.18 314.256C274.612 313.44 274.828 312.496 274.828 311.424ZM284.135 318.192C282.631 318.192 281.399 317.848 280.439 317.16C279.495 316.456 278.967 315.504 278.855 314.304H280.583C280.663 315.04 281.007 315.64 281.615 316.104C282.239 316.552 283.071 316.776 284.111 316.776C285.023 316.776 285.735 316.56 286.247 316.128C286.775 315.696 287.039 315.16 287.039 314.52C287.039 314.072 286.895 313.704 286.607 313.416C286.319 313.128 285.951 312.904 285.503 312.744C285.071 312.568 284.479 312.384 283.727 312.192C282.751 311.936 281.959 311.68 281.351 311.424C280.743 311.168 280.223 310.792 279.791 310.296C279.375 309.784 279.167 309.104 279.167 308.256C279.167 307.616 279.359 307.024 279.743 306.48C280.127 305.936 280.671 305.504 281.375 305.184C282.079 304.864 282.879 304.704 283.775 304.704C285.183 304.704 286.319 305.064 287.183 305.784C288.047 306.488 288.511 307.464 288.575 308.712H286.895C286.847 307.944 286.543 307.328 285.983 306.864C285.439 306.384 284.687 306.144 283.727 306.144C282.879 306.144 282.191 306.344 281.663 306.744C281.135 307.144 280.871 307.64 280.871 308.232C280.871 308.744 281.023 309.168 281.327 309.504C281.647 309.824 282.039 310.08 282.503 310.272C282.967 310.448 283.591 310.648 284.375 310.872C285.319 311.128 286.071 311.376 286.631 311.616C287.191 311.856 287.671 312.208 288.071 312.672C288.471 313.136 288.679 313.752 288.695 314.52C288.695 315.224 288.503 315.856 288.119 316.416C287.735 316.96 287.199 317.392 286.511 317.712C285.823 318.032 285.031 318.192 284.135 318.192ZM297.594 318.192C296.362 318.192 295.25 317.92 294.258 317.376C293.282 316.816 292.506 316.032 291.93 315.024C291.37 314 291.09 312.808 291.09 311.448C291.09 310.088 291.378 308.904 291.954 307.896C292.53 306.872 293.314 306.088 294.306 305.544C295.298 304.984 296.41 304.704 297.642 304.704C298.874 304.704 299.986 304.984 300.978 305.544C301.986 306.088 302.77 306.872 303.33 307.896C303.906 308.904 304.194 310.088 304.194 311.448C304.194 312.792 303.906 313.976 303.33 315C302.754 316.024 301.962 316.816 300.954 317.376C299.946 317.92 298.826 318.192 297.594 318.192ZM297.594 316.728C298.458 316.728 299.258 316.536 299.994 316.152C300.73 315.752 301.322 315.16 301.77 314.376C302.234 313.576 302.466 312.6 302.466 311.448C302.466 310.296 302.242 309.328 301.794 308.544C301.346 307.744 300.754 307.152 300.018 306.768C299.282 306.368 298.482 306.168 297.618 306.168C296.754 306.168 295.954 306.368 295.218 306.768C294.482 307.152 293.89 307.744 293.442 308.544C293.01 309.328 292.794 310.296 292.794 311.448C292.794 312.6 293.01 313.576 293.442 314.376C293.89 315.16 294.474 315.752 295.194 316.152C295.93 316.536 296.73 316.728 297.594 316.728ZM308.936 300.24V318H307.256V300.24H308.936ZM324.092 304.896V318H322.412V315.696C322.028 316.512 321.436 317.136 320.636 317.568C319.836 318 318.94 318.216 317.948 318.216C316.38 318.216 315.1 317.736 314.108 316.776C313.116 315.8 312.62 314.392 312.62 312.552V304.896H314.276V312.36C314.276 313.784 314.628 314.872 315.332 315.624C316.052 316.376 317.028 316.752 318.26 316.752C319.524 316.752 320.532 316.352 321.284 315.552C322.036 314.752 322.412 313.576 322.412 312.024V304.896H324.092ZM330.112 306.312V314.448C330.112 315.248 330.264 315.8 330.568 316.104C330.872 316.408 331.408 316.56 332.176 316.56H333.712V318H331.912C330.728 318 329.848 317.728 329.272 317.184C328.696 316.624 328.408 315.712 328.408 314.448V306.312H326.584V304.896H328.408V301.608H330.112V304.896H333.712V306.312H330.112ZM348.339 310.776C348.339 311.352 348.323 311.792 348.291 312.096H337.419C337.467 313.088 337.707 313.936 338.139 314.64C338.571 315.344 339.139 315.88 339.843 316.248C340.547 316.6 341.315 316.776 342.147 316.776C343.235 316.776 344.147 316.512 344.883 315.984C345.635 315.456 346.131 314.744 346.371 313.848H348.147C347.827 315.128 347.139 316.176 346.083 316.992C345.043 317.792 343.731 318.192 342.147 318.192C340.915 318.192 339.811 317.92 338.835 317.376C337.859 316.816 337.091 316.032 336.531 315.024C335.987 314 335.715 312.808 335.715 311.448C335.715 310.088 335.987 308.896 336.531 307.872C337.075 306.848 337.835 306.064 338.811 305.52C339.787 304.976 340.899 304.704 342.147 304.704C343.395 304.704 344.483 304.976 345.411 305.52C346.355 306.064 347.075 306.8 347.571 307.728C348.083 308.64 348.339 309.656 348.339 310.776ZM346.635 310.728C346.651 309.752 346.451 308.92 346.035 308.232C345.635 307.544 345.083 307.024 344.379 306.672C343.675 306.32 342.907 306.144 342.075 306.144C340.827 306.144 339.763 306.544 338.883 307.344C338.003 308.144 337.515 309.272 337.419 310.728H346.635Z" fill="#0D0D0D"/>
<path d="M136.888 377.224C138.744 377.224 140.336 377.56 141.664 378.232C142.992 378.904 144.008 379.872 144.712 381.136C145.416 382.4 145.768 383.904 145.768 385.648C145.768 387.376 145.416 388.872 144.712 390.136C144.008 391.384 142.992 392.344 141.664 393.016C140.336 393.672 138.744 394 136.888 394H131.92V377.224H136.888ZM136.888 392.608C139.224 392.608 141 392 142.216 390.784C143.448 389.552 144.064 387.84 144.064 385.648C144.064 383.44 143.448 381.72 142.216 380.488C141 379.24 139.224 378.616 136.888 378.616H133.6V392.608H136.888ZM159.665 380.896L151.889 400.168H150.137L152.681 393.928L147.305 380.896H149.153L153.617 392.08L157.937 380.896H159.665ZM166.455 394.192C164.951 394.192 163.719 393.848 162.759 393.16C161.815 392.456 161.287 391.504 161.175 390.304H162.903C162.983 391.04 163.327 391.64 163.935 392.104C164.559 392.552 165.391 392.776 166.431 392.776C167.343 392.776 168.055 392.56 168.567 392.128C169.095 391.696 169.359 391.16 169.359 390.52C169.359 390.072 169.215 389.704 168.927 389.416C168.639 389.128 168.271 388.904 167.823 388.744C167.391 388.568 166.799 388.384 166.047 388.192C165.071 387.936 164.279 387.68 163.671 387.424C163.063 387.168 162.543 386.792 162.111 386.296C161.695 385.784 161.487 385.104 161.487 384.256C161.487 383.616 161.679 383.024 162.063 382.48C162.447 381.936 162.991 381.504 163.695 381.184C164.399 380.864 165.199 380.704 166.095 380.704C167.503 380.704 168.639 381.064 169.503 381.784C170.367 382.488 170.831 383.464 170.895 384.712H169.215C169.167 383.944 168.863 383.328 168.303 382.864C167.759 382.384 167.007 382.144 166.047 382.144C165.199 382.144 164.511 382.344 163.983 382.744C163.455 383.144 163.191 383.64 163.191 384.232C163.191 384.744 163.343 385.168 163.647 385.504C163.967 385.824 164.359 386.08 164.823 386.272C165.287 386.448 165.911 386.648 166.695 386.872C167.639 387.128 168.391 387.376 168.951 387.616C169.511 387.856 169.991 388.208 170.391 388.672C170.791 389.136 170.999 389.752 171.015 390.52C171.015 391.224 170.823 391.856 170.439 392.416C170.055 392.96 169.519 393.392 168.831 393.712C168.143 394.032 167.351 394.192 166.455 394.192ZM179.914 394.192C178.682 394.192 177.57 393.92 176.578 393.376C175.602 392.816 174.826 392.032 174.25 391.024C173.69 390 173.41 388.808 173.41 387.448C173.41 386.088 173.698 384.904 174.274 383.896C174.85 382.872 175.634 382.088 176.626 381.544C177.618 380.984 178.73 380.704 179.962 380.704C181.194 380.704 182.306 380.984 183.298 381.544C184.306 382.088 185.09 382.872 185.65 383.896C186.226 384.904 186.514 386.088 186.514 387.448C186.514 388.792 186.226 389.976 185.65 391C185.074 392.024 184.282 392.816 183.274 393.376C182.266 393.92 181.146 394.192 179.914 394.192ZM179.914 392.728C180.778 392.728 181.578 392.536 182.314 392.152C183.05 391.752 183.642 391.16 184.09 390.376C184.554 389.576 184.786 388.6 184.786 387.448C184.786 386.296 184.562 385.328 184.114 384.544C183.666 383.744 183.074 383.152 182.338 382.768C181.602 382.368 180.802 382.168 179.938 382.168C179.074 382.168 178.274 382.368 177.538 382.768C176.802 383.152 176.21 383.744 175.762 384.544C175.33 385.328 175.114 386.296 175.114 387.448C175.114 388.6 175.33 389.576 175.762 390.376C176.21 391.16 176.794 391.752 177.514 392.152C178.25 392.536 179.05 392.728 179.914 392.728ZM195.72 380.656C197.288 380.656 198.568 381.144 199.56 382.12C200.552 383.08 201.048 384.48 201.048 386.32V394H199.392V386.512C199.392 385.088 199.032 384 198.312 383.248C197.608 382.496 196.64 382.12 195.408 382.12C194.144 382.12 193.136 382.52 192.384 383.32C191.632 384.12 191.256 385.296 191.256 386.848V394H189.576V380.896H191.256V383.128C191.672 382.328 192.272 381.72 193.056 381.304C193.84 380.872 194.728 380.656 195.72 380.656ZM224.646 377.224L218.286 394H216.366L210.006 377.224H211.83L217.326 392.176L222.87 377.224H224.646ZM225.994 378.304V376.792H230.074V394H228.37V378.304H225.994ZM233.002 378.304V376.792H237.082V394H235.378V378.304H233.002ZM255.308 394.168C253.756 394.168 252.348 393.808 251.084 393.088C249.82 392.352 248.82 391.336 248.084 390.04C247.364 388.728 247.004 387.248 247.004 385.6C247.004 383.952 247.364 382.48 248.084 381.184C248.82 379.872 249.82 378.856 251.084 378.136C252.348 377.4 253.756 377.032 255.308 377.032C256.876 377.032 258.292 377.4 259.556 378.136C260.82 378.856 261.812 379.872 262.532 381.184C263.252 382.48 263.612 383.952 263.612 385.6C263.612 387.248 263.252 388.728 262.532 390.04C261.812 391.336 260.82 392.352 259.556 393.088C258.292 393.808 256.876 394.168 255.308 394.168ZM255.308 392.704C256.556 392.704 257.676 392.416 258.668 391.84C259.66 391.264 260.444 390.44 261.02 389.368C261.596 388.28 261.884 387.024 261.884 385.6C261.884 384.176 261.596 382.928 261.02 381.856C260.444 380.784 259.66 379.96 258.668 379.384C257.676 378.808 256.556 378.52 255.308 378.52C254.06 378.52 252.94 378.808 251.948 379.384C250.956 379.96 250.172 380.784 249.596 381.856C249.02 382.928 248.732 384.176 248.732 385.6C248.732 387.024 249.02 388.28 249.596 389.368C250.172 390.44 250.956 391.264 251.948 391.84C252.94 392.416 254.06 392.704 255.308 392.704ZM278.038 380.896V394H276.358V391.696C275.974 392.512 275.382 393.136 274.582 393.568C273.782 394 272.886 394.216 271.894 394.216C270.326 394.216 269.046 393.736 268.054 392.776C267.062 391.8 266.566 390.392 266.566 388.552V380.896H268.222V388.36C268.222 389.784 268.574 390.872 269.278 391.624C269.998 392.376 270.974 392.752 272.206 392.752C273.47 392.752 274.478 392.352 275.23 391.552C275.982 390.752 276.358 389.576 276.358 388.024V380.896H278.038ZM284.057 382.312V390.448C284.057 391.248 284.209 391.8 284.513 392.104C284.817 392.408 285.353 392.56 286.121 392.56H287.657V394H285.857C284.673 394 283.793 393.728 283.217 393.184C282.641 392.624 282.353 391.712 282.353 390.448V382.312H280.529V380.896H282.353V377.608H284.057V380.896H287.657V382.312H284.057ZM294.94 394.192C293.436 394.192 292.204 393.848 291.244 393.16C290.3 392.456 289.772 391.504 289.66 390.304H291.388C291.468 391.04 291.812 391.64 292.42 392.104C293.044 392.552 293.876 392.776 294.916 392.776C295.828 392.776 296.54 392.56 297.052 392.128C297.58 391.696 297.844 391.16 297.844 390.52C297.844 390.072 297.7 389.704 297.412 389.416C297.124 389.128 296.756 388.904 296.308 388.744C295.876 388.568 295.284 388.384 294.532 388.192C293.556 387.936 292.764 387.68 292.156 387.424C291.548 387.168 291.028 386.792 290.596 386.296C290.18 385.784 289.972 385.104 289.972 384.256C289.972 383.616 290.164 383.024 290.548 382.48C290.932 381.936 291.476 381.504 292.18 381.184C292.884 380.864 293.684 380.704 294.58 380.704C295.988 380.704 297.124 381.064 297.988 381.784C298.852 382.488 299.316 383.464 299.38 384.712H297.7C297.652 383.944 297.348 383.328 296.788 382.864C296.244 382.384 295.492 382.144 294.532 382.144C293.684 382.144 292.996 382.344 292.468 382.744C291.94 383.144 291.676 383.64 291.676 384.232C291.676 384.744 291.828 385.168 292.132 385.504C292.452 385.824 292.844 386.08 293.308 386.272C293.772 386.448 294.396 386.648 295.18 386.872C296.124 387.128 296.876 387.376 297.436 387.616C297.996 387.856 298.476 388.208 298.876 388.672C299.276 389.136 299.484 389.752 299.5 390.52C299.5 391.224 299.308 391.856 298.924 392.416C298.54 392.96 298.004 393.392 297.316 393.712C296.628 394.032 295.836 394.192 294.94 394.192ZM303.502 378.424C303.166 378.424 302.878 378.304 302.638 378.064C302.398 377.824 302.278 377.528 302.278 377.176C302.278 376.824 302.398 376.536 302.638 376.312C302.878 376.072 303.166 375.952 303.502 375.952C303.838 375.952 304.126 376.072 304.366 376.312C304.606 376.536 304.726 376.824 304.726 377.176C304.726 377.528 304.606 377.824 304.366 378.064C304.126 378.304 303.838 378.424 303.502 378.424ZM304.342 380.896V394H302.662V380.896H304.342ZM309.035 392.608H315.899V394H307.115V392.608L313.859 382.288H307.235V380.896H315.779V382.288L309.035 392.608ZM330.596 386.776C330.596 387.352 330.58 387.792 330.548 388.096H319.676C319.724 389.088 319.964 389.936 320.396 390.64C320.828 391.344 321.396 391.88 322.1 392.248C322.804 392.6 323.572 392.776 324.404 392.776C325.492 392.776 326.404 392.512 327.14 391.984C327.892 391.456 328.388 390.744 328.628 389.848H330.404C330.084 391.128 329.396 392.176 328.34 392.992C327.3 393.792 325.988 394.192 324.404 394.192C323.172 394.192 322.068 393.92 321.092 393.376C320.116 392.816 319.348 392.032 318.788 391.024C318.244 390 317.972 388.808 317.972 387.448C317.972 386.088 318.244 384.896 318.788 383.872C319.332 382.848 320.092 382.064 321.068 381.52C322.044 380.976 323.156 380.704 324.404 380.704C325.652 380.704 326.74 380.976 327.668 381.52C328.612 382.064 329.332 382.8 329.828 383.728C330.34 384.64 330.596 385.656 330.596 386.776ZM328.892 386.728C328.908 385.752 328.708 384.92 328.292 384.232C327.892 383.544 327.34 383.024 326.636 382.672C325.932 382.32 325.164 382.144 324.332 382.144C323.084 382.144 322.02 382.544 321.14 383.344C320.26 384.144 319.772 385.272 319.676 386.728H328.892Z" fill="#0D0D0D"/>
<path d="M136.888 453.224C138.744 453.224 140.336 453.56 141.664 454.232C142.992 454.904 144.008 455.872 144.712 457.136C145.416 458.4 145.768 459.904 145.768 461.648C145.768 463.376 145.416 464.872 144.712 466.136C144.008 467.384 142.992 468.344 141.664 469.016C140.336 469.672 138.744 470 136.888 470H131.92V453.224H136.888ZM136.888 468.608C139.224 468.608 141 468 142.216 466.784C143.448 465.552 144.064 463.84 144.064 461.648C144.064 459.44 143.448 457.72 142.216 456.488C141 455.24 139.224 454.616 136.888 454.616H133.6V468.608H136.888ZM159.665 456.896L151.889 476.168H150.137L152.681 469.928L147.305 456.896H149.153L153.617 468.08L157.937 456.896H159.665ZM166.455 470.192C164.951 470.192 163.719 469.848 162.759 469.16C161.815 468.456 161.287 467.504 161.175 466.304H162.903C162.983 467.04 163.327 467.64 163.935 468.104C164.559 468.552 165.391 468.776 166.431 468.776C167.343 468.776 168.055 468.56 168.567 468.128C169.095 467.696 169.359 467.16 169.359 466.52C169.359 466.072 169.215 465.704 168.927 465.416C168.639 465.128 168.271 464.904 167.823 464.744C167.391 464.568 166.799 464.384 166.047 464.192C165.071 463.936 164.279 463.68 163.671 463.424C163.063 463.168 162.543 462.792 162.111 462.296C161.695 461.784 161.487 461.104 161.487 460.256C161.487 459.616 161.679 459.024 162.063 458.48C162.447 457.936 162.991 457.504 163.695 457.184C164.399 456.864 165.199 456.704 166.095 456.704C167.503 456.704 168.639 457.064 169.503 457.784C170.367 458.488 170.831 459.464 170.895 460.712H169.215C169.167 459.944 168.863 459.328 168.303 458.864C167.759 458.384 167.007 458.144 166.047 458.144C165.199 458.144 164.511 458.344 163.983 458.744C163.455 459.144 163.191 459.64 163.191 460.232C163.191 460.744 163.343 461.168 163.647 461.504C163.967 461.824 164.359 462.08 164.823 462.272C165.287 462.448 165.911 462.648 166.695 462.872C167.639 463.128 168.391 463.376 168.951 463.616C169.511 463.856 169.991 464.208 170.391 464.672C170.791 465.136 170.999 465.752 171.015 466.52C171.015 467.224 170.823 467.856 170.439 468.416C170.055 468.96 169.519 469.392 168.831 469.712C168.143 470.032 167.351 470.192 166.455 470.192ZM179.914 470.192C178.682 470.192 177.57 469.92 176.578 469.376C175.602 468.816 174.826 468.032 174.25 467.024C173.69 466 173.41 464.808 173.41 463.448C173.41 462.088 173.698 460.904 174.274 459.896C174.85 458.872 175.634 458.088 176.626 457.544C177.618 456.984 178.73 456.704 179.962 456.704C181.194 456.704 182.306 456.984 183.298 457.544C184.306 458.088 185.09 458.872 185.65 459.896C186.226 460.904 186.514 462.088 186.514 463.448C186.514 464.792 186.226 465.976 185.65 467C185.074 468.024 184.282 468.816 183.274 469.376C182.266 469.92 181.146 470.192 179.914 470.192ZM179.914 468.728C180.778 468.728 181.578 468.536 182.314 468.152C183.05 467.752 183.642 467.16 184.09 466.376C184.554 465.576 184.786 464.6 184.786 463.448C184.786 462.296 184.562 461.328 184.114 460.544C183.666 459.744 183.074 459.152 182.338 458.768C181.602 458.368 180.802 458.168 179.938 458.168C179.074 458.168 178.274 458.368 177.538 458.768C176.802 459.152 176.21 459.744 175.762 460.544C175.33 461.328 175.114 462.296 175.114 463.448C175.114 464.6 175.33 465.576 175.762 466.376C176.21 467.16 176.794 467.752 177.514 468.152C178.25 468.536 179.05 468.728 179.914 468.728ZM195.72 456.656C197.288 456.656 198.568 457.144 199.56 458.12C200.552 459.08 201.048 460.48 201.048 462.32V470H199.392V462.512C199.392 461.088 199.032 460 198.312 459.248C197.608 458.496 196.64 458.12 195.408 458.12C194.144 458.12 193.136 458.52 192.384 459.32C191.632 460.12 191.256 461.296 191.256 462.848V470H189.576V456.896H191.256V459.128C191.672 458.328 192.272 457.72 193.056 457.304C193.84 456.872 194.728 456.656 195.72 456.656ZM224.646 453.224L218.286 470H216.366L210.006 453.224H211.83L217.326 468.176L222.87 453.224H224.646ZM225.994 454.304V452.792H230.074V470H228.37V454.304H225.994ZM233.002 454.304V452.792H237.082V470H235.378V454.304H233.002ZM258.5 458.048C258.5 459.488 258.028 460.648 257.084 461.528C256.14 462.408 254.724 462.848 252.836 462.848H249.452V470H247.772V453.224H252.836C254.708 453.224 256.116 453.664 257.06 454.544C258.02 455.424 258.5 456.592 258.5 458.048ZM252.836 461.408C255.46 461.408 256.772 460.288 256.772 458.048C256.772 456.928 256.46 456.08 255.836 455.504C255.212 454.928 254.212 454.64 252.836 454.64H249.452V461.408H252.836ZM262.998 459.224C263.366 458.408 263.926 457.776 264.678 457.328C265.446 456.88 266.382 456.656 267.486 456.656V458.408H267.03C265.814 458.408 264.838 458.736 264.102 459.392C263.366 460.048 262.998 461.144 262.998 462.68V470H261.318V456.896H262.998V459.224ZM275.75 470.192C274.518 470.192 273.406 469.92 272.414 469.376C271.438 468.816 270.662 468.032 270.086 467.024C269.526 466 269.246 464.808 269.246 463.448C269.246 462.088 269.534 460.904 270.11 459.896C270.686 458.872 271.47 458.088 272.462 457.544C273.454 456.984 274.566 456.704 275.798 456.704C277.03 456.704 278.142 456.984 279.134 457.544C280.142 458.088 280.926 458.872 281.486 459.896C282.062 460.904 282.35 462.088 282.35 463.448C282.35 464.792 282.062 465.976 281.486 467C280.91 468.024 280.118 468.816 279.11 469.376C278.102 469.92 276.982 470.192 275.75 470.192ZM275.75 468.728C276.614 468.728 277.414 468.536 278.15 468.152C278.886 467.752 279.478 467.16 279.926 466.376C280.39 465.576 280.622 464.6 280.622 463.448C280.622 462.296 280.398 461.328 279.95 460.544C279.502 459.744 278.91 459.152 278.174 458.768C277.438 458.368 276.638 458.168 275.774 458.168C274.91 458.168 274.11 458.368 273.374 458.768C272.638 459.152 272.046 459.744 271.598 460.544C271.166 461.328 270.95 462.296 270.95 463.448C270.95 464.6 271.166 465.576 271.598 466.376C272.046 467.16 272.63 467.752 273.35 468.152C274.086 468.536 274.886 468.728 275.75 468.728Z" fill="#0D0D0D"/>
<path d="M41.05 71C41.05 68.94 41.51 67.1 42.43 65.48C43.37 63.84 44.64 62.57 46.24 61.67C47.86 60.75 49.67 60.29 51.67 60.29C54.01 60.29 56.06 60.89 57.82 62.09C59.58 63.29 60.81 64.95 61.51 67.07H56.68C56.2 66.07 55.52 65.32 54.64 64.82C53.78 64.32 52.78 64.07 51.64 64.07C50.42 64.07 49.33 64.36 48.37 64.94C47.43 65.5 46.69 66.3 46.15 67.34C45.63 68.38 45.37 69.6 45.37 71C45.37 72.38 45.63 73.6 46.15 74.66C46.69 75.7 47.43 76.51 48.37 77.09C49.33 77.65 50.42 77.93 51.64 77.93C52.78 77.93 53.78 77.68 54.64 77.18C55.52 76.66 56.2 75.9 56.68 74.9H61.51C60.81 77.04 59.58 78.71 57.82 79.91C56.08 81.09 54.03 81.68 51.67 81.68C49.67 81.68 47.86 81.23 46.24 80.33C44.64 79.41 43.37 78.14 42.43 76.52C41.51 74.9 41.05 73.06 41.05 71Z" fill="#1F5C4D"/>
<path d="M90.808 65.648C90.808 66.992 90.484 68.252 89.836 69.428C89.212 70.604 88.216 71.552 86.848 72.272C85.504 72.992 83.8 73.352 81.736 73.352H77.524V83H72.484V57.872H81.736C83.68 57.872 85.336 58.208 86.704 58.88C88.072 59.552 89.092 60.476 89.764 61.652C90.46 62.828 90.808 64.16 90.808 65.648ZM81.52 69.284C82.912 69.284 83.944 68.972 84.616 68.348C85.288 67.7 85.624 66.8 85.624 65.648C85.624 63.2 84.256 61.976 81.52 61.976H77.524V69.284H81.52ZM99.4263 66.152C100.074 65.096 100.914 64.268 101.946 63.668C103.002 63.068 104.202 62.768 105.546 62.768V68.06H104.214C102.63 68.06 101.43 68.432 100.614 69.176C99.8223 69.92 99.4263 71.216 99.4263 73.064V83H94.3863V63.056H99.4263V66.152ZM117.797 83.324C115.877 83.324 114.149 82.904 112.613 82.064C111.077 81.2 109.865 79.988 108.977 78.428C108.113 76.868 107.681 75.068 107.681 73.028C107.681 70.988 108.125 69.188 109.013 67.628C109.925 66.068 111.161 64.868 112.721 64.028C114.281 63.164 116.021 62.732 117.941 62.732C119.861 62.732 121.601 63.164 123.161 64.028C124.721 64.868 125.945 66.068 126.833 67.628C127.745 69.188 128.201 70.988 128.201 73.028C128.201 75.068 127.733 76.868 126.797 78.428C125.885 79.988 124.637 81.2 123.053 82.064C121.493 82.904 119.741 83.324 117.797 83.324ZM117.797 78.932C118.709 78.932 119.561 78.716 120.353 78.284C121.169 77.828 121.817 77.156 122.297 76.268C122.777 75.38 123.017 74.3 123.017 73.028C123.017 71.132 122.513 69.68 121.505 68.672C120.521 67.64 119.309 67.124 117.869 67.124C116.429 67.124 115.217 67.64 114.233 68.672C113.273 69.68 112.793 71.132 112.793 73.028C112.793 74.924 113.261 76.388 114.197 77.42C115.157 78.428 116.357 78.932 117.797 78.932ZM130.602 72.956C130.602 70.94 130.998 69.152 131.79 67.592C132.606 66.032 133.71 64.832 135.102 63.992C136.494 63.152 138.042 62.732 139.746 62.732C141.042 62.732 142.278 63.02 143.454 63.596C144.63 64.148 145.566 64.892 146.262 65.828V56.36H151.374V83H146.262V80.048C145.638 81.032 144.762 81.824 143.634 82.424C142.506 83.024 141.198 83.324 139.71 83.324C138.03 83.324 136.494 82.892 135.102 82.028C133.71 81.164 132.606 79.952 131.79 78.392C130.998 76.808 130.602 74.996 130.602 72.956ZM146.298 73.028C146.298 71.804 146.058 70.76 145.578 69.896C145.098 69.008 144.45 68.336 143.634 67.88C142.818 67.4 141.942 67.16 141.006 67.16C140.07 67.16 139.206 67.388 138.414 67.844C137.622 68.3 136.974 68.972 136.47 69.86C135.99 70.724 135.75 71.756 135.75 72.956C135.75 74.156 135.99 75.212 136.47 76.124C136.974 77.012 137.622 77.696 138.414 78.176C139.23 78.656 140.094 78.896 141.006 78.896C141.942 78.896 142.818 78.668 143.634 78.212C144.45 77.732 145.098 77.06 145.578 76.196C146.058 75.308 146.298 74.252 146.298 73.028ZM175.125 63.056V83H170.049V80.48C169.401 81.344 168.549 82.028 167.493 82.532C166.461 83.012 165.333 83.252 164.109 83.252C162.549 83.252 161.169 82.928 159.969 82.28C158.769 81.608 157.821 80.636 157.125 79.364C156.453 78.068 156.117 76.532 156.117 74.756V63.056H161.157V74.036C161.157 75.62 161.553 76.844 162.345 77.708C163.137 78.548 164.217 78.968 165.585 78.968C166.977 78.968 168.069 78.548 168.861 77.708C169.653 76.844 170.049 75.62 170.049 74.036V63.056H175.125ZM178.801 73.028C178.801 70.964 179.221 69.164 180.061 67.628C180.901 66.068 182.065 64.868 183.553 64.028C185.041 63.164 186.745 62.732 188.665 62.732C191.137 62.732 193.177 63.356 194.785 64.604C196.417 65.828 197.509 67.556 198.061 69.788H192.625C192.337 68.924 191.845 68.252 191.149 67.772C190.477 67.268 189.637 67.016 188.629 67.016C187.189 67.016 186.049 67.544 185.209 68.6C184.369 69.632 183.949 71.108 183.949 73.028C183.949 74.924 184.369 76.4 185.209 77.456C186.049 78.488 187.189 79.004 188.629 79.004C190.669 79.004 192.001 78.092 192.625 76.268H198.061C197.509 78.428 196.417 80.144 194.785 81.416C193.153 82.688 191.113 83.324 188.665 83.324C186.745 83.324 185.041 82.904 183.553 82.064C182.065 81.2 180.901 80 180.061 78.464C179.221 76.904 178.801 75.092 178.801 73.028ZM207.622 67.196V76.844C207.622 77.516 207.778 78.008 208.09 78.32C208.426 78.608 208.978 78.752 209.746 78.752H212.086V83H208.918C204.67 83 202.546 80.936 202.546 76.808V67.196H200.17V63.056H202.546V58.124H207.622V63.056H212.086V67.196H207.622ZM233.433 67.196H229.941V83H224.829V67.196H222.561V63.056H224.829V62.048C224.829 59.6 225.525 57.8 226.917 56.648C228.309 55.496 230.409 54.956 233.217 55.028V59.276C231.993 59.252 231.141 59.456 230.661 59.888C230.181 60.32 229.941 61.1 229.941 62.228V63.056H233.433V67.196ZM239.255 60.68C238.367 60.68 237.623 60.404 237.023 59.852C236.447 59.276 236.159 58.568 236.159 57.728C236.159 56.888 236.447 56.192 237.023 55.64C237.623 55.064 238.367 54.776 239.255 54.776C240.143 54.776 240.875 55.064 241.451 55.64C242.051 56.192 242.351 56.888 242.351 57.728C242.351 58.568 242.051 59.276 241.451 59.852C240.875 60.404 240.143 60.68 239.255 60.68ZM241.739 63.056V83H236.699V63.056H241.739ZM251.758 66.152C252.406 65.096 253.246 64.268 254.278 63.668C255.334 63.068 256.534 62.768 257.878 62.768V68.06H256.546C254.962 68.06 253.762 68.432 252.946 69.176C252.154 69.92 251.758 71.216 251.758 73.064V83H246.718V63.056H251.758V66.152ZM268.905 83.324C267.273 83.324 265.809 83.036 264.513 82.46C263.217 81.86 262.185 81.056 261.417 80.048C260.673 79.04 260.265 77.924 260.193 76.7H265.269C265.365 77.468 265.737 78.104 266.385 78.608C267.057 79.112 267.885 79.364 268.869 79.364C269.829 79.364 270.573 79.172 271.101 78.788C271.653 78.404 271.929 77.912 271.929 77.312C271.929 76.664 271.593 76.184 270.921 75.872C270.273 75.536 269.229 75.176 267.789 74.792C266.301 74.432 265.077 74.06 264.117 73.676C263.181 73.292 262.365 72.704 261.669 71.912C260.997 71.12 260.661 70.052 260.661 68.708C260.661 67.604 260.973 66.596 261.597 65.684C262.245 64.772 263.157 64.052 264.333 63.524C265.533 62.996 266.937 62.732 268.545 62.732C270.921 62.732 272.817 63.332 274.233 64.532C275.649 65.708 276.429 67.304 276.573 69.32H271.749C271.677 68.528 271.341 67.904 270.741 67.448C270.165 66.968 269.385 66.728 268.401 66.728C267.489 66.728 266.781 66.896 266.277 67.232C265.797 67.568 265.557 68.036 265.557 68.636C265.557 69.308 265.893 69.824 266.565 70.184C267.237 70.52 268.281 70.868 269.697 71.228C271.137 71.588 272.325 71.96 273.261 72.344C274.197 72.728 275.001 73.328 275.673 74.144C276.369 74.936 276.729 75.992 276.753 77.312C276.753 78.464 276.429 79.496 275.781 80.408C275.157 81.32 274.245 82.04 273.045 82.568C271.869 83.072 270.489 83.324 268.905 83.324ZM286.758 67.196V76.844C286.758 77.516 286.914 78.008 287.226 78.32C287.562 78.608 288.114 78.752 288.882 78.752H291.222V83H288.054C283.806 83 281.682 80.936 281.682 76.808V67.196H279.306V63.056H281.682V58.124H286.758V63.056H291.222V67.196H286.758ZM318.761 68.024V72.272H303.497V68.024H318.761ZM341.668 83.252C339.916 83.252 338.332 82.952 336.916 82.352C335.524 81.752 334.42 80.888 333.604 79.76C332.788 78.632 332.368 77.3 332.344 75.764H337.744C337.816 76.796 338.176 77.612 338.824 78.212C339.496 78.812 340.408 79.112 341.56 79.112C342.736 79.112 343.66 78.836 344.332 78.284C345.004 77.708 345.34 76.964 345.34 76.052C345.34 75.308 345.112 74.696 344.656 74.216C344.2 73.736 343.624 73.364 342.928 73.1C342.256 72.812 341.32 72.5 340.12 72.164C338.488 71.684 337.156 71.216 336.124 70.76C335.116 70.28 334.24 69.572 333.496 68.636C332.776 67.676 332.416 66.404 332.416 64.82C332.416 63.332 332.788 62.036 333.532 60.932C334.276 59.828 335.32 58.988 336.664 58.412C338.008 57.812 339.544 57.512 341.272 57.512C343.864 57.512 345.964 58.148 347.572 59.42C349.204 60.668 350.104 62.42 350.272 64.676H344.728C344.68 63.812 344.308 63.104 343.612 62.552C342.94 61.976 342.04 61.688 340.912 61.688C339.928 61.688 339.136 61.94 338.536 62.444C337.96 62.948 337.672 63.68 337.672 64.64C337.672 65.312 337.888 65.876 338.32 66.332C338.776 66.764 339.328 67.124 339.976 67.412C340.648 67.676 341.584 67.988 342.784 68.348C344.416 68.828 345.748 69.308 346.78 69.788C347.812 70.268 348.7 70.988 349.444 71.948C350.188 72.908 350.56 74.168 350.56 75.728C350.56 77.072 350.212 78.32 349.516 79.472C348.82 80.624 347.8 81.548 346.456 82.244C345.112 82.916 343.516 83.252 341.668 83.252ZM369.113 83L359.969 71.804V83H354.929V57.872H359.969V69.14L369.113 57.872H375.197L364.829 70.328L375.485 83H369.113ZM383.768 57.872V73.424C383.768 75.128 384.212 76.436 385.1 77.348C385.988 78.236 387.236 78.68 388.844 78.68C390.476 78.68 391.736 78.236 392.624 77.348C393.512 76.436 393.956 75.128 393.956 73.424V57.872H399.032V73.388C399.032 75.524 398.564 77.336 397.628 78.824C396.716 80.288 395.48 81.392 393.92 82.136C392.384 82.88 390.668 83.252 388.772 83.252C386.9 83.252 385.196 82.88 383.66 82.136C382.148 81.392 380.948 80.288 380.06 78.824C379.172 77.336 378.728 75.524 378.728 73.388V57.872H383.768Z" fill="#0D0D0D"/>
<path d="M52.648 114.048C52.648 115.488 52.176 116.648 51.232 117.528C50.288 118.408 48.872 118.848 46.984 118.848H43.6V126H41.92V109.224H46.984C48.856 109.224 50.264 109.664 51.208 110.544C52.168 111.424 52.648 112.592 52.648 114.048ZM46.984 117.408C49.608 117.408 50.92 116.288 50.92 114.048C50.92 112.928 50.608 112.08 49.984 111.504C49.36 110.928 48.36 110.64 46.984 110.64H43.6V117.408H46.984ZM56.3069 110.424C55.9709 110.424 55.6829 110.304 55.4429 110.064C55.2029 109.824 55.0829 109.528 55.0829 109.176C55.0829 108.824 55.2029 108.536 55.4429 108.312C55.6829 108.072 55.9709 107.952 56.3069 107.952C56.6429 107.952 56.9309 108.072 57.1709 108.312C57.4109 108.536 57.5309 108.824 57.5309 109.176C57.5309 109.528 57.4109 109.824 57.1709 110.064C56.9309 110.304 56.6429 110.424 56.3069 110.424ZM57.1469 112.896V126H55.4669V112.896H57.1469ZM60.1833 119.448C60.1833 118.088 60.4553 116.904 60.9993 115.896C61.5433 114.872 62.2953 114.088 63.2553 113.544C64.2153 112.984 65.3113 112.704 66.5433 112.704C68.1593 112.704 69.4873 113.104 70.5273 113.904C71.5833 114.704 72.2633 115.792 72.5673 117.168H70.7673C70.5433 116.224 70.0553 115.488 69.3033 114.96C68.5673 114.416 67.6473 114.144 66.5433 114.144C65.6633 114.144 64.8713 114.344 64.1673 114.744C63.4633 115.144 62.9033 115.744 62.4873 116.544C62.0873 117.328 61.8873 118.296 61.8873 119.448C61.8873 120.6 62.0873 121.576 62.4873 122.376C62.9033 123.176 63.4633 123.776 64.1673 124.176C64.8713 124.576 65.6633 124.776 66.5433 124.776C67.6473 124.776 68.5673 124.512 69.3033 123.984C70.0553 123.44 70.5433 122.688 70.7673 121.728H72.5673C72.2633 123.072 71.5833 124.152 70.5273 124.968C69.4713 125.784 68.1433 126.192 66.5433 126.192C65.3113 126.192 64.2153 125.92 63.2553 125.376C62.2953 124.816 61.5433 124.032 60.9993 123.024C60.4553 122 60.1833 120.808 60.1833 119.448ZM82.75 126L77.35 120.12V126H75.67V108.24H77.35V118.752L82.63 112.896H84.982L78.766 119.424L85.03 126H82.75ZM95.9712 114.312V122.448C95.9712 123.248 96.1232 123.8 96.4272 124.104C96.7312 124.408 97.2672 124.56 98.0352 124.56H99.5712V126H97.7712C96.5872 126 95.7072 125.728 95.1312 125.184C94.5552 124.624 94.2672 123.712 94.2672 122.448V114.312H92.4432V112.896H94.2672V109.608H95.9712V112.896H99.5712V114.312H95.9712ZM108.582 112.656C109.574 112.656 110.462 112.864 111.246 113.28C112.046 113.696 112.67 114.336 113.118 115.2C113.582 116.048 113.814 117.088 113.814 118.32V126H112.158V118.512C112.158 117.088 111.798 116 111.078 115.248C110.374 114.496 109.406 114.12 108.174 114.12C106.91 114.12 105.902 114.52 105.15 115.32C104.398 116.12 104.022 117.296 104.022 118.848V126H102.342V108.24H104.022V115.128C104.438 114.344 105.046 113.736 105.846 113.304C106.662 112.872 107.574 112.656 108.582 112.656ZM129.385 118.776C129.385 119.352 129.369 119.792 129.337 120.096H118.465C118.513 121.088 118.753 121.936 119.185 122.64C119.617 123.344 120.185 123.88 120.889 124.248C121.593 124.6 122.361 124.776 123.193 124.776C124.281 124.776 125.193 124.512 125.929 123.984C126.681 123.456 127.177 122.744 127.417 121.848H129.193C128.873 123.128 128.185 124.176 127.129 124.992C126.089 125.792 124.777 126.192 123.193 126.192C121.961 126.192 120.857 125.92 119.881 125.376C118.905 124.816 118.137 124.032 117.577 123.024C117.033 122 116.761 120.808 116.761 119.448C116.761 118.088 117.033 116.896 117.577 115.872C118.121 114.848 118.881 114.064 119.857 113.52C120.833 112.976 121.945 112.704 123.193 112.704C124.441 112.704 125.529 112.976 126.457 113.52C127.401 114.064 128.121 114.8 128.617 115.728C129.129 116.64 129.385 117.656 129.385 118.776ZM127.681 118.728C127.697 117.752 127.497 116.92 127.081 116.232C126.681 115.544 126.129 115.024 125.425 114.672C124.721 114.32 123.953 114.144 123.121 114.144C121.873 114.144 120.809 114.544 119.929 115.344C119.049 116.144 118.561 117.272 118.465 118.728H127.681ZM150.901 118.776C150.901 119.352 150.885 119.792 150.853 120.096H139.981C140.029 121.088 140.269 121.936 140.701 122.64C141.133 123.344 141.701 123.88 142.405 124.248C143.109 124.6 143.877 124.776 144.709 124.776C145.797 124.776 146.709 124.512 147.445 123.984C148.197 123.456 148.693 122.744 148.933 121.848H150.709C150.389 123.128 149.701 124.176 148.645 124.992C147.605 125.792 146.293 126.192 144.709 126.192C143.477 126.192 142.373 125.92 141.397 125.376C140.421 124.816 139.653 124.032 139.093 123.024C138.549 122 138.277 120.808 138.277 119.448C138.277 118.088 138.549 116.896 139.093 115.872C139.637 114.848 140.397 114.064 141.373 113.52C142.349 112.976 143.461 112.704 144.709 112.704C145.957 112.704 147.045 112.976 147.973 113.52C148.917 114.064 149.637 114.8 150.133 115.728C150.645 116.64 150.901 117.656 150.901 118.776ZM149.197 118.728C149.213 117.752 149.013 116.92 148.597 116.232C148.197 115.544 147.645 115.024 146.941 114.672C146.237 114.32 145.469 114.144 144.637 114.144C143.389 114.144 142.325 114.544 141.445 115.344C140.565 116.144 140.077 117.272 139.981 118.728H149.197ZM160.839 126L157.455 120.72L154.191 126H152.415L156.639 119.448L152.463 112.896H154.359L157.695 118.104L160.935 112.896H162.687L158.511 119.376L162.735 126H160.839ZM164.246 119.424C164.246 118.08 164.51 116.904 165.038 115.896C165.582 114.872 166.326 114.088 167.27 113.544C168.23 112.984 169.31 112.704 170.51 112.704C171.758 112.704 172.83 112.992 173.726 113.568C174.638 114.144 175.294 114.88 175.694 115.776V112.896H177.374V126H175.694V123.096C175.278 123.992 174.614 124.736 173.702 125.328C172.806 125.904 171.734 126.192 170.486 126.192C169.302 126.192 168.23 125.912 167.27 125.352C166.326 124.792 165.582 124 165.038 122.976C164.51 121.952 164.246 120.768 164.246 119.424ZM175.694 119.448C175.694 118.392 175.478 117.464 175.046 116.664C174.614 115.864 174.022 115.248 173.27 114.816C172.534 114.384 171.718 114.168 170.822 114.168C169.894 114.168 169.062 114.376 168.326 114.792C167.59 115.208 167.006 115.816 166.574 116.616C166.158 117.4 165.95 118.336 165.95 119.424C165.95 120.496 166.158 121.44 166.574 122.256C167.006 123.056 167.59 123.672 168.326 124.104C169.062 124.52 169.894 124.728 170.822 124.728C171.718 124.728 172.534 124.512 173.27 124.08C174.022 123.648 174.614 123.032 175.046 122.232C175.478 121.432 175.694 120.504 175.694 119.448ZM180.441 119.448C180.441 118.088 180.713 116.904 181.257 115.896C181.801 114.872 182.553 114.088 183.513 113.544C184.473 112.984 185.569 112.704 186.801 112.704C188.417 112.704 189.745 113.104 190.785 113.904C191.841 114.704 192.521 115.792 192.825 117.168H191.025C190.801 116.224 190.313 115.488 189.561 114.96C188.825 114.416 187.905 114.144 186.801 114.144C185.921 114.144 185.129 114.344 184.425 114.744C183.721 115.144 183.161 115.744 182.745 116.544C182.345 117.328 182.145 118.296 182.145 119.448C182.145 120.6 182.345 121.576 182.745 122.376C183.161 123.176 183.721 123.776 184.425 124.176C185.129 124.576 185.921 124.776 186.801 124.776C187.905 124.776 188.825 124.512 189.561 123.984C190.313 123.44 190.801 122.688 191.025 121.728H192.825C192.521 123.072 191.841 124.152 190.785 124.968C189.729 125.784 188.401 126.192 186.801 126.192C185.569 126.192 184.473 125.92 183.513 125.376C182.553 124.816 181.801 124.032 181.257 123.024C180.713 122 180.441 120.808 180.441 119.448ZM198.112 114.312V122.448C198.112 123.248 198.264 123.8 198.568 124.104C198.872 124.408 199.408 124.56 200.176 124.56H201.712V126H199.912C198.728 126 197.848 125.728 197.272 125.184C196.696 124.624 196.408 123.712 196.408 122.448V114.312H194.584V112.896H196.408V109.608H198.112V112.896H201.712V114.312H198.112ZM212.724 115.776C213.14 114.896 213.796 114.168 214.692 113.592C215.604 113 216.684 112.704 217.932 112.704C219.116 112.704 220.18 112.984 221.124 113.544C222.084 114.088 222.828 114.872 223.356 115.896C223.9 116.904 224.172 118.08 224.172 119.424C224.172 120.768 223.9 121.952 223.356 122.976C222.828 124 222.084 124.792 221.124 125.352C220.18 125.912 219.116 126.192 217.932 126.192C216.7 126.192 215.628 125.904 214.716 125.328C213.804 124.736 213.14 124 212.724 123.12V132.192H211.068V112.896H212.724V115.776ZM222.468 119.424C222.468 118.336 222.252 117.4 221.82 116.616C221.404 115.816 220.828 115.208 220.092 114.792C219.356 114.376 218.524 114.168 217.596 114.168C216.7 114.168 215.876 114.384 215.124 114.816C214.388 115.248 213.804 115.864 213.372 116.664C212.94 117.464 212.724 118.392 212.724 119.448C212.724 120.504 212.94 121.432 213.372 122.232C213.804 123.032 214.388 123.648 215.124 124.08C215.876 124.512 216.7 124.728 217.596 124.728C218.524 124.728 219.356 124.52 220.092 124.104C220.828 123.672 221.404 123.056 221.82 122.256C222.252 121.44 222.468 120.496 222.468 119.424ZM228.944 115.224C229.312 114.408 229.872 113.776 230.624 113.328C231.392 112.88 232.328 112.656 233.432 112.656V114.408H232.976C231.76 114.408 230.784 114.736 230.048 115.392C229.312 116.048 228.944 117.144 228.944 118.68V126H227.264V112.896H228.944V115.224ZM241.695 126.192C240.463 126.192 239.351 125.92 238.359 125.376C237.383 124.816 236.607 124.032 236.031 123.024C235.471 122 235.191 120.808 235.191 119.448C235.191 118.088 235.479 116.904 236.055 115.896C236.631 114.872 237.415 114.088 238.407 113.544C239.399 112.984 240.511 112.704 241.743 112.704C242.975 112.704 244.087 112.984 245.079 113.544C246.087 114.088 246.871 114.872 247.431 115.896C248.007 116.904 248.295 118.088 248.295 119.448C248.295 120.792 248.007 121.976 247.431 123C246.855 124.024 246.063 124.816 245.055 125.376C244.047 125.92 242.927 126.192 241.695 126.192ZM241.695 124.728C242.559 124.728 243.359 124.536 244.095 124.152C244.831 123.752 245.423 123.16 245.871 122.376C246.335 121.576 246.567 120.6 246.567 119.448C246.567 118.296 246.343 117.328 245.895 116.544C245.447 115.744 244.855 115.152 244.119 114.768C243.383 114.368 242.583 114.168 241.719 114.168C240.855 114.168 240.055 114.368 239.319 114.768C238.583 115.152 237.991 115.744 237.543 116.544C237.111 117.328 236.895 118.296 236.895 119.448C236.895 120.6 237.111 121.576 237.543 122.376C237.991 123.16 238.575 123.752 239.295 124.152C240.031 124.536 240.831 124.728 241.695 124.728ZM250.59 119.424C250.59 118.08 250.862 116.904 251.406 115.896C251.95 114.872 252.694 114.088 253.638 113.544C254.598 112.984 255.678 112.704 256.878 112.704C258.03 112.704 259.07 112.984 259.998 113.544C260.926 114.104 261.606 114.832 262.038 115.728V108.24H263.718V126H262.038V123.072C261.638 123.984 260.982 124.736 260.07 125.328C259.158 125.904 258.086 126.192 256.854 126.192C255.654 126.192 254.574 125.912 253.614 125.352C252.67 124.792 251.926 124 251.382 122.976C250.854 121.952 250.59 120.768 250.59 119.424ZM262.038 119.448C262.038 118.392 261.822 117.464 261.39 116.664C260.958 115.864 260.366 115.248 259.614 114.816C258.878 114.384 258.062 114.168 257.166 114.168C256.238 114.168 255.406 114.376 254.67 114.792C253.934 115.208 253.35 115.816 252.918 116.616C252.502 117.4 252.294 118.336 252.294 119.424C252.294 120.496 252.502 121.44 252.918 122.256C253.35 123.056 253.934 123.672 254.67 124.104C255.406 124.52 256.238 124.728 257.166 124.728C258.062 124.728 258.878 124.512 259.614 124.08C260.366 123.648 260.958 123.032 261.39 122.232C261.822 121.432 262.038 120.504 262.038 119.448ZM278.905 112.896V126H277.225V123.696C276.841 124.512 276.249 125.136 275.449 125.568C274.649 126 273.753 126.216 272.761 126.216C271.193 126.216 269.913 125.736 268.921 124.776C267.929 123.8 267.433 122.392 267.433 120.552V112.896H269.089V120.36C269.089 121.784 269.441 122.872 270.145 123.624C270.865 124.376 271.841 124.752 273.073 124.752C274.337 124.752 275.345 124.352 276.097 123.552C276.849 122.752 277.225 121.576 277.225 120.024V112.896H278.905ZM281.972 119.448C281.972 118.088 282.244 116.904 282.788 115.896C283.332 114.872 284.084 114.088 285.044 113.544C286.004 112.984 287.1 112.704 288.332 112.704C289.948 112.704 291.276 113.104 292.316 113.904C293.372 114.704 294.052 115.792 294.356 117.168H292.556C292.332 116.224 291.844 115.488 291.092 114.96C290.356 114.416 289.436 114.144 288.332 114.144C287.452 114.144 286.66 114.344 285.956 114.744C285.252 115.144 284.692 115.744 284.276 116.544C283.876 117.328 283.676 118.296 283.676 119.448C283.676 120.6 283.876 121.576 284.276 122.376C284.692 123.176 285.252 123.776 285.956 124.176C286.66 124.576 287.452 124.776 288.332 124.776C289.436 124.776 290.356 124.512 291.092 123.984C291.844 123.44 292.332 122.688 292.556 121.728H294.356C294.052 123.072 293.372 124.152 292.316 124.968C291.26 125.784 289.932 126.192 288.332 126.192C287.1 126.192 286.004 125.92 285.044 125.376C284.084 124.816 283.332 124.032 282.788 123.024C282.244 122 281.972 120.808 281.972 119.448ZM299.643 114.312V122.448C299.643 123.248 299.795 123.8 300.099 124.104C300.403 124.408 300.939 124.56 301.707 124.56H303.243V126H301.443C300.259 126 299.379 125.728 298.803 125.184C298.227 124.624 297.939 123.712 297.939 122.448V114.312H296.115V112.896H297.939V109.608H299.643V112.896H303.243V114.312H299.643ZM306.302 126.12C305.95 126.12 305.654 126 305.414 125.76C305.19 125.52 305.078 125.224 305.078 124.872C305.078 124.52 305.19 124.232 305.414 124.008C305.654 123.768 305.95 123.648 306.302 123.648C306.638 123.648 306.918 123.768 307.142 124.008C307.382 124.232 307.502 124.52 307.502 124.872C307.502 125.224 307.382 125.52 307.142 125.76C306.918 126 306.638 126.12 306.302 126.12ZM47.008 166.168C45.904 166.168 44.928 165.976 44.08 165.592C43.248 165.208 42.592 164.672 42.112 163.984C41.632 163.296 41.376 162.528 41.344 161.68H43.12C43.2 162.496 43.56 163.216 44.2 163.84C44.84 164.448 45.776 164.752 47.008 164.752C48.144 164.752 49.04 164.464 49.696 163.888C50.368 163.296 50.704 162.552 50.704 161.656C50.704 160.936 50.52 160.36 50.152 159.928C49.784 159.48 49.328 159.152 48.784 158.944C48.24 158.72 47.488 158.48 46.528 158.224C45.408 157.92 44.52 157.624 43.864 157.336C43.208 157.048 42.648 156.6 42.184 155.992C41.72 155.384 41.488 154.56 41.488 153.52C41.488 152.656 41.712 151.888 42.16 151.216C42.608 150.528 43.24 149.992 44.056 149.608C44.872 149.224 45.808 149.032 46.864 149.032C48.416 149.032 49.664 149.416 50.608 150.184C51.568 150.936 52.12 151.912 52.264 153.112H50.44C50.328 152.424 49.952 151.816 49.312 151.288C48.672 150.744 47.808 150.472 46.72 150.472C45.712 150.472 44.872 150.744 44.2 151.288C43.528 151.816 43.192 152.544 43.192 153.472C43.192 154.176 43.376 154.744 43.744 155.176C44.112 155.608 44.568 155.936 45.112 156.16C45.672 156.384 46.424 156.624 47.368 156.88C48.456 157.184 49.336 157.488 50.008 157.792C50.68 158.08 51.248 158.528 51.712 159.136C52.176 159.744 52.408 160.56 52.408 161.584C52.408 162.368 52.2 163.112 51.784 163.816C51.368 164.52 50.752 165.088 49.936 165.52C49.12 165.952 48.144 166.168 47.008 166.168ZM67.5104 158.776C67.5104 159.352 67.4944 159.792 67.4624 160.096H56.5904C56.6384 161.088 56.8784 161.936 57.3104 162.64C57.7424 163.344 58.3104 163.88 59.0144 164.248C59.7184 164.6 60.4864 164.776 61.3184 164.776C62.4064 164.776 63.3184 164.512 64.0544 163.984C64.8064 163.456 65.3024 162.744 65.5424 161.848H67.3184C66.9984 163.128 66.3104 164.176 65.2544 164.992C64.2144 165.792 62.9024 166.192 61.3184 166.192C60.0864 166.192 58.9824 165.92 58.0064 165.376C57.0304 164.816 56.2624 164.032 55.7024 163.024C55.1584 162 54.8864 160.808 54.8864 159.448C54.8864 158.088 55.1584 156.896 55.7024 155.872C56.2464 154.848 57.0064 154.064 57.9824 153.52C58.9584 152.976 60.0704 152.704 61.3184 152.704C62.5664 152.704 63.6544 152.976 64.5824 153.52C65.5264 154.064 66.2464 154.8 66.7424 155.728C67.2544 156.64 67.5104 157.656 67.5104 158.776ZM65.8064 158.728C65.8224 157.752 65.6224 156.92 65.2064 156.232C64.8064 155.544 64.2544 155.024 63.5504 154.672C62.8464 154.32 62.0784 154.144 61.2464 154.144C59.9984 154.144 58.9344 154.544 58.0544 155.344C57.1744 156.144 56.6864 157.272 56.5904 158.728H65.8064ZM82.4401 158.776C82.4401 159.352 82.4241 159.792 82.3921 160.096H71.5201C71.5681 161.088 71.8081 161.936 72.2401 162.64C72.6721 163.344 73.2401 163.88 73.9441 164.248C74.6481 164.6 75.4161 164.776 76.2481 164.776C77.3361 164.776 78.2481 164.512 78.9841 163.984C79.7361 163.456 80.2321 162.744 80.4721 161.848H82.2481C81.9281 163.128 81.2401 164.176 80.1841 164.992C79.1441 165.792 77.8321 166.192 76.2481 166.192C75.0161 166.192 73.9121 165.92 72.9361 165.376C71.9601 164.816 71.1921 164.032 70.6321 163.024C70.0881 162 69.8161 160.808 69.8161 159.448C69.8161 158.088 70.0881 156.896 70.6321 155.872C71.1761 154.848 71.9361 154.064 72.9121 153.52C73.8881 152.976 75.0001 152.704 76.2481 152.704C77.4961 152.704 78.5841 152.976 79.5121 153.52C80.4561 154.064 81.1761 154.8 81.6721 155.728C82.1841 156.64 82.4401 157.656 82.4401 158.776ZM80.7361 158.728C80.7521 157.752 80.5521 156.92 80.1361 156.232C79.7361 155.544 79.1841 155.024 78.4801 154.672C77.7761 154.32 77.0081 154.144 76.1761 154.144C74.9281 154.144 73.8641 154.544 72.9841 155.344C72.1041 156.144 71.6161 157.272 71.5201 158.728H80.7361ZM91.3317 159.424C91.3317 158.08 91.5957 156.904 92.1237 155.896C92.6677 154.872 93.4117 154.088 94.3557 153.544C95.3157 152.984 96.3957 152.704 97.5957 152.704C98.8437 152.704 99.9157 152.992 100.812 153.568C101.724 154.144 102.38 154.88 102.78 155.776V152.896H104.46V166H102.78V163.096C102.364 163.992 101.7 164.736 100.788 165.328C99.8917 165.904 98.8197 166.192 97.5717 166.192C96.3877 166.192 95.3157 165.912 94.3557 165.352C93.4117 164.792 92.6677 164 92.1237 162.976C91.5957 161.952 91.3317 160.768 91.3317 159.424ZM102.78 159.448C102.78 158.392 102.564 157.464 102.132 156.664C101.7 155.864 101.108 155.248 100.356 154.816C99.6197 154.384 98.8037 154.168 97.9077 154.168C96.9797 154.168 96.1477 154.376 95.4117 154.792C94.6757 155.208 94.0917 155.816 93.6597 156.616C93.2437 157.4 93.0357 158.336 93.0357 159.424C93.0357 160.496 93.2437 161.44 93.6597 162.256C94.0917 163.056 94.6757 163.672 95.4117 164.104C96.1477 164.52 96.9797 164.728 97.9077 164.728C98.8037 164.728 99.6197 164.512 100.356 164.08C101.108 163.648 101.7 163.032 102.132 162.232C102.564 161.432 102.78 160.504 102.78 159.448ZM109.975 148.24V166H108.295V148.24H109.975ZM115.459 148.24V166H113.779V148.24H115.459ZM130.362 166.192C128.858 166.192 127.626 165.848 126.666 165.16C125.722 164.456 125.194 163.504 125.082 162.304H126.81C126.89 163.04 127.234 163.64 127.842 164.104C128.466 164.552 129.298 164.776 130.338 164.776C131.25 164.776 131.962 164.56 132.474 164.128C133.002 163.696 133.266 163.16 133.266 162.52C133.266 162.072 133.122 161.704 132.834 161.416C132.546 161.128 132.178 160.904 131.73 160.744C131.298 160.568 130.706 160.384 129.954 160.192C128.978 159.936 128.186 159.68 127.578 159.424C126.97 159.168 126.45 158.792 126.018 158.296C125.602 157.784 125.394 157.104 125.394 156.256C125.394 155.616 125.586 155.024 125.97 154.48C126.354 153.936 126.898 153.504 127.602 153.184C128.306 152.864 129.106 152.704 130.002 152.704C131.41 152.704 132.546 153.064 133.41 153.784C134.274 154.488 134.738 155.464 134.802 156.712H133.122C133.074 155.944 132.77 155.328 132.21 154.864C131.666 154.384 130.914 154.144 129.954 154.144C129.106 154.144 128.418 154.344 127.89 154.744C127.362 155.144 127.098 155.64 127.098 156.232C127.098 156.744 127.25 157.168 127.554 157.504C127.874 157.824 128.266 158.08 128.73 158.272C129.194 158.448 129.818 158.648 130.602 158.872C131.546 159.128 132.298 159.376 132.858 159.616C133.418 159.856 133.898 160.208 134.298 160.672C134.698 161.136 134.906 161.752 134.922 162.52C134.922 163.224 134.73 163.856 134.346 164.416C133.962 164.96 133.426 165.392 132.738 165.712C132.05 166.032 131.258 166.192 130.362 166.192ZM149.436 152.896V166H147.756V163.696C147.372 164.512 146.78 165.136 145.98 165.568C145.18 166 144.284 166.216 143.292 166.216C141.724 166.216 140.444 165.736 139.452 164.776C138.46 163.8 137.964 162.392 137.964 160.552V152.896H139.62V160.36C139.62 161.784 139.972 162.872 140.676 163.624C141.396 164.376 142.372 164.752 143.604 164.752C144.868 164.752 145.876 164.352 146.628 163.552C147.38 162.752 147.756 161.576 147.756 160.024V152.896H149.436ZM154.928 155.776C155.344 154.896 156 154.168 156.896 153.592C157.808 153 158.888 152.704 160.136 152.704C161.32 152.704 162.384 152.984 163.328 153.544C164.288 154.088 165.032 154.872 165.56 155.896C166.104 156.904 166.376 158.08 166.376 159.424C166.376 160.768 166.104 161.952 165.56 162.976C165.032 164 164.288 164.792 163.328 165.352C162.384 165.912 161.32 166.192 160.136 166.192C158.904 166.192 157.832 165.904 156.92 165.328C156.008 164.736 155.344 164 154.928 163.12V172.192H153.272V152.896H154.928V155.776ZM164.672 159.424C164.672 158.336 164.456 157.4 164.024 156.616C163.608 155.816 163.032 155.208 162.296 154.792C161.56 154.376 160.728 154.168 159.8 154.168C158.904 154.168 158.08 154.384 157.328 154.816C156.592 155.248 156.008 155.864 155.576 156.664C155.144 157.464 154.928 158.392 154.928 159.448C154.928 160.504 155.144 161.432 155.576 162.232C156.008 163.032 156.592 163.648 157.328 164.08C158.08 164.512 158.904 164.728 159.8 164.728C160.728 164.728 161.56 164.52 162.296 164.104C163.032 163.672 163.608 163.056 164.024 162.256C164.456 161.44 164.672 160.496 164.672 159.424ZM171.123 155.776C171.539 154.896 172.195 154.168 173.091 153.592C174.003 153 175.083 152.704 176.331 152.704C177.515 152.704 178.579 152.984 179.523 153.544C180.483 154.088 181.227 154.872 181.755 155.896C182.299 156.904 182.571 158.08 182.571 159.424C182.571 160.768 182.299 161.952 181.755 162.976C181.227 164 180.483 164.792 179.523 165.352C178.579 165.912 177.515 166.192 176.331 166.192C175.099 166.192 174.027 165.904 173.115 165.328C172.203 164.736 171.539 164 171.123 163.12V172.192H169.467V152.896H171.123V155.776ZM180.867 159.424C180.867 158.336 180.651 157.4 180.219 156.616C179.803 155.816 179.227 155.208 178.491 154.792C177.755 154.376 176.923 154.168 175.995 154.168C175.099 154.168 174.275 154.384 173.523 154.816C172.787 155.248 172.203 155.864 171.771 156.664C171.339 157.464 171.123 158.392 171.123 159.448C171.123 160.504 171.339 161.432 171.771 162.232C172.203 163.032 172.787 163.648 173.523 164.08C174.275 164.512 175.099 164.728 175.995 164.728C176.923 164.728 177.755 164.52 178.491 164.104C179.227 163.672 179.803 163.056 180.219 162.256C180.651 161.44 180.867 160.496 180.867 159.424ZM191.398 166.192C190.166 166.192 189.054 165.92 188.062 165.376C187.086 164.816 186.31 164.032 185.734 163.024C185.174 162 184.894 160.808 184.894 159.448C184.894 158.088 185.182 156.904 185.758 155.896C186.334 154.872 187.118 154.088 188.11 153.544C189.102 152.984 190.214 152.704 191.446 152.704C192.678 152.704 193.79 152.984 194.782 153.544C195.79 154.088 196.574 154.872 197.134 155.896C197.71 156.904 197.998 158.088 197.998 159.448C197.998 160.792 197.71 161.976 197.134 163C196.558 164.024 195.766 164.816 194.758 165.376C193.75 165.92 192.63 166.192 191.398 166.192ZM191.398 164.728C192.262 164.728 193.062 164.536 193.798 164.152C194.534 163.752 195.126 163.16 195.574 162.376C196.038 161.576 196.27 160.6 196.27 159.448C196.27 158.296 196.046 157.328 195.598 156.544C195.15 155.744 194.558 155.152 193.822 154.768C193.086 154.368 192.286 154.168 191.422 154.168C190.558 154.168 189.758 154.368 189.022 154.768C188.286 155.152 187.694 155.744 187.246 156.544C186.814 157.328 186.598 158.296 186.598 159.448C186.598 160.6 186.814 161.576 187.246 162.376C187.694 163.16 188.278 163.752 188.998 164.152C189.734 164.536 190.534 164.728 191.398 164.728ZM202.741 155.224C203.109 154.408 203.669 153.776 204.421 153.328C205.189 152.88 206.125 152.656 207.229 152.656V154.408H206.773C205.557 154.408 204.581 154.736 203.845 155.392C203.109 156.048 202.741 157.144 202.741 158.68V166H201.061V152.896H202.741V155.224ZM211.94 154.312V162.448C211.94 163.248 212.092 163.8 212.396 164.104C212.7 164.408 213.236 164.56 214.004 164.56H215.54V166H213.74C212.556 166 211.676 165.728 211.1 165.184C210.524 164.624 210.236 163.712 210.236 162.448V154.312H208.412V152.896H210.236V149.608H211.94V152.896H215.54V154.312H211.94ZM225.737 150.424C225.401 150.424 225.113 150.304 224.873 150.064C224.633 149.824 224.513 149.528 224.513 149.176C224.513 148.824 224.633 148.536 224.873 148.312C225.113 148.072 225.401 147.952 225.737 147.952C226.073 147.952 226.361 148.072 226.601 148.312C226.841 148.536 226.961 148.824 226.961 149.176C226.961 149.528 226.841 149.824 226.601 150.064C226.361 150.304 226.073 150.424 225.737 150.424ZM226.577 152.896V166H224.897V152.896H226.577ZM236.525 152.656C238.093 152.656 239.373 153.144 240.365 154.12C241.357 155.08 241.853 156.48 241.853 158.32V166H240.197V158.512C240.197 157.088 239.837 156 239.117 155.248C238.413 154.496 237.445 154.12 236.213 154.12C234.949 154.12 233.941 154.52 233.189 155.32C232.437 156.12 232.061 157.296 232.061 158.848V166H230.381V152.896H232.061V155.128C232.477 154.328 233.077 153.72 233.861 153.304C234.645 152.872 235.533 152.656 236.525 152.656ZM257.89 166.192C256.658 166.192 255.546 165.92 254.554 165.376C253.578 164.816 252.802 164.032 252.226 163.024C251.666 162 251.386 160.808 251.386 159.448C251.386 158.088 251.674 156.904 252.25 155.896C252.826 154.872 253.61 154.088 254.602 153.544C255.594 152.984 256.706 152.704 257.938 152.704C259.17 152.704 260.282 152.984 261.274 153.544C262.282 154.088 263.066 154.872 263.626 155.896C264.202 156.904 264.49 158.088 264.49 159.448C264.49 160.792 264.202 161.976 263.626 163C263.05 164.024 262.258 164.816 261.25 165.376C260.242 165.92 259.122 166.192 257.89 166.192ZM257.89 164.728C258.754 164.728 259.554 164.536 260.29 164.152C261.026 163.752 261.618 163.16 262.066 162.376C262.53 161.576 262.762 160.6 262.762 159.448C262.762 158.296 262.538 157.328 262.09 156.544C261.642 155.744 261.05 155.152 260.314 154.768C259.578 154.368 258.778 154.168 257.914 154.168C257.05 154.168 256.25 154.368 255.514 154.768C254.778 155.152 254.186 155.744 253.738 156.544C253.306 157.328 253.09 158.296 253.09 159.448C253.09 160.6 253.306 161.576 253.738 162.376C254.186 163.16 254.77 163.752 255.49 164.152C256.226 164.536 257.026 164.728 257.89 164.728ZM273.697 152.656C275.265 152.656 276.545 153.144 277.537 154.12C278.529 155.08 279.025 156.48 279.025 158.32V166H277.369V158.512C277.369 157.088 277.009 156 276.289 155.248C275.585 154.496 274.617 154.12 273.385 154.12C272.121 154.12 271.113 154.52 270.361 155.32C269.609 156.12 269.233 157.296 269.233 158.848V166H267.553V152.896H269.233V155.128C269.649 154.328 270.249 153.72 271.033 153.304C271.817 152.872 272.705 152.656 273.697 152.656ZM294.596 158.776C294.596 159.352 294.58 159.792 294.548 160.096H283.676C283.724 161.088 283.964 161.936 284.396 162.64C284.828 163.344 285.396 163.88 286.1 164.248C286.804 164.6 287.572 164.776 288.404 164.776C289.492 164.776 290.404 164.512 291.14 163.984C291.892 163.456 292.388 162.744 292.628 161.848H294.404C294.084 163.128 293.396 164.176 292.34 164.992C291.3 165.792 289.988 166.192 288.404 166.192C287.172 166.192 286.068 165.92 285.092 165.376C284.116 164.816 283.348 164.032 282.788 163.024C282.244 162 281.972 160.808 281.972 159.448C281.972 158.088 282.244 156.896 282.788 155.872C283.332 154.848 284.092 154.064 285.068 153.52C286.044 152.976 287.156 152.704 288.404 152.704C289.652 152.704 290.74 152.976 291.668 153.52C292.612 154.064 293.332 154.8 293.828 155.728C294.34 156.64 294.596 157.656 294.596 158.776ZM292.892 158.728C292.908 157.752 292.708 156.92 292.292 156.232C291.892 155.544 291.34 155.024 290.636 154.672C289.932 154.32 289.164 154.144 288.332 154.144C287.084 154.144 286.02 154.544 285.14 155.344C284.26 156.144 283.772 157.272 283.676 158.728H292.892ZM310.496 152.656C311.488 152.656 312.376 152.864 313.16 153.28C313.96 153.696 314.584 154.336 315.032 155.2C315.496 156.048 315.728 157.088 315.728 158.32V166H314.072V158.512C314.072 157.088 313.712 156 312.992 155.248C312.288 154.496 311.32 154.12 310.088 154.12C308.824 154.12 307.816 154.52 307.064 155.32C306.312 156.12 305.936 157.296 305.936 158.848V166H304.256V148.24H305.936V155.128C306.352 154.344 306.96 153.736 307.76 153.304C308.576 152.872 309.488 152.656 310.496 152.656ZM330.795 152.896V166H329.115V163.696C328.731 164.512 328.139 165.136 327.339 165.568C326.539 166 325.643 166.216 324.651 166.216C323.083 166.216 321.803 165.736 320.811 164.776C319.819 163.8 319.323 162.392 319.323 160.552V152.896H320.979V160.36C320.979 161.784 321.331 162.872 322.035 163.624C322.755 164.376 323.731 164.752 324.963 164.752C326.227 164.752 327.235 164.352 327.987 163.552C328.739 162.752 329.115 161.576 329.115 160.024V152.896H330.795ZM336.287 155.8C336.719 154.888 337.383 154.144 338.279 153.568C339.191 152.992 340.263 152.704 341.495 152.704C342.695 152.704 343.767 152.984 344.711 153.544C345.655 154.088 346.391 154.872 346.919 155.896C347.463 156.904 347.735 158.08 347.735 159.424C347.735 160.768 347.463 161.952 346.919 162.976C346.391 164 345.647 164.792 344.687 165.352C343.743 165.912 342.679 166.192 341.495 166.192C340.247 166.192 339.167 165.912 338.255 165.352C337.359 164.776 336.703 164.032 336.287 163.12V166H334.631V148.24H336.287V155.8ZM346.031 159.424C346.031 158.336 345.815 157.4 345.383 156.616C344.967 155.816 344.391 155.208 343.655 154.792C342.919 154.376 342.087 154.168 341.159 154.168C340.263 154.168 339.439 154.384 338.687 154.816C337.951 155.248 337.367 155.864 336.935 156.664C336.503 157.464 336.287 158.392 336.287 159.448C336.287 160.504 336.503 161.432 336.935 162.232C337.367 163.032 337.951 163.648 338.687 164.08C339.439 164.512 340.263 164.728 341.159 164.728C342.087 164.728 342.919 164.52 343.655 164.104C344.391 163.672 344.967 163.056 345.383 162.256C345.815 161.44 346.031 160.496 346.031 159.424ZM351.114 166.12C350.762 166.12 350.466 166 350.226 165.76C350.002 165.52 349.89 165.224 349.89 164.872C349.89 164.52 350.002 164.232 350.226 164.008C350.466 163.768 350.762 163.648 351.114 163.648C351.45 163.648 351.73 163.768 351.954 164.008C352.194 164.232 352.314 164.52 352.314 164.872C352.314 165.224 352.194 165.52 351.954 165.76C351.73 166 351.45 166.12 351.114 166.12Z" fill="#0D0D0D"/>
<rect x="79" y="296" width="31" height="31" fill="#F4F1EC"/>
<rect x="79" y="370" width="31" height="31" fill="#F4F1EC"/>
<rect x="79" y="446" width="31" height="31" fill="#F4F1EC"/>
</svg>
