<svg width="920" height="920" viewBox="0 0 920 920" fill="none" xmlns="http://www.w3.org/2000/svg">
<mask id="mask0_2096_332" style="mask-type:alpha" maskUnits="userSpaceOnUse" x="0" y="0" width="920" height="920">
<rect width="920" height="920" rx="40" fill="#0D0D0D"/>
</mask>
<g mask="url(#mask0_2096_332)">
<rect width="920" height="920" rx="40" fill="#FFFFFF"/>
</g>
<rect x="126" y="304" width="667" height="48" rx="12" fill="#C8DBD6"/>
<rect x="126" y="304" width="522" height="48" fill="#1F5C4D"/>
<rect x="126" y="436" width="667" height="48" rx="12" fill="#C8DBD6"/>
<rect x="126" y="436" width="522" height="48" fill="#1F5C4D"/>
<rect x="126" y="568" width="667" height="48" rx="12" fill="#C8DBD6"/>
<rect x="126" y="568" width="570" height="48" fill="#1F5C4D"/>
<path d="M715.2 326.736C713.6 325.904 712.8 324.616 712.8 322.872C712.8 322.008 713.016 321.224 713.448 320.52C713.896 319.8 714.56 319.232 715.44 318.816C716.336 318.384 717.424 318.168 718.704 318.168C719.984 318.168 721.064 318.384 721.944 318.816C722.84 319.232 723.504 319.8 723.936 320.52C724.384 321.224 724.608 322.008 724.608 322.872C724.608 323.752 724.392 324.528 723.96 325.2C723.528 325.856 722.952 326.368 722.232 326.736C723.112 327.12 723.8 327.68 724.296 328.416C724.792 329.152 725.04 330.024 725.04 331.032C725.04 332.12 724.76 333.072 724.2 333.888C723.656 334.688 722.904 335.304 721.944 335.736C720.984 336.168 719.904 336.384 718.704 336.384C717.504 336.384 716.424 336.168 715.464 335.736C714.52 335.304 713.768 334.688 713.208 333.888C712.664 333.072 712.392 332.12 712.392 331.032C712.392 330.024 712.64 329.152 713.136 328.416C713.632 327.664 714.32 327.104 715.2 326.736ZM721.344 323.352C721.344 322.568 721.104 321.96 720.624 321.528C720.16 321.096 719.52 320.88 718.704 320.88C717.904 320.88 717.264 321.096 716.784 321.528C716.32 321.96 716.088 322.576 716.088 323.376C716.088 324.096 716.328 324.672 716.808 325.104C717.304 325.536 717.936 325.752 718.704 325.752C719.472 325.752 720.104 325.536 720.6 325.104C721.096 324.656 721.344 324.072 721.344 323.352ZM718.704 328.2C717.792 328.2 717.048 328.432 716.472 328.896C715.912 329.36 715.632 330.024 715.632 330.888C715.632 331.688 715.904 332.344 716.448 332.856C717.008 333.352 717.76 333.6 718.704 333.6C719.648 333.6 720.392 333.344 720.936 332.832C721.48 332.32 721.752 331.672 721.752 330.888C721.752 330.04 721.472 329.384 720.912 328.92C720.352 328.44 719.616 328.2 718.704 328.2ZM727.694 327.024C727.694 324.256 728.19 322.088 729.182 320.52C730.19 318.952 731.854 318.168 734.174 318.168C736.494 318.168 738.15 318.952 739.142 320.52C740.15 322.088 740.654 324.256 740.654 327.024C740.654 329.808 740.15 331.992 739.142 333.576C738.15 335.16 736.494 335.952 734.174 335.952C731.854 335.952 730.19 335.16 729.182 333.576C728.19 331.992 727.694 329.808 727.694 327.024ZM737.342 327.024C737.342 325.84 737.262 324.848 737.102 324.048C736.958 323.232 736.654 322.568 736.19 322.056C735.742 321.544 735.07 321.288 734.174 321.288C733.278 321.288 732.598 321.544 732.134 322.056C731.686 322.568 731.382 323.232 731.222 324.048C731.078 324.848 731.006 325.84 731.006 327.024C731.006 328.24 731.078 329.264 731.222 330.096C731.366 330.912 731.67 331.576 732.134 332.088C732.598 332.584 733.278 332.832 734.174 332.832C735.07 332.832 735.75 332.584 736.214 332.088C736.678 331.576 736.982 330.912 737.126 330.096C737.27 329.264 737.342 328.24 737.342 327.024ZM745.082 336.168C744.474 336.168 743.97 335.984 743.57 335.616C743.186 335.232 742.994 334.76 742.994 334.2C742.994 333.64 743.186 333.176 743.57 332.808C743.97 332.424 744.474 332.232 745.082 332.232C745.674 332.232 746.162 332.424 746.546 332.808C746.93 333.176 747.122 333.64 747.122 334.2C747.122 334.76 746.93 335.232 746.546 335.616C746.162 335.984 745.674 336.168 745.082 336.168ZM750.5 332.208C752.036 330.928 753.26 329.864 754.172 329.016C755.084 328.152 755.844 327.256 756.452 326.328C757.06 325.4 757.364 324.488 757.364 323.592C757.364 322.776 757.172 322.136 756.788 321.672C756.404 321.208 755.812 320.976 755.012 320.976C754.212 320.976 753.596 321.248 753.164 321.792C752.732 322.32 752.508 323.048 752.492 323.976H749.228C749.292 322.056 749.86 320.6 750.932 319.608C752.02 318.616 753.396 318.12 755.06 318.12C756.884 318.12 758.284 318.608 759.26 319.584C760.236 320.544 760.724 321.816 760.724 323.4C760.724 324.648 760.388 325.84 759.716 326.976C759.044 328.112 758.276 329.104 757.412 329.952C756.548 330.784 755.42 331.792 754.028 332.976H761.108V335.76H749.252V333.264L750.5 332.208ZM774.985 321.408H767.209V325.512C767.545 325.096 768.025 324.76 768.649 324.504C769.273 324.232 769.937 324.096 770.641 324.096C771.921 324.096 772.969 324.376 773.785 324.936C774.601 325.496 775.193 326.216 775.561 327.096C775.929 327.96 776.113 328.888 776.113 329.88C776.113 331.72 775.585 333.2 774.529 334.32C773.489 335.44 772.001 336 770.065 336C768.241 336 766.785 335.544 765.697 334.632C764.609 333.72 763.993 332.528 763.849 331.056H767.113C767.257 331.696 767.577 332.208 768.073 332.592C768.585 332.976 769.233 333.168 770.017 333.168C770.961 333.168 771.673 332.872 772.153 332.28C772.633 331.688 772.873 330.904 772.873 329.928C772.873 328.936 772.625 328.184 772.129 327.672C771.649 327.144 770.937 326.88 769.993 326.88C769.321 326.88 768.761 327.048 768.313 327.384C767.865 327.72 767.545 328.168 767.353 328.728H764.137V318.456H774.985V321.408Z" fill="#1F5C4D"/>
<path d="M137.928 279.808H131.256L130.152 283H126.624L132.648 266.224H136.56L142.584 283H139.032L137.928 279.808ZM137.016 277.12L134.592 270.112L132.168 277.12H137.016ZM156.338 283.168C155.17 283.168 154.114 282.968 153.17 282.568C152.242 282.168 151.506 281.592 150.962 280.84C150.418 280.088 150.138 279.2 150.122 278.176H153.722C153.77 278.864 154.01 279.408 154.442 279.808C154.89 280.208 155.498 280.408 156.266 280.408C157.05 280.408 157.666 280.224 158.114 279.856C158.562 279.472 158.786 278.976 158.786 278.368C158.786 277.872 158.634 277.464 158.33 277.144C158.026 276.824 157.642 276.576 157.178 276.4C156.73 276.208 156.106 276 155.306 275.776C154.218 275.456 153.33 275.144 152.642 274.84C151.97 274.52 151.386 274.048 150.89 273.424C150.41 272.784 150.17 271.936 150.17 270.88C150.17 269.888 150.418 269.024 150.914 268.288C151.41 267.552 152.106 266.992 153.002 266.608C153.898 266.208 154.922 266.008 156.074 266.008C157.802 266.008 159.202 266.432 160.274 267.28C161.362 268.112 161.962 269.28 162.074 270.784H158.378C158.346 270.208 158.098 269.736 157.634 269.368C157.186 268.984 156.586 268.792 155.834 268.792C155.178 268.792 154.65 268.96 154.25 269.296C153.866 269.632 153.674 270.12 153.674 270.76C153.674 271.208 153.818 271.584 154.106 271.888C154.41 272.176 154.778 272.416 155.21 272.608C155.658 272.784 156.282 272.992 157.082 273.232C158.17 273.552 159.058 273.872 159.746 274.192C160.434 274.512 161.026 274.992 161.522 275.632C162.018 276.272 162.266 277.112 162.266 278.152C162.266 279.048 162.034 279.88 161.57 280.648C161.106 281.416 160.426 282.032 159.53 282.496C158.634 282.944 157.57 283.168 156.338 283.168ZM177.539 276.064C177.539 276.544 177.507 276.976 177.443 277.36H167.723C167.803 278.32 168.139 279.072 168.731 279.616C169.323 280.16 170.051 280.432 170.915 280.432C172.163 280.432 173.051 279.896 173.579 278.824H177.203C176.819 280.104 176.083 281.16 174.995 281.992C173.907 282.808 172.571 283.216 170.987 283.216C169.707 283.216 168.555 282.936 167.531 282.376C166.523 281.8 165.731 280.992 165.155 279.952C164.595 278.912 164.315 277.712 164.315 276.352C164.315 274.976 164.595 273.768 165.155 272.728C165.715 271.688 166.499 270.888 167.507 270.328C168.515 269.768 169.675 269.488 170.987 269.488C172.251 269.488 173.379 269.76 174.371 270.304C175.379 270.848 176.155 271.624 176.699 272.632C177.259 273.624 177.539 274.768 177.539 276.064ZM174.059 275.104C174.043 274.24 173.731 273.552 173.123 273.04C172.515 272.512 171.771 272.248 170.891 272.248C170.059 272.248 169.355 272.504 168.779 273.016C168.219 273.512 167.875 274.208 167.747 275.104H174.059ZM183.352 271.768C183.784 271.064 184.344 270.512 185.032 270.112C185.736 269.712 186.536 269.512 187.432 269.512V273.04H186.544C185.488 273.04 184.688 273.288 184.144 273.784C183.616 274.28 183.352 275.144 183.352 276.376V283H179.992V269.704H183.352V271.768ZM195.239 279.904L198.599 269.704H202.175L197.255 283H193.175L188.279 269.704H191.879L195.239 279.904ZM205.766 268.12C205.174 268.12 204.678 267.936 204.278 267.568C203.894 267.184 203.702 266.712 203.702 266.152C203.702 265.592 203.894 265.128 204.278 264.76C204.678 264.376 205.174 264.184 205.766 264.184C206.358 264.184 206.846 264.376 207.23 264.76C207.63 265.128 207.83 265.592 207.83 266.152C207.83 266.712 207.63 267.184 207.23 267.568C206.846 267.936 206.358 268.12 205.766 268.12ZM207.422 269.704V283H204.062V269.704H207.422ZM209.878 276.352C209.878 274.976 210.158 273.776 210.718 272.752C211.278 271.712 212.054 270.912 213.046 270.352C214.038 269.776 215.174 269.488 216.454 269.488C218.102 269.488 219.462 269.904 220.534 270.736C221.622 271.552 222.35 272.704 222.718 274.192H219.094C218.902 273.616 218.574 273.168 218.11 272.848C217.662 272.512 217.102 272.344 216.43 272.344C215.47 272.344 214.71 272.696 214.15 273.4C213.59 274.088 213.31 275.072 213.31 276.352C213.31 277.616 213.59 278.6 214.15 279.304C214.71 279.992 215.47 280.336 216.43 280.336C217.79 280.336 218.678 279.728 219.094 278.512H222.718C222.35 279.952 221.622 281.096 220.534 281.944C219.446 282.792 218.086 283.216 216.454 283.216C215.174 283.216 214.038 282.936 213.046 282.376C212.054 281.8 211.278 281 210.718 279.976C210.158 278.936 209.878 277.728 209.878 276.352ZM237.539 276.064C237.539 276.544 237.507 276.976 237.443 277.36H227.723C227.803 278.32 228.139 279.072 228.731 279.616C229.323 280.16 230.051 280.432 230.915 280.432C232.163 280.432 233.051 279.896 233.579 278.824H237.203C236.819 280.104 236.083 281.16 234.995 281.992C233.907 282.808 232.571 283.216 230.987 283.216C229.707 283.216 228.555 282.936 227.531 282.376C226.523 281.8 225.731 280.992 225.155 279.952C224.595 278.912 224.315 277.712 224.315 276.352C224.315 274.976 224.595 273.768 225.155 272.728C225.715 271.688 226.499 270.888 227.507 270.328C228.515 269.768 229.675 269.488 230.987 269.488C232.251 269.488 233.379 269.76 234.371 270.304C235.379 270.848 236.155 271.624 236.699 272.632C237.259 273.624 237.539 274.768 237.539 276.064ZM234.059 275.104C234.043 274.24 233.731 273.552 233.123 273.04C232.515 272.512 231.771 272.248 230.891 272.248C230.059 272.248 229.355 272.504 228.779 273.016C228.219 273.512 227.875 274.208 227.747 275.104H234.059ZM250.216 273.016V275.848H240.04V273.016H250.216ZM260.08 272.464H257.752V283H254.344V272.464H252.832V269.704H254.344V269.032C254.344 267.4 254.808 266.2 255.736 265.432C256.664 264.664 258.064 264.304 259.936 264.352V267.184C259.12 267.168 258.552 267.304 258.232 267.592C257.912 267.88 257.752 268.4 257.752 269.152V269.704H260.08V272.464ZM263.962 268.12C263.37 268.12 262.874 267.936 262.474 267.568C262.09 267.184 261.898 266.712 261.898 266.152C261.898 265.592 262.09 265.128 262.474 264.76C262.874 264.376 263.37 264.184 263.962 264.184C264.554 264.184 265.042 264.376 265.426 264.76C265.826 265.128 266.026 265.592 266.026 266.152C266.026 266.712 265.826 267.184 265.426 267.568C265.042 267.936 264.554 268.12 263.962 268.12ZM265.618 269.704V283H262.258V269.704H265.618ZM272.297 271.768C272.729 271.064 273.289 270.512 273.977 270.112C274.681 269.712 275.481 269.512 276.377 269.512V273.04H275.489C274.433 273.04 273.633 273.288 273.089 273.784C272.561 274.28 272.297 275.144 272.297 276.376V283H268.937V269.704H272.297V271.768ZM283.728 283.216C282.64 283.216 281.664 283.024 280.8 282.64C279.936 282.24 279.248 281.704 278.736 281.032C278.24 280.36 277.968 279.616 277.92 278.8H281.304C281.368 279.312 281.616 279.736 282.048 280.072C282.496 280.408 283.048 280.576 283.704 280.576C284.344 280.576 284.84 280.448 285.192 280.192C285.56 279.936 285.744 279.608 285.744 279.208C285.744 278.776 285.52 278.456 285.072 278.248C284.64 278.024 283.944 277.784 282.984 277.528C281.992 277.288 281.176 277.04 280.536 276.784C279.912 276.528 279.368 276.136 278.904 275.608C278.456 275.08 278.232 274.368 278.232 273.472C278.232 272.736 278.44 272.064 278.856 271.456C279.288 270.848 279.896 270.368 280.68 270.016C281.48 269.664 282.416 269.488 283.488 269.488C285.072 269.488 286.336 269.888 287.28 270.688C288.224 271.472 288.744 272.536 288.84 273.88H285.624C285.576 273.352 285.352 272.936 284.952 272.632C284.568 272.312 284.048 272.152 283.392 272.152C282.784 272.152 282.312 272.264 281.976 272.488C281.656 272.712 281.496 273.024 281.496 273.424C281.496 273.872 281.72 274.216 282.168 274.456C282.616 274.68 283.312 274.912 284.256 275.152C285.216 275.392 286.008 275.64 286.632 275.896C287.256 276.152 287.792 276.552 288.24 277.096C288.704 277.624 288.944 278.328 288.96 279.208C288.96 279.976 288.744 280.664 288.312 281.272C287.896 281.88 287.288 282.36 286.488 282.712C285.704 283.048 284.784 283.216 283.728 283.216ZM295.631 272.464V278.896C295.631 279.344 295.735 279.672 295.943 279.88C296.167 280.072 296.535 280.168 297.047 280.168H298.607V283H296.495C293.663 283 292.247 281.624 292.247 278.872V272.464H290.663V269.704H292.247V266.416H295.631V269.704H298.607V272.464H295.631Z" fill="#1F5C4D"/>
<path d="M137.16 405.408C138.104 405.584 138.88 406.056 139.488 406.824C140.096 407.592 140.4 408.472 140.4 409.464C140.4 410.36 140.176 411.152 139.728 411.84C139.296 412.512 138.664 413.04 137.832 413.424C137 413.808 136.016 414 134.88 414H127.656V397.248H134.568C135.704 397.248 136.68 397.432 137.496 397.8C138.328 398.168 138.952 398.68 139.368 399.336C139.8 399.992 140.016 400.736 140.016 401.568C140.016 402.544 139.752 403.36 139.224 404.016C138.712 404.672 138.024 405.136 137.16 405.408ZM131.016 404.16H134.088C134.888 404.16 135.504 403.984 135.936 403.632C136.368 403.264 136.584 402.744 136.584 402.072C136.584 401.4 136.368 400.88 135.936 400.512C135.504 400.144 134.888 399.96 134.088 399.96H131.016V404.16ZM134.4 411.264C135.216 411.264 135.848 411.072 136.296 410.688C136.76 410.304 136.992 409.76 136.992 409.056C136.992 408.336 136.752 407.776 136.272 407.376C135.792 406.96 135.144 406.752 134.328 406.752H131.016V411.264H134.4ZM161.013 402.432C161.013 403.328 160.797 404.168 160.365 404.952C159.949 405.736 159.285 406.368 158.373 406.848C157.477 407.328 156.341 407.568 154.965 407.568H152.157V414H148.797V397.248H154.965C156.261 397.248 157.365 397.472 158.277 397.92C159.189 398.368 159.869 398.984 160.317 399.768C160.781 400.552 161.013 401.44 161.013 402.432ZM154.821 404.856C155.749 404.856 156.437 404.648 156.885 404.232C157.333 403.8 157.557 403.2 157.557 402.432C157.557 400.8 156.645 399.984 154.821 399.984H152.157V404.856H154.821ZM166.758 402.768C167.19 402.064 167.75 401.512 168.438 401.112C169.142 400.712 169.942 400.512 170.838 400.512V404.04H169.95C168.894 404.04 168.094 404.288 167.55 404.784C167.022 405.28 166.758 406.144 166.758 407.376V414H163.398V400.704H166.758V402.768ZM179.005 414.216C177.725 414.216 176.573 413.936 175.549 413.376C174.525 412.8 173.717 411.992 173.125 410.952C172.549 409.912 172.261 408.712 172.261 407.352C172.261 405.992 172.557 404.792 173.149 403.752C173.757 402.712 174.581 401.912 175.621 401.352C176.661 400.776 177.821 400.488 179.101 400.488C180.381 400.488 181.541 400.776 182.581 401.352C183.621 401.912 184.437 402.712 185.029 403.752C185.637 404.792 185.941 405.992 185.941 407.352C185.941 408.712 185.629 409.912 185.005 410.952C184.397 411.992 183.565 412.8 182.509 413.376C181.469 413.936 180.301 414.216 179.005 414.216ZM179.005 411.288C179.613 411.288 180.181 411.144 180.709 410.856C181.253 410.552 181.685 410.104 182.005 409.512C182.325 408.92 182.485 408.2 182.485 407.352C182.485 406.088 182.149 405.12 181.477 404.448C180.821 403.76 180.013 403.416 179.053 403.416C178.093 403.416 177.285 403.76 176.629 404.448C175.989 405.12 175.669 406.088 175.669 407.352C175.669 408.616 175.981 409.592 176.605 410.28C177.245 410.952 178.045 411.288 179.005 411.288ZM187.542 407.304C187.542 405.96 187.806 404.768 188.334 403.728C188.878 402.688 189.614 401.888 190.542 401.328C191.47 400.768 192.502 400.488 193.638 400.488C194.502 400.488 195.326 400.68 196.11 401.064C196.894 401.432 197.518 401.928 197.982 402.552V396.24H201.39V414H197.982V412.032C197.566 412.688 196.982 413.216 196.23 413.616C195.478 414.016 194.606 414.216 193.614 414.216C192.494 414.216 191.47 413.928 190.542 413.352C189.614 412.776 188.878 411.968 188.334 410.928C187.806 409.872 187.542 408.664 187.542 407.304ZM198.006 407.352C198.006 406.536 197.846 405.84 197.526 405.264C197.206 404.672 196.774 404.224 196.23 403.92C195.686 403.6 195.102 403.44 194.478 403.44C193.854 403.44 193.278 403.592 192.75 403.896C192.222 404.2 191.79 404.648 191.454 405.24C191.134 405.816 190.974 406.504 190.974 407.304C190.974 408.104 191.134 408.808 191.454 409.416C191.79 410.008 192.222 410.464 192.75 410.784C193.294 411.104 193.87 411.264 194.478 411.264C195.102 411.264 195.686 411.112 196.23 410.808C196.774 410.488 197.206 410.04 197.526 409.464C197.846 408.872 198.006 408.168 198.006 407.352ZM217.224 400.704V414H213.84V412.32C213.408 412.896 212.84 413.352 212.136 413.688C211.448 414.008 210.696 414.168 209.88 414.168C208.84 414.168 207.92 413.952 207.12 413.52C206.32 413.072 205.688 412.424 205.224 411.576C204.776 410.712 204.552 409.688 204.552 408.504V400.704H207.912V408.024C207.912 409.08 208.176 409.896 208.704 410.472C209.232 411.032 209.952 411.312 210.864 411.312C211.792 411.312 212.52 411.032 213.048 410.472C213.576 409.896 213.84 409.08 213.84 408.024V400.704H217.224ZM219.675 407.352C219.675 405.976 219.955 404.776 220.515 403.752C221.075 402.712 221.851 401.912 222.843 401.352C223.835 400.776 224.971 400.488 226.251 400.488C227.899 400.488 229.259 400.904 230.331 401.736C231.419 402.552 232.147 403.704 232.515 405.192H228.891C228.699 404.616 228.371 404.168 227.907 403.848C227.459 403.512 226.899 403.344 226.227 403.344C225.267 403.344 224.507 403.696 223.947 404.4C223.387 405.088 223.107 406.072 223.107 407.352C223.107 408.616 223.387 409.6 223.947 410.304C224.507 410.992 225.267 411.336 226.227 411.336C227.587 411.336 228.475 410.728 228.891 409.512H232.515C232.147 410.952 231.419 412.096 230.331 412.944C229.243 413.792 227.883 414.216 226.251 414.216C224.971 414.216 223.835 413.936 222.843 413.376C221.851 412.8 221.075 412 220.515 410.976C219.955 409.936 219.675 408.728 219.675 407.352ZM238.888 403.464V409.896C238.888 410.344 238.992 410.672 239.2 410.88C239.424 411.072 239.792 411.168 240.304 411.168H241.864V414H239.752C236.92 414 235.504 412.624 235.504 409.872V403.464H233.92V400.704H235.504V397.416H238.888V400.704H241.864V403.464H238.888ZM254.505 404.016V406.848H244.329V404.016H254.505ZM264.369 403.464H262.041V414H258.633V403.464H257.121V400.704H258.633V400.032C258.633 398.4 259.097 397.2 260.025 396.432C260.953 395.664 262.353 395.304 264.225 395.352V398.184C263.409 398.168 262.841 398.304 262.521 398.592C262.201 398.88 262.041 399.4 262.041 400.152V400.704H264.369V403.464ZM268.251 399.12C267.659 399.12 267.163 398.936 266.763 398.568C266.379 398.184 266.187 397.712 266.187 397.152C266.187 396.592 266.379 396.128 266.763 395.76C267.163 395.376 267.659 395.184 268.251 395.184C268.843 395.184 269.331 395.376 269.715 395.76C270.115 396.128 270.315 396.592 270.315 397.152C270.315 397.712 270.115 398.184 269.715 398.568C269.331 398.936 268.843 399.12 268.251 399.12ZM269.907 400.704V414H266.547V400.704H269.907ZM276.586 402.768C277.018 402.064 277.578 401.512 278.266 401.112C278.97 400.712 279.77 400.512 280.666 400.512V404.04H279.778C278.722 404.04 277.922 404.288 277.378 404.784C276.85 405.28 276.586 406.144 276.586 407.376V414H273.226V400.704H276.586V402.768ZM288.017 414.216C286.929 414.216 285.953 414.024 285.089 413.64C284.225 413.24 283.537 412.704 283.025 412.032C282.529 411.36 282.257 410.616 282.209 409.8H285.593C285.657 410.312 285.905 410.736 286.337 411.072C286.785 411.408 287.337 411.576 287.993 411.576C288.633 411.576 289.129 411.448 289.481 411.192C289.849 410.936 290.033 410.608 290.033 410.208C290.033 409.776 289.809 409.456 289.361 409.248C288.929 409.024 288.233 408.784 287.273 408.528C286.281 408.288 285.465 408.04 284.825 407.784C284.201 407.528 283.657 407.136 283.193 406.608C282.745 406.08 282.521 405.368 282.521 404.472C282.521 403.736 282.729 403.064 283.145 402.456C283.577 401.848 284.185 401.368 284.969 401.016C285.769 400.664 286.705 400.488 287.777 400.488C289.361 400.488 290.625 400.888 291.569 401.688C292.513 402.472 293.033 403.536 293.129 404.88H289.913C289.865 404.352 289.641 403.936 289.241 403.632C288.857 403.312 288.337 403.152 287.681 403.152C287.073 403.152 286.601 403.264 286.265 403.488C285.945 403.712 285.785 404.024 285.785 404.424C285.785 404.872 286.009 405.216 286.457 405.456C286.905 405.68 287.601 405.912 288.545 406.152C289.505 406.392 290.297 406.64 290.921 406.896C291.545 407.152 292.081 407.552 292.529 408.096C292.993 408.624 293.233 409.328 293.249 410.208C293.249 410.976 293.033 411.664 292.601 412.272C292.185 412.88 291.577 413.36 290.777 413.712C289.993 414.048 289.073 414.216 288.017 414.216ZM299.92 403.464V409.896C299.92 410.344 300.024 410.672 300.232 410.88C300.456 411.072 300.824 411.168 301.336 411.168H302.896V414H300.784C297.952 414 296.536 412.624 296.536 409.872V403.464H294.952V400.704H296.536V397.416H299.92V400.704H302.896V403.464H299.92ZM319.671 414L315.975 407.472H314.391V414H311.031V397.248H317.319C318.615 397.248 319.719 397.48 320.631 397.944C321.543 398.392 322.223 399.008 322.671 399.792C323.135 400.56 323.367 401.424 323.367 402.384C323.367 403.488 323.047 404.488 322.407 405.384C321.767 406.264 320.815 406.872 319.551 407.208L323.559 414H319.671ZM314.391 404.952H317.199C318.111 404.952 318.791 404.736 319.239 404.304C319.687 403.856 319.911 403.24 319.911 402.456C319.911 401.688 319.687 401.096 319.239 400.68C318.791 400.248 318.111 400.032 317.199 400.032H314.391V404.952ZM325.542 407.304C325.542 405.96 325.806 404.768 326.334 403.728C326.878 402.688 327.606 401.888 328.518 401.328C329.446 400.768 330.478 400.488 331.614 400.488C332.606 400.488 333.47 400.688 334.206 401.088C334.958 401.488 335.558 401.992 336.006 402.6V400.704H339.39V414H336.006V412.056C335.574 412.68 334.974 413.2 334.206 413.616C333.454 414.016 332.582 414.216 331.59 414.216C330.47 414.216 329.446 413.928 328.518 413.352C327.606 412.776 326.878 411.968 326.334 410.928C325.806 409.872 325.542 408.664 325.542 407.304ZM336.006 407.352C336.006 406.536 335.846 405.84 335.526 405.264C335.206 404.672 334.774 404.224 334.23 403.92C333.686 403.6 333.102 403.44 332.478 403.44C331.854 403.44 331.278 403.592 330.75 403.896C330.222 404.2 329.79 404.648 329.454 405.24C329.134 405.816 328.974 406.504 328.974 407.304C328.974 408.104 329.134 408.808 329.454 409.416C329.79 410.008 330.222 410.464 330.75 410.784C331.294 411.104 331.87 411.264 332.478 411.264C333.102 411.264 333.686 411.112 334.23 410.808C334.774 410.488 335.206 410.04 335.526 409.464C335.846 408.872 336.006 408.168 336.006 407.352ZM350.04 400.512C351.624 400.512 352.904 401.016 353.88 402.024C354.856 403.016 355.344 404.408 355.344 406.2V414H351.984V406.656C351.984 405.6 351.72 404.792 351.192 404.232C350.664 403.656 349.944 403.368 349.032 403.368C348.104 403.368 347.368 403.656 346.824 404.232C346.296 404.792 346.032 405.6 346.032 406.656V414H342.672V400.704H346.032V402.36C346.48 401.784 347.048 401.336 347.736 401.016C348.44 400.68 349.208 400.512 350.04 400.512ZM363.747 400.488C364.739 400.488 365.611 400.688 366.363 401.088C367.115 401.472 367.707 401.976 368.139 402.6V400.704H371.523V414.096C371.523 415.328 371.275 416.424 370.779 417.384C370.283 418.36 369.539 419.128 368.547 419.688C367.555 420.264 366.355 420.552 364.947 420.552C363.059 420.552 361.507 420.112 360.291 419.232C359.091 418.352 358.411 417.152 358.251 415.632H361.587C361.763 416.24 362.139 416.72 362.715 417.072C363.307 417.44 364.019 417.624 364.851 417.624C365.827 417.624 366.619 417.328 367.227 416.736C367.835 416.16 368.139 415.28 368.139 414.096V412.032C367.707 412.656 367.107 413.176 366.339 413.592C365.587 414.008 364.723 414.216 363.747 414.216C362.627 414.216 361.603 413.928 360.675 413.352C359.747 412.776 359.011 411.968 358.467 410.928C357.939 409.872 357.675 408.664 357.675 407.304C357.675 405.96 357.939 404.768 358.467 403.728C359.011 402.688 359.739 401.888 360.651 401.328C361.579 400.768 362.611 400.488 363.747 400.488ZM368.139 407.352C368.139 406.536 367.979 405.84 367.659 405.264C367.339 404.672 366.907 404.224 366.363 403.92C365.819 403.6 365.235 403.44 364.611 403.44C363.987 403.44 363.411 403.592 362.883 403.896C362.355 404.2 361.923 404.648 361.587 405.24C361.267 405.816 361.107 406.504 361.107 407.304C361.107 408.104 361.267 408.808 361.587 409.416C361.923 410.008 362.355 410.464 362.883 410.784C363.427 411.104 364.003 411.264 364.611 411.264C365.235 411.264 365.819 411.112 366.363 410.808C366.907 410.488 367.339 410.04 367.659 409.464C367.979 408.872 368.139 408.168 368.139 407.352ZM387.164 407.064C387.164 407.544 387.132 407.976 387.068 408.36H377.348C377.428 409.32 377.764 410.072 378.356 410.616C378.948 411.16 379.676 411.432 380.54 411.432C381.788 411.432 382.676 410.896 383.204 409.824H386.828C386.444 411.104 385.708 412.16 384.62 412.992C383.532 413.808 382.196 414.216 380.612 414.216C379.332 414.216 378.18 413.936 377.156 413.376C376.148 412.8 375.356 411.992 374.78 410.952C374.22 409.912 373.94 408.712 373.94 407.352C373.94 405.976 374.22 404.768 374.78 403.728C375.34 402.688 376.124 401.888 377.132 401.328C378.14 400.768 379.3 400.488 380.612 400.488C381.876 400.488 383.004 400.76 383.996 401.304C385.004 401.848 385.78 402.624 386.324 403.632C386.884 404.624 387.164 405.768 387.164 407.064ZM383.684 406.104C383.668 405.24 383.356 404.552 382.748 404.04C382.14 403.512 381.396 403.248 380.516 403.248C379.684 403.248 378.98 403.504 378.404 404.016C377.844 404.512 377.5 405.208 377.372 406.104H383.684Z" fill="#1F5C4D"/>
<path d="M126.84 537.6C126.84 535.952 127.208 534.48 127.944 533.184C128.696 531.872 129.712 530.856 130.992 530.136C132.288 529.4 133.736 529.032 135.336 529.032C137.208 529.032 138.848 529.512 140.256 530.472C141.664 531.432 142.648 532.76 143.208 534.456H139.344C138.96 533.656 138.416 533.056 137.712 532.656C137.024 532.256 136.224 532.056 135.312 532.056C134.336 532.056 133.464 532.288 132.696 532.752C131.944 533.2 131.352 533.84 130.92 534.672C130.504 535.504 130.296 536.48 130.296 537.6C130.296 538.704 130.504 539.68 130.92 540.528C131.352 541.36 131.944 542.008 132.696 542.472C133.464 542.92 134.336 543.144 135.312 543.144C136.224 543.144 137.024 542.944 137.712 542.544C138.416 542.128 138.96 541.52 139.344 540.72H143.208C142.648 542.432 141.664 543.768 140.256 544.728C138.864 545.672 137.224 546.144 135.336 546.144C133.736 546.144 132.288 545.784 130.992 545.064C129.712 544.328 128.696 543.312 127.944 542.016C127.208 540.72 126.84 539.248 126.84 537.6ZM164.013 534.432C164.013 535.328 163.797 536.168 163.365 536.952C162.949 537.736 162.285 538.368 161.373 538.848C160.477 539.328 159.341 539.568 157.965 539.568H155.157V546H151.797V529.248H157.965C159.261 529.248 160.365 529.472 161.277 529.92C162.189 530.368 162.869 530.984 163.317 531.768C163.781 532.552 164.013 533.44 164.013 534.432ZM157.821 536.856C158.749 536.856 159.437 536.648 159.885 536.232C160.333 535.8 160.557 535.2 160.557 534.432C160.557 532.8 159.645 531.984 157.821 531.984H155.157V536.856H157.821ZM169.758 534.768C170.19 534.064 170.75 533.512 171.438 533.112C172.142 532.712 172.942 532.512 173.838 532.512V536.04H172.95C171.894 536.04 171.094 536.288 170.55 536.784C170.022 537.28 169.758 538.144 169.758 539.376V546H166.398V532.704H169.758V534.768ZM182.005 546.216C180.725 546.216 179.573 545.936 178.549 545.376C177.525 544.8 176.717 543.992 176.125 542.952C175.549 541.912 175.261 540.712 175.261 539.352C175.261 537.992 175.557 536.792 176.149 535.752C176.757 534.712 177.581 533.912 178.621 533.352C179.661 532.776 180.821 532.488 182.101 532.488C183.381 532.488 184.541 532.776 185.581 533.352C186.621 533.912 187.437 534.712 188.029 535.752C188.637 536.792 188.941 537.992 188.941 539.352C188.941 540.712 188.629 541.912 188.005 542.952C187.397 543.992 186.565 544.8 185.509 545.376C184.469 545.936 183.301 546.216 182.005 546.216ZM182.005 543.288C182.613 543.288 183.181 543.144 183.709 542.856C184.253 542.552 184.685 542.104 185.005 541.512C185.325 540.92 185.485 540.2 185.485 539.352C185.485 538.088 185.149 537.12 184.477 536.448C183.821 535.76 183.013 535.416 182.053 535.416C181.093 535.416 180.285 535.76 179.629 536.448C178.989 537.12 178.669 538.088 178.669 539.352C178.669 540.616 178.981 541.592 179.605 542.28C180.245 542.952 181.045 543.288 182.005 543.288ZM190.542 539.304C190.542 537.96 190.806 536.768 191.334 535.728C191.878 534.688 192.614 533.888 193.542 533.328C194.47 532.768 195.502 532.488 196.638 532.488C197.502 532.488 198.326 532.68 199.11 533.064C199.894 533.432 200.518 533.928 200.982 534.552V528.24H204.39V546H200.982V544.032C200.566 544.688 199.982 545.216 199.23 545.616C198.478 546.016 197.606 546.216 196.614 546.216C195.494 546.216 194.47 545.928 193.542 545.352C192.614 544.776 191.878 543.968 191.334 542.928C190.806 541.872 190.542 540.664 190.542 539.304ZM201.006 539.352C201.006 538.536 200.846 537.84 200.526 537.264C200.206 536.672 199.774 536.224 199.23 535.92C198.686 535.6 198.102 535.44 197.478 535.44C196.854 535.44 196.278 535.592 195.75 535.896C195.222 536.2 194.79 536.648 194.454 537.24C194.134 537.816 193.974 538.504 193.974 539.304C193.974 540.104 194.134 540.808 194.454 541.416C194.79 542.008 195.222 542.464 195.75 542.784C196.294 543.104 196.87 543.264 197.478 543.264C198.102 543.264 198.686 543.112 199.23 542.808C199.774 542.488 200.206 542.04 200.526 541.464C200.846 540.872 201.006 540.168 201.006 539.352ZM220.224 532.704V546H216.84V544.32C216.408 544.896 215.84 545.352 215.136 545.688C214.448 546.008 213.696 546.168 212.88 546.168C211.84 546.168 210.92 545.952 210.12 545.52C209.32 545.072 208.688 544.424 208.224 543.576C207.776 542.712 207.552 541.688 207.552 540.504V532.704H210.912V540.024C210.912 541.08 211.176 541.896 211.704 542.472C212.232 543.032 212.952 543.312 213.864 543.312C214.792 543.312 215.52 543.032 216.048 542.472C216.576 541.896 216.84 541.08 216.84 540.024V532.704H220.224ZM222.675 539.352C222.675 537.976 222.955 536.776 223.515 535.752C224.075 534.712 224.851 533.912 225.843 533.352C226.835 532.776 227.971 532.488 229.251 532.488C230.899 532.488 232.259 532.904 233.331 533.736C234.419 534.552 235.147 535.704 235.515 537.192H231.891C231.699 536.616 231.371 536.168 230.907 535.848C230.459 535.512 229.899 535.344 229.227 535.344C228.267 535.344 227.507 535.696 226.947 536.4C226.387 537.088 226.107 538.072 226.107 539.352C226.107 540.616 226.387 541.6 226.947 542.304C227.507 542.992 228.267 543.336 229.227 543.336C230.587 543.336 231.475 542.728 231.891 541.512H235.515C235.147 542.952 234.419 544.096 233.331 544.944C232.243 545.792 230.883 546.216 229.251 546.216C227.971 546.216 226.835 545.936 225.843 545.376C224.851 544.8 224.075 544 223.515 542.976C222.955 541.936 222.675 540.728 222.675 539.352ZM241.888 535.464V541.896C241.888 542.344 241.992 542.672 242.2 542.88C242.424 543.072 242.792 543.168 243.304 543.168H244.864V546H242.752C239.92 546 238.504 544.624 238.504 541.872V535.464H236.92V532.704H238.504V529.416H241.888V532.704H244.864V535.464H241.888ZM257.505 536.016V538.848H247.329V536.016H257.505ZM267.369 535.464H265.041V546H261.633V535.464H260.121V532.704H261.633V532.032C261.633 530.4 262.097 529.2 263.025 528.432C263.953 527.664 265.353 527.304 267.225 527.352V530.184C266.409 530.168 265.841 530.304 265.521 530.592C265.201 530.88 265.041 531.4 265.041 532.152V532.704H267.369V535.464ZM271.251 531.12C270.659 531.12 270.163 530.936 269.763 530.568C269.379 530.184 269.187 529.712 269.187 529.152C269.187 528.592 269.379 528.128 269.763 527.76C270.163 527.376 270.659 527.184 271.251 527.184C271.843 527.184 272.331 527.376 272.715 527.76C273.115 528.128 273.315 528.592 273.315 529.152C273.315 529.712 273.115 530.184 272.715 530.568C272.331 530.936 271.843 531.12 271.251 531.12ZM272.907 532.704V546H269.547V532.704H272.907ZM279.586 534.768C280.018 534.064 280.578 533.512 281.266 533.112C281.97 532.712 282.77 532.512 283.666 532.512V536.04H282.778C281.722 536.04 280.922 536.288 280.378 536.784C279.85 537.28 279.586 538.144 279.586 539.376V546H276.226V532.704H279.586V534.768ZM291.017 546.216C289.929 546.216 288.953 546.024 288.089 545.64C287.225 545.24 286.537 544.704 286.025 544.032C285.529 543.36 285.257 542.616 285.209 541.8H288.593C288.657 542.312 288.905 542.736 289.337 543.072C289.785 543.408 290.337 543.576 290.993 543.576C291.633 543.576 292.129 543.448 292.481 543.192C292.849 542.936 293.033 542.608 293.033 542.208C293.033 541.776 292.809 541.456 292.361 541.248C291.929 541.024 291.233 540.784 290.273 540.528C289.281 540.288 288.465 540.04 287.825 539.784C287.201 539.528 286.657 539.136 286.193 538.608C285.745 538.08 285.521 537.368 285.521 536.472C285.521 535.736 285.729 535.064 286.145 534.456C286.577 533.848 287.185 533.368 287.969 533.016C288.769 532.664 289.705 532.488 290.777 532.488C292.361 532.488 293.625 532.888 294.569 533.688C295.513 534.472 296.033 535.536 296.129 536.88H292.913C292.865 536.352 292.641 535.936 292.241 535.632C291.857 535.312 291.337 535.152 290.681 535.152C290.073 535.152 289.601 535.264 289.265 535.488C288.945 535.712 288.785 536.024 288.785 536.424C288.785 536.872 289.009 537.216 289.457 537.456C289.905 537.68 290.601 537.912 291.545 538.152C292.505 538.392 293.297 538.64 293.921 538.896C294.545 539.152 295.081 539.552 295.529 540.096C295.993 540.624 296.233 541.328 296.249 542.208C296.249 542.976 296.033 543.664 295.601 544.272C295.185 544.88 294.577 545.36 293.777 545.712C292.993 546.048 292.073 546.216 291.017 546.216ZM302.92 535.464V541.896C302.92 542.344 303.024 542.672 303.232 542.88C303.456 543.072 303.824 543.168 304.336 543.168H305.896V546H303.784C300.952 546 299.536 544.624 299.536 541.872V535.464H297.952V532.704H299.536V529.416H302.92V532.704H305.896V535.464H302.92ZM319.815 546.168C318.647 546.168 317.591 545.968 316.647 545.568C315.719 545.168 314.983 544.592 314.439 543.84C313.895 543.088 313.615 542.2 313.599 541.176H317.199C317.247 541.864 317.487 542.408 317.919 542.808C318.367 543.208 318.975 543.408 319.743 543.408C320.527 543.408 321.143 543.224 321.591 542.856C322.039 542.472 322.263 541.976 322.263 541.368C322.263 540.872 322.111 540.464 321.807 540.144C321.503 539.824 321.119 539.576 320.655 539.4C320.207 539.208 319.583 539 318.783 538.776C317.695 538.456 316.807 538.144 316.119 537.84C315.447 537.52 314.863 537.048 314.367 536.424C313.887 535.784 313.647 534.936 313.647 533.88C313.647 532.888 313.895 532.024 314.391 531.288C314.887 530.552 315.583 529.992 316.479 529.608C317.375 529.208 318.399 529.008 319.551 529.008C321.279 529.008 322.679 529.432 323.751 530.28C324.839 531.112 325.439 532.28 325.551 533.784H321.855C321.823 533.208 321.575 532.736 321.111 532.368C320.663 531.984 320.063 531.792 319.311 531.792C318.655 531.792 318.127 531.96 317.727 532.296C317.343 532.632 317.151 533.12 317.151 533.76C317.151 534.208 317.295 534.584 317.583 534.888C317.887 535.176 318.255 535.416 318.687 535.608C319.135 535.784 319.759 535.992 320.559 536.232C321.647 536.552 322.535 536.872 323.223 537.192C323.911 537.512 324.503 537.992 324.999 538.632C325.495 539.272 325.743 540.112 325.743 541.152C325.743 542.048 325.511 542.88 325.047 543.648C324.583 544.416 323.903 545.032 323.007 545.496C322.111 545.944 321.047 546.168 319.815 546.168ZM338.112 546L332.016 538.536V546H328.656V529.248H332.016V536.76L338.112 529.248H342.168L335.256 537.552L342.36 546H338.112ZM347.882 529.248V539.616C347.882 540.752 348.178 541.624 348.77 542.232C349.362 542.824 350.194 543.12 351.266 543.12C352.354 543.12 353.194 542.824 353.786 542.232C354.378 541.624 354.674 540.752 354.674 539.616V529.248H358.058V539.592C358.058 541.016 357.746 542.224 357.122 543.216C356.514 544.192 355.69 544.928 354.65 545.424C353.626 545.92 352.482 546.168 351.218 546.168C349.97 546.168 348.834 545.92 347.81 545.424C346.802 544.928 346.002 544.192 345.41 543.216C344.818 542.224 344.522 541.016 344.522 539.592V529.248H347.882Z" fill="#1F5C4D"/>
<path d="M716.2 458.736C714.6 457.904 713.8 456.616 713.8 454.872C713.8 454.008 714.016 453.224 714.448 452.52C714.896 451.8 715.56 451.232 716.44 450.816C717.336 450.384 718.424 450.168 719.704 450.168C720.984 450.168 722.064 450.384 722.944 450.816C723.84 451.232 724.504 451.8 724.936 452.52C725.384 453.224 725.608 454.008 725.608 454.872C725.608 455.752 725.392 456.528 724.96 457.2C724.528 457.856 723.952 458.368 723.232 458.736C724.112 459.12 724.8 459.68 725.296 460.416C725.792 461.152 726.04 462.024 726.04 463.032C726.04 464.12 725.76 465.072 725.2 465.888C724.656 466.688 723.904 467.304 722.944 467.736C721.984 468.168 720.904 468.384 719.704 468.384C718.504 468.384 717.424 468.168 716.464 467.736C715.52 467.304 714.768 466.688 714.208 465.888C713.664 465.072 713.392 464.12 713.392 463.032C713.392 462.024 713.64 461.152 714.136 460.416C714.632 459.664 715.32 459.104 716.2 458.736ZM722.344 455.352C722.344 454.568 722.104 453.96 721.624 453.528C721.16 453.096 720.52 452.88 719.704 452.88C718.904 452.88 718.264 453.096 717.784 453.528C717.32 453.96 717.088 454.576 717.088 455.376C717.088 456.096 717.328 456.672 717.808 457.104C718.304 457.536 718.936 457.752 719.704 457.752C720.472 457.752 721.104 457.536 721.6 457.104C722.096 456.656 722.344 456.072 722.344 455.352ZM719.704 460.2C718.792 460.2 718.048 460.432 717.472 460.896C716.912 461.36 716.632 462.024 716.632 462.888C716.632 463.688 716.904 464.344 717.448 464.856C718.008 465.352 718.76 465.6 719.704 465.6C720.648 465.6 721.392 465.344 721.936 464.832C722.48 464.32 722.752 463.672 722.752 462.888C722.752 462.04 722.472 461.384 721.912 460.92C721.352 460.44 720.616 460.2 719.704 460.2ZM728.694 459.024C728.694 456.256 729.19 454.088 730.182 452.52C731.19 450.952 732.854 450.168 735.174 450.168C737.494 450.168 739.15 450.952 740.142 452.52C741.15 454.088 741.654 456.256 741.654 459.024C741.654 461.808 741.15 463.992 740.142 465.576C739.15 467.16 737.494 467.952 735.174 467.952C732.854 467.952 731.19 467.16 730.182 465.576C729.19 463.992 728.694 461.808 728.694 459.024ZM738.342 459.024C738.342 457.84 738.262 456.848 738.102 456.048C737.958 455.232 737.654 454.568 737.19 454.056C736.742 453.544 736.07 453.288 735.174 453.288C734.278 453.288 733.598 453.544 733.134 454.056C732.686 454.568 732.382 455.232 732.222 456.048C732.078 456.848 732.006 457.84 732.006 459.024C732.006 460.24 732.078 461.264 732.222 462.096C732.366 462.912 732.67 463.576 733.134 464.088C733.598 464.584 734.278 464.832 735.174 464.832C736.07 464.832 736.75 464.584 737.214 464.088C737.678 463.576 737.982 462.912 738.126 462.096C738.27 461.264 738.342 460.24 738.342 459.024ZM746.082 468.168C745.474 468.168 744.97 467.984 744.57 467.616C744.186 467.232 743.994 466.76 743.994 466.2C743.994 465.64 744.186 465.176 744.57 464.808C744.97 464.424 745.474 464.232 746.082 464.232C746.674 464.232 747.162 464.424 747.546 464.808C747.93 465.176 748.122 465.64 748.122 466.2C748.122 466.76 747.93 467.232 747.546 467.616C747.162 467.984 746.674 468.168 746.082 468.168ZM750.3 464.592V461.952L758.148 450.72H762.06V461.664H764.172V464.592H762.06V468H758.7V464.592H750.3ZM758.916 454.32L753.996 461.664H758.916V454.32ZM778.071 453.408H770.295V457.512C770.631 457.096 771.111 456.76 771.735 456.504C772.359 456.232 773.023 456.096 773.727 456.096C775.007 456.096 776.055 456.376 776.871 456.936C777.687 457.496 778.279 458.216 778.647 459.096C779.015 459.96 779.199 460.888 779.199 461.88C779.199 463.72 778.671 465.2 777.615 466.32C776.575 467.44 775.087 468 773.151 468C771.327 468 769.871 467.544 768.783 466.632C767.695 465.72 767.079 464.528 766.935 463.056H770.199C770.343 463.696 770.663 464.208 771.159 464.592C771.671 464.976 772.319 465.168 773.103 465.168C774.047 465.168 774.759 464.872 775.239 464.28C775.719 463.688 775.959 462.904 775.959 461.928C775.959 460.936 775.711 460.184 775.215 459.672C774.735 459.144 774.023 458.88 773.079 458.88C772.407 458.88 771.847 459.048 771.399 459.384C770.951 459.72 770.631 460.168 770.439 460.728H767.223V450.456H778.071V453.408Z" fill="#1F5C4D"/>
<path d="M716.2 590.736C714.6 589.904 713.8 588.616 713.8 586.872C713.8 586.008 714.016 585.224 714.448 584.52C714.896 583.8 715.56 583.232 716.44 582.816C717.336 582.384 718.424 582.168 719.704 582.168C720.984 582.168 722.064 582.384 722.944 582.816C723.84 583.232 724.504 583.8 724.936 584.52C725.384 585.224 725.608 586.008 725.608 586.872C725.608 587.752 725.392 588.528 724.96 589.2C724.528 589.856 723.952 590.368 723.232 590.736C724.112 591.12 724.8 591.68 725.296 592.416C725.792 593.152 726.04 594.024 726.04 595.032C726.04 596.12 725.76 597.072 725.2 597.888C724.656 598.688 723.904 599.304 722.944 599.736C721.984 600.168 720.904 600.384 719.704 600.384C718.504 600.384 717.424 600.168 716.464 599.736C715.52 599.304 714.768 598.688 714.208 597.888C713.664 597.072 713.392 596.12 713.392 595.032C713.392 594.024 713.64 593.152 714.136 592.416C714.632 591.664 715.32 591.104 716.2 590.736ZM722.344 587.352C722.344 586.568 722.104 585.96 721.624 585.528C721.16 585.096 720.52 584.88 719.704 584.88C718.904 584.88 718.264 585.096 717.784 585.528C717.32 585.96 717.088 586.576 717.088 587.376C717.088 588.096 717.328 588.672 717.808 589.104C718.304 589.536 718.936 589.752 719.704 589.752C720.472 589.752 721.104 589.536 721.6 589.104C722.096 588.656 722.344 588.072 722.344 587.352ZM719.704 592.2C718.792 592.2 718.048 592.432 717.472 592.896C716.912 593.36 716.632 594.024 716.632 594.888C716.632 595.688 716.904 596.344 717.448 596.856C718.008 597.352 718.76 597.6 719.704 597.6C720.648 597.6 721.392 597.344 721.936 596.832C722.48 596.32 722.752 595.672 722.752 594.888C722.752 594.04 722.472 593.384 721.912 592.92C721.352 592.44 720.616 592.2 719.704 592.2ZM728.55 596.592V593.952L736.398 582.72H740.31V593.664H742.422V596.592H740.31V600H736.95V596.592H728.55ZM737.166 586.32L732.246 593.664H737.166V586.32ZM746.433 600.168C745.825 600.168 745.321 599.984 744.921 599.616C744.537 599.232 744.345 598.76 744.345 598.2C744.345 597.64 744.537 597.176 744.921 596.808C745.321 596.424 745.825 596.232 746.433 596.232C747.025 596.232 747.513 596.424 747.897 596.808C748.281 597.176 748.473 597.64 748.473 598.2C748.473 598.76 748.281 599.232 747.897 599.616C747.513 599.984 747.025 600.168 746.433 600.168ZM761.931 585.048L755.547 600H752.139L758.571 585.432H750.363V582.552H761.931V585.048ZM775.704 585.408H767.928V589.512C768.264 589.096 768.744 588.76 769.368 588.504C769.992 588.232 770.656 588.096 771.36 588.096C772.64 588.096 773.688 588.376 774.504 588.936C775.32 589.496 775.912 590.216 776.28 591.096C776.648 591.96 776.832 592.888 776.832 593.88C776.832 595.72 776.304 597.2 775.248 598.32C774.208 599.44 772.72 600 770.784 600C768.96 600 767.504 599.544 766.416 598.632C765.328 597.72 764.712 596.528 764.568 595.056H767.832C767.976 595.696 768.296 596.208 768.792 596.592C769.304 596.976 769.952 597.168 770.736 597.168C771.68 597.168 772.392 596.872 772.872 596.28C773.352 595.688 773.592 594.904 773.592 593.928C773.592 592.936 773.344 592.184 772.848 591.672C772.368 591.144 771.656 590.88 770.712 590.88C770.04 590.88 769.48 591.048 769.032 591.384C768.584 591.72 768.264 592.168 768.072 592.728H764.856V582.456H775.704V585.408Z" fill="#1F5C4D"/>
<path d="M650 257L650 657" stroke="#F68D4C" stroke-width="6" stroke-linecap="round"/>
<path d="M402.069 106.168C400.901 106.168 399.845 105.968 398.901 105.568C397.973 105.168 397.237 104.592 396.693 103.84C396.149 103.088 395.869 102.2 395.853 101.176H399.453C399.501 101.864 399.741 102.408 400.173 102.808C400.621 103.208 401.229 103.408 401.997 103.408C402.781 103.408 403.397 103.224 403.845 102.856C404.293 102.472 404.517 101.976 404.517 101.368C404.517 100.872 404.365 100.464 404.061 100.144C403.757 99.824 403.373 99.576 402.909 99.4C402.461 99.208 401.837 99 401.037 98.776C399.949 98.456 399.061 98.144 398.373 97.84C397.701 97.52 397.117 97.048 396.621 96.424C396.141 95.784 395.901 94.936 395.901 93.88C395.901 92.888 396.149 92.024 396.645 91.288C397.141 90.552 397.837 89.992 398.733 89.608C399.629 89.208 400.653 89.008 401.805 89.008C403.533 89.008 404.933 89.432 406.005 90.28C407.093 91.112 407.693 92.28 407.805 93.784H404.109C404.077 93.208 403.829 92.736 403.365 92.368C402.917 91.984 402.317 91.792 401.565 91.792C400.909 91.792 400.381 91.96 399.981 92.296C399.597 92.632 399.405 93.12 399.405 93.76C399.405 94.208 399.549 94.584 399.837 94.888C400.141 95.176 400.509 95.416 400.941 95.608C401.389 95.784 402.013 95.992 402.813 96.232C403.901 96.552 404.789 96.872 405.477 97.192C406.165 97.512 406.757 97.992 407.253 98.632C407.749 99.272 407.997 100.112 407.997 101.152C407.997 102.048 407.765 102.88 407.301 103.648C406.837 104.416 406.157 105.032 405.261 105.496C404.365 105.944 403.301 106.168 402.069 106.168ZM414.222 89.248V99.616C414.222 100.752 414.518 101.624 415.11 102.232C415.702 102.824 416.534 103.12 417.606 103.12C418.694 103.12 419.534 102.824 420.126 102.232C420.718 101.624 421.014 100.752 421.014 99.616V89.248H424.398V99.592C424.398 101.016 424.086 102.224 423.462 103.216C422.854 104.192 422.03 104.928 420.99 105.424C419.966 105.92 418.822 106.168 417.558 106.168C416.31 106.168 415.174 105.92 414.15 105.424C413.142 104.928 412.342 104.192 411.75 103.216C411.158 102.224 410.862 101.016 410.862 99.592V89.248H414.222ZM433.428 106.168C432.26 106.168 431.204 105.968 430.26 105.568C429.332 105.168 428.596 104.592 428.052 103.84C427.508 103.088 427.228 102.2 427.212 101.176H430.812C430.86 101.864 431.1 102.408 431.532 102.808C431.98 103.208 432.588 103.408 433.356 103.408C434.14 103.408 434.756 103.224 435.204 102.856C435.652 102.472 435.876 101.976 435.876 101.368C435.876 100.872 435.724 100.464 435.42 100.144C435.116 99.824 434.732 99.576 434.268 99.4C433.82 99.208 433.196 99 432.396 98.776C431.308 98.456 430.42 98.144 429.732 97.84C429.06 97.52 428.476 97.048 427.98 96.424C427.5 95.784 427.26 94.936 427.26 93.88C427.26 92.888 427.508 92.024 428.004 91.288C428.5 90.552 429.196 89.992 430.092 89.608C430.988 89.208 432.012 89.008 433.164 89.008C434.892 89.008 436.292 89.432 437.364 90.28C438.452 91.112 439.052 92.28 439.164 93.784H435.468C435.436 93.208 435.188 92.736 434.724 92.368C434.276 91.984 433.676 91.792 432.924 91.792C432.268 91.792 431.74 91.96 431.34 92.296C430.956 92.632 430.764 93.12 430.764 93.76C430.764 94.208 430.908 94.584 431.196 94.888C431.5 95.176 431.868 95.416 432.3 95.608C432.748 95.784 433.372 95.992 434.172 96.232C435.26 96.552 436.148 96.872 436.836 97.192C437.524 97.512 438.116 97.992 438.612 98.632C439.108 99.272 439.356 100.112 439.356 101.152C439.356 102.048 439.124 102.88 438.66 103.648C438.196 104.416 437.516 105.032 436.62 105.496C435.724 105.944 434.66 106.168 433.428 106.168ZM453.772 106.168C452.604 106.168 451.548 105.968 450.604 105.568C449.676 105.168 448.94 104.592 448.396 103.84C447.852 103.088 447.572 102.2 447.556 101.176H451.156C451.204 101.864 451.444 102.408 451.876 102.808C452.324 103.208 452.932 103.408 453.7 103.408C454.484 103.408 455.1 103.224 455.548 102.856C455.996 102.472 456.22 101.976 456.22 101.368C456.22 100.872 456.068 100.464 455.764 100.144C455.46 99.824 455.076 99.576 454.612 99.4C454.164 99.208 453.54 99 452.74 98.776C451.652 98.456 450.764 98.144 450.076 97.84C449.404 97.52 448.82 97.048 448.324 96.424C447.844 95.784 447.604 94.936 447.604 93.88C447.604 92.888 447.852 92.024 448.348 91.288C448.844 90.552 449.54 89.992 450.436 89.608C451.332 89.208 452.356 89.008 453.508 89.008C455.236 89.008 456.636 89.432 457.708 90.28C458.796 91.112 459.396 92.28 459.508 93.784H455.812C455.78 93.208 455.532 92.736 455.068 92.368C454.62 91.984 454.02 91.792 453.268 91.792C452.612 91.792 452.084 91.96 451.684 92.296C451.3 92.632 451.108 93.12 451.108 93.76C451.108 94.208 451.252 94.584 451.54 94.888C451.844 95.176 452.212 95.416 452.644 95.608C453.092 95.784 453.716 95.992 454.516 96.232C455.604 96.552 456.492 96.872 457.18 97.192C457.868 97.512 458.46 97.992 458.956 98.632C459.452 99.272 459.7 100.112 459.7 101.152C459.7 102.048 459.468 102.88 459.004 103.648C458.54 104.416 457.86 105.032 456.964 105.496C456.068 105.944 455.004 106.168 453.772 106.168ZM461.797 97.6C461.797 95.952 462.165 94.48 462.901 93.184C463.653 91.872 464.669 90.856 465.949 90.136C467.245 89.4 468.693 89.032 470.293 89.032C472.165 89.032 473.805 89.512 475.213 90.472C476.621 91.432 477.605 92.76 478.165 94.456H474.301C473.917 93.656 473.373 93.056 472.669 92.656C471.981 92.256 471.181 92.056 470.269 92.056C469.293 92.056 468.421 92.288 467.653 92.752C466.901 93.2 466.309 93.84 465.877 94.672C465.461 95.504 465.253 96.48 465.253 97.6C465.253 98.704 465.461 99.68 465.877 100.528C466.309 101.36 466.901 102.008 467.653 102.472C468.421 102.92 469.293 103.144 470.269 103.144C471.181 103.144 471.981 102.944 472.669 102.544C473.373 102.128 473.917 101.52 474.301 100.72H478.165C477.605 102.432 476.621 103.768 475.213 104.728C473.821 105.672 472.181 106.144 470.293 106.144C468.693 106.144 467.245 105.784 465.949 105.064C464.669 104.328 463.653 103.312 462.901 102.016C462.165 100.72 461.797 99.248 461.797 97.6ZM488.811 106.168C487.243 106.168 485.803 105.8 484.491 105.064C483.179 104.328 482.139 103.312 481.371 102.016C480.603 100.704 480.219 99.224 480.219 97.576C480.219 95.944 480.603 94.48 481.371 93.184C482.139 91.872 483.179 90.848 484.491 90.112C485.803 89.376 487.243 89.008 488.811 89.008C490.395 89.008 491.835 89.376 493.131 90.112C494.443 90.848 495.475 91.872 496.227 93.184C496.995 94.48 497.379 95.944 497.379 97.576C497.379 99.224 496.995 100.704 496.227 102.016C495.475 103.312 494.443 104.328 493.131 105.064C491.819 105.8 490.379 106.168 488.811 106.168ZM488.811 103.168C489.819 103.168 490.707 102.944 491.475 102.496C492.243 102.032 492.843 101.376 493.275 100.528C493.707 99.68 493.923 98.696 493.923 97.576C493.923 96.456 493.707 95.48 493.275 94.648C492.843 93.8 492.243 93.152 491.475 92.704C490.707 92.256 489.819 92.032 488.811 92.032C487.803 92.032 486.907 92.256 486.123 92.704C485.355 93.152 484.755 93.8 484.323 94.648C483.891 95.48 483.675 96.456 483.675 97.576C483.675 98.696 483.891 99.68 484.323 100.528C484.755 101.376 485.355 102.032 486.123 102.496C486.907 102.944 487.803 103.168 488.811 103.168ZM508.519 106L504.823 99.472H503.239V106H499.879V89.248H506.167C507.463 89.248 508.567 89.48 509.479 89.944C510.391 90.392 511.071 91.008 511.519 91.792C511.983 92.56 512.215 93.424 512.215 94.384C512.215 95.488 511.895 96.488 511.255 97.384C510.615 98.264 509.663 98.872 508.399 99.208L512.407 106H508.519ZM503.239 96.952H506.047C506.959 96.952 507.639 96.736 508.087 96.304C508.535 95.856 508.759 95.24 508.759 94.456C508.759 93.688 508.535 93.096 508.087 92.68C507.639 92.248 506.959 92.032 506.047 92.032H503.239V96.952ZM518.614 91.96V96.16H524.254V98.824H518.614V103.264H524.974V106H515.254V89.224H524.974V91.96H518.614Z" fill="#6B6B6B"/>
</svg>
