<svg width="814" height="439" viewBox="0 0 814 439" fill="none" xmlns="http://www.w3.org/2000/svg">
<path d="M405 220H624" stroke="#3A7D6B" stroke-width="2" stroke-dasharray="2 2"/>
<rect x="574" y="17" width="23" height="405" rx="11.5" fill="#3A7D6B" fill-opacity="0.1"/>
<rect x="539" y="17" width="23" height="405" rx="11.5" fill="#3A7D6B" fill-opacity="0.1"/>
<rect x="501" y="17" width="23" height="405" rx="11.5" fill="#3A7D6B" fill-opacity="0.1"/>
<rect x="466" y="17" width="23" height="405" rx="11.5" fill="#3A7D6B" fill-opacity="0.1"/>
<rect x="430" y="17" width="23" height="405" rx="11.5" fill="#3A7D6B" fill-opacity="0.1"/>
<path d="M190 220H218" stroke="#3A7D6B" stroke-width="2" stroke-dasharray="2 2"/>
<rect x="624" width="190" height="439" rx="12" fill="#3A7D6B"/>
<path d="M714.111 36.42C712.111 35.38 711.111 33.77 711.111 31.59C711.111 30.51 711.381 29.53 711.921 28.65C712.481 27.75 713.311 27.04 714.411 26.52C715.531 25.98 716.891 25.71 718.491 25.71C720.091 25.71 721.441 25.98 722.541 26.52C723.661 27.04 724.491 27.75 725.031 28.65C725.591 29.53 725.871 30.51 725.871 31.59C725.871 32.69 725.601 33.66 725.061 34.5C724.521 35.32 723.801 35.96 722.901 36.42C724.001 36.9 724.861 37.6 725.481 38.52C726.101 39.44 726.411 40.53 726.411 41.79C726.411 43.15 726.061 44.34 725.361 45.36C724.681 46.36 723.741 47.13 722.541 47.67C721.341 48.21 719.991 48.48 718.491 48.48C716.991 48.48 715.641 48.21 714.441 47.67C713.261 47.13 712.321 46.36 711.621 45.36C710.941 44.34 710.601 43.15 710.601 41.79C710.601 40.53 710.911 39.44 711.531 38.52C712.151 37.58 713.011 36.88 714.111 36.42ZM721.791 32.19C721.791 31.21 721.491 30.45 720.891 29.91C720.311 29.37 719.511 29.1 718.491 29.1C717.491 29.1 716.691 29.37 716.091 29.91C715.511 30.45 715.221 31.22 715.221 32.22C715.221 33.12 715.521 33.84 716.121 34.38C716.741 34.92 717.531 35.19 718.491 35.19C719.451 35.19 720.241 34.92 720.861 34.38C721.481 33.82 721.791 33.09 721.791 32.19ZM718.491 38.25C717.351 38.25 716.421 38.54 715.701 39.12C715.001 39.7 714.651 40.53 714.651 41.61C714.651 42.61 714.991 43.43 715.671 44.07C716.371 44.69 717.311 45 718.491 45C719.671 45 720.601 44.68 721.281 44.04C721.961 43.4 722.301 42.59 722.301 41.61C722.301 40.55 721.951 39.73 721.251 39.15C720.551 38.55 719.631 38.25 718.491 38.25Z" fill="white"/>
<path d="M692.154 73.248V90H688.794V79.104L684.306 90H681.762L677.25 79.104V90H673.89V73.248H677.706L683.034 85.704L688.362 73.248H692.154ZM694.612 83.304C694.612 81.96 694.876 80.768 695.404 79.728C695.948 78.688 696.676 77.888 697.588 77.328C698.516 76.768 699.548 76.488 700.684 76.488C701.676 76.488 702.54 76.688 703.276 77.088C704.028 77.488 704.628 77.992 705.076 78.6V76.704H708.46V90H705.076V88.056C704.644 88.68 704.044 89.2 703.276 89.616C702.524 90.016 701.652 90.216 700.66 90.216C699.54 90.216 698.516 89.928 697.588 89.352C696.676 88.776 695.948 87.968 695.404 86.928C694.876 85.872 694.612 84.664 694.612 83.304ZM705.076 83.352C705.076 82.536 704.916 81.84 704.596 81.264C704.276 80.672 703.844 80.224 703.3 79.92C702.756 79.6 702.172 79.44 701.548 79.44C700.924 79.44 700.348 79.592 699.82 79.896C699.292 80.2 698.86 80.648 698.524 81.24C698.204 81.816 698.044 82.504 698.044 83.304C698.044 84.104 698.204 84.808 698.524 85.416C698.86 86.008 699.292 86.464 699.82 86.784C700.364 87.104 700.94 87.264 701.548 87.264C702.172 87.264 702.756 87.112 703.3 86.808C703.844 86.488 704.276 86.04 704.596 85.464C704.916 84.872 705.076 84.168 705.076 83.352ZM719.11 76.512C720.694 76.512 721.974 77.016 722.95 78.024C723.926 79.016 724.414 80.408 724.414 82.2V90H721.054V82.656C721.054 81.6 720.79 80.792 720.262 80.232C719.734 79.656 719.014 79.368 718.102 79.368C717.174 79.368 716.438 79.656 715.894 80.232C715.366 80.792 715.102 81.6 715.102 82.656V90H711.742V76.704H715.102V78.36C715.55 77.784 716.118 77.336 716.806 77.016C717.51 76.68 718.278 76.512 719.11 76.512ZM740.161 76.704V90H736.777V88.32C736.345 88.896 735.777 89.352 735.073 89.688C734.385 90.008 733.633 90.168 732.817 90.168C731.777 90.168 730.857 89.952 730.057 89.52C729.257 89.072 728.625 88.424 728.161 87.576C727.713 86.712 727.489 85.688 727.489 84.504V76.704H730.849V84.024C730.849 85.08 731.113 85.896 731.641 86.472C732.169 87.032 732.889 87.312 733.801 87.312C734.729 87.312 735.457 87.032 735.985 86.472C736.513 85.896 736.777 85.08 736.777 84.024V76.704H740.161ZM742.612 83.304C742.612 81.96 742.876 80.768 743.404 79.728C743.948 78.688 744.676 77.888 745.588 77.328C746.516 76.768 747.548 76.488 748.684 76.488C749.676 76.488 750.54 76.688 751.276 77.088C752.028 77.488 752.628 77.992 753.076 78.6V76.704H756.46V90H753.076V88.056C752.644 88.68 752.044 89.2 751.276 89.616C750.524 90.016 749.652 90.216 748.66 90.216C747.54 90.216 746.516 89.928 745.588 89.352C744.676 88.776 743.948 87.968 743.404 86.928C742.876 85.872 742.612 84.664 742.612 83.304ZM753.076 83.352C753.076 82.536 752.916 81.84 752.596 81.264C752.276 80.672 751.844 80.224 751.3 79.92C750.756 79.6 750.172 79.44 749.548 79.44C748.924 79.44 748.348 79.592 747.82 79.896C747.292 80.2 746.86 80.648 746.524 81.24C746.204 81.816 746.044 82.504 746.044 83.304C746.044 84.104 746.204 84.808 746.524 85.416C746.86 86.008 747.292 86.464 747.82 86.784C748.364 87.104 748.94 87.264 749.548 87.264C750.172 87.264 750.756 87.112 751.3 86.808C751.844 86.488 752.276 86.04 752.596 85.464C752.916 84.872 753.076 84.168 753.076 83.352ZM763.102 72.24V90H759.742V72.24H763.102Z" fill="white"/>
<rect x="648" y="129" width="144" height="26" rx="12" fill="#C5FFF0" fill-opacity="0.2"/>
<rect x="648" y="319" width="144" height="26" rx="12" fill="#C5FFF0" fill-opacity="0.2"/>
<rect x="648" y="167" width="144" height="26" rx="12" fill="#C5FFF0" fill-opacity="0.2"/>
<rect x="648" y="357" width="144" height="26" rx="12" fill="#C5FFF0" fill-opacity="0.2"/>
<rect x="648" y="205" width="66" height="26" rx="12" fill="#C5FFF0" fill-opacity="0.2"/>
<rect x="726" y="205" width="66" height="26" rx="12" fill="#C5FFF0" fill-opacity="0.2"/>
<rect x="648" y="243" width="66" height="26" rx="12" fill="#C5FFF0" fill-opacity="0.2"/>
<rect x="726" y="243" width="66" height="26" rx="12" fill="#C5FFF0" fill-opacity="0.2"/>
<rect x="648" y="281" width="66" height="26" rx="12" fill="#C5FFF0" fill-opacity="0.2"/>
<rect x="726" y="281" width="66" height="26" rx="12" fill="#C5FFF0" fill-opacity="0.2"/>
<rect x="214" width="190" height="439" rx="12" fill="#3A7D6B"/>
<path d="M302.797 43.26C304.717 41.66 306.247 40.33 307.387 39.27C308.527 38.19 309.477 37.07 310.237 35.91C310.997 34.75 311.377 33.61 311.377 32.49C311.377 31.47 311.137 30.67 310.657 30.09C310.177 29.51 309.437 29.22 308.437 29.22C307.437 29.22 306.667 29.56 306.127 30.24C305.587 30.9 305.307 31.81 305.287 32.97H301.207C301.287 30.57 301.997 28.75 303.337 27.51C304.697 26.27 306.417 25.65 308.497 25.65C310.777 25.65 312.527 26.26 313.747 27.48C314.967 28.68 315.577 30.27 315.577 32.25C315.577 33.81 315.157 35.3 314.317 36.72C313.477 38.14 312.517 39.38 311.437 40.44C310.357 41.48 308.947 42.74 307.207 44.22H316.057V47.7H301.237V44.58L302.797 43.26Z" fill="white"/>
<path d="M240.798 78.432C240.798 79.328 240.582 80.168 240.15 80.952C239.734 81.736 239.07 82.368 238.158 82.848C237.262 83.328 236.126 83.568 234.75 83.568H231.942V90H228.582V73.248H234.75C236.046 73.248 237.15 73.472 238.062 73.92C238.974 74.368 239.654 74.984 240.102 75.768C240.566 76.552 240.798 77.44 240.798 78.432ZM234.606 80.856C235.534 80.856 236.222 80.648 236.67 80.232C237.118 79.8 237.342 79.2 237.342 78.432C237.342 76.8 236.43 75.984 234.606 75.984H231.942V80.856H234.606ZM246.543 78.768C246.975 78.064 247.535 77.512 248.223 77.112C248.927 76.712 249.727 76.512 250.623 76.512V80.04H249.735C248.679 80.04 247.879 80.288 247.335 80.784C246.807 81.28 246.543 82.144 246.543 83.376V90H243.183V76.704H246.543V78.768ZM258.79 90.216C257.51 90.216 256.358 89.936 255.334 89.376C254.31 88.8 253.502 87.992 252.91 86.952C252.334 85.912 252.046 84.712 252.046 83.352C252.046 81.992 252.342 80.792 252.934 79.752C253.542 78.712 254.366 77.912 255.406 77.352C256.446 76.776 257.606 76.488 258.886 76.488C260.166 76.488 261.326 76.776 262.366 77.352C263.406 77.912 264.222 78.712 264.814 79.752C265.422 80.792 265.726 81.992 265.726 83.352C265.726 84.712 265.414 85.912 264.79 86.952C264.182 87.992 263.35 88.8 262.294 89.376C261.254 89.936 260.086 90.216 258.79 90.216ZM258.79 87.288C259.398 87.288 259.966 87.144 260.494 86.856C261.038 86.552 261.47 86.104 261.79 85.512C262.11 84.92 262.27 84.2 262.27 83.352C262.27 82.088 261.934 81.12 261.262 80.448C260.606 79.76 259.798 79.416 258.838 79.416C257.878 79.416 257.07 79.76 256.414 80.448C255.774 81.12 255.454 82.088 255.454 83.352C255.454 84.616 255.766 85.592 256.39 86.28C257.03 86.952 257.83 87.288 258.79 87.288ZM267.327 83.304C267.327 81.96 267.591 80.768 268.119 79.728C268.663 78.688 269.399 77.888 270.327 77.328C271.255 76.768 272.287 76.488 273.423 76.488C274.287 76.488 275.111 76.68 275.895 77.064C276.679 77.432 277.303 77.928 277.767 78.552V72.24H281.175V90H277.767V88.032C277.351 88.688 276.767 89.216 276.015 89.616C275.263 90.016 274.391 90.216 273.399 90.216C272.279 90.216 271.255 89.928 270.327 89.352C269.399 88.776 268.663 87.968 268.119 86.928C267.591 85.872 267.327 84.664 267.327 83.304ZM277.791 83.352C277.791 82.536 277.631 81.84 277.311 81.264C276.991 80.672 276.559 80.224 276.015 79.92C275.471 79.6 274.887 79.44 274.263 79.44C273.639 79.44 273.063 79.592 272.535 79.896C272.007 80.2 271.575 80.648 271.239 81.24C270.919 81.816 270.759 82.504 270.759 83.304C270.759 84.104 270.919 84.808 271.239 85.416C271.575 86.008 272.007 86.464 272.535 86.784C273.079 87.104 273.655 87.264 274.263 87.264C274.887 87.264 275.471 87.112 276.015 86.808C276.559 86.488 276.991 86.04 277.311 85.464C277.631 84.872 277.791 84.168 277.791 83.352ZM297.009 76.704V90H293.625V88.32C293.193 88.896 292.625 89.352 291.921 89.688C291.233 90.008 290.481 90.168 289.665 90.168C288.625 90.168 287.705 89.952 286.905 89.52C286.105 89.072 285.473 88.424 285.009 87.576C284.561 86.712 284.337 85.688 284.337 84.504V76.704H287.697V84.024C287.697 85.08 287.961 85.896 288.489 86.472C289.017 87.032 289.737 87.312 290.649 87.312C291.577 87.312 292.305 87.032 292.833 86.472C293.361 85.896 293.625 85.08 293.625 84.024V76.704H297.009ZM299.46 83.352C299.46 81.976 299.74 80.776 300.3 79.752C300.86 78.712 301.636 77.912 302.628 77.352C303.62 76.776 304.756 76.488 306.036 76.488C307.684 76.488 309.044 76.904 310.116 77.736C311.204 78.552 311.932 79.704 312.3 81.192H308.676C308.484 80.616 308.156 80.168 307.692 79.848C307.244 79.512 306.684 79.344 306.012 79.344C305.052 79.344 304.292 79.696 303.732 80.4C303.172 81.088 302.892 82.072 302.892 83.352C302.892 84.616 303.172 85.6 303.732 86.304C304.292 86.992 305.052 87.336 306.012 87.336C307.372 87.336 308.26 86.728 308.676 85.512H312.3C311.932 86.952 311.204 88.096 310.116 88.944C309.028 89.792 307.668 90.216 306.036 90.216C304.756 90.216 303.62 89.936 302.628 89.376C301.636 88.8 300.86 88 300.3 86.976C299.74 85.936 299.46 84.728 299.46 83.352ZM318.673 79.464V85.896C318.673 86.344 318.777 86.672 318.985 86.88C319.209 87.072 319.577 87.168 320.089 87.168H321.649V90H319.537C316.705 90 315.289 88.624 315.289 85.872V79.464H313.705V76.704H315.289V73.416H318.673V76.704H321.649V79.464H318.673ZM342.001 78.432C342.001 79.328 341.785 80.168 341.353 80.952C340.937 81.736 340.273 82.368 339.361 82.848C338.465 83.328 337.329 83.568 335.953 83.568H333.145V90H329.785V73.248H335.953C337.249 73.248 338.353 73.472 339.265 73.92C340.177 74.368 340.857 74.984 341.305 75.768C341.769 76.552 342.001 77.44 342.001 78.432ZM335.809 80.856C336.737 80.856 337.425 80.648 337.873 80.232C338.321 79.8 338.545 79.2 338.545 78.432C338.545 76.8 337.633 75.984 335.809 75.984H333.145V80.856H335.809ZM343.522 83.304C343.522 81.96 343.786 80.768 344.314 79.728C344.858 78.688 345.586 77.888 346.498 77.328C347.426 76.768 348.458 76.488 349.594 76.488C350.586 76.488 351.45 76.688 352.186 77.088C352.938 77.488 353.538 77.992 353.986 78.6V76.704H357.37V90H353.986V88.056C353.554 88.68 352.954 89.2 352.186 89.616C351.434 90.016 350.562 90.216 349.57 90.216C348.45 90.216 347.426 89.928 346.498 89.352C345.586 88.776 344.858 87.968 344.314 86.928C343.786 85.872 343.522 84.664 343.522 83.304ZM353.986 83.352C353.986 82.536 353.826 81.84 353.506 81.264C353.186 80.672 352.754 80.224 352.21 79.92C351.666 79.6 351.082 79.44 350.458 79.44C349.834 79.44 349.258 79.592 348.73 79.896C348.202 80.2 347.77 80.648 347.434 81.24C347.114 81.816 346.954 82.504 346.954 83.304C346.954 84.104 347.114 84.808 347.434 85.416C347.77 86.008 348.202 86.464 348.73 86.784C349.274 87.104 349.85 87.264 350.458 87.264C351.082 87.264 351.666 87.112 352.21 86.808C352.754 86.488 353.186 86.04 353.506 85.464C353.826 84.872 353.986 84.168 353.986 83.352ZM365.86 76.488C366.852 76.488 367.724 76.688 368.476 77.088C369.228 77.472 369.82 77.976 370.252 78.6V76.704H373.636V90.096C373.636 91.328 373.388 92.424 372.892 93.384C372.396 94.36 371.652 95.128 370.66 95.688C369.668 96.264 368.468 96.552 367.06 96.552C365.172 96.552 363.62 96.112 362.404 95.232C361.204 94.352 360.524 93.152 360.364 91.632H363.7C363.876 92.24 364.252 92.72 364.828 93.072C365.42 93.44 366.132 93.624 366.964 93.624C367.94 93.624 368.732 93.328 369.34 92.736C369.948 92.16 370.252 91.28 370.252 90.096V88.032C369.82 88.656 369.22 89.176 368.452 89.592C367.7 90.008 366.836 90.216 365.86 90.216C364.74 90.216 363.716 89.928 362.788 89.352C361.86 88.776 361.124 87.968 360.58 86.928C360.052 85.872 359.788 84.664 359.788 83.304C359.788 81.96 360.052 80.768 360.58 79.728C361.124 78.688 361.852 77.888 362.764 77.328C363.692 76.768 364.724 76.488 365.86 76.488ZM370.252 83.352C370.252 82.536 370.092 81.84 369.772 81.264C369.452 80.672 369.02 80.224 368.476 79.92C367.932 79.6 367.348 79.44 366.724 79.44C366.1 79.44 365.524 79.592 364.996 79.896C364.468 80.2 364.036 80.648 363.7 81.24C363.38 81.816 363.22 82.504 363.22 83.304C363.22 84.104 363.38 84.808 363.7 85.416C364.036 86.008 364.468 86.464 364.996 86.784C365.54 87.104 366.116 87.264 366.724 87.264C367.348 87.264 367.932 87.112 368.476 86.808C369.02 86.488 369.452 86.04 369.772 85.464C370.092 84.872 370.252 84.168 370.252 83.352ZM389.278 83.064C389.278 83.544 389.246 83.976 389.182 84.36H379.462C379.542 85.32 379.878 86.072 380.47 86.616C381.062 87.16 381.79 87.432 382.654 87.432C383.902 87.432 384.79 86.896 385.318 85.824H388.942C388.558 87.104 387.822 88.16 386.734 88.992C385.646 89.808 384.31 90.216 382.726 90.216C381.446 90.216 380.294 89.936 379.27 89.376C378.262 88.8 377.47 87.992 376.894 86.952C376.334 85.912 376.054 84.712 376.054 83.352C376.054 81.976 376.334 80.768 376.894 79.728C377.454 78.688 378.238 77.888 379.246 77.328C380.254 76.768 381.414 76.488 382.726 76.488C383.99 76.488 385.118 76.76 386.11 77.304C387.118 77.848 387.894 78.624 388.438 79.632C388.998 80.624 389.278 81.768 389.278 83.064ZM385.798 82.104C385.782 81.24 385.47 80.552 384.862 80.04C384.254 79.512 383.51 79.248 382.63 79.248C381.798 79.248 381.094 79.504 380.518 80.016C379.958 80.512 379.614 81.208 379.486 82.104H385.798Z" fill="white"/>
<rect x="240" y="129" width="144" height="26" rx="12" fill="#C5FFF0" fill-opacity="0.2"/>
<rect x="240" y="319" width="144" height="26" rx="12" fill="#C5FFF0" fill-opacity="0.2"/>
<rect x="240" y="167" width="144" height="26" rx="12" fill="#C5FFF0" fill-opacity="0.2"/>
<rect x="240" y="357" width="144" height="26" rx="12" fill="#C5FFF0" fill-opacity="0.2"/>
<rect x="240" y="205" width="66" height="26" rx="12" fill="#C5FFF0" fill-opacity="0.2"/>
<rect x="318" y="205" width="66" height="26" rx="12" fill="#C5FFF0" fill-opacity="0.2"/>
<rect x="240" y="243" width="66" height="26" rx="12" fill="#C5FFF0" fill-opacity="0.2"/>
<rect x="318" y="243" width="66" height="26" rx="12" fill="#C5FFF0" fill-opacity="0.2"/>
<rect x="240" y="281" width="66" height="26" rx="12" fill="#C5FFF0" fill-opacity="0.2"/>
<rect x="318" y="281" width="66" height="26" rx="12" fill="#C5FFF0" fill-opacity="0.2"/>
<rect width="190" height="439" rx="12" fill="#3A7D6B"/>
<path d="M90.1454 30V26.13H97.3754V48H93.0554V30H90.1454Z" fill="white"/>
<path d="M73.8176 73.248V90H70.4576V82.872H63.2816V90H59.9216V73.248H63.2816V80.136H70.4576V73.248H73.8176ZM83.0288 90.216C81.7488 90.216 80.5968 89.936 79.5728 89.376C78.5488 88.8 77.7408 87.992 77.1488 86.952C76.5728 85.912 76.2848 84.712 76.2848 83.352C76.2848 81.992 76.5808 80.792 77.1728 79.752C77.7808 78.712 78.6048 77.912 79.6448 77.352C80.6848 76.776 81.8448 76.488 83.1248 76.488C84.4048 76.488 85.5648 76.776 86.6048 77.352C87.6448 77.912 88.4608 78.712 89.0528 79.752C89.6608 80.792 89.9648 81.992 89.9648 83.352C89.9648 84.712 89.6528 85.912 89.0287 86.952C88.4208 87.992 87.5888 88.8 86.5328 89.376C85.4928 89.936 84.3248 90.216 83.0288 90.216ZM83.0288 87.288C83.6368 87.288 84.2048 87.144 84.7328 86.856C85.2768 86.552 85.7088 86.104 86.0288 85.512C86.3488 84.92 86.5088 84.2 86.5088 83.352C86.5088 82.088 86.1728 81.12 85.5008 80.448C84.8448 79.76 84.0368 79.416 83.0768 79.416C82.1168 79.416 81.3088 79.76 80.6528 80.448C80.0128 81.12 79.6928 82.088 79.6928 83.352C79.6928 84.616 80.0048 85.592 80.6288 86.28C81.2688 86.952 82.0688 87.288 83.0288 87.288ZM108.941 76.512C110.573 76.512 111.885 77.016 112.877 78.024C113.885 79.016 114.389 80.408 114.389 82.2V90H111.029V82.656C111.029 81.616 110.765 80.824 110.237 80.28C109.709 79.72 108.989 79.44 108.077 79.44C107.165 79.44 106.437 79.72 105.893 80.28C105.365 80.824 105.101 81.616 105.101 82.656V90H101.741V82.656C101.741 81.616 101.477 80.824 100.949 80.28C100.421 79.72 99.7014 79.44 98.7894 79.44C97.8614 79.44 97.1254 79.72 96.5814 80.28C96.0534 80.824 95.7894 81.616 95.7894 82.656V90H92.4294V76.704H95.7894V78.312C96.2214 77.752 96.7734 77.312 97.4454 76.992C98.1334 76.672 98.8854 76.512 99.7014 76.512C100.741 76.512 101.669 76.736 102.485 77.184C103.301 77.616 103.933 78.24 104.381 79.056C104.813 78.288 105.437 77.672 106.253 77.208C107.085 76.744 107.981 76.512 108.941 76.512ZM129.938 83.064C129.938 83.544 129.906 83.976 129.842 84.36H120.122C120.202 85.32 120.538 86.072 121.13 86.616C121.722 87.16 122.45 87.432 123.314 87.432C124.562 87.432 125.45 86.896 125.978 85.824H129.602C129.218 87.104 128.482 88.16 127.394 88.992C126.306 89.808 124.97 90.216 123.386 90.216C122.106 90.216 120.954 89.936 119.93 89.376C118.922 88.8 118.13 87.992 117.554 86.952C116.994 85.912 116.714 84.712 116.714 83.352C116.714 81.976 116.994 80.768 117.554 79.728C118.114 78.688 118.898 77.888 119.906 77.328C120.914 76.768 122.074 76.488 123.386 76.488C124.65 76.488 125.778 76.76 126.77 77.304C127.778 77.848 128.554 78.624 129.098 79.632C129.658 80.624 129.938 81.768 129.938 83.064ZM126.458 82.104C126.442 81.24 126.13 80.552 125.522 80.04C124.914 79.512 124.17 79.248 123.29 79.248C122.458 79.248 121.754 79.504 121.178 80.016C120.618 80.512 120.274 81.208 120.146 82.104H126.458Z" fill="white"/>
<rect x="23" y="129" width="144" height="26" rx="12" fill="#C5FFF0" fill-opacity="0.2"/>
<rect x="23" y="319" width="144" height="26" rx="12" fill="#C5FFF0" fill-opacity="0.2"/>
<rect x="23" y="167" width="144" height="26" rx="12" fill="#C5FFF0" fill-opacity="0.2"/>
<rect x="23" y="357" width="144" height="26" rx="12" fill="#C5FFF0" fill-opacity="0.2"/>
<rect x="23" y="205" width="66" height="26" rx="12" fill="#C5FFF0" fill-opacity="0.2"/>
<rect x="101" y="205" width="66" height="26" rx="12" fill="#C5FFF0" fill-opacity="0.2"/>
<rect x="23" y="243" width="66" height="26" rx="12" fill="#C5FFF0" fill-opacity="0.2"/>
<rect x="101" y="243" width="66" height="26" rx="12" fill="#C5FFF0" fill-opacity="0.2"/>
<rect x="23" y="281" width="66" height="26" rx="12" fill="#C5FFF0" fill-opacity="0.2"/>
<rect x="101" y="281" width="66" height="26" rx="12" fill="#C5FFF0" fill-opacity="0.2"/>
</svg>
