<svg width="798" height="833" viewBox="0 0 798 833" fill="none" xmlns="http://www.w3.org/2000/svg">
<rect y="217" width="190" height="356" rx="12" fill="#3A7D6B"/>
<path d="M53.272 260.168C52.104 260.168 51.048 259.968 50.104 259.568C49.176 259.168 48.44 258.592 47.896 257.84C47.352 257.088 47.072 256.2 47.056 255.176H50.656C50.704 255.864 50.944 256.408 51.376 256.808C51.824 257.208 52.432 257.408 53.2 257.408C53.984 257.408 54.6 257.224 55.048 256.856C55.496 256.472 55.72 255.976 55.72 255.368C55.72 254.872 55.568 254.464 55.264 254.144C54.96 253.824 54.576 253.576 54.112 253.4C53.664 253.208 53.04 253 52.24 252.776C51.152 252.456 50.264 252.144 49.576 251.84C48.904 251.52 48.32 251.048 47.824 250.424C47.344 249.784 47.104 248.936 47.104 247.88C47.104 246.888 47.352 246.024 47.848 245.288C48.344 244.552 49.04 243.992 49.936 243.608C50.832 243.208 51.856 243.008 53.008 243.008C54.736 243.008 56.136 243.432 57.208 244.28C58.296 245.112 58.896 246.28 59.008 247.784H55.312C55.28 247.208 55.032 246.736 54.568 246.368C54.12 245.984 53.52 245.792 52.768 245.792C52.112 245.792 51.584 245.96 51.184 246.296C50.8 246.632 50.608 247.12 50.608 247.76C50.608 248.208 50.752 248.584 51.04 248.888C51.344 249.176 51.712 249.416 52.144 249.608C52.592 249.784 53.216 249.992 54.016 250.232C55.104 250.552 55.992 250.872 56.68 251.192C57.368 251.512 57.96 251.992 58.456 252.632C58.952 253.272 59.2 254.112 59.2 255.152C59.2 256.048 58.968 256.88 58.504 257.648C58.04 258.416 57.36 259.032 56.464 259.496C55.568 259.944 54.504 260.168 53.272 260.168ZM74.665 246.704V260H71.281V258.32C70.849 258.896 70.281 259.352 69.577 259.688C68.889 260.008 68.137 260.168 67.321 260.168C66.281 260.168 65.361 259.952 64.561 259.52C63.761 259.072 63.129 258.424 62.665 257.576C62.217 256.712 61.993 255.688 61.993 254.504V246.704H65.353V254.024C65.353 255.08 65.617 255.896 66.145 256.472C66.673 257.032 67.393 257.312 68.305 257.312C69.233 257.312 69.961 257.032 70.489 256.472C71.017 255.896 71.281 255.08 71.281 254.024V246.704H74.665ZM81.3402 248.624C81.7722 248.016 82.3642 247.512 83.1162 247.112C83.8842 246.696 84.7562 246.488 85.7322 246.488C86.8682 246.488 87.8922 246.768 88.8042 247.328C89.7322 247.888 90.4602 248.688 90.9882 249.728C91.5322 250.752 91.8042 251.944 91.8042 253.304C91.8042 254.664 91.5322 255.872 90.9882 256.928C90.4602 257.968 89.7322 258.776 88.8042 259.352C87.8922 259.928 86.8682 260.216 85.7322 260.216C84.7562 260.216 83.8922 260.016 83.1402 259.616C82.4042 259.216 81.8042 258.712 81.3402 258.104V266.336H77.9802V246.704H81.3402V248.624ZM88.3722 253.304C88.3722 252.504 88.2042 251.816 87.8682 251.24C87.5482 250.648 87.1162 250.2 86.5722 249.896C86.0442 249.592 85.4682 249.44 84.8442 249.44C84.2362 249.44 83.6602 249.6 83.1162 249.92C82.5882 250.224 82.1562 250.672 81.8202 251.264C81.5002 251.856 81.3402 252.552 81.3402 253.352C81.3402 254.152 81.5002 254.848 81.8202 255.44C82.1562 256.032 82.5882 256.488 83.1162 256.808C83.6602 257.112 84.2362 257.264 84.8442 257.264C85.4682 257.264 86.0442 257.104 86.5722 256.784C87.1162 256.464 87.5482 256.008 87.8682 255.416C88.2042 254.824 88.3722 254.12 88.3722 253.304ZM97.6058 248.624C98.0378 248.016 98.6298 247.512 99.3818 247.112C100.15 246.696 101.022 246.488 101.998 246.488C103.134 246.488 104.158 246.768 105.07 247.328C105.998 247.888 106.726 248.688 107.254 249.728C107.798 250.752 108.07 251.944 108.07 253.304C108.07 254.664 107.798 255.872 107.254 256.928C106.726 257.968 105.998 258.776 105.07 259.352C104.158 259.928 103.134 260.216 101.998 260.216C101.022 260.216 100.158 260.016 99.4058 259.616C98.6698 259.216 98.0698 258.712 97.6058 258.104V266.336H94.2458V246.704H97.6058V248.624ZM104.638 253.304C104.638 252.504 104.47 251.816 104.134 251.24C103.814 250.648 103.382 250.2 102.838 249.896C102.31 249.592 101.734 249.44 101.11 249.44C100.502 249.44 99.9258 249.6 99.3818 249.92C98.8538 250.224 98.4218 250.672 98.0858 251.264C97.7658 251.856 97.6058 252.552 97.6058 253.352C97.6058 254.152 97.7658 254.848 98.0858 255.44C98.4218 256.032 98.8538 256.488 99.3818 256.808C99.9258 257.112 100.502 257.264 101.11 257.264C101.734 257.264 102.31 257.104 102.838 256.784C103.382 256.464 103.814 256.008 104.134 255.416C104.47 254.824 104.638 254.12 104.638 253.304ZM116.415 260.216C115.135 260.216 113.983 259.936 112.959 259.376C111.935 258.8 111.127 257.992 110.535 256.952C109.959 255.912 109.671 254.712 109.671 253.352C109.671 251.992 109.967 250.792 110.559 249.752C111.167 248.712 111.991 247.912 113.031 247.352C114.071 246.776 115.231 246.488 116.511 246.488C117.791 246.488 118.951 246.776 119.991 247.352C121.031 247.912 121.847 248.712 122.439 249.752C123.047 250.792 123.351 251.992 123.351 253.352C123.351 254.712 123.039 255.912 122.415 256.952C121.807 257.992 120.975 258.8 119.919 259.376C118.879 259.936 117.711 260.216 116.415 260.216ZM116.415 257.288C117.023 257.288 117.591 257.144 118.119 256.856C118.663 256.552 119.095 256.104 119.415 255.512C119.735 254.92 119.895 254.2 119.895 253.352C119.895 252.088 119.559 251.12 118.887 250.448C118.231 249.76 117.423 249.416 116.463 249.416C115.503 249.416 114.695 249.76 114.039 250.448C113.399 251.12 113.079 252.088 113.079 253.352C113.079 254.616 113.391 255.592 114.015 256.28C114.655 256.952 115.455 257.288 116.415 257.288ZM129.176 248.768C129.608 248.064 130.168 247.512 130.856 247.112C131.56 246.712 132.36 246.512 133.256 246.512V250.04H132.368C131.312 250.04 130.512 250.288 129.968 250.784C129.44 251.28 129.176 252.144 129.176 253.376V260H125.816V246.704H129.176V248.768ZM139.431 249.464V255.896C139.431 256.344 139.535 256.672 139.743 256.88C139.967 257.072 140.335 257.168 140.847 257.168H142.407V260H140.295C137.463 260 136.047 258.624 136.047 255.872V249.464H134.463V246.704H136.047V243.416H139.431V246.704H142.407V249.464H139.431ZM68.0776 282.512C69.0856 282.512 69.9816 282.736 70.7656 283.184C71.5496 283.616 72.1576 284.264 72.5896 285.128C73.0376 285.976 73.2616 287 73.2616 288.2V296H69.9016V288.656C69.9016 287.6 69.6376 286.792 69.1096 286.232C68.5816 285.656 67.8616 285.368 66.9496 285.368C66.0216 285.368 65.2856 285.656 64.7416 286.232C64.2136 286.792 63.9496 287.6 63.9496 288.656V296H60.5896V278.24H63.9496V284.36C64.3816 283.784 64.9576 283.336 65.6776 283.016C66.3976 282.68 67.1976 282.512 68.0776 282.512ZM82.3608 296.216C81.0808 296.216 79.9288 295.936 78.9048 295.376C77.8808 294.8 77.0728 293.992 76.4808 292.952C75.9048 291.912 75.6168 290.712 75.6168 289.352C75.6168 287.992 75.9128 286.792 76.5048 285.752C77.1128 284.712 77.9368 283.912 78.9768 283.352C80.0168 282.776 81.1768 282.488 82.4568 282.488C83.7368 282.488 84.8968 282.776 85.9368 283.352C86.9768 283.912 87.7928 284.712 88.3848 285.752C88.9928 286.792 89.2968 287.992 89.2968 289.352C89.2968 290.712 88.9848 291.912 88.3608 292.952C87.7528 293.992 86.9208 294.8 85.8648 295.376C84.8248 295.936 83.6568 296.216 82.3608 296.216ZM82.3608 293.288C82.9688 293.288 83.5368 293.144 84.0648 292.856C84.6088 292.552 85.0408 292.104 85.3608 291.512C85.6808 290.92 85.8408 290.2 85.8408 289.352C85.8408 288.088 85.5048 287.12 84.8328 286.448C84.1768 285.76 83.3688 285.416 82.4088 285.416C81.4488 285.416 80.6408 285.76 79.9848 286.448C79.3448 287.12 79.0248 288.088 79.0248 289.352C79.0248 290.616 79.3368 291.592 79.9608 292.28C80.6008 292.952 81.4008 293.288 82.3608 293.288ZM108.273 282.512C109.905 282.512 111.217 283.016 112.209 284.024C113.217 285.016 113.721 286.408 113.721 288.2V296H110.361V288.656C110.361 287.616 110.097 286.824 109.569 286.28C109.041 285.72 108.321 285.44 107.409 285.44C106.497 285.44 105.769 285.72 105.225 286.28C104.697 286.824 104.433 287.616 104.433 288.656V296H101.073V288.656C101.073 287.616 100.809 286.824 100.281 286.28C99.7535 285.72 99.0335 285.44 98.1215 285.44C97.1935 285.44 96.4575 285.72 95.9135 286.28C95.3855 286.824 95.1215 287.616 95.1215 288.656V296H91.7615V282.704H95.1215V284.312C95.5535 283.752 96.1055 283.312 96.7775 282.992C97.4655 282.672 98.2175 282.512 99.0335 282.512C100.073 282.512 101.001 282.736 101.817 283.184C102.633 283.616 103.265 284.24 103.713 285.056C104.145 284.288 104.769 283.672 105.585 283.208C106.417 282.744 107.313 282.512 108.273 282.512ZM129.27 289.064C129.27 289.544 129.238 289.976 129.174 290.36H119.454C119.534 291.32 119.87 292.072 120.462 292.616C121.054 293.16 121.782 293.432 122.646 293.432C123.894 293.432 124.782 292.896 125.31 291.824H128.934C128.55 293.104 127.814 294.16 126.726 294.992C125.638 295.808 124.302 296.216 122.718 296.216C121.438 296.216 120.286 295.936 119.262 295.376C118.254 294.8 117.462 293.992 116.886 292.952C116.326 291.912 116.046 290.712 116.046 289.352C116.046 287.976 116.326 286.768 116.886 285.728C117.446 284.688 118.23 283.888 119.238 283.328C120.246 282.768 121.406 282.488 122.718 282.488C123.982 282.488 125.11 282.76 126.102 283.304C127.11 283.848 127.886 284.624 128.43 285.632C128.99 286.624 129.27 287.768 129.27 289.064ZM125.79 288.104C125.774 287.24 125.462 286.552 124.854 286.04C124.246 285.512 123.502 285.248 122.622 285.248C121.79 285.248 121.086 285.504 120.51 286.016C119.95 286.512 119.606 287.208 119.478 288.104H125.79Z" fill="white"/>
<path d="M55.6741 611.808H49.0021L47.8981 615H44.3701L50.3941 598.224H54.3061L60.3301 615H56.7781L55.6741 611.808ZM54.7621 609.12L52.3381 602.112L49.9141 609.12H54.7621ZM65.8938 598.248V608.616C65.8938 609.752 66.1898 610.624 66.7818 611.232C67.3738 611.824 68.2058 612.12 69.2778 612.12C70.3658 612.12 71.2058 611.824 71.7978 611.232C72.3898 610.624 72.6858 609.752 72.6858 608.616V598.248H76.0698V608.592C76.0698 610.016 75.7578 611.224 75.1338 612.216C74.5258 613.192 73.7018 613.928 72.6618 614.424C71.6378 614.92 70.4938 615.168 69.2298 615.168C67.9818 615.168 66.8458 614.92 65.8218 614.424C64.8138 613.928 64.0138 613.192 63.4218 612.216C62.8298 611.224 62.5338 610.016 62.5338 608.592V598.248H65.8938ZM97.9229 615L96.0989 613.2C94.5469 614.592 92.6509 615.288 90.4109 615.288C89.1789 615.288 88.0909 615.08 87.1469 614.664C86.2189 614.232 85.4989 613.632 84.9869 612.864C84.4749 612.08 84.2189 611.176 84.2189 610.152C84.2189 609.048 84.5309 608.056 85.1549 607.176C85.7789 606.296 86.6989 605.584 87.9149 605.04C87.4829 604.512 87.1709 604.008 86.9789 603.528C86.7869 603.032 86.6909 602.504 86.6909 601.944C86.6909 601.176 86.8909 600.488 87.2909 599.88C87.6909 599.256 88.2589 598.768 88.9949 598.416C89.7469 598.064 90.6189 597.888 91.6109 597.888C92.6189 597.888 93.4829 598.08 94.2029 598.464C94.9229 598.848 95.4589 599.36 95.8109 600C96.1629 600.64 96.3149 601.352 96.2669 602.136H93.0029C93.0189 601.608 92.8909 601.208 92.6189 600.936C92.3469 600.648 91.9789 600.504 91.5149 600.504C91.0669 600.504 90.6909 600.64 90.3869 600.912C90.0989 601.168 89.9549 601.504 89.9549 601.92C89.9549 602.32 90.0749 602.72 90.3149 603.12C90.5549 603.504 90.9469 603.984 91.4909 604.56L95.7149 608.736C95.7469 608.704 95.7709 608.672 95.7869 608.64C95.8029 608.608 95.8189 608.576 95.8349 608.544L97.2029 606.264H100.707L99.0269 609.216C98.7069 609.84 98.3629 610.432 97.9949 610.992L102.051 615H97.9229ZM90.5069 612.504C91.8189 612.504 92.9789 612.04 93.9869 611.112L89.8589 607.032C88.3069 607.72 87.5309 608.696 87.5309 609.96C87.5309 610.68 87.8029 611.288 88.3469 611.784C88.8909 612.264 89.6109 612.504 90.5069 612.504ZM123.761 615H120.401L112.793 603.504V615H109.433V598.224H112.793L120.401 609.744V598.224H123.761V615ZM130.514 612.168H138.05V615H126.626V612.408L134.114 601.08H126.626V598.248H138.05V600.84L130.514 612.168Z" fill="#1F5C4D"/>
<rect x="23" y="475" width="144" height="26" rx="12" fill="#C5FFF0" fill-opacity="0.2"/>
<rect x="23" y="513" width="144" height="26" rx="12" fill="#C5FFF0" fill-opacity="0.2"/>
<rect x="23" y="395" width="66" height="26" rx="12" fill="#C5FFF0" fill-opacity="0.2"/>
<rect x="101" y="395" width="66" height="26" rx="12" fill="#C5FFF0" fill-opacity="0.2"/>
<rect x="23" y="319" width="66" height="26" rx="12" fill="#C5FFF0" fill-opacity="0.2"/>
<rect x="101" y="319" width="66" height="26" rx="12" fill="#C5FFF0" fill-opacity="0.2"/>
<rect x="23" y="433" width="66" height="26" rx="12" fill="#C5FFF0" fill-opacity="0.2"/>
<rect x="101" y="433" width="66" height="26" rx="12" fill="#C5FFF0" fill-opacity="0.2"/>
<rect x="23" y="357" width="66" height="26" rx="12" fill="#C5FFF0" fill-opacity="0.2"/>
<rect x="101" y="357" width="66" height="26" rx="12" fill="#C5FFF0" fill-opacity="0.2"/>
<path d="M189.5 383H301.772V148H440.5" stroke="#3A7D6B" stroke-width="2" stroke-dasharray="2 2"/>
<path d="M189 384H301.272V614H440" stroke="#3A7D6B" stroke-width="2" stroke-dasharray="2 2"/>
<rect x="398" width="190" height="356" rx="12" fill="#3A7D6B"/>
<path d="M451.272 43.168C450.104 43.168 449.048 42.968 448.104 42.568C447.176 42.168 446.44 41.592 445.896 40.84C445.352 40.088 445.072 39.2 445.056 38.176H448.656C448.704 38.864 448.944 39.408 449.376 39.808C449.824 40.208 450.432 40.408 451.2 40.408C451.984 40.408 452.6 40.224 453.048 39.856C453.496 39.472 453.72 38.976 453.72 38.368C453.72 37.872 453.568 37.464 453.264 37.144C452.96 36.824 452.576 36.576 452.112 36.4C451.664 36.208 451.04 36 450.24 35.776C449.152 35.456 448.264 35.144 447.576 34.84C446.904 34.52 446.32 34.048 445.824 33.424C445.344 32.784 445.104 31.936 445.104 30.88C445.104 29.888 445.352 29.024 445.848 28.288C446.344 27.552 447.04 26.992 447.936 26.608C448.832 26.208 449.856 26.008 451.008 26.008C452.736 26.008 454.136 26.432 455.208 27.28C456.296 28.112 456.896 29.28 457.008 30.784H453.312C453.28 30.208 453.032 29.736 452.568 29.368C452.12 28.984 451.52 28.792 450.768 28.792C450.112 28.792 449.584 28.96 449.184 29.296C448.8 29.632 448.608 30.12 448.608 30.76C448.608 31.208 448.752 31.584 449.04 31.888C449.344 32.176 449.712 32.416 450.144 32.608C450.592 32.784 451.216 32.992 452.016 33.232C453.104 33.552 453.992 33.872 454.68 34.192C455.368 34.512 455.96 34.992 456.456 35.632C456.952 36.272 457.2 37.112 457.2 38.152C457.2 39.048 456.968 39.88 456.504 40.648C456.04 41.416 455.36 42.032 454.464 42.496C453.568 42.944 452.504 43.168 451.272 43.168ZM472.665 29.704V43H469.281V41.32C468.849 41.896 468.281 42.352 467.577 42.688C466.889 43.008 466.137 43.168 465.321 43.168C464.281 43.168 463.361 42.952 462.561 42.52C461.761 42.072 461.129 41.424 460.665 40.576C460.217 39.712 459.993 38.688 459.993 37.504V29.704H463.353V37.024C463.353 38.08 463.617 38.896 464.145 39.472C464.673 40.032 465.393 40.312 466.305 40.312C467.233 40.312 467.961 40.032 468.489 39.472C469.017 38.896 469.281 38.08 469.281 37.024V29.704H472.665ZM479.34 31.624C479.772 31.016 480.364 30.512 481.116 30.112C481.884 29.696 482.756 29.488 483.732 29.488C484.868 29.488 485.892 29.768 486.804 30.328C487.732 30.888 488.46 31.688 488.988 32.728C489.532 33.752 489.804 34.944 489.804 36.304C489.804 37.664 489.532 38.872 488.988 39.928C488.46 40.968 487.732 41.776 486.804 42.352C485.892 42.928 484.868 43.216 483.732 43.216C482.756 43.216 481.892 43.016 481.14 42.616C480.404 42.216 479.804 41.712 479.34 41.104V49.336H475.98V29.704H479.34V31.624ZM486.372 36.304C486.372 35.504 486.204 34.816 485.868 34.24C485.548 33.648 485.116 33.2 484.572 32.896C484.044 32.592 483.468 32.44 482.844 32.44C482.236 32.44 481.66 32.6 481.116 32.92C480.588 33.224 480.156 33.672 479.82 34.264C479.5 34.856 479.34 35.552 479.34 36.352C479.34 37.152 479.5 37.848 479.82 38.44C480.156 39.032 480.588 39.488 481.116 39.808C481.66 40.112 482.236 40.264 482.844 40.264C483.468 40.264 484.044 40.104 484.572 39.784C485.116 39.464 485.548 39.008 485.868 38.416C486.204 37.824 486.372 37.12 486.372 36.304ZM495.606 31.624C496.038 31.016 496.63 30.512 497.382 30.112C498.15 29.696 499.022 29.488 499.998 29.488C501.134 29.488 502.158 29.768 503.07 30.328C503.998 30.888 504.726 31.688 505.254 32.728C505.798 33.752 506.07 34.944 506.07 36.304C506.07 37.664 505.798 38.872 505.254 39.928C504.726 40.968 503.998 41.776 503.07 42.352C502.158 42.928 501.134 43.216 499.998 43.216C499.022 43.216 498.158 43.016 497.406 42.616C496.67 42.216 496.07 41.712 495.606 41.104V49.336H492.246V29.704H495.606V31.624ZM502.638 36.304C502.638 35.504 502.47 34.816 502.134 34.24C501.814 33.648 501.382 33.2 500.838 32.896C500.31 32.592 499.734 32.44 499.11 32.44C498.502 32.44 497.926 32.6 497.382 32.92C496.854 33.224 496.422 33.672 496.086 34.264C495.766 34.856 495.606 35.552 495.606 36.352C495.606 37.152 495.766 37.848 496.086 38.44C496.422 39.032 496.854 39.488 497.382 39.808C497.926 40.112 498.502 40.264 499.11 40.264C499.734 40.264 500.31 40.104 500.838 39.784C501.382 39.464 501.814 39.008 502.134 38.416C502.47 37.824 502.638 37.12 502.638 36.304ZM514.415 43.216C513.135 43.216 511.983 42.936 510.959 42.376C509.935 41.8 509.127 40.992 508.535 39.952C507.959 38.912 507.671 37.712 507.671 36.352C507.671 34.992 507.967 33.792 508.559 32.752C509.167 31.712 509.991 30.912 511.031 30.352C512.071 29.776 513.231 29.488 514.511 29.488C515.791 29.488 516.951 29.776 517.991 30.352C519.031 30.912 519.847 31.712 520.439 32.752C521.047 33.792 521.351 34.992 521.351 36.352C521.351 37.712 521.039 38.912 520.415 39.952C519.807 40.992 518.975 41.8 517.919 42.376C516.879 42.936 515.711 43.216 514.415 43.216ZM514.415 40.288C515.023 40.288 515.591 40.144 516.119 39.856C516.663 39.552 517.095 39.104 517.415 38.512C517.735 37.92 517.895 37.2 517.895 36.352C517.895 35.088 517.559 34.12 516.887 33.448C516.231 32.76 515.423 32.416 514.463 32.416C513.503 32.416 512.695 32.76 512.039 33.448C511.399 34.12 511.079 35.088 511.079 36.352C511.079 37.616 511.391 38.592 512.015 39.28C512.655 39.952 513.455 40.288 514.415 40.288ZM527.176 31.768C527.608 31.064 528.168 30.512 528.856 30.112C529.56 29.712 530.36 29.512 531.256 29.512V33.04H530.368C529.312 33.04 528.512 33.288 527.968 33.784C527.44 34.28 527.176 35.144 527.176 36.376V43H523.816V29.704H527.176V31.768ZM537.431 32.464V38.896C537.431 39.344 537.535 39.672 537.743 39.88C537.967 40.072 538.335 40.168 538.847 40.168H540.407V43H538.295C535.463 43 534.047 41.624 534.047 38.872V32.464H532.463V29.704H534.047V26.416H537.431V29.704H540.407V32.464H537.431ZM466.078 65.512C467.086 65.512 467.982 65.736 468.766 66.184C469.55 66.616 470.158 67.264 470.59 68.128C471.038 68.976 471.262 70 471.262 71.2V79H467.902V71.656C467.902 70.6 467.638 69.792 467.11 69.232C466.582 68.656 465.862 68.368 464.95 68.368C464.022 68.368 463.286 68.656 462.742 69.232C462.214 69.792 461.95 70.6 461.95 71.656V79H458.59V61.24H461.95V67.36C462.382 66.784 462.958 66.336 463.678 66.016C464.398 65.68 465.198 65.512 466.078 65.512ZM480.361 79.216C479.081 79.216 477.929 78.936 476.905 78.376C475.881 77.8 475.073 76.992 474.481 75.952C473.905 74.912 473.617 73.712 473.617 72.352C473.617 70.992 473.913 69.792 474.505 68.752C475.113 67.712 475.937 66.912 476.977 66.352C478.017 65.776 479.177 65.488 480.457 65.488C481.737 65.488 482.897 65.776 483.937 66.352C484.977 66.912 485.793 67.712 486.385 68.752C486.993 69.792 487.297 70.992 487.297 72.352C487.297 73.712 486.985 74.912 486.361 75.952C485.753 76.992 484.921 77.8 483.865 78.376C482.825 78.936 481.657 79.216 480.361 79.216ZM480.361 76.288C480.969 76.288 481.537 76.144 482.065 75.856C482.609 75.552 483.041 75.104 483.361 74.512C483.681 73.92 483.841 73.2 483.841 72.352C483.841 71.088 483.505 70.12 482.833 69.448C482.177 68.76 481.369 68.416 480.409 68.416C479.449 68.416 478.641 68.76 477.985 69.448C477.345 70.12 477.025 71.088 477.025 72.352C477.025 73.616 477.337 74.592 477.961 75.28C478.601 75.952 479.401 76.288 480.361 76.288ZM506.273 65.512C507.905 65.512 509.217 66.016 510.209 67.024C511.217 68.016 511.721 69.408 511.721 71.2V79H508.361V71.656C508.361 70.616 508.097 69.824 507.569 69.28C507.041 68.72 506.321 68.44 505.409 68.44C504.497 68.44 503.769 68.72 503.225 69.28C502.697 69.824 502.433 70.616 502.433 71.656V79H499.073V71.656C499.073 70.616 498.809 69.824 498.281 69.28C497.753 68.72 497.033 68.44 496.121 68.44C495.193 68.44 494.457 68.72 493.913 69.28C493.385 69.824 493.121 70.616 493.121 71.656V79H489.761V65.704H493.121V67.312C493.553 66.752 494.105 66.312 494.777 65.992C495.465 65.672 496.217 65.512 497.033 65.512C498.073 65.512 499.001 65.736 499.817 66.184C500.633 66.616 501.265 67.24 501.713 68.056C502.145 67.288 502.769 66.672 503.585 66.208C504.417 65.744 505.313 65.512 506.273 65.512ZM527.27 72.064C527.27 72.544 527.238 72.976 527.174 73.36H517.454C517.534 74.32 517.87 75.072 518.462 75.616C519.054 76.16 519.782 76.432 520.646 76.432C521.894 76.432 522.782 75.896 523.31 74.824H526.934C526.55 76.104 525.814 77.16 524.726 77.992C523.638 78.808 522.302 79.216 520.718 79.216C519.438 79.216 518.286 78.936 517.262 78.376C516.254 77.8 515.462 76.992 514.886 75.952C514.326 74.912 514.046 73.712 514.046 72.352C514.046 70.976 514.326 69.768 514.886 68.728C515.446 67.688 516.23 66.888 517.238 66.328C518.246 65.768 519.406 65.488 520.718 65.488C521.982 65.488 523.11 65.76 524.102 66.304C525.11 66.848 525.886 67.624 526.43 68.632C526.99 69.624 527.27 70.768 527.27 72.064ZM523.79 71.104C523.774 70.24 523.462 69.552 522.854 69.04C522.246 68.512 521.502 68.248 520.622 68.248C519.79 68.248 519.086 68.504 518.51 69.016C517.95 69.512 517.606 70.208 517.478 71.104H523.79Z" fill="white"/>
<path d="M480.417 398.168C479.249 398.168 478.193 397.968 477.249 397.568C476.321 397.168 475.585 396.592 475.041 395.84C474.497 395.088 474.217 394.2 474.201 393.176H477.801C477.849 393.864 478.089 394.408 478.521 394.808C478.969 395.208 479.577 395.408 480.345 395.408C481.129 395.408 481.745 395.224 482.193 394.856C482.641 394.472 482.865 393.976 482.865 393.368C482.865 392.872 482.713 392.464 482.409 392.144C482.105 391.824 481.721 391.576 481.257 391.4C480.809 391.208 480.185 391 479.385 390.776C478.297 390.456 477.409 390.144 476.721 389.84C476.049 389.52 475.465 389.048 474.969 388.424C474.489 387.784 474.249 386.936 474.249 385.88C474.249 384.888 474.497 384.024 474.993 383.288C475.489 382.552 476.185 381.992 477.081 381.608C477.977 381.208 479.001 381.008 480.153 381.008C481.881 381.008 483.281 381.432 484.353 382.28C485.441 383.112 486.041 384.28 486.153 385.784H482.457C482.425 385.208 482.177 384.736 481.713 384.368C481.265 383.984 480.665 383.792 479.913 383.792C479.257 383.792 478.729 383.96 478.329 384.296C477.945 384.632 477.753 385.12 477.753 385.76C477.753 386.208 477.897 386.584 478.185 386.888C478.489 387.176 478.857 387.416 479.289 387.608C479.737 387.784 480.361 387.992 481.161 388.232C482.249 388.552 483.137 388.872 483.825 389.192C484.513 389.512 485.105 389.992 485.601 390.632C486.097 391.272 486.345 392.112 486.345 393.152C486.345 394.048 486.113 394.88 485.649 395.648C485.185 396.416 484.505 397.032 483.609 397.496C482.713 397.944 481.649 398.168 480.417 398.168ZM500.922 386.288C500.538 385.584 500.01 385.048 499.338 384.68C498.666 384.312 497.882 384.128 496.986 384.128C495.994 384.128 495.114 384.352 494.346 384.8C493.578 385.248 492.978 385.888 492.546 386.72C492.114 387.552 491.898 388.512 491.898 389.6C491.898 390.72 492.114 391.696 492.546 392.528C492.994 393.36 493.61 394 494.394 394.448C495.178 394.896 496.09 395.12 497.13 395.12C498.41 395.12 499.458 394.784 500.274 394.112C501.09 393.424 501.626 392.472 501.882 391.256H496.122V388.688H505.194V391.616C504.97 392.784 504.49 393.864 503.754 394.856C503.018 395.848 502.066 396.648 500.898 397.256C499.746 397.848 498.45 398.144 497.01 398.144C495.394 398.144 493.93 397.784 492.618 397.064C491.322 396.328 490.298 395.312 489.546 394.016C488.81 392.72 488.442 391.248 488.442 389.6C488.442 387.952 488.81 386.48 489.546 385.184C490.298 383.872 491.322 382.856 492.618 382.136C493.93 381.4 495.386 381.032 496.986 381.032C498.874 381.032 500.514 381.496 501.906 382.424C503.298 383.336 504.258 384.624 504.786 386.288H500.922Z" fill="#1F5C4D"/>
<rect x="421" y="258" width="144" height="26" rx="12" fill="#C5FFF0" fill-opacity="0.2"/>
<rect x="421" y="296" width="144" height="26" rx="12" fill="#C5FFF0" fill-opacity="0.2"/>
<rect x="421" y="178" width="66" height="26" rx="12" fill="#C5FFF0" fill-opacity="0.2"/>
<rect x="499" y="178" width="66" height="26" rx="12" fill="#C5FFF0" fill-opacity="0.2"/>
<rect x="421" y="102" width="66" height="26" rx="12" fill="#C5FFF0" fill-opacity="0.2"/>
<rect x="499" y="102" width="66" height="26" rx="12" fill="#C5FFF0" fill-opacity="0.2"/>
<rect x="421" y="216" width="66" height="26" rx="12" fill="#C5FFF0" fill-opacity="0.2"/>
<rect x="499" y="216" width="66" height="26" rx="12" fill="#C5FFF0" fill-opacity="0.2"/>
<rect x="421" y="140" width="66" height="26" rx="12" fill="#C5FFF0" fill-opacity="0.2"/>
<rect x="499" y="140" width="66" height="26" rx="12" fill="#C5FFF0" fill-opacity="0.2"/>
<rect x="608" width="190" height="356" rx="12" fill="#3A7D6B"/>
<path d="M661.272 43.168C660.104 43.168 659.048 42.968 658.104 42.568C657.176 42.168 656.44 41.592 655.896 40.84C655.352 40.088 655.072 39.2 655.056 38.176H658.656C658.704 38.864 658.944 39.408 659.376 39.808C659.824 40.208 660.432 40.408 661.2 40.408C661.984 40.408 662.6 40.224 663.048 39.856C663.496 39.472 663.72 38.976 663.72 38.368C663.72 37.872 663.568 37.464 663.264 37.144C662.96 36.824 662.576 36.576 662.112 36.4C661.664 36.208 661.04 36 660.24 35.776C659.152 35.456 658.264 35.144 657.576 34.84C656.904 34.52 656.32 34.048 655.824 33.424C655.344 32.784 655.104 31.936 655.104 30.88C655.104 29.888 655.352 29.024 655.848 28.288C656.344 27.552 657.04 26.992 657.936 26.608C658.832 26.208 659.856 26.008 661.008 26.008C662.736 26.008 664.136 26.432 665.208 27.28C666.296 28.112 666.896 29.28 667.008 30.784H663.312C663.28 30.208 663.032 29.736 662.568 29.368C662.12 28.984 661.52 28.792 660.768 28.792C660.112 28.792 659.584 28.96 659.184 29.296C658.8 29.632 658.608 30.12 658.608 30.76C658.608 31.208 658.752 31.584 659.04 31.888C659.344 32.176 659.712 32.416 660.144 32.608C660.592 32.784 661.216 32.992 662.016 33.232C663.104 33.552 663.992 33.872 664.68 34.192C665.368 34.512 665.96 34.992 666.456 35.632C666.952 36.272 667.2 37.112 667.2 38.152C667.2 39.048 666.968 39.88 666.504 40.648C666.04 41.416 665.36 42.032 664.464 42.496C663.568 42.944 662.504 43.168 661.272 43.168ZM682.665 29.704V43H679.281V41.32C678.849 41.896 678.281 42.352 677.577 42.688C676.889 43.008 676.137 43.168 675.321 43.168C674.281 43.168 673.361 42.952 672.561 42.52C671.761 42.072 671.129 41.424 670.665 40.576C670.217 39.712 669.993 38.688 669.993 37.504V29.704H673.353V37.024C673.353 38.08 673.617 38.896 674.145 39.472C674.673 40.032 675.393 40.312 676.305 40.312C677.233 40.312 677.961 40.032 678.489 39.472C679.017 38.896 679.281 38.08 679.281 37.024V29.704H682.665ZM689.34 31.624C689.772 31.016 690.364 30.512 691.116 30.112C691.884 29.696 692.756 29.488 693.732 29.488C694.868 29.488 695.892 29.768 696.804 30.328C697.732 30.888 698.46 31.688 698.988 32.728C699.532 33.752 699.804 34.944 699.804 36.304C699.804 37.664 699.532 38.872 698.988 39.928C698.46 40.968 697.732 41.776 696.804 42.352C695.892 42.928 694.868 43.216 693.732 43.216C692.756 43.216 691.892 43.016 691.14 42.616C690.404 42.216 689.804 41.712 689.34 41.104V49.336H685.98V29.704H689.34V31.624ZM696.372 36.304C696.372 35.504 696.204 34.816 695.868 34.24C695.548 33.648 695.116 33.2 694.572 32.896C694.044 32.592 693.468 32.44 692.844 32.44C692.236 32.44 691.66 32.6 691.116 32.92C690.588 33.224 690.156 33.672 689.82 34.264C689.5 34.856 689.34 35.552 689.34 36.352C689.34 37.152 689.5 37.848 689.82 38.44C690.156 39.032 690.588 39.488 691.116 39.808C691.66 40.112 692.236 40.264 692.844 40.264C693.468 40.264 694.044 40.104 694.572 39.784C695.116 39.464 695.548 39.008 695.868 38.416C696.204 37.824 696.372 37.12 696.372 36.304ZM705.606 31.624C706.038 31.016 706.63 30.512 707.382 30.112C708.15 29.696 709.022 29.488 709.998 29.488C711.134 29.488 712.158 29.768 713.07 30.328C713.998 30.888 714.726 31.688 715.254 32.728C715.798 33.752 716.07 34.944 716.07 36.304C716.07 37.664 715.798 38.872 715.254 39.928C714.726 40.968 713.998 41.776 713.07 42.352C712.158 42.928 711.134 43.216 709.998 43.216C709.022 43.216 708.158 43.016 707.406 42.616C706.67 42.216 706.07 41.712 705.606 41.104V49.336H702.246V29.704H705.606V31.624ZM712.638 36.304C712.638 35.504 712.47 34.816 712.134 34.24C711.814 33.648 711.382 33.2 710.838 32.896C710.31 32.592 709.734 32.44 709.11 32.44C708.502 32.44 707.926 32.6 707.382 32.92C706.854 33.224 706.422 33.672 706.086 34.264C705.766 34.856 705.606 35.552 705.606 36.352C705.606 37.152 705.766 37.848 706.086 38.44C706.422 39.032 706.854 39.488 707.382 39.808C707.926 40.112 708.502 40.264 709.11 40.264C709.734 40.264 710.31 40.104 710.838 39.784C711.382 39.464 711.814 39.008 712.134 38.416C712.47 37.824 712.638 37.12 712.638 36.304ZM724.415 43.216C723.135 43.216 721.983 42.936 720.959 42.376C719.935 41.8 719.127 40.992 718.535 39.952C717.959 38.912 717.671 37.712 717.671 36.352C717.671 34.992 717.967 33.792 718.559 32.752C719.167 31.712 719.991 30.912 721.031 30.352C722.071 29.776 723.231 29.488 724.511 29.488C725.791 29.488 726.951 29.776 727.991 30.352C729.031 30.912 729.847 31.712 730.439 32.752C731.047 33.792 731.351 34.992 731.351 36.352C731.351 37.712 731.039 38.912 730.415 39.952C729.807 40.992 728.975 41.8 727.919 42.376C726.879 42.936 725.711 43.216 724.415 43.216ZM724.415 40.288C725.023 40.288 725.591 40.144 726.119 39.856C726.663 39.552 727.095 39.104 727.415 38.512C727.735 37.92 727.895 37.2 727.895 36.352C727.895 35.088 727.559 34.12 726.887 33.448C726.231 32.76 725.423 32.416 724.463 32.416C723.503 32.416 722.695 32.76 722.039 33.448C721.399 34.12 721.079 35.088 721.079 36.352C721.079 37.616 721.391 38.592 722.015 39.28C722.655 39.952 723.455 40.288 724.415 40.288ZM737.176 31.768C737.608 31.064 738.168 30.512 738.856 30.112C739.56 29.712 740.36 29.512 741.256 29.512V33.04H740.368C739.312 33.04 738.512 33.288 737.968 33.784C737.44 34.28 737.176 35.144 737.176 36.376V43H733.816V29.704H737.176V31.768ZM747.431 32.464V38.896C747.431 39.344 747.535 39.672 747.743 39.88C747.967 40.072 748.335 40.168 748.847 40.168H750.407V43H748.295C745.463 43 744.047 41.624 744.047 38.872V32.464H742.463V29.704H744.047V26.416H747.431V29.704H750.407V32.464H747.431ZM676.078 65.512C677.086 65.512 677.982 65.736 678.766 66.184C679.55 66.616 680.158 67.264 680.59 68.128C681.038 68.976 681.262 70 681.262 71.2V79H677.902V71.656C677.902 70.6 677.638 69.792 677.11 69.232C676.582 68.656 675.862 68.368 674.95 68.368C674.022 68.368 673.286 68.656 672.742 69.232C672.214 69.792 671.95 70.6 671.95 71.656V79H668.59V61.24H671.95V67.36C672.382 66.784 672.958 66.336 673.678 66.016C674.398 65.68 675.198 65.512 676.078 65.512ZM690.361 79.216C689.081 79.216 687.929 78.936 686.905 78.376C685.881 77.8 685.073 76.992 684.481 75.952C683.905 74.912 683.617 73.712 683.617 72.352C683.617 70.992 683.913 69.792 684.505 68.752C685.113 67.712 685.937 66.912 686.977 66.352C688.017 65.776 689.177 65.488 690.457 65.488C691.737 65.488 692.897 65.776 693.937 66.352C694.977 66.912 695.793 67.712 696.385 68.752C696.993 69.792 697.297 70.992 697.297 72.352C697.297 73.712 696.985 74.912 696.361 75.952C695.753 76.992 694.921 77.8 693.865 78.376C692.825 78.936 691.657 79.216 690.361 79.216ZM690.361 76.288C690.969 76.288 691.537 76.144 692.065 75.856C692.609 75.552 693.041 75.104 693.361 74.512C693.681 73.92 693.841 73.2 693.841 72.352C693.841 71.088 693.505 70.12 692.833 69.448C692.177 68.76 691.369 68.416 690.409 68.416C689.449 68.416 688.641 68.76 687.985 69.448C687.345 70.12 687.025 71.088 687.025 72.352C687.025 73.616 687.337 74.592 687.961 75.28C688.601 75.952 689.401 76.288 690.361 76.288ZM716.273 65.512C717.905 65.512 719.217 66.016 720.209 67.024C721.217 68.016 721.721 69.408 721.721 71.2V79H718.361V71.656C718.361 70.616 718.097 69.824 717.569 69.28C717.041 68.72 716.321 68.44 715.409 68.44C714.497 68.44 713.769 68.72 713.225 69.28C712.697 69.824 712.433 70.616 712.433 71.656V79H709.073V71.656C709.073 70.616 708.809 69.824 708.281 69.28C707.753 68.72 707.033 68.44 706.121 68.44C705.193 68.44 704.457 68.72 703.913 69.28C703.385 69.824 703.121 70.616 703.121 71.656V79H699.761V65.704H703.121V67.312C703.553 66.752 704.105 66.312 704.777 65.992C705.465 65.672 706.217 65.512 707.033 65.512C708.073 65.512 709.001 65.736 709.817 66.184C710.633 66.616 711.265 67.24 711.713 68.056C712.145 67.288 712.769 66.672 713.585 66.208C714.417 65.744 715.313 65.512 716.273 65.512ZM737.27 72.064C737.27 72.544 737.238 72.976 737.174 73.36H727.454C727.534 74.32 727.87 75.072 728.462 75.616C729.054 76.16 729.782 76.432 730.646 76.432C731.894 76.432 732.782 75.896 733.31 74.824H736.934C736.55 76.104 735.814 77.16 734.726 77.992C733.638 78.808 732.302 79.216 730.718 79.216C729.438 79.216 728.286 78.936 727.262 78.376C726.254 77.8 725.462 76.992 724.886 75.952C724.326 74.912 724.046 73.712 724.046 72.352C724.046 70.976 724.326 69.768 724.886 68.728C725.446 67.688 726.23 66.888 727.238 66.328C728.246 65.768 729.406 65.488 730.718 65.488C731.982 65.488 733.11 65.76 734.102 66.304C735.11 66.848 735.886 67.624 736.43 68.632C736.99 69.624 737.27 70.768 737.27 72.064ZM733.79 71.104C733.774 70.24 733.462 69.552 732.854 69.04C732.246 68.512 731.502 68.248 730.622 68.248C729.79 68.248 729.086 68.504 728.51 69.016C727.95 69.512 727.606 70.208 727.478 71.104H733.79Z" fill="white"/>
<path d="M694.967 398L688.871 390.536V398H685.511V381.248H688.871V388.76L694.967 381.248H699.023L692.111 389.552L699.215 398H694.967ZM710.066 398L706.37 391.472H704.786V398H701.426V381.248H707.714C709.01 381.248 710.114 381.48 711.026 381.944C711.938 382.392 712.618 383.008 713.066 383.792C713.53 384.56 713.762 385.424 713.762 386.384C713.762 387.488 713.442 388.488 712.802 389.384C712.162 390.264 711.21 390.872 709.946 391.208L713.954 398H710.066ZM704.786 388.952H707.594C708.506 388.952 709.186 388.736 709.634 388.304C710.082 387.856 710.306 387.24 710.306 386.456C710.306 385.688 710.082 385.096 709.634 384.68C709.186 384.248 708.506 384.032 707.594 384.032H704.786V388.952Z" fill="#1F5C4D"/>
<rect x="631" y="258" width="144" height="26" rx="12" fill="#C5FFF0" fill-opacity="0.2"/>
<rect x="631" y="296" width="144" height="26" rx="12" fill="#C5FFF0" fill-opacity="0.2"/>
<rect x="631" y="178" width="66" height="26" rx="12" fill="#C5FFF0" fill-opacity="0.2"/>
<rect x="709" y="178" width="66" height="26" rx="12" fill="#C5FFF0" fill-opacity="0.2"/>
<rect x="631" y="102" width="66" height="26" rx="12" fill="#C5FFF0" fill-opacity="0.2"/>
<rect x="709" y="102" width="66" height="26" rx="12" fill="#C5FFF0" fill-opacity="0.2"/>
<rect x="631" y="216" width="66" height="26" rx="12" fill="#C5FFF0" fill-opacity="0.2"/>
<rect x="709" y="216" width="66" height="26" rx="12" fill="#C5FFF0" fill-opacity="0.2"/>
<rect x="631" y="140" width="66" height="26" rx="12" fill="#C5FFF0" fill-opacity="0.2"/>
<rect x="709" y="140" width="66" height="26" rx="12" fill="#C5FFF0" fill-opacity="0.2"/>
<rect x="395" y="425" width="190" height="356" rx="12" fill="#3A7D6B"/>
<path d="M448.272 468.168C447.104 468.168 446.048 467.968 445.104 467.568C444.176 467.168 443.44 466.592 442.896 465.84C442.352 465.088 442.072 464.2 442.056 463.176H445.656C445.704 463.864 445.944 464.408 446.376 464.808C446.824 465.208 447.432 465.408 448.2 465.408C448.984 465.408 449.6 465.224 450.048 464.856C450.496 464.472 450.72 463.976 450.72 463.368C450.72 462.872 450.568 462.464 450.264 462.144C449.96 461.824 449.576 461.576 449.112 461.4C448.664 461.208 448.04 461 447.24 460.776C446.152 460.456 445.264 460.144 444.576 459.84C443.904 459.52 443.32 459.048 442.824 458.424C442.344 457.784 442.104 456.936 442.104 455.88C442.104 454.888 442.352 454.024 442.848 453.288C443.344 452.552 444.04 451.992 444.936 451.608C445.832 451.208 446.856 451.008 448.008 451.008C449.736 451.008 451.136 451.432 452.208 452.28C453.296 453.112 453.896 454.28 454.008 455.784H450.312C450.28 455.208 450.032 454.736 449.568 454.368C449.12 453.984 448.52 453.792 447.768 453.792C447.112 453.792 446.584 453.96 446.184 454.296C445.8 454.632 445.608 455.12 445.608 455.76C445.608 456.208 445.752 456.584 446.04 456.888C446.344 457.176 446.712 457.416 447.144 457.608C447.592 457.784 448.216 457.992 449.016 458.232C450.104 458.552 450.992 458.872 451.68 459.192C452.368 459.512 452.96 459.992 453.456 460.632C453.952 461.272 454.2 462.112 454.2 463.152C454.2 464.048 453.968 464.88 453.504 465.648C453.04 466.416 452.36 467.032 451.464 467.496C450.568 467.944 449.504 468.168 448.272 468.168ZM469.665 454.704V468H466.281V466.32C465.849 466.896 465.281 467.352 464.577 467.688C463.889 468.008 463.137 468.168 462.321 468.168C461.281 468.168 460.361 467.952 459.561 467.52C458.761 467.072 458.129 466.424 457.665 465.576C457.217 464.712 456.993 463.688 456.993 462.504V454.704H460.353V462.024C460.353 463.08 460.617 463.896 461.145 464.472C461.673 465.032 462.393 465.312 463.305 465.312C464.233 465.312 464.961 465.032 465.489 464.472C466.017 463.896 466.281 463.08 466.281 462.024V454.704H469.665ZM476.34 456.624C476.772 456.016 477.364 455.512 478.116 455.112C478.884 454.696 479.756 454.488 480.732 454.488C481.868 454.488 482.892 454.768 483.804 455.328C484.732 455.888 485.46 456.688 485.988 457.728C486.532 458.752 486.804 459.944 486.804 461.304C486.804 462.664 486.532 463.872 485.988 464.928C485.46 465.968 484.732 466.776 483.804 467.352C482.892 467.928 481.868 468.216 480.732 468.216C479.756 468.216 478.892 468.016 478.14 467.616C477.404 467.216 476.804 466.712 476.34 466.104V474.336H472.98V454.704H476.34V456.624ZM483.372 461.304C483.372 460.504 483.204 459.816 482.868 459.24C482.548 458.648 482.116 458.2 481.572 457.896C481.044 457.592 480.468 457.44 479.844 457.44C479.236 457.44 478.66 457.6 478.116 457.92C477.588 458.224 477.156 458.672 476.82 459.264C476.5 459.856 476.34 460.552 476.34 461.352C476.34 462.152 476.5 462.848 476.82 463.44C477.156 464.032 477.588 464.488 478.116 464.808C478.66 465.112 479.236 465.264 479.844 465.264C480.468 465.264 481.044 465.104 481.572 464.784C482.116 464.464 482.548 464.008 482.868 463.416C483.204 462.824 483.372 462.12 483.372 461.304ZM492.606 456.624C493.038 456.016 493.63 455.512 494.382 455.112C495.15 454.696 496.022 454.488 496.998 454.488C498.134 454.488 499.158 454.768 500.07 455.328C500.998 455.888 501.726 456.688 502.254 457.728C502.798 458.752 503.07 459.944 503.07 461.304C503.07 462.664 502.798 463.872 502.254 464.928C501.726 465.968 500.998 466.776 500.07 467.352C499.158 467.928 498.134 468.216 496.998 468.216C496.022 468.216 495.158 468.016 494.406 467.616C493.67 467.216 493.07 466.712 492.606 466.104V474.336H489.246V454.704H492.606V456.624ZM499.638 461.304C499.638 460.504 499.47 459.816 499.134 459.24C498.814 458.648 498.382 458.2 497.838 457.896C497.31 457.592 496.734 457.44 496.11 457.44C495.502 457.44 494.926 457.6 494.382 457.92C493.854 458.224 493.422 458.672 493.086 459.264C492.766 459.856 492.606 460.552 492.606 461.352C492.606 462.152 492.766 462.848 493.086 463.44C493.422 464.032 493.854 464.488 494.382 464.808C494.926 465.112 495.502 465.264 496.11 465.264C496.734 465.264 497.31 465.104 497.838 464.784C498.382 464.464 498.814 464.008 499.134 463.416C499.47 462.824 499.638 462.12 499.638 461.304ZM511.415 468.216C510.135 468.216 508.983 467.936 507.959 467.376C506.935 466.8 506.127 465.992 505.535 464.952C504.959 463.912 504.671 462.712 504.671 461.352C504.671 459.992 504.967 458.792 505.559 457.752C506.167 456.712 506.991 455.912 508.031 455.352C509.071 454.776 510.231 454.488 511.511 454.488C512.791 454.488 513.951 454.776 514.991 455.352C516.031 455.912 516.847 456.712 517.439 457.752C518.047 458.792 518.351 459.992 518.351 461.352C518.351 462.712 518.039 463.912 517.415 464.952C516.807 465.992 515.975 466.8 514.919 467.376C513.879 467.936 512.711 468.216 511.415 468.216ZM511.415 465.288C512.023 465.288 512.591 465.144 513.119 464.856C513.663 464.552 514.095 464.104 514.415 463.512C514.735 462.92 514.895 462.2 514.895 461.352C514.895 460.088 514.559 459.12 513.887 458.448C513.231 457.76 512.423 457.416 511.463 457.416C510.503 457.416 509.695 457.76 509.039 458.448C508.399 459.12 508.079 460.088 508.079 461.352C508.079 462.616 508.391 463.592 509.015 464.28C509.655 464.952 510.455 465.288 511.415 465.288ZM524.176 456.768C524.608 456.064 525.168 455.512 525.856 455.112C526.56 454.712 527.36 454.512 528.256 454.512V458.04H527.368C526.312 458.04 525.512 458.288 524.968 458.784C524.44 459.28 524.176 460.144 524.176 461.376V468H520.816V454.704H524.176V456.768ZM534.431 457.464V463.896C534.431 464.344 534.535 464.672 534.743 464.88C534.967 465.072 535.335 465.168 535.847 465.168H537.407V468H535.295C532.463 468 531.047 466.624 531.047 463.872V457.464H529.463V454.704H531.047V451.416H534.431V454.704H537.407V457.464H534.431ZM463.078 490.512C464.086 490.512 464.982 490.736 465.766 491.184C466.55 491.616 467.158 492.264 467.59 493.128C468.038 493.976 468.262 495 468.262 496.2V504H464.902V496.656C464.902 495.6 464.638 494.792 464.11 494.232C463.582 493.656 462.862 493.368 461.95 493.368C461.022 493.368 460.286 493.656 459.742 494.232C459.214 494.792 458.95 495.6 458.95 496.656V504H455.59V486.24H458.95V492.36C459.382 491.784 459.958 491.336 460.678 491.016C461.398 490.68 462.198 490.512 463.078 490.512ZM477.361 504.216C476.081 504.216 474.929 503.936 473.905 503.376C472.881 502.8 472.073 501.992 471.481 500.952C470.905 499.912 470.617 498.712 470.617 497.352C470.617 495.992 470.913 494.792 471.505 493.752C472.113 492.712 472.937 491.912 473.977 491.352C475.017 490.776 476.177 490.488 477.457 490.488C478.737 490.488 479.897 490.776 480.937 491.352C481.977 491.912 482.793 492.712 483.385 493.752C483.993 494.792 484.297 495.992 484.297 497.352C484.297 498.712 483.985 499.912 483.361 500.952C482.753 501.992 481.921 502.8 480.865 503.376C479.825 503.936 478.657 504.216 477.361 504.216ZM477.361 501.288C477.969 501.288 478.537 501.144 479.065 500.856C479.609 500.552 480.041 500.104 480.361 499.512C480.681 498.92 480.841 498.2 480.841 497.352C480.841 496.088 480.505 495.12 479.833 494.448C479.177 493.76 478.369 493.416 477.409 493.416C476.449 493.416 475.641 493.76 474.985 494.448C474.345 495.12 474.025 496.088 474.025 497.352C474.025 498.616 474.337 499.592 474.961 500.28C475.601 500.952 476.401 501.288 477.361 501.288ZM503.273 490.512C504.905 490.512 506.217 491.016 507.209 492.024C508.217 493.016 508.721 494.408 508.721 496.2V504H505.361V496.656C505.361 495.616 505.097 494.824 504.569 494.28C504.041 493.72 503.321 493.44 502.409 493.44C501.497 493.44 500.769 493.72 500.225 494.28C499.697 494.824 499.433 495.616 499.433 496.656V504H496.073V496.656C496.073 495.616 495.809 494.824 495.281 494.28C494.753 493.72 494.033 493.44 493.121 493.44C492.193 493.44 491.457 493.72 490.913 494.28C490.385 494.824 490.121 495.616 490.121 496.656V504H486.761V490.704H490.121V492.312C490.553 491.752 491.105 491.312 491.777 490.992C492.465 490.672 493.217 490.512 494.033 490.512C495.073 490.512 496.001 490.736 496.817 491.184C497.633 491.616 498.265 492.24 498.713 493.056C499.145 492.288 499.769 491.672 500.585 491.208C501.417 490.744 502.313 490.512 503.273 490.512ZM524.27 497.064C524.27 497.544 524.238 497.976 524.174 498.36H514.454C514.534 499.32 514.87 500.072 515.462 500.616C516.054 501.16 516.782 501.432 517.646 501.432C518.894 501.432 519.782 500.896 520.31 499.824H523.934C523.55 501.104 522.814 502.16 521.726 502.992C520.638 503.808 519.302 504.216 517.718 504.216C516.438 504.216 515.286 503.936 514.262 503.376C513.254 502.8 512.462 501.992 511.886 500.952C511.326 499.912 511.046 498.712 511.046 497.352C511.046 495.976 511.326 494.768 511.886 493.728C512.446 492.688 513.23 491.888 514.238 491.328C515.246 490.768 516.406 490.488 517.718 490.488C518.982 490.488 520.11 490.76 521.102 491.304C522.11 491.848 522.886 492.624 523.43 493.632C523.99 494.624 524.27 495.768 524.27 497.064ZM520.79 496.104C520.774 495.24 520.462 494.552 519.854 494.04C519.246 493.512 518.502 493.248 517.622 493.248C516.79 493.248 516.086 493.504 515.51 494.016C514.95 494.512 514.606 495.208 514.478 496.104H520.79Z" fill="white"/>
<path d="M479.352 806.248V823H475.992V806.248H479.352ZM497 823H493.64L486.032 811.504V823H482.672V806.224H486.032L493.64 817.744V806.224H497V823Z" fill="#1F5C4D"/>
<rect x="418" y="683" width="144" height="26" rx="12" fill="#C5FFF0" fill-opacity="0.2"/>
<rect x="418" y="721" width="144" height="26" rx="12" fill="#C5FFF0" fill-opacity="0.2"/>
<rect x="418" y="603" width="66" height="26" rx="12" fill="#C5FFF0" fill-opacity="0.2"/>
<rect x="496" y="603" width="66" height="26" rx="12" fill="#C5FFF0" fill-opacity="0.2"/>
<rect x="418" y="527" width="66" height="26" rx="12" fill="#C5FFF0" fill-opacity="0.2"/>
<rect x="496" y="527" width="66" height="26" rx="12" fill="#C5FFF0" fill-opacity="0.2"/>
<rect x="418" y="641" width="66" height="26" rx="12" fill="#C5FFF0" fill-opacity="0.2"/>
<rect x="496" y="641" width="66" height="26" rx="12" fill="#C5FFF0" fill-opacity="0.2"/>
<rect x="418" y="565" width="66" height="26" rx="12" fill="#C5FFF0" fill-opacity="0.2"/>
<rect x="496" y="565" width="66" height="26" rx="12" fill="#C5FFF0" fill-opacity="0.2"/>
<rect x="608" y="425" width="190" height="356" rx="12" fill="#3A7D6B"/>
<path d="M661.272 468.168C660.104 468.168 659.048 467.968 658.104 467.568C657.176 467.168 656.44 466.592 655.896 465.84C655.352 465.088 655.072 464.2 655.056 463.176H658.656C658.704 463.864 658.944 464.408 659.376 464.808C659.824 465.208 660.432 465.408 661.2 465.408C661.984 465.408 662.6 465.224 663.048 464.856C663.496 464.472 663.72 463.976 663.72 463.368C663.72 462.872 663.568 462.464 663.264 462.144C662.96 461.824 662.576 461.576 662.112 461.4C661.664 461.208 661.04 461 660.24 460.776C659.152 460.456 658.264 460.144 657.576 459.84C656.904 459.52 656.32 459.048 655.824 458.424C655.344 457.784 655.104 456.936 655.104 455.88C655.104 454.888 655.352 454.024 655.848 453.288C656.344 452.552 657.04 451.992 657.936 451.608C658.832 451.208 659.856 451.008 661.008 451.008C662.736 451.008 664.136 451.432 665.208 452.28C666.296 453.112 666.896 454.28 667.008 455.784H663.312C663.28 455.208 663.032 454.736 662.568 454.368C662.12 453.984 661.52 453.792 660.768 453.792C660.112 453.792 659.584 453.96 659.184 454.296C658.8 454.632 658.608 455.12 658.608 455.76C658.608 456.208 658.752 456.584 659.04 456.888C659.344 457.176 659.712 457.416 660.144 457.608C660.592 457.784 661.216 457.992 662.016 458.232C663.104 458.552 663.992 458.872 664.68 459.192C665.368 459.512 665.96 459.992 666.456 460.632C666.952 461.272 667.2 462.112 667.2 463.152C667.2 464.048 666.968 464.88 666.504 465.648C666.04 466.416 665.36 467.032 664.464 467.496C663.568 467.944 662.504 468.168 661.272 468.168ZM682.665 454.704V468H679.281V466.32C678.849 466.896 678.281 467.352 677.577 467.688C676.889 468.008 676.137 468.168 675.321 468.168C674.281 468.168 673.361 467.952 672.561 467.52C671.761 467.072 671.129 466.424 670.665 465.576C670.217 464.712 669.993 463.688 669.993 462.504V454.704H673.353V462.024C673.353 463.08 673.617 463.896 674.145 464.472C674.673 465.032 675.393 465.312 676.305 465.312C677.233 465.312 677.961 465.032 678.489 464.472C679.017 463.896 679.281 463.08 679.281 462.024V454.704H682.665ZM689.34 456.624C689.772 456.016 690.364 455.512 691.116 455.112C691.884 454.696 692.756 454.488 693.732 454.488C694.868 454.488 695.892 454.768 696.804 455.328C697.732 455.888 698.46 456.688 698.988 457.728C699.532 458.752 699.804 459.944 699.804 461.304C699.804 462.664 699.532 463.872 698.988 464.928C698.46 465.968 697.732 466.776 696.804 467.352C695.892 467.928 694.868 468.216 693.732 468.216C692.756 468.216 691.892 468.016 691.14 467.616C690.404 467.216 689.804 466.712 689.34 466.104V474.336H685.98V454.704H689.34V456.624ZM696.372 461.304C696.372 460.504 696.204 459.816 695.868 459.24C695.548 458.648 695.116 458.2 694.572 457.896C694.044 457.592 693.468 457.44 692.844 457.44C692.236 457.44 691.66 457.6 691.116 457.92C690.588 458.224 690.156 458.672 689.82 459.264C689.5 459.856 689.34 460.552 689.34 461.352C689.34 462.152 689.5 462.848 689.82 463.44C690.156 464.032 690.588 464.488 691.116 464.808C691.66 465.112 692.236 465.264 692.844 465.264C693.468 465.264 694.044 465.104 694.572 464.784C695.116 464.464 695.548 464.008 695.868 463.416C696.204 462.824 696.372 462.12 696.372 461.304ZM705.606 456.624C706.038 456.016 706.63 455.512 707.382 455.112C708.15 454.696 709.022 454.488 709.998 454.488C711.134 454.488 712.158 454.768 713.07 455.328C713.998 455.888 714.726 456.688 715.254 457.728C715.798 458.752 716.07 459.944 716.07 461.304C716.07 462.664 715.798 463.872 715.254 464.928C714.726 465.968 713.998 466.776 713.07 467.352C712.158 467.928 711.134 468.216 709.998 468.216C709.022 468.216 708.158 468.016 707.406 467.616C706.67 467.216 706.07 466.712 705.606 466.104V474.336H702.246V454.704H705.606V456.624ZM712.638 461.304C712.638 460.504 712.47 459.816 712.134 459.24C711.814 458.648 711.382 458.2 710.838 457.896C710.31 457.592 709.734 457.44 709.11 457.44C708.502 457.44 707.926 457.6 707.382 457.92C706.854 458.224 706.422 458.672 706.086 459.264C705.766 459.856 705.606 460.552 705.606 461.352C705.606 462.152 705.766 462.848 706.086 463.44C706.422 464.032 706.854 464.488 707.382 464.808C707.926 465.112 708.502 465.264 709.11 465.264C709.734 465.264 710.31 465.104 710.838 464.784C711.382 464.464 711.814 464.008 712.134 463.416C712.47 462.824 712.638 462.12 712.638 461.304ZM724.415 468.216C723.135 468.216 721.983 467.936 720.959 467.376C719.935 466.8 719.127 465.992 718.535 464.952C717.959 463.912 717.671 462.712 717.671 461.352C717.671 459.992 717.967 458.792 718.559 457.752C719.167 456.712 719.991 455.912 721.031 455.352C722.071 454.776 723.231 454.488 724.511 454.488C725.791 454.488 726.951 454.776 727.991 455.352C729.031 455.912 729.847 456.712 730.439 457.752C731.047 458.792 731.351 459.992 731.351 461.352C731.351 462.712 731.039 463.912 730.415 464.952C729.807 465.992 728.975 466.8 727.919 467.376C726.879 467.936 725.711 468.216 724.415 468.216ZM724.415 465.288C725.023 465.288 725.591 465.144 726.119 464.856C726.663 464.552 727.095 464.104 727.415 463.512C727.735 462.92 727.895 462.2 727.895 461.352C727.895 460.088 727.559 459.12 726.887 458.448C726.231 457.76 725.423 457.416 724.463 457.416C723.503 457.416 722.695 457.76 722.039 458.448C721.399 459.12 721.079 460.088 721.079 461.352C721.079 462.616 721.391 463.592 722.015 464.28C722.655 464.952 723.455 465.288 724.415 465.288ZM737.176 456.768C737.608 456.064 738.168 455.512 738.856 455.112C739.56 454.712 740.36 454.512 741.256 454.512V458.04H740.368C739.312 458.04 738.512 458.288 737.968 458.784C737.44 459.28 737.176 460.144 737.176 461.376V468H733.816V454.704H737.176V456.768ZM747.431 457.464V463.896C747.431 464.344 747.535 464.672 747.743 464.88C747.967 465.072 748.335 465.168 748.847 465.168H750.407V468H748.295C745.463 468 744.047 466.624 744.047 463.872V457.464H742.463V454.704H744.047V451.416H747.431V454.704H750.407V457.464H747.431ZM676.078 490.512C677.086 490.512 677.982 490.736 678.766 491.184C679.55 491.616 680.158 492.264 680.59 493.128C681.038 493.976 681.262 495 681.262 496.2V504H677.902V496.656C677.902 495.6 677.638 494.792 677.11 494.232C676.582 493.656 675.862 493.368 674.95 493.368C674.022 493.368 673.286 493.656 672.742 494.232C672.214 494.792 671.95 495.6 671.95 496.656V504H668.59V486.24H671.95V492.36C672.382 491.784 672.958 491.336 673.678 491.016C674.398 490.68 675.198 490.512 676.078 490.512ZM690.361 504.216C689.081 504.216 687.929 503.936 686.905 503.376C685.881 502.8 685.073 501.992 684.481 500.952C683.905 499.912 683.617 498.712 683.617 497.352C683.617 495.992 683.913 494.792 684.505 493.752C685.113 492.712 685.937 491.912 686.977 491.352C688.017 490.776 689.177 490.488 690.457 490.488C691.737 490.488 692.897 490.776 693.937 491.352C694.977 491.912 695.793 492.712 696.385 493.752C696.993 494.792 697.297 495.992 697.297 497.352C697.297 498.712 696.985 499.912 696.361 500.952C695.753 501.992 694.921 502.8 693.865 503.376C692.825 503.936 691.657 504.216 690.361 504.216ZM690.361 501.288C690.969 501.288 691.537 501.144 692.065 500.856C692.609 500.552 693.041 500.104 693.361 499.512C693.681 498.92 693.841 498.2 693.841 497.352C693.841 496.088 693.505 495.12 692.833 494.448C692.177 493.76 691.369 493.416 690.409 493.416C689.449 493.416 688.641 493.76 687.985 494.448C687.345 495.12 687.025 496.088 687.025 497.352C687.025 498.616 687.337 499.592 687.961 500.28C688.601 500.952 689.401 501.288 690.361 501.288ZM716.273 490.512C717.905 490.512 719.217 491.016 720.209 492.024C721.217 493.016 721.721 494.408 721.721 496.2V504H718.361V496.656C718.361 495.616 718.097 494.824 717.569 494.28C717.041 493.72 716.321 493.44 715.409 493.44C714.497 493.44 713.769 493.72 713.225 494.28C712.697 494.824 712.433 495.616 712.433 496.656V504H709.073V496.656C709.073 495.616 708.809 494.824 708.281 494.28C707.753 493.72 707.033 493.44 706.121 493.44C705.193 493.44 704.457 493.72 703.913 494.28C703.385 494.824 703.121 495.616 703.121 496.656V504H699.761V490.704H703.121V492.312C703.553 491.752 704.105 491.312 704.777 490.992C705.465 490.672 706.217 490.512 707.033 490.512C708.073 490.512 709.001 490.736 709.817 491.184C710.633 491.616 711.265 492.24 711.713 493.056C712.145 492.288 712.769 491.672 713.585 491.208C714.417 490.744 715.313 490.512 716.273 490.512ZM737.27 497.064C737.27 497.544 737.238 497.976 737.174 498.36H727.454C727.534 499.32 727.87 500.072 728.462 500.616C729.054 501.16 729.782 501.432 730.646 501.432C731.894 501.432 732.782 500.896 733.31 499.824H736.934C736.55 501.104 735.814 502.16 734.726 502.992C733.638 503.808 732.302 504.216 730.718 504.216C729.438 504.216 728.286 503.936 727.262 503.376C726.254 502.8 725.462 501.992 724.886 500.952C724.326 499.912 724.046 498.712 724.046 497.352C724.046 495.976 724.326 494.768 724.886 493.728C725.446 492.688 726.23 491.888 727.238 491.328C728.246 490.768 729.406 490.488 730.718 490.488C731.982 490.488 733.11 490.76 734.102 491.304C735.11 491.848 735.886 492.624 736.43 493.632C736.99 494.624 737.27 495.768 737.27 497.064ZM733.79 496.104C733.774 495.24 733.462 494.552 732.854 494.04C732.246 493.512 731.502 493.248 730.622 493.248C729.79 493.248 729.086 493.504 728.51 494.016C727.95 494.512 727.606 495.208 727.478 496.104H733.79Z" fill="white"/>
<path d="M697.943 806.248V808.96H693.479V823H690.119V808.96H685.655V806.248H697.943ZM709.034 823L705.338 816.472H703.754V823H700.394V806.248H706.682C707.978 806.248 709.082 806.48 709.994 806.944C710.906 807.392 711.586 808.008 712.034 808.792C712.498 809.56 712.73 810.424 712.73 811.384C712.73 812.488 712.41 813.488 711.77 814.384C711.13 815.264 710.178 815.872 708.914 816.208L712.922 823H709.034ZM703.754 813.952H706.562C707.474 813.952 708.154 813.736 708.602 813.304C709.05 812.856 709.274 812.24 709.274 811.456C709.274 810.688 709.05 810.096 708.602 809.68C708.154 809.248 707.474 809.032 706.562 809.032H703.754V813.952Z" fill="#1F5C4D"/>
<rect x="631" y="683" width="144" height="26" rx="12" fill="#C5FFF0" fill-opacity="0.2"/>
<rect x="631" y="721" width="144" height="26" rx="12" fill="#C5FFF0" fill-opacity="0.2"/>
<rect x="631" y="603" width="66" height="26" rx="12" fill="#C5FFF0" fill-opacity="0.2"/>
<rect x="709" y="603" width="66" height="26" rx="12" fill="#C5FFF0" fill-opacity="0.2"/>
<rect x="631" y="527" width="66" height="26" rx="12" fill="#C5FFF0" fill-opacity="0.2"/>
<rect x="709" y="527" width="66" height="26" rx="12" fill="#C5FFF0" fill-opacity="0.2"/>
<rect x="631" y="641" width="66" height="26" rx="12" fill="#C5FFF0" fill-opacity="0.2"/>
<rect x="709" y="641" width="66" height="26" rx="12" fill="#C5FFF0" fill-opacity="0.2"/>
<rect x="631" y="565" width="66" height="26" rx="12" fill="#C5FFF0" fill-opacity="0.2"/>
<rect x="709" y="565" width="66" height="26" rx="12" fill="#C5FFF0" fill-opacity="0.2"/>
</svg>
