<svg width="137" height="16" viewBox="0 0 137 16" fill="none" xmlns="http://www.w3.org/2000/svg">
<path d="M20.5801 0.210164L16.4851 14.8682H13.0201L10.2691 4.43116L7.39209 14.8682L3.94809 14.8892L8.59741e-05 0.210164H3.15009L5.73309 11.5922L8.71509 0.210164H11.9911L14.8051 11.5292L17.4091 0.210164H20.5801ZM34.6588 0.210164V14.8682H31.7188V8.63116H25.4398V14.8682H22.4998V0.210164H25.4398V6.23716H31.7188V0.210164H34.6588ZM46.5405 12.0752H40.7025L39.7365 14.8682H36.6495L41.9205 0.189163H45.3435L50.6145 14.8682H47.5065L46.5405 12.0752ZM45.7425 9.72316L43.6215 3.59116L41.5005 9.72316H45.7425ZM62.5597 0.210164V2.58316H58.6537V14.8682H55.7137V2.58316H51.8077V0.210164H62.5597ZM65.2929 0.210164H68.3799L66.1119 5.50216H64.0959L65.2929 0.210164ZM75.5491 15.0152C74.5271 15.0152 73.6031 14.8402 72.7771 14.4902C71.9651 14.1402 71.3211 13.6362 70.8451 12.9782C70.3691 12.3202 70.1241 11.5432 70.1101 10.6472H73.2601C73.3021 11.2492 73.5121 11.7252 73.8901 12.0752C74.2821 12.4252 74.8141 12.6002 75.4861 12.6002C76.1721 12.6002 76.7111 12.4392 77.1031 12.1172C77.4951 11.7812 77.6911 11.3472 77.6911 10.8152C77.6911 10.3812 77.5581 10.0242 77.2921 9.74416C77.0261 9.46416 76.6901 9.24716 76.2841 9.09316C75.8921 8.92516 75.3461 8.74316 74.6461 8.54716C73.6941 8.26716 72.9171 7.99416 72.3151 7.72816C71.7271 7.44816 71.2161 7.03516 70.7821 6.48916C70.3621 5.92916 70.1521 5.18716 70.1521 4.26316C70.1521 3.39516 70.3691 2.63916 70.8031 1.99516C71.2371 1.35116 71.8461 0.861163 72.6301 0.525163C73.4141 0.175164 74.3101 0.000163972 75.3181 0.000163972C76.8301 0.000163972 78.0551 0.371164 78.9931 1.11316C79.9451 1.84116 80.4701 2.86316 80.5681 4.17916H77.3341C77.3061 3.67516 77.0891 3.26216 76.6831 2.94016C76.2911 2.60416 75.7661 2.43616 75.1081 2.43616C74.5341 2.43616 74.0721 2.58316 73.7221 2.87716C73.3861 3.17116 73.2181 3.59816 73.2181 4.15816C73.2181 4.55016 73.3441 4.87916 73.5961 5.14516C73.8621 5.39716 74.1841 5.60716 74.5621 5.77516C74.9541 5.92916 75.5001 6.11116 76.2001 6.32116C77.1521 6.60116 77.9291 6.88116 78.5311 7.16116C79.1331 7.44116 79.6511 7.86116 80.0851 8.42116C80.5191 8.98116 80.7361 9.71616 80.7361 10.6262C80.7361 11.4102 80.5331 12.1382 80.1271 12.8102C79.7211 13.4822 79.1261 14.0212 78.3421 14.4272C77.5581 14.8192 76.6271 15.0152 75.5491 15.0152ZM98.2638 0.210164V2.58316H94.3578V14.8682H91.4178V2.58316H87.5118V0.210164H98.2638ZM107.969 14.8682L104.735 9.15616H103.349V14.8682H100.409V0.210164H105.911C107.045 0.210164 108.011 0.413164 108.809 0.819163C109.607 1.21116 110.202 1.75016 110.594 2.43616C111 3.10816 111.203 3.86416 111.203 4.70416C111.203 5.67016 110.923 6.54516 110.363 7.32916C109.803 8.09916 108.97 8.63116 107.864 8.92516L111.371 14.8682H107.969ZM103.349 6.95116H105.806C106.604 6.95116 107.199 6.76216 107.591 6.38416C107.983 5.99216 108.179 5.45316 108.179 4.76716C108.179 4.09516 107.983 3.57716 107.591 3.21316C107.199 2.83516 106.604 2.64616 105.806 2.64616H103.349V6.95116ZM116.76 0.210164V9.28216C116.76 10.2762 117.019 11.0392 117.537 11.5712C118.055 12.0892 118.783 12.3482 119.721 12.3482C120.673 12.3482 121.408 12.0892 121.926 11.5712C122.444 11.0392 122.703 10.2762 122.703 9.28216V0.210164H125.664V9.26116C125.664 10.5072 125.391 11.5642 124.845 12.4322C124.313 13.2862 123.592 13.9302 122.682 14.3642C121.786 14.7982 120.785 15.0152 119.679 15.0152C118.587 15.0152 117.593 14.7982 116.697 14.3642C115.815 13.9302 115.115 13.2862 114.597 12.4322C114.079 11.5642 113.82 10.5072 113.82 9.26116V0.210164H116.76ZM131.445 2.58316V6.25816H136.38V8.58916H131.445V12.4742H137.01V14.8682H128.505V0.189163H137.01V2.58316H131.445Z" fill="#1F5C4D"/>
</svg>
