<svg width="207" height="16" viewBox="0 0 207 16" fill="none" xmlns="http://www.w3.org/2000/svg">
<path d="M20.5801 0.210164L16.4851 14.8682H13.0201L10.2691 4.43116L7.39209 14.8682L3.94809 14.8892L8.59741e-05 0.210164H3.15009L5.73309 11.5922L8.71509 0.210164H11.9911L14.8051 11.5292L17.4091 0.210164H20.5801ZM34.6588 0.210164V14.8682H31.7188V8.63116H25.4398V14.8682H22.4998V0.210164H25.4398V6.23716H31.7188V0.210164H34.6588ZM46.5405 12.0752H40.7025L39.7365 14.8682H36.6495L41.9205 0.189163H45.3435L50.6145 14.8682H47.5065L46.5405 12.0752ZM45.7425 9.72316L43.6215 3.59116L41.5005 9.72316H45.7425ZM62.5597 0.210164V2.58316H58.6537V14.8682H55.7137V2.58316H51.8077V0.210164H62.5597ZM89.3018 0.210164L85.2068 14.8682H81.7418L78.9908 4.43116L76.1138 14.8682L72.6698 14.8892L68.7218 0.210164H71.8718L74.4548 11.5922L77.4368 0.210164H80.7128L83.5268 11.5292L86.1308 0.210164H89.3018ZM94.1615 2.58316V6.25816H99.0965V8.58916H94.1615V12.4742H99.7265V14.8682H91.2215V0.189163H99.7265V2.58316H94.1615ZM117.377 0.210164V2.58316H113.471V14.8682H110.531V2.58316H106.625V0.210164H117.377ZM131.681 0.210164V14.8682H128.741V8.63116H122.462V14.8682H119.522V0.210164H122.462V6.23716H128.741V0.210164H131.681ZM141.379 15.0152C140.007 15.0152 138.747 14.6932 137.599 14.0492C136.451 13.4052 135.541 12.5162 134.869 11.3822C134.197 10.2342 133.861 8.93916 133.861 7.49716C133.861 6.06916 134.197 4.78816 134.869 3.65416C135.541 2.50616 136.451 1.61016 137.599 0.966163C138.747 0.322164 140.007 0.000163972 141.379 0.000163972C142.765 0.000163972 144.025 0.322164 145.159 0.966163C146.307 1.61016 147.21 2.50616 147.868 3.65416C148.54 4.78816 148.876 6.06916 148.876 7.49716C148.876 8.93916 148.54 10.2342 147.868 11.3822C147.21 12.5162 146.307 13.4052 145.159 14.0492C144.011 14.6932 142.751 15.0152 141.379 15.0152ZM141.379 12.3902C142.261 12.3902 143.038 12.1942 143.71 11.8022C144.382 11.3962 144.907 10.8222 145.285 10.0802C145.663 9.33816 145.852 8.47716 145.852 7.49716C145.852 6.51716 145.663 5.66316 145.285 4.93516C144.907 4.19316 144.382 3.62616 143.71 3.23416C143.038 2.84216 142.261 2.64616 141.379 2.64616C140.497 2.64616 139.713 2.84216 139.027 3.23416C138.355 3.62616 137.83 4.19316 137.452 4.93516C137.074 5.66316 136.885 6.51716 136.885 7.49716C136.885 8.47716 137.074 9.33816 137.452 10.0802C137.83 10.8222 138.355 11.3962 139.027 11.8022C139.713 12.1942 140.497 12.3902 141.379 12.3902ZM153.961 0.210164V9.28216C153.961 10.2762 154.22 11.0392 154.738 11.5712C155.256 12.0892 155.984 12.3482 156.922 12.3482C157.874 12.3482 158.609 12.0892 159.127 11.5712C159.645 11.0392 159.904 10.2762 159.904 9.28216V0.210164H162.865V9.26116C162.865 10.5072 162.592 11.5642 162.046 12.4322C161.514 13.2862 160.793 13.9302 159.883 14.3642C158.987 14.7982 157.986 15.0152 156.88 15.0152C155.788 15.0152 154.794 14.7982 153.898 14.3642C153.016 13.9302 152.316 13.2862 151.798 12.4322C151.28 11.5642 151.021 10.5072 151.021 9.26116V0.210164H153.961ZM175.912 4.62016C175.576 4.00416 175.114 3.53516 174.526 3.21316C173.938 2.89116 173.252 2.73016 172.468 2.73016C171.6 2.73016 170.83 2.92616 170.158 3.31816C169.486 3.71016 168.961 4.27016 168.583 4.99816C168.205 5.72616 168.016 6.56616 168.016 7.51816C168.016 8.49816 168.205 9.35216 168.583 10.0802C168.975 10.8082 169.514 11.3682 170.2 11.7602C170.886 12.1522 171.684 12.3482 172.594 12.3482C173.714 12.3482 174.631 12.0542 175.345 11.4662C176.059 10.8642 176.528 10.0312 176.752 8.96716H171.712V6.72016H179.65V9.28216C179.454 10.3042 179.034 11.2492 178.39 12.1172C177.746 12.9852 176.913 13.6852 175.891 14.2172C174.883 14.7352 173.749 14.9942 172.489 14.9942C171.075 14.9942 169.794 14.6792 168.646 14.0492C167.512 13.4052 166.616 12.5162 165.958 11.3822C165.314 10.2482 164.992 8.96016 164.992 7.51816C164.992 6.07616 165.314 4.78816 165.958 3.65416C166.616 2.50616 167.512 1.61716 168.646 0.987164C169.794 0.343164 171.068 0.0211637 172.468 0.0211637C174.12 0.0211637 175.555 0.427163 176.773 1.23916C177.991 2.03716 178.831 3.16416 179.293 4.62016H175.912ZM193.984 0.210164V14.8682H191.044V8.63116H184.765V14.8682H181.825V0.210164H184.765V6.23716H191.044V0.210164H193.984ZM206.853 0.210164V2.58316H202.947V14.8682H200.007V2.58316H196.101V0.210164H206.853Z" fill="#1F5C4D"/>
</svg>
