<svg width="284" height="99" viewBox="0 0 284 99" fill="none" xmlns="http://www.w3.org/2000/svg">
<path d="M8.30415 18.2159C6.75215 18.2159 5.34414 17.8559 4.08014 17.1359C2.81614 16.3999 1.81614 15.3839 1.08014 14.0879C0.360145 12.7759 0.000144541 11.2959 0.000144541 9.64785C0.000144541 7.99985 0.360145 6.52785 1.08014 5.23185C1.81614 3.91985 2.81614 2.90385 4.08014 2.18385C5.34414 1.44785 6.75215 1.07985 8.30415 1.07985C9.87214 1.07985 11.2881 1.44785 12.5521 2.18385C13.8161 2.90385 14.8081 3.91985 15.5281 5.23185C16.2481 6.52785 16.6081 7.99985 16.6081 9.64785C16.6081 11.2959 16.2481 12.7759 15.5281 14.0879C14.8081 15.3839 13.8161 16.3999 12.5521 17.1359C11.2881 17.8559 9.87214 18.2159 8.30415 18.2159ZM8.30415 16.7519C9.55215 16.7519 10.6721 16.4639 11.6641 15.8879C12.6561 15.3119 13.4401 14.4879 14.0161 13.4159C14.5921 12.3279 14.8801 11.0719 14.8801 9.64785C14.8801 8.22385 14.5921 6.97585 14.0161 5.90385C13.4401 4.83185 12.6561 4.00785 11.6641 3.43185C10.6721 2.85585 9.55215 2.56785 8.30415 2.56785C7.05614 2.56785 5.93614 2.85585 4.94414 3.43185C3.95214 4.00785 3.16814 4.83185 2.59214 5.90385C2.01614 6.97585 1.72814 8.22385 1.72814 9.64785C1.72814 11.0719 2.01614 12.3279 2.59214 13.4159C3.16814 14.4879 3.95214 15.3119 4.94414 15.8879C5.93614 16.4639 7.05614 16.7519 8.30415 16.7519ZM36.9622 4.94385L32.8582 18.0479H31.1782L27.5542 7.05585L23.9302 18.0479H22.2262L18.1222 4.94385H19.8262L23.0902 16.3439L26.7622 4.94385H28.4422L32.0662 16.3679L35.3062 4.94385H36.9622ZM45.3965 4.70385C46.9645 4.70385 48.2445 5.19185 49.2365 6.16785C50.2285 7.12785 50.7245 8.52785 50.7245 10.3679V18.0479H49.0685V10.5599C49.0685 9.13585 48.7085 8.04785 47.9885 7.29585C47.2845 6.54385 46.3165 6.16785 45.0845 6.16785C43.8205 6.16785 42.8125 6.56785 42.0605 7.36785C41.3085 8.16785 40.9325 9.34385 40.9325 10.8959V18.0479H39.2525V4.94385H40.9325V7.17585C41.3485 6.37585 41.9485 5.76785 42.7325 5.35185C43.5165 4.91985 44.4045 4.70385 45.3965 4.70385ZM66.296 10.8239C66.296 11.3999 66.28 11.8399 66.248 12.1439H55.376C55.424 13.1359 55.664 13.9839 56.096 14.6879C56.528 15.3919 57.096 15.9279 57.8 16.2959C58.504 16.6479 59.272 16.8239 60.104 16.8239C61.192 16.8239 62.104 16.5599 62.84 16.0319C63.592 15.5039 64.088 14.7919 64.328 13.8959H66.104C65.784 15.1759 65.096 16.2239 64.04 17.0399C63 17.8399 61.688 18.2399 60.104 18.2399C58.872 18.2399 57.768 17.9679 56.792 17.4239C55.816 16.8639 55.048 16.0799 54.488 15.0719C53.944 14.0479 53.672 12.8559 53.672 11.4959C53.672 10.1359 53.944 8.94385 54.488 7.91985C55.032 6.89585 55.792 6.11185 56.768 5.56785C57.744 5.02385 58.856 4.75185 60.104 4.75185C61.352 4.75185 62.44 5.02385 63.368 5.56785C64.312 6.11185 65.032 6.84785 65.528 7.77585C66.04 8.68785 66.296 9.70385 66.296 10.8239ZM64.592 10.7759C64.608 9.79985 64.408 8.96785 63.992 8.27985C63.592 7.59185 63.04 7.07185 62.336 6.71985C61.632 6.36785 60.864 6.19185 60.032 6.19185C58.784 6.19185 57.72 6.59185 56.84 7.39185C55.96 8.19185 55.472 9.31985 55.376 10.7759H64.592ZM71.0497 7.27185C71.4177 6.45585 71.9777 5.82385 72.7297 5.37585C73.4977 4.92785 74.4337 4.70385 75.5377 4.70385V6.45585H75.0817C73.8657 6.45585 72.8897 6.78385 72.1537 7.43985C71.4177 8.09585 71.0497 9.19185 71.0497 10.7279V18.0479H69.3697V4.94385H71.0497V7.27185ZM82.577 18.2399C81.073 18.2399 79.841 17.8959 78.881 17.2079C77.937 16.5039 77.409 15.5519 77.297 14.3519H79.025C79.105 15.0879 79.449 15.6879 80.057 16.1519C80.681 16.5999 81.513 16.8239 82.553 16.8239C83.465 16.8239 84.177 16.6079 84.689 16.1759C85.217 15.7439 85.481 15.2079 85.481 14.5679C85.481 14.1199 85.337 13.7519 85.049 13.4639C84.761 13.1759 84.393 12.9519 83.945 12.7919C83.513 12.6159 82.921 12.4319 82.169 12.2399C81.193 11.9839 80.401 11.7279 79.793 11.4719C79.185 11.2159 78.665 10.8399 78.233 10.3439C77.817 9.83185 77.609 9.15185 77.609 8.30385C77.609 7.66385 77.801 7.07185 78.185 6.52785C78.569 5.98385 79.113 5.55185 79.817 5.23185C80.521 4.91185 81.321 4.75185 82.217 4.75185C83.625 4.75185 84.761 5.11185 85.625 5.83185C86.489 6.53585 86.953 7.51185 87.017 8.75985H85.337C85.289 7.99185 84.985 7.37585 84.425 6.91185C83.881 6.43185 83.129 6.19185 82.169 6.19185C81.321 6.19185 80.633 6.39185 80.105 6.79185C79.577 7.19185 79.313 7.68785 79.313 8.27985C79.313 8.79185 79.465 9.21585 79.769 9.55185C80.089 9.87185 80.481 10.1279 80.945 10.3199C81.409 10.4959 82.033 10.6959 82.817 10.9199C83.761 11.1759 84.513 11.4239 85.073 11.6639C85.633 11.9039 86.113 12.2559 86.513 12.7199C86.913 13.1839 87.121 13.7999 87.137 14.5679C87.137 15.2719 86.945 15.9039 86.561 16.4639C86.177 17.0079 85.641 17.4399 84.953 17.7599C84.265 18.0799 83.473 18.2399 82.577 18.2399ZM110.085 6.16785C109.605 5.06385 108.869 4.19985 107.877 3.57585C106.901 2.93585 105.749 2.61585 104.421 2.61585C103.173 2.61585 102.053 2.90385 101.061 3.47985C100.069 4.05585 99.2853 4.87985 98.7093 5.95185C98.1333 7.00785 97.8453 8.23985 97.8453 9.64785C97.8453 11.0559 98.1333 12.2959 98.7093 13.3679C99.2853 14.4399 100.069 15.2639 101.061 15.8399C102.053 16.4159 103.173 16.7039 104.421 16.7039C105.589 16.7039 106.637 16.4559 107.565 15.9599C108.509 15.4479 109.261 14.7279 109.821 13.7999C110.397 12.8559 110.725 11.7599 110.805 10.5119H103.749V9.14385H112.581V10.3679C112.501 11.8399 112.101 13.1759 111.381 14.3759C110.661 15.5599 109.693 16.4959 108.477 17.1839C107.277 17.8719 105.925 18.2159 104.421 18.2159C102.869 18.2159 101.461 17.8559 100.197 17.1359C98.9333 16.3999 97.9333 15.3839 97.1973 14.0879C96.4773 12.7759 96.1173 11.2959 96.1173 9.64785C96.1173 7.99985 96.4773 6.52785 97.1973 5.23185C97.9333 3.91985 98.9333 2.90385 100.197 2.18385C101.461 1.44785 102.869 1.07985 104.421 1.07985C106.213 1.07985 107.781 1.52785 109.125 2.42385C110.469 3.31985 111.445 4.56785 112.053 6.16785H110.085ZM127.011 4.94385V18.0479H125.331V15.7439C124.947 16.5599 124.355 17.1839 123.555 17.6159C122.755 18.0479 121.859 18.2639 120.867 18.2639C119.299 18.2639 118.019 17.7839 117.027 16.8239C116.035 15.8479 115.539 14.4399 115.539 12.5999V4.94385H117.195V12.4079C117.195 13.8319 117.547 14.9199 118.251 15.6719C118.971 16.4239 119.947 16.7999 121.179 16.7999C122.443 16.7999 123.451 16.3999 124.203 15.5999C124.955 14.7999 125.331 13.6239 125.331 12.0719V4.94385H127.011ZM131.686 2.47185C131.35 2.47185 131.062 2.35185 130.822 2.11185C130.582 1.87185 130.462 1.57585 130.462 1.22385C130.462 0.87185 130.582 0.58385 130.822 0.35985C131.062 0.119851 131.35 -0.00014925 131.686 -0.00014925C132.022 -0.00014925 132.31 0.119851 132.55 0.35985C132.79 0.58385 132.91 0.87185 132.91 1.22385C132.91 1.57585 132.79 1.87185 132.55 2.11185C132.31 2.35185 132.022 2.47185 131.686 2.47185ZM132.526 4.94385V18.0479H130.846V4.94385H132.526ZM135.563 11.4719C135.563 10.1279 135.835 8.95185 136.379 7.94385C136.923 6.91985 137.667 6.13585 138.611 5.59185C139.571 5.03185 140.651 4.75185 141.851 4.75185C143.003 4.75185 144.043 5.03185 144.971 5.59185C145.899 6.15185 146.579 6.87985 147.011 7.77585V0.287851H148.691V18.0479H147.011V15.1199C146.611 16.0319 145.955 16.7839 145.043 17.3759C144.131 17.9519 143.059 18.2399 141.827 18.2399C140.627 18.2399 139.547 17.9599 138.587 17.3999C137.643 16.8399 136.899 16.0479 136.355 15.0239C135.827 13.9999 135.563 12.8159 135.563 11.4719ZM147.011 11.4959C147.011 10.4399 146.795 9.51185 146.363 8.71185C145.931 7.91185 145.339 7.29585 144.587 6.86385C143.851 6.43185 143.035 6.21585 142.139 6.21585C141.211 6.21585 140.379 6.42385 139.643 6.83985C138.907 7.25585 138.323 7.86385 137.891 8.66385C137.475 9.44785 137.267 10.3839 137.267 11.4719C137.267 12.5439 137.475 13.4879 137.891 14.3039C138.323 15.1039 138.907 15.7199 139.643 16.1519C140.379 16.5679 141.211 16.7759 142.139 16.7759C143.035 16.7759 143.851 16.5599 144.587 16.1279C145.339 15.6959 145.931 15.0799 146.363 14.2799C146.795 13.4799 147.011 12.5519 147.011 11.4959ZM164.382 10.8239C164.382 11.3999 164.366 11.8399 164.334 12.1439H153.462C153.51 13.1359 153.75 13.9839 154.182 14.6879C154.614 15.3919 155.182 15.9279 155.886 16.2959C156.59 16.6479 157.358 16.8239 158.19 16.8239C159.278 16.8239 160.19 16.5599 160.926 16.0319C161.678 15.5039 162.174 14.7919 162.414 13.8959H164.19C163.87 15.1759 163.182 16.2239 162.126 17.0399C161.086 17.8399 159.774 18.2399 158.19 18.2399C156.958 18.2399 155.854 17.9679 154.878 17.4239C153.902 16.8639 153.134 16.0799 152.574 15.0719C152.03 14.0479 151.758 12.8559 151.758 11.4959C151.758 10.1359 152.03 8.94385 152.574 7.91985C153.118 6.89585 153.878 6.11185 154.854 5.56785C155.83 5.02385 156.942 4.75185 158.19 4.75185C159.438 4.75185 160.526 5.02385 161.454 5.56785C162.398 6.11185 163.118 6.84785 163.614 7.77585C164.126 8.68785 164.382 9.70385 164.382 10.8239ZM162.678 10.7759C162.694 9.79985 162.494 8.96785 162.078 8.27985C161.678 7.59185 161.126 7.07185 160.422 6.71985C159.718 6.36785 158.95 6.19185 158.118 6.19185C156.87 6.19185 155.806 6.59185 154.926 7.39185C154.046 8.19185 153.558 9.31985 153.462 10.7759H162.678ZM171.968 18.2399C170.464 18.2399 169.232 17.8959 168.272 17.2079C167.328 16.5039 166.8 15.5519 166.688 14.3519H168.416C168.496 15.0879 168.84 15.6879 169.448 16.1519C170.072 16.5999 170.904 16.8239 171.944 16.8239C172.856 16.8239 173.568 16.6079 174.08 16.1759C174.608 15.7439 174.872 15.2079 174.872 14.5679C174.872 14.1199 174.728 13.7519 174.44 13.4639C174.152 13.1759 173.784 12.9519 173.336 12.7919C172.904 12.6159 172.312 12.4319 171.56 12.2399C170.584 11.9839 169.792 11.7279 169.184 11.4719C168.576 11.2159 168.056 10.8399 167.624 10.3439C167.208 9.83185 167 9.15185 167 8.30385C167 7.66385 167.192 7.07185 167.576 6.52785C167.96 5.98385 168.504 5.55185 169.208 5.23185C169.912 4.91185 170.712 4.75185 171.608 4.75185C173.016 4.75185 174.152 5.11185 175.016 5.83185C175.88 6.53585 176.344 7.51185 176.408 8.75985H174.728C174.68 7.99185 174.376 7.37585 173.816 6.91185C173.272 6.43185 172.52 6.19185 171.56 6.19185C170.712 6.19185 170.024 6.39185 169.496 6.79185C168.968 7.19185 168.704 7.68785 168.704 8.27985C168.704 8.79185 168.856 9.21585 169.16 9.55185C169.48 9.87185 169.872 10.1279 170.336 10.3199C170.8 10.4959 171.424 10.6959 172.208 10.9199C173.152 11.1759 173.904 11.4239 174.464 11.6639C175.024 11.9039 175.504 12.2559 175.904 12.7199C176.304 13.1839 176.512 13.7999 176.528 14.5679C176.528 15.2719 176.336 15.9039 175.952 16.4639C175.568 17.0079 175.032 17.4399 174.344 17.7599C173.656 18.0799 172.864 18.2399 171.968 18.2399ZM190.932 16.4159L195.348 4.94385H197.124L191.868 18.0479H189.972L184.716 4.94385H186.516L190.932 16.4159ZM203.913 18.2399C202.409 18.2399 201.177 17.8959 200.217 17.2079C199.273 16.5039 198.745 15.5519 198.633 14.3519H200.361C200.441 15.0879 200.785 15.6879 201.393 16.1519C202.017 16.5999 202.849 16.8239 203.889 16.8239C204.801 16.8239 205.513 16.6079 206.025 16.1759C206.553 15.7439 206.817 15.2079 206.817 14.5679C206.817 14.1199 206.673 13.7519 206.385 13.4639C206.097 13.1759 205.729 12.9519 205.281 12.7919C204.849 12.6159 204.257 12.4319 203.505 12.2399C202.529 11.9839 201.737 11.7279 201.129 11.4719C200.521 11.2159 200.001 10.8399 199.569 10.3439C199.153 9.83185 198.945 9.15185 198.945 8.30385C198.945 7.66385 199.137 7.07185 199.521 6.52785C199.905 5.98385 200.449 5.55185 201.153 5.23185C201.857 4.91185 202.657 4.75185 203.553 4.75185C204.961 4.75185 206.097 5.11185 206.961 5.83185C207.825 6.53585 208.289 7.51185 208.353 8.75985H206.673C206.625 7.99185 206.321 7.37585 205.761 6.91185C205.217 6.43185 204.465 6.19185 203.505 6.19185C202.657 6.19185 201.969 6.39185 201.441 6.79185C200.913 7.19185 200.649 7.68785 200.649 8.27985C200.649 8.79185 200.801 9.21585 201.105 9.55185C201.425 9.87185 201.817 10.1279 202.281 10.3199C202.745 10.4959 203.369 10.6959 204.153 10.9199C205.097 11.1759 205.849 11.4239 206.409 11.6639C206.969 11.9039 207.449 12.2559 207.849 12.7199C208.249 13.1839 208.457 13.7999 208.473 14.5679C208.473 15.2719 208.281 15.9039 207.897 16.4639C207.513 17.0079 206.977 17.4399 206.289 17.7599C205.601 18.0799 204.809 18.2399 203.913 18.2399ZM219.829 1.27185V11.8319C219.829 13.4959 220.221 14.7279 221.005 15.5279C221.805 16.3279 222.893 16.7279 224.269 16.7279C225.645 16.7279 226.717 16.3359 227.485 15.5519C228.269 14.7519 228.661 13.5119 228.661 11.8319V1.27185H230.341V11.8079C230.341 13.9359 229.773 15.5359 228.637 16.6079C227.517 17.6799 226.053 18.2159 224.245 18.2159C222.437 18.2159 220.965 17.6799 219.829 16.6079C218.709 15.5359 218.149 13.9359 218.149 11.8079V1.27185H219.829ZM238.6 18.2399C237.096 18.2399 235.864 17.8959 234.904 17.2079C233.96 16.5039 233.432 15.5519 233.32 14.3519H235.048C235.128 15.0879 235.472 15.6879 236.08 16.1519C236.704 16.5999 237.536 16.8239 238.576 16.8239C239.488 16.8239 240.2 16.6079 240.712 16.1759C241.24 15.7439 241.504 15.2079 241.504 14.5679C241.504 14.1199 241.36 13.7519 241.072 13.4639C240.784 13.1759 240.416 12.9519 239.968 12.7919C239.536 12.6159 238.944 12.4319 238.192 12.2399C237.216 11.9839 236.424 11.7279 235.816 11.4719C235.208 11.2159 234.688 10.8399 234.256 10.3439C233.84 9.83185 233.632 9.15185 233.632 8.30385C233.632 7.66385 233.824 7.07185 234.208 6.52785C234.592 5.98385 235.136 5.55185 235.84 5.23185C236.544 4.91185 237.344 4.75185 238.24 4.75185C239.648 4.75185 240.784 5.11185 241.648 5.83185C242.512 6.53585 242.976 7.51185 243.04 8.75985H241.36C241.312 7.99185 241.008 7.37585 240.448 6.91185C239.904 6.43185 239.152 6.19185 238.192 6.19185C237.344 6.19185 236.656 6.39185 236.128 6.79185C235.6 7.19185 235.336 7.68785 235.336 8.27985C235.336 8.79185 235.488 9.21585 235.792 9.55185C236.112 9.87185 236.504 10.1279 236.968 10.3199C237.432 10.4959 238.056 10.6959 238.84 10.9199C239.784 11.1759 240.536 11.4239 241.096 11.6639C241.656 11.9039 242.136 12.2559 242.536 12.7199C242.936 13.1839 243.144 13.7999 243.16 14.5679C243.16 15.2719 242.968 15.9039 242.584 16.4639C242.2 17.0079 241.664 17.4399 240.976 17.7599C240.288 18.0799 239.496 18.2399 238.6 18.2399ZM258.179 10.8239C258.179 11.3999 258.163 11.8399 258.131 12.1439H247.259C247.307 13.1359 247.547 13.9839 247.979 14.6879C248.411 15.3919 248.979 15.9279 249.683 16.2959C250.387 16.6479 251.155 16.8239 251.987 16.8239C253.075 16.8239 253.987 16.5599 254.723 16.0319C255.475 15.5039 255.971 14.7919 256.211 13.8959H257.987C257.667 15.1759 256.979 16.2239 255.923 17.0399C254.883 17.8399 253.571 18.2399 251.987 18.2399C250.755 18.2399 249.651 17.9679 248.675 17.4239C247.699 16.8639 246.931 16.0799 246.371 15.0719C245.827 14.0479 245.555 12.8559 245.555 11.4959C245.555 10.1359 245.827 8.94385 246.371 7.91985C246.915 6.89585 247.675 6.11185 248.651 5.56785C249.627 5.02385 250.739 4.75185 251.987 4.75185C253.235 4.75185 254.323 5.02385 255.251 5.56785C256.195 6.11185 256.915 6.84785 257.411 7.77585C257.923 8.68785 258.179 9.70385 258.179 10.8239ZM256.475 10.7759C256.491 9.79985 256.291 8.96785 255.875 8.27985C255.475 7.59185 254.923 7.07185 254.219 6.71985C253.515 6.36785 252.747 6.19185 251.915 6.19185C250.667 6.19185 249.603 6.59185 248.723 7.39185C247.843 8.19185 247.355 9.31985 247.259 10.7759H256.475ZM262.933 7.27185C263.301 6.45585 263.861 5.82385 264.613 5.37585C265.381 4.92785 266.317 4.70385 267.421 4.70385V6.45585H266.965C265.749 6.45585 264.773 6.78385 264.037 7.43985C263.301 8.09585 262.933 9.19185 262.933 10.7279V18.0479H261.253V4.94385H262.933V7.27185ZM270.164 1.27185H272.108L269.996 6.45585H268.772L270.164 1.27185ZM279.194 18.2399C277.69 18.2399 276.458 17.8959 275.498 17.2079C274.554 16.5039 274.026 15.5519 273.914 14.3519H275.642C275.722 15.0879 276.066 15.6879 276.674 16.1519C277.298 16.5999 278.13 16.8239 279.17 16.8239C280.082 16.8239 280.794 16.6079 281.306 16.1759C281.834 15.7439 282.098 15.2079 282.098 14.5679C282.098 14.1199 281.954 13.7519 281.666 13.4639C281.378 13.1759 281.01 12.9519 280.562 12.7919C280.13 12.6159 279.538 12.4319 278.786 12.2399C277.81 11.9839 277.018 11.7279 276.41 11.4719C275.802 11.2159 275.282 10.8399 274.85 10.3439C274.434 9.83185 274.226 9.15185 274.226 8.30385C274.226 7.66385 274.418 7.07185 274.802 6.52785C275.186 5.98385 275.73 5.55185 276.434 5.23185C277.138 4.91185 277.938 4.75185 278.834 4.75185C280.242 4.75185 281.378 5.11185 282.242 5.83185C283.106 6.53585 283.57 7.51185 283.634 8.75985H281.954C281.906 7.99185 281.602 7.37585 281.042 6.91185C280.498 6.43185 279.746 6.19185 278.786 6.19185C277.938 6.19185 277.25 6.39185 276.722 6.79185C276.194 7.19185 275.93 7.68785 275.93 8.27985C275.93 8.79185 276.082 9.21585 276.386 9.55185C276.706 9.87185 277.098 10.1279 277.562 10.3199C278.026 10.4959 278.65 10.6959 279.434 10.9199C280.378 11.1759 281.13 11.4239 281.69 11.6639C282.25 11.9039 282.73 12.2559 283.13 12.7199C283.53 13.1839 283.738 13.7999 283.754 14.5679C283.754 15.2719 283.562 15.9039 283.178 16.4639C282.794 17.0079 282.258 17.4399 281.57 17.7599C280.882 18.0799 280.09 18.2399 279.194 18.2399ZM17.1601 41.4879V58.0479H15.4801V44.8239L9.57615 58.0479H8.35215L2.44814 44.8719V58.0479H0.768145V41.4879H2.54414L8.95215 55.8399L15.3601 41.4879H17.1601ZM20.2033 51.4719C20.2033 50.1279 20.4673 48.9519 20.9953 47.9439C21.5393 46.9199 22.2833 46.1359 23.2273 45.5919C24.1873 45.0319 25.2673 44.7519 26.4673 44.7519C27.7153 44.7519 28.7873 45.0399 29.6833 45.6159C30.5953 46.1919 31.2513 46.9279 31.6513 47.8239V44.9439H33.3313V58.0479H31.6513V55.1439C31.2353 56.0399 30.5713 56.7839 29.6593 57.3759C28.7633 57.9519 27.6913 58.2399 26.4433 58.2399C25.2593 58.2399 24.1873 57.9599 23.2273 57.3999C22.2833 56.8399 21.5393 56.0479 20.9953 55.0239C20.4673 53.9999 20.2033 52.8159 20.2033 51.4719ZM31.6513 51.4959C31.6513 50.4399 31.4353 49.5119 31.0033 48.7119C30.5713 47.9119 29.9793 47.2959 29.2273 46.8639C28.4913 46.4319 27.6753 46.2159 26.7793 46.2159C25.8513 46.2159 25.0193 46.4239 24.2833 46.8399C23.5473 47.2559 22.9633 47.8639 22.5313 48.6639C22.1153 49.4479 21.9073 50.3839 21.9073 51.4719C21.9073 52.5439 22.1153 53.4879 22.5313 54.3039C22.9633 55.1039 23.5473 55.7199 24.2833 56.1519C25.0193 56.5679 25.8513 56.7759 26.7793 56.7759C27.6753 56.7759 28.4913 56.5599 29.2273 56.1279C29.9793 55.6959 30.5713 55.0799 31.0033 54.2799C31.4353 53.4799 31.6513 52.5519 31.6513 51.4959ZM43.3106 44.7039C44.8786 44.7039 46.1586 45.1919 47.1506 46.1679C48.1426 47.1279 48.6386 48.5279 48.6386 50.3679V58.0479H46.9826V50.5599C46.9826 49.1359 46.6226 48.0479 45.9026 47.2959C45.1986 46.5439 44.2306 46.1679 42.9986 46.1679C41.7346 46.1679 40.7266 46.5679 39.9746 47.3679C39.2226 48.1679 38.8466 49.3439 38.8466 50.8959V58.0479H37.1666V44.9439H38.8466V47.1759C39.2626 46.3759 39.8626 45.7679 40.6466 45.3519C41.4306 44.9199 42.3186 44.7039 43.3106 44.7039ZM63.7061 44.9439V58.0479H62.0261V55.7439C61.6421 56.5599 61.0501 57.1839 60.2501 57.6159C59.4501 58.0479 58.5541 58.2639 57.5621 58.2639C55.9941 58.2639 54.7141 57.7839 53.7221 56.8239C52.7301 55.8479 52.2341 54.4399 52.2341 52.5999V44.9439H53.8901V52.4079C53.8901 53.8319 54.2421 54.9199 54.9461 55.6719C55.6661 56.4239 56.6421 56.7999 57.8741 56.7999C59.1381 56.7999 60.1461 56.3999 60.8981 55.5999C61.6501 54.7999 62.0261 53.6239 62.0261 52.0719V44.9439H63.7061ZM66.7736 51.4719C66.7736 50.1279 67.0376 48.9519 67.5656 47.9439C68.1096 46.9199 68.8536 46.1359 69.7976 45.5919C70.7576 45.0319 71.8376 44.7519 73.0376 44.7519C74.2856 44.7519 75.3576 45.0399 76.2536 45.6159C77.1656 46.1919 77.8216 46.9279 78.2216 47.8239V44.9439H79.9016V58.0479H78.2216V55.1439C77.8056 56.0399 77.1416 56.7839 76.2296 57.3759C75.3336 57.9519 74.2616 58.2399 73.0136 58.2399C71.8296 58.2399 70.7576 57.9599 69.7976 57.3999C68.8536 56.8399 68.1096 56.0479 67.5656 55.0239C67.0376 53.9999 66.7736 52.8159 66.7736 51.4719ZM78.2216 51.4959C78.2216 50.4399 78.0056 49.5119 77.5736 48.7119C77.1416 47.9119 76.5496 47.2959 75.7976 46.8639C75.0616 46.4319 74.2456 46.2159 73.3496 46.2159C72.4216 46.2159 71.5896 46.4239 70.8536 46.8399C70.1176 47.2559 69.5336 47.8639 69.1016 48.6639C68.6856 49.4479 68.4776 50.3839 68.4776 51.4719C68.4776 52.5439 68.6856 53.4879 69.1016 54.3039C69.5336 55.1039 70.1176 55.7199 70.8536 56.1519C71.5896 56.5679 72.4216 56.7759 73.3496 56.7759C74.2456 56.7759 75.0616 56.5599 75.7976 56.1279C76.5496 55.6959 77.1416 55.0799 77.5736 54.2799C78.0056 53.4799 78.2216 52.5519 78.2216 51.4959ZM85.4169 40.2879V58.0479H83.7369V40.2879H85.4169ZM113.087 44.9439L108.983 58.0479H107.303L103.679 47.0559L100.055 58.0479H98.3512L94.2472 44.9439H95.9512L99.2152 56.3439L102.887 44.9439H104.567L108.191 56.3679L111.431 44.9439H113.087ZM114.61 51.4719C114.61 50.1279 114.874 48.9519 115.402 47.9439C115.946 46.9199 116.69 46.1359 117.634 45.5919C118.594 45.0319 119.674 44.7519 120.874 44.7519C122.122 44.7519 123.194 45.0399 124.09 45.6159C125.002 46.1919 125.658 46.9279 126.058 47.8239V44.9439H127.738V58.0479H126.058V55.1439C125.642 56.0399 124.978 56.7839 124.066 57.3759C123.17 57.9519 122.098 58.2399 120.85 58.2399C119.666 58.2399 118.594 57.9599 117.634 57.3999C116.69 56.8399 115.946 56.0479 115.402 55.0239C114.874 53.9999 114.61 52.8159 114.61 51.4719ZM126.058 51.4959C126.058 50.4399 125.842 49.5119 125.41 48.7119C124.978 47.9119 124.386 47.2959 123.634 46.8639C122.898 46.4319 122.082 46.2159 121.186 46.2159C120.258 46.2159 119.426 46.4239 118.69 46.8399C117.954 47.2559 117.37 47.8639 116.938 48.6639C116.522 49.4479 116.314 50.3839 116.314 51.4719C116.314 52.5439 116.522 53.4879 116.938 54.3039C117.37 55.1039 117.954 55.7199 118.69 56.1519C119.426 56.5679 120.258 56.7759 121.186 56.7759C122.082 56.7759 122.898 56.5599 123.634 56.1279C124.386 55.6959 124.978 55.0799 125.41 54.2799C125.842 53.4799 126.058 52.5519 126.058 51.4959ZM136.085 58.2399C134.581 58.2399 133.349 57.8959 132.389 57.2079C131.445 56.5039 130.917 55.5519 130.805 54.3519H132.533C132.613 55.0879 132.957 55.6879 133.565 56.1519C134.189 56.5999 135.021 56.8239 136.061 56.8239C136.973 56.8239 137.685 56.6079 138.197 56.1759C138.725 55.7439 138.989 55.2079 138.989 54.5679C138.989 54.1199 138.845 53.7519 138.557 53.4639C138.269 53.1759 137.901 52.9519 137.453 52.7919C137.021 52.6159 136.429 52.4319 135.677 52.2399C134.701 51.9839 133.909 51.7279 133.301 51.4719C132.693 51.2159 132.173 50.8399 131.741 50.3439C131.325 49.8319 131.117 49.1519 131.117 48.3039C131.117 47.6639 131.309 47.0719 131.693 46.5279C132.077 45.9839 132.621 45.5519 133.325 45.2319C134.029 44.9119 134.829 44.7519 135.725 44.7519C137.133 44.7519 138.269 45.1119 139.133 45.8319C139.997 46.5359 140.461 47.5119 140.525 48.7599H138.845C138.797 47.9919 138.493 47.3759 137.933 46.9119C137.389 46.4319 136.637 46.1919 135.677 46.1919C134.829 46.1919 134.141 46.3919 133.613 46.7919C133.085 47.1919 132.821 47.6879 132.821 48.2799C132.821 48.7919 132.973 49.2159 133.277 49.5519C133.597 49.8719 133.989 50.1279 134.453 50.3199C134.917 50.4959 135.541 50.6959 136.325 50.9199C137.269 51.1759 138.021 51.4239 138.581 51.6639C139.141 51.9039 139.621 52.2559 140.021 52.7199C140.421 53.1839 140.629 53.7999 140.645 54.5679C140.645 55.2719 140.453 55.9039 140.069 56.4639C139.685 57.0079 139.149 57.4399 138.461 57.7599C137.773 58.0799 136.981 58.2399 136.085 58.2399ZM149.625 51.4719C149.625 50.1279 149.889 48.9519 150.417 47.9439C150.961 46.9199 151.705 46.1359 152.649 45.5919C153.609 45.0319 154.689 44.7519 155.889 44.7519C157.137 44.7519 158.209 45.0399 159.105 45.6159C160.017 46.1919 160.673 46.9279 161.073 47.8239V44.9439H162.753V58.0479H161.073V55.1439C160.657 56.0399 159.993 56.7839 159.081 57.3759C158.185 57.9519 157.113 58.2399 155.865 58.2399C154.681 58.2399 153.609 57.9599 152.649 57.3999C151.705 56.8399 150.961 56.0479 150.417 55.0239C149.889 53.9999 149.625 52.8159 149.625 51.4719ZM161.073 51.4959C161.073 50.4399 160.857 49.5119 160.425 48.7119C159.993 47.9119 159.401 47.2959 158.649 46.8639C157.913 46.4319 157.097 46.2159 156.201 46.2159C155.273 46.2159 154.441 46.4239 153.705 46.8399C152.969 47.2559 152.385 47.8639 151.953 48.6639C151.537 49.4479 151.329 50.3839 151.329 51.4719C151.329 52.5439 151.537 53.4879 151.953 54.3039C152.385 55.1039 152.969 55.7199 153.705 56.1519C154.441 56.5679 155.273 56.7759 156.201 56.7759C157.097 56.7759 157.913 56.5599 158.649 56.1279C159.401 55.6959 159.993 55.0799 160.425 54.2799C160.857 53.4799 161.073 52.5519 161.073 51.4959ZM172.732 44.7039C174.3 44.7039 175.58 45.1919 176.572 46.1679C177.564 47.1279 178.06 48.5279 178.06 50.3679V58.0479H176.404V50.5599C176.404 49.1359 176.044 48.0479 175.324 47.2959C174.62 46.5439 173.652 46.1679 172.42 46.1679C171.156 46.1679 170.148 46.5679 169.396 47.3679C168.644 48.1679 168.268 49.3439 168.268 50.8959V58.0479H166.588V44.9439H168.268V47.1759C168.684 46.3759 169.284 45.7679 170.068 45.3519C170.852 44.9199 171.74 44.7039 172.732 44.7039ZM194.098 58.2399C192.866 58.2399 191.754 57.9679 190.762 57.4239C189.786 56.8639 189.01 56.0799 188.434 55.0719C187.874 54.0479 187.594 52.8559 187.594 51.4959C187.594 50.1359 187.882 48.9519 188.458 47.9439C189.034 46.9199 189.818 46.1359 190.81 45.5919C191.802 45.0319 192.914 44.7519 194.146 44.7519C195.378 44.7519 196.49 45.0319 197.482 45.5919C198.49 46.1359 199.274 46.9199 199.834 47.9439C200.41 48.9519 200.698 50.1359 200.698 51.4959C200.698 52.8399 200.41 54.0239 199.834 55.0479C199.258 56.0719 198.466 56.8639 197.458 57.4239C196.45 57.9679 195.33 58.2399 194.098 58.2399ZM194.098 56.7759C194.962 56.7759 195.762 56.5839 196.498 56.1999C197.234 55.7999 197.826 55.2079 198.274 54.4239C198.738 53.6239 198.97 52.6479 198.97 51.4959C198.97 50.3439 198.746 49.3759 198.298 48.5919C197.85 47.7919 197.258 47.1999 196.522 46.8159C195.786 46.4159 194.986 46.2159 194.122 46.2159C193.258 46.2159 192.458 46.4159 191.722 46.8159C190.986 47.1999 190.394 47.7919 189.946 48.5919C189.514 49.3759 189.298 50.3439 189.298 51.4959C189.298 52.6479 189.514 53.6239 189.946 54.4239C190.394 55.2079 190.978 55.7999 191.698 56.1999C192.434 56.5839 193.234 56.7759 194.098 56.7759ZM205.416 47.8479C205.848 46.9359 206.512 46.1919 207.408 45.6159C208.32 45.0399 209.392 44.7519 210.624 44.7519C211.824 44.7519 212.896 45.0319 213.84 45.5919C214.784 46.1359 215.52 46.9199 216.048 47.9439C216.592 48.9519 216.864 50.1279 216.864 51.4719C216.864 52.8159 216.592 53.9999 216.048 55.0239C215.52 56.0479 214.776 56.8399 213.816 57.3999C212.872 57.9599 211.808 58.2399 210.624 58.2399C209.376 58.2399 208.296 57.9599 207.384 57.3999C206.488 56.8239 205.832 56.0799 205.416 55.1679V58.0479H203.76V40.2879H205.416V47.8479ZM215.16 51.4719C215.16 50.3839 214.944 49.4479 214.512 48.6639C214.096 47.8639 213.52 47.2559 212.784 46.8399C212.048 46.4239 211.216 46.2159 210.288 46.2159C209.392 46.2159 208.568 46.4319 207.816 46.8639C207.08 47.2959 206.496 47.9119 206.064 48.7119C205.632 49.5119 205.416 50.4399 205.416 51.4959C205.416 52.5519 205.632 53.4799 206.064 54.2799C206.496 55.0799 207.08 55.6959 207.816 56.1279C208.568 56.5599 209.392 56.7759 210.288 56.7759C211.216 56.7759 212.048 56.5679 212.784 56.1519C213.52 55.7199 214.096 55.1039 214.512 54.3039C214.944 53.4879 215.16 52.5439 215.16 51.4719ZM224.612 56.4159L229.028 44.9439H230.804L225.548 58.0479H223.652L218.396 44.9439H220.196L224.612 56.4159ZM233.921 42.4719C233.585 42.4719 233.297 42.3519 233.057 42.1119C232.817 41.8719 232.697 41.5759 232.697 41.2239C232.697 40.8719 232.817 40.5839 233.057 40.3599C233.297 40.1199 233.585 39.9999 233.921 39.9999C234.257 39.9999 234.545 40.1199 234.785 40.3599C235.025 40.5839 235.145 40.8719 235.145 41.2239C235.145 41.5759 235.025 41.8719 234.785 42.1119C234.545 42.3519 234.257 42.4719 233.921 42.4719ZM234.761 44.9439V58.0479H233.081V44.9439H234.761ZM244.301 58.2399C243.069 58.2399 241.957 57.9679 240.965 57.4239C239.989 56.8639 239.213 56.0799 238.637 55.0719C238.077 54.0479 237.797 52.8559 237.797 51.4959C237.797 50.1359 238.085 48.9519 238.661 47.9439C239.237 46.9199 240.021 46.1359 241.013 45.5919C242.005 45.0319 243.117 44.7519 244.349 44.7519C245.581 44.7519 246.693 45.0319 247.685 45.5919C248.693 46.1359 249.477 46.9199 250.037 47.9439C250.613 48.9519 250.901 50.1359 250.901 51.4959C250.901 52.8399 250.613 54.0239 250.037 55.0479C249.461 56.0719 248.669 56.8639 247.661 57.4239C246.653 57.9679 245.533 58.2399 244.301 58.2399ZM244.301 56.7759C245.165 56.7759 245.965 56.5839 246.701 56.1999C247.437 55.7999 248.029 55.2079 248.477 54.4239C248.941 53.6239 249.173 52.6479 249.173 51.4959C249.173 50.3439 248.949 49.3759 248.501 48.5919C248.053 47.7919 247.461 47.1999 246.725 46.8159C245.989 46.4159 245.189 46.2159 244.325 46.2159C243.461 46.2159 242.661 46.4159 241.925 46.8159C241.189 47.1999 240.597 47.7919 240.149 48.5919C239.717 49.3759 239.501 50.3439 239.501 51.4959C239.501 52.6479 239.717 53.6239 240.149 54.4239C240.597 55.2079 241.181 55.7999 241.901 56.1999C242.637 56.5839 243.437 56.7759 244.301 56.7759ZM265.315 44.9439V58.0479H263.635V55.7439C263.251 56.5599 262.659 57.1839 261.859 57.6159C261.059 58.0479 260.163 58.2639 259.171 58.2639C257.603 58.2639 256.323 57.7839 255.331 56.8239C254.339 55.8479 253.843 54.4399 253.843 52.5999V44.9439H255.499V52.4079C255.499 53.8319 255.851 54.9199 256.555 55.6719C257.275 56.4239 258.251 56.7999 259.483 56.7999C260.747 56.7999 261.755 56.3999 262.507 55.5999C263.259 54.7999 263.635 53.6239 263.635 52.0719V44.9439H265.315ZM273.663 58.2399C272.159 58.2399 270.927 57.8959 269.967 57.2079C269.023 56.5039 268.495 55.5519 268.383 54.3519H270.111C270.191 55.0879 270.535 55.6879 271.143 56.1519C271.767 56.5999 272.599 56.8239 273.639 56.8239C274.551 56.8239 275.263 56.6079 275.775 56.1759C276.303 55.7439 276.567 55.2079 276.567 54.5679C276.567 54.1199 276.423 53.7519 276.135 53.4639C275.847 53.1759 275.479 52.9519 275.031 52.7919C274.599 52.6159 274.007 52.4319 273.255 52.2399C272.279 51.9839 271.487 51.7279 270.879 51.4719C270.271 51.2159 269.751 50.8399 269.319 50.3439C268.903 49.8319 268.695 49.1519 268.695 48.3039C268.695 47.6639 268.887 47.0719 269.271 46.5279C269.655 45.9839 270.199 45.5519 270.903 45.2319C271.607 44.9119 272.407 44.7519 273.303 44.7519C274.711 44.7519 275.847 45.1119 276.711 45.8319C277.575 46.5359 278.039 47.5119 278.103 48.7599H276.423C276.375 47.9919 276.071 47.3759 275.511 46.9119C274.967 46.4319 274.215 46.1919 273.255 46.1919C272.407 46.1919 271.719 46.3919 271.191 46.7919C270.663 47.1919 270.399 47.6879 270.399 48.2799C270.399 48.7919 270.551 49.2159 270.855 49.5519C271.175 49.8719 271.567 50.1279 272.031 50.3199C272.495 50.4959 273.119 50.6959 273.903 50.9199C274.847 51.1759 275.599 51.4239 276.159 51.6639C276.719 51.9039 277.199 52.2559 277.599 52.7199C277.999 53.1839 278.207 53.7999 278.223 54.5679C278.223 55.2719 278.031 55.9039 277.647 56.4639C277.263 57.0079 276.727 57.4399 276.039 57.7599C275.351 58.0799 274.559 58.2399 273.663 58.2399ZM0.000144541 91.4719C0.000144541 90.1279 0.272145 88.9519 0.816145 87.9439C1.36014 86.9199 2.10414 86.1359 3.04814 85.5919C4.00814 85.0319 5.08814 84.7519 6.28814 84.7519C7.44015 84.7519 8.48015 85.0319 9.40815 85.5919C10.3361 86.1519 11.0161 86.8799 11.4481 87.7759V80.2879H13.1281V98.0479H11.4481V95.1199C11.0481 96.0319 10.3921 96.7839 9.48014 97.3759C8.56814 97.9519 7.49614 98.2399 6.26414 98.2399C5.06414 98.2399 3.98414 97.9599 3.02414 97.3999C2.08014 96.8399 1.33614 96.0479 0.792145 95.0239C0.264145 93.9999 0.000144541 92.8159 0.000144541 91.4719ZM11.4481 91.4959C11.4481 90.4399 11.2321 89.5119 10.8001 88.7119C10.3681 87.9119 9.77614 87.2959 9.02415 86.8639C8.28815 86.4319 7.47215 86.2159 6.57615 86.2159C5.64814 86.2159 4.81614 86.4239 4.08014 86.8399C3.34414 87.2559 2.76014 87.8639 2.32814 88.6639C1.91214 89.4479 1.70414 90.3839 1.70414 91.4719C1.70414 92.5439 1.91214 93.4879 2.32814 94.3039C2.76014 95.1039 3.34414 95.7199 4.08014 96.1519C4.81614 96.5679 5.64814 96.7759 6.57615 96.7759C7.47215 96.7759 8.28815 96.5599 9.02415 96.1279C9.77614 95.6959 10.3681 95.0799 10.8001 94.2799C11.2321 93.4799 11.4481 92.5519 11.4481 91.4959ZM17.8035 82.4719C17.4675 82.4719 17.1795 82.3519 16.9395 82.1119C16.6995 81.8719 16.5795 81.5759 16.5795 81.2239C16.5795 80.8719 16.6995 80.5839 16.9395 80.3599C17.1795 80.1199 17.4675 79.9999 17.8035 79.9999C18.1395 79.9999 18.4275 80.1199 18.6675 80.3599C18.9075 80.5839 19.0275 80.8719 19.0275 81.2239C19.0275 81.5759 18.9075 81.8719 18.6675 82.1119C18.4275 82.3519 18.1395 82.4719 17.8035 82.4719ZM18.6435 84.9439V98.0479H16.9635V84.9439H18.6435ZM21.6798 91.4719C21.6798 90.1279 21.9438 88.9519 22.4718 87.9439C23.0158 86.9199 23.7598 86.1359 24.7038 85.5919C25.6638 85.0319 26.7438 84.7519 27.9438 84.7519C29.1918 84.7519 30.2638 85.0399 31.1598 85.6159C32.0718 86.1919 32.7278 86.9279 33.1278 87.8239V84.9439H34.8078V98.0479H33.1278V95.1439C32.7118 96.0399 32.0478 96.7839 31.1358 97.3759C30.2398 97.9519 29.1678 98.2399 27.9198 98.2399C26.7358 98.2399 25.6638 97.9599 24.7038 97.3999C23.7598 96.8399 23.0158 96.0479 22.4718 95.0239C21.9438 93.9999 21.6798 92.8159 21.6798 91.4719ZM33.1278 91.4959C33.1278 90.4399 32.9118 89.5119 32.4798 88.7119C32.0478 87.9119 31.4558 87.2959 30.7038 86.8639C29.9678 86.4319 29.1518 86.2159 28.2558 86.2159C27.3278 86.2159 26.4958 86.4239 25.7598 86.8399C25.0238 87.2559 24.4398 87.8639 24.0078 88.6639C23.5918 89.4479 23.3838 90.3839 23.3838 91.4719C23.3838 92.5439 23.5918 93.4879 24.0078 94.3039C24.4398 95.1039 25.0238 95.7199 25.7598 96.1519C26.4958 96.5679 27.3278 96.7759 28.2558 96.7759C29.1518 96.7759 29.9678 96.5599 30.7038 96.1279C31.4558 95.6959 32.0478 95.0799 32.4798 94.2799C32.9118 93.4799 33.1278 92.5519 33.1278 91.4959ZM43.1551 98.2399C41.6511 98.2399 40.4191 97.8959 39.4591 97.2079C38.5151 96.5039 37.9871 95.5519 37.8751 94.3519H39.6031C39.6831 95.0879 40.0271 95.6879 40.6351 96.1519C41.2591 96.5999 42.0911 96.8239 43.1311 96.8239C44.0431 96.8239 44.7551 96.6079 45.2671 96.1759C45.7951 95.7439 46.0591 95.2079 46.0591 94.5679C46.0591 94.1199 45.9151 93.7519 45.6271 93.4639C45.3391 93.1759 44.9711 92.9519 44.5231 92.7919C44.0911 92.6159 43.4991 92.4319 42.7471 92.2399C41.7711 91.9839 40.9791 91.7279 40.3711 91.4719C39.7631 91.2159 39.2431 90.8399 38.8111 90.3439C38.3951 89.8319 38.1871 89.1519 38.1871 88.3039C38.1871 87.6639 38.3791 87.0719 38.7631 86.5279C39.1471 85.9839 39.6911 85.5519 40.3951 85.2319C41.0991 84.9119 41.8991 84.7519 42.7951 84.7519C44.2031 84.7519 45.3391 85.1119 46.2031 85.8319C47.0671 86.5359 47.5311 87.5119 47.5951 88.7599H45.9151C45.8671 87.9919 45.5631 87.3759 45.0031 86.9119C44.4591 86.4319 43.7071 86.1919 42.7471 86.1919C41.8991 86.1919 41.2111 86.3919 40.6831 86.7919C40.1551 87.1919 39.8911 87.6879 39.8911 88.2799C39.8911 88.7919 40.0431 89.2159 40.3471 89.5519C40.6671 89.8719 41.0591 90.1279 41.5231 90.3199C41.9871 90.4959 42.6111 90.6959 43.3951 90.9199C44.3391 91.1759 45.0911 91.4239 45.6511 91.6639C46.2111 91.9039 46.6911 92.2559 47.0911 92.7199C47.4911 93.1839 47.6991 93.7999 47.7151 94.5679C47.7151 95.2719 47.5231 95.9039 47.1391 96.4639C46.7551 97.0079 46.2191 97.4399 45.5311 97.7599C44.8431 98.0799 44.0511 98.2399 43.1551 98.2399ZM50.1095 91.4959C50.1095 90.1359 50.3815 88.9519 50.9255 87.9439C51.4695 86.9199 52.2215 86.1359 53.1815 85.5919C54.1415 85.0319 55.2375 84.7519 56.4695 84.7519C58.0855 84.7519 59.4135 85.1519 60.4535 85.9519C61.5095 86.7519 62.1895 87.8399 62.4935 89.2159H60.6935C60.4695 88.2719 59.9815 87.5359 59.2295 87.0079C58.4935 86.4639 57.5735 86.1919 56.4695 86.1919C55.5895 86.1919 54.7975 86.3919 54.0935 86.7919C53.3895 87.1919 52.8295 87.7919 52.4135 88.5919C52.0135 89.3759 51.8135 90.3439 51.8135 91.4959C51.8135 92.6479 52.0135 93.6239 52.4135 94.4239C52.8295 95.2239 53.3895 95.8239 54.0935 96.2239C54.7975 96.6239 55.5895 96.8239 56.4695 96.8239C57.5735 96.8239 58.4935 96.5599 59.2295 96.0319C59.9815 95.4879 60.4695 94.7359 60.6935 93.7759H62.4935C62.1895 95.1199 61.5095 96.1999 60.4535 97.0159C59.3975 97.8319 58.0695 98.2399 56.4695 98.2399C55.2375 98.2399 54.1415 97.9679 53.1815 97.4239C52.2215 96.8639 51.4695 96.0799 50.9255 95.0719C50.3815 94.0479 50.1095 92.8559 50.1095 91.4959ZM67.7803 86.3599V94.4959C67.7803 95.2959 67.9323 95.8479 68.2363 96.1519C68.5403 96.4559 69.0763 96.6079 69.8443 96.6079H71.3803V98.0479H69.5803C68.3963 98.0479 67.5163 97.7759 66.9403 97.2319C66.3643 96.6719 66.0763 95.7599 66.0763 94.4959V86.3599H64.2523V84.9439H66.0763V81.6559H67.7803V84.9439H71.3803V86.3599H67.7803ZM74.991 82.4719C74.655 82.4719 74.367 82.3519 74.127 82.1119C73.887 81.8719 73.767 81.5759 73.767 81.2239C73.767 80.8719 73.887 80.5839 74.127 80.3599C74.367 80.1199 74.655 79.9999 74.991 79.9999C75.327 79.9999 75.615 80.1199 75.855 80.3599C76.095 80.5839 76.215 80.8719 76.215 81.2239C76.215 81.5759 76.095 81.8719 75.855 82.1119C75.615 82.3519 75.327 82.4719 74.991 82.4719ZM75.831 84.9439V98.0479H74.151V84.9439H75.831ZM85.7793 84.7039C87.3473 84.7039 88.6273 85.1919 89.6193 86.1679C90.6113 87.1279 91.1073 88.5279 91.1073 90.3679V98.0479H89.4513V90.5599C89.4513 89.1359 89.0913 88.0479 88.3713 87.2959C87.6673 86.5439 86.6993 86.1679 85.4673 86.1679C84.2033 86.1679 83.1953 86.5679 82.4433 87.3679C81.6913 88.1679 81.3153 89.3439 81.3153 90.8959V98.0479H79.6353V84.9439H81.3153V87.1759C81.7313 86.3759 82.3313 85.7679 83.1153 85.3519C83.8993 84.9199 84.7873 84.7039 85.7793 84.7039ZM97.0068 86.3599V94.4959C97.0068 95.2959 97.1588 95.8479 97.4628 96.1519C97.7668 96.4559 98.3028 96.6079 99.0708 96.6079H100.607V98.0479H98.8068C97.6228 98.0479 96.7428 97.7759 96.1668 97.2319C95.5908 96.6719 95.3028 95.7599 95.3028 94.4959V86.3599H93.4788V84.9439H95.3028V81.6559H97.0068V84.9439H100.607V86.3599H97.0068ZM104.218 82.4719C103.882 82.4719 103.594 82.3519 103.354 82.1119C103.114 81.8719 102.994 81.5759 102.994 81.2239C102.994 80.8719 103.114 80.5839 103.354 80.3599C103.594 80.1199 103.882 79.9999 104.218 79.9999C104.554 79.9999 104.842 80.1199 105.082 80.3599C105.322 80.5839 105.442 80.8719 105.442 81.2239C105.442 81.5759 105.322 81.8719 105.082 82.1119C104.842 82.3519 104.554 82.4719 104.218 82.4719ZM105.058 84.9439V98.0479H103.378V84.9439H105.058ZM114.598 98.2399C113.366 98.2399 112.254 97.9679 111.262 97.4239C110.286 96.8639 109.51 96.0799 108.934 95.0719C108.374 94.0479 108.094 92.8559 108.094 91.4959C108.094 90.1359 108.382 88.9519 108.958 87.9439C109.534 86.9199 110.318 86.1359 111.31 85.5919C112.302 85.0319 113.414 84.7519 114.646 84.7519C115.878 84.7519 116.99 85.0319 117.982 85.5919C118.99 86.1359 119.774 86.9199 120.334 87.9439C120.91 88.9519 121.198 90.1359 121.198 91.4959C121.198 92.8399 120.91 94.0239 120.334 95.0479C119.758 96.0719 118.966 96.8639 117.958 97.4239C116.95 97.9679 115.83 98.2399 114.598 98.2399ZM114.598 96.7759C115.462 96.7759 116.262 96.5839 116.998 96.1999C117.734 95.7999 118.326 95.2079 118.774 94.4239C119.238 93.6239 119.47 92.6479 119.47 91.4959C119.47 90.3439 119.246 89.3759 118.798 88.5919C118.35 87.7919 117.758 87.1999 117.022 86.8159C116.286 86.4159 115.486 86.2159 114.622 86.2159C113.758 86.2159 112.958 86.4159 112.222 86.8159C111.486 87.1999 110.894 87.7919 110.446 88.5919C110.014 89.3759 109.798 90.3439 109.798 91.4959C109.798 92.6479 110.014 93.6239 110.446 94.4239C110.894 95.2079 111.478 95.7999 112.198 96.1999C112.934 96.5839 113.734 96.7759 114.598 96.7759ZM130.404 84.7039C131.972 84.7039 133.252 85.1919 134.244 86.1679C135.236 87.1279 135.732 88.5279 135.732 90.3679V98.0479H134.076V90.5599C134.076 89.1359 133.716 88.0479 132.996 87.2959C132.292 86.5439 131.324 86.1679 130.092 86.1679C128.828 86.1679 127.82 86.5679 127.068 87.3679C126.316 88.1679 125.94 89.3439 125.94 90.8959V98.0479H124.26V84.9439H125.94V87.1759C126.356 86.3759 126.956 85.7679 127.74 85.3519C128.524 84.9199 129.412 84.7039 130.404 84.7039Z" fill="#0D0D0D"/>
</svg>
