<svg width="289" height="105" viewBox="0 0 289 105" fill="none" xmlns="http://www.w3.org/2000/svg">
<path d="M8.87983 17.9278C7.32783 17.9278 5.91983 17.5678 4.65583 16.8478C3.39183 16.1118 2.39183 15.0958 1.65583 13.7998C0.935828 12.4878 0.575828 11.0078 0.575828 9.35977C0.575828 7.71177 0.935828 6.23977 1.65583 4.94376C2.39183 3.63176 3.39183 2.61576 4.65583 1.89577C5.91983 1.15977 7.32783 0.791765 8.87983 0.791765C10.4478 0.791765 11.8638 1.15977 13.1278 1.89577C14.3918 2.61576 15.3838 3.63176 16.1038 4.94376C16.8238 6.23977 17.1838 7.71177 17.1838 9.35977C17.1838 11.0078 16.8238 12.4878 16.1038 13.7998C15.3838 15.0958 14.3918 16.1118 13.1278 16.8478C11.8638 17.5678 10.4478 17.9278 8.87983 17.9278ZM8.87983 16.4638C10.1278 16.4638 11.2478 16.1758 12.2398 15.5998C13.2318 15.0238 14.0158 14.1998 14.5918 13.1278C15.1678 12.0398 15.4558 10.7838 15.4558 9.35977C15.4558 7.93577 15.1678 6.68777 14.5918 5.61576C14.0158 4.54377 13.2318 3.71977 12.2398 3.14376C11.2478 2.56776 10.1278 2.27976 8.87983 2.27976C7.63183 2.27976 6.51183 2.56776 5.51983 3.14376C4.52783 3.71977 3.74383 4.54377 3.16783 5.61576C2.59183 6.68777 2.30383 7.93577 2.30383 9.35977C2.30383 10.7838 2.59183 12.0398 3.16783 13.1278C3.74383 14.1998 4.52783 15.0238 5.51983 15.5998C6.51183 16.1758 7.63183 16.4638 8.87983 16.4638ZM37.5379 4.65577L33.4339 17.7598H31.7539L28.1299 6.76776L24.5059 17.7598H22.8019L18.6979 4.65577H20.4019L23.6659 16.0558L27.3379 4.65577H29.0179L32.6419 16.0798L35.8819 4.65577H37.5379ZM45.9722 4.41576C47.5402 4.41576 48.8202 4.90376 49.8122 5.87976C50.8042 6.83976 51.3002 8.23976 51.3002 10.0798V17.7598H49.6442V10.2718C49.6442 8.84777 49.2842 7.75977 48.5642 7.00777C47.8602 6.25576 46.8922 5.87976 45.6602 5.87976C44.3962 5.87976 43.3882 6.27976 42.6362 7.07977C41.8842 7.87977 41.5082 9.05577 41.5082 10.6078V17.7598H39.8282V4.65577H41.5082V6.88777C41.9242 6.08777 42.5242 5.47976 43.3082 5.06376C44.0922 4.63176 44.9802 4.41576 45.9722 4.41576ZM66.8717 10.5358C66.8717 11.1118 66.8557 11.5518 66.8237 11.8558H55.9517C55.9997 12.8478 56.2397 13.6958 56.6717 14.3998C57.1037 15.1038 57.6717 15.6398 58.3757 16.0078C59.0797 16.3598 59.8477 16.5358 60.6797 16.5358C61.7677 16.5358 62.6797 16.2718 63.4157 15.7438C64.1677 15.2158 64.6637 14.5038 64.9037 13.6078H66.6797C66.3597 14.8878 65.6717 15.9358 64.6157 16.7518C63.5757 17.5518 62.2637 17.9518 60.6797 17.9518C59.4477 17.9518 58.3437 17.6798 57.3677 17.1358C56.3917 16.5758 55.6237 15.7918 55.0637 14.7838C54.5197 13.7598 54.2477 12.5678 54.2477 11.2078C54.2477 9.84777 54.5197 8.65577 55.0637 7.63177C55.6077 6.60776 56.3677 5.82376 57.3437 5.27976C58.3197 4.73576 59.4317 4.46377 60.6797 4.46377C61.9277 4.46377 63.0157 4.73576 63.9437 5.27976C64.8877 5.82376 65.6077 6.55976 66.1037 7.48776C66.6157 8.39977 66.8717 9.41577 66.8717 10.5358ZM65.1677 10.4878C65.1837 9.51177 64.9837 8.67977 64.5677 7.99177C64.1677 7.30377 63.6157 6.78377 62.9117 6.43176C62.2077 6.07977 61.4397 5.90377 60.6077 5.90377C59.3597 5.90377 58.2957 6.30377 57.4157 7.10376C56.5357 7.90376 56.0477 9.03177 55.9517 10.4878H65.1677ZM71.6254 6.98376C71.9934 6.16777 72.5534 5.53577 73.3054 5.08777C74.0734 4.63976 75.0094 4.41576 76.1134 4.41576V6.16777H75.6574C74.4414 6.16777 73.4654 6.49577 72.7294 7.15176C71.9934 7.80777 71.6254 8.90377 71.6254 10.4398V17.7598H69.9454V4.65577H71.6254V6.98376ZM83.1527 17.9518C81.6487 17.9518 80.4167 17.6078 79.4567 16.9198C78.5127 16.2158 77.9847 15.2638 77.8727 14.0638H79.6007C79.6807 14.7998 80.0247 15.3998 80.6327 15.8638C81.2567 16.3118 82.0887 16.5358 83.1287 16.5358C84.0407 16.5358 84.7527 16.3198 85.2647 15.8878C85.7927 15.4558 86.0567 14.9198 86.0567 14.2798C86.0567 13.8318 85.9127 13.4638 85.6247 13.1758C85.3367 12.8878 84.9687 12.6638 84.5207 12.5038C84.0887 12.3278 83.4967 12.1438 82.7447 11.9518C81.7687 11.6958 80.9767 11.4398 80.3687 11.1838C79.7607 10.9278 79.2407 10.5518 78.8087 10.0558C78.3927 9.54377 78.1847 8.86377 78.1847 8.01577C78.1847 7.37577 78.3767 6.78377 78.7607 6.23977C79.1447 5.69577 79.6887 5.26377 80.3927 4.94376C81.0967 4.62376 81.8967 4.46377 82.7927 4.46377C84.2007 4.46377 85.3367 4.82377 86.2007 5.54377C87.0647 6.24777 87.5287 7.22376 87.5927 8.47177H85.9127C85.8647 7.70376 85.5607 7.08776 85.0007 6.62377C84.4567 6.14377 83.7047 5.90377 82.7447 5.90377C81.8967 5.90377 81.2087 6.10377 80.6807 6.50377C80.1527 6.90376 79.8887 7.39977 79.8887 7.99177C79.8887 8.50377 80.0407 8.92777 80.3447 9.26377C80.6647 9.58377 81.0567 9.83977 81.5207 10.0318C81.9847 10.2078 82.6087 10.4078 83.3927 10.6318C84.3367 10.8878 85.0887 11.1358 85.6487 11.3758C86.2087 11.6158 86.6887 11.9678 87.0887 12.4318C87.4887 12.8958 87.6967 13.5118 87.7127 14.2798C87.7127 14.9838 87.5207 15.6158 87.1367 16.1758C86.7527 16.7198 86.2167 17.1518 85.5287 17.4718C84.8407 17.7918 84.0487 17.9518 83.1527 17.9518ZM96.693 11.2078C96.693 9.84777 96.965 8.66377 97.509 7.65576C98.053 6.63177 98.805 5.84776 99.765 5.30376C100.725 4.74376 101.821 4.46377 103.053 4.46377C104.669 4.46377 105.997 4.86377 107.037 5.66377C108.093 6.46377 108.773 7.55176 109.077 8.92776H107.277C107.053 7.98377 106.565 7.24777 105.813 6.71977C105.077 6.17577 104.157 5.90377 103.053 5.90377C102.173 5.90377 101.381 6.10377 100.677 6.50377C99.973 6.90376 99.413 7.50376 98.997 8.30377C98.597 9.08776 98.397 10.0558 98.397 11.2078C98.397 12.3598 98.597 13.3358 98.997 14.1358C99.413 14.9358 99.973 15.5358 100.677 15.9358C101.381 16.3358 102.173 16.5358 103.053 16.5358C104.157 16.5358 105.077 16.2718 105.813 15.7438C106.565 15.1998 107.053 14.4478 107.277 13.4878H109.077C108.773 14.8318 108.093 15.9118 107.037 16.7278C105.981 17.5438 104.653 17.9518 103.053 17.9518C101.821 17.9518 100.725 17.6798 99.765 17.1358C98.805 16.5758 98.053 15.7918 97.509 14.7838C96.965 13.7598 96.693 12.5678 96.693 11.2078ZM117.916 17.9518C116.684 17.9518 115.572 17.6798 114.58 17.1358C113.604 16.5758 112.828 15.7918 112.252 14.7838C111.692 13.7598 111.412 12.5678 111.412 11.2078C111.412 9.84777 111.7 8.66377 112.276 7.65576C112.852 6.63177 113.636 5.84776 114.628 5.30376C115.62 4.74376 116.732 4.46377 117.964 4.46377C119.196 4.46377 120.308 4.74376 121.3 5.30376C122.308 5.84776 123.092 6.63177 123.652 7.65576C124.228 8.66377 124.516 9.84777 124.516 11.2078C124.516 12.5518 124.228 13.7358 123.652 14.7598C123.076 15.7838 122.284 16.5758 121.276 17.1358C120.268 17.6798 119.148 17.9518 117.916 17.9518ZM117.916 16.4878C118.78 16.4878 119.58 16.2958 120.316 15.9118C121.052 15.5118 121.644 14.9198 122.092 14.1358C122.556 13.3358 122.788 12.3598 122.788 11.2078C122.788 10.0558 122.564 9.08776 122.116 8.30377C121.668 7.50376 121.076 6.91176 120.34 6.52777C119.604 6.12776 118.804 5.92776 117.94 5.92776C117.076 5.92776 116.276 6.12776 115.54 6.52777C114.804 6.91176 114.212 7.50376 113.764 8.30377C113.332 9.08776 113.116 10.0558 113.116 11.2078C113.116 12.3598 113.332 13.3358 113.764 14.1358C114.212 14.9198 114.796 15.5118 115.516 15.9118C116.252 16.2958 117.052 16.4878 117.916 16.4878ZM138.93 4.65577V17.7598H137.25V15.4558C136.866 16.2718 136.274 16.8958 135.474 17.3278C134.674 17.7598 133.778 17.9758 132.786 17.9758C131.218 17.9758 129.938 17.4958 128.946 16.5358C127.954 15.5598 127.458 14.1518 127.458 12.3118V4.65577H129.114V12.1198C129.114 13.5438 129.466 14.6318 130.17 15.3838C130.89 16.1358 131.866 16.5118 133.098 16.5118C134.362 16.5118 135.37 16.1118 136.122 15.3118C136.874 14.5118 137.25 13.3358 137.25 11.7838V4.65577H138.93ZM144.446 -0.000234604V17.7598H142.766V-0.000234604H144.446ZM147.482 11.1838C147.482 9.83977 147.754 8.66377 148.298 7.65576C148.842 6.63177 149.586 5.84776 150.53 5.30376C151.49 4.74376 152.57 4.46377 153.77 4.46377C154.922 4.46377 155.962 4.74376 156.89 5.30376C157.818 5.86376 158.498 6.59176 158.93 7.48776V-0.000234604H160.61V17.7598H158.93V14.8318C158.53 15.7438 157.874 16.4958 156.962 17.0878C156.05 17.6638 154.978 17.9518 153.746 17.9518C152.546 17.9518 151.466 17.6718 150.506 17.1118C149.562 16.5518 148.818 15.7598 148.274 14.7358C147.746 13.7118 147.482 12.5278 147.482 11.1838ZM158.93 11.2078C158.93 10.1518 158.714 9.22377 158.282 8.42376C157.85 7.62377 157.258 7.00777 156.506 6.57577C155.77 6.14376 154.954 5.92776 154.058 5.92776C153.13 5.92776 152.298 6.13577 151.562 6.55177C150.826 6.96777 150.242 7.57577 149.81 8.37576C149.394 9.15977 149.186 10.0958 149.186 11.1838C149.186 12.2558 149.394 13.1998 149.81 14.0158C150.242 14.8158 150.826 15.4318 151.562 15.8638C152.298 16.2798 153.13 16.4878 154.058 16.4878C154.954 16.4878 155.77 16.2718 156.506 15.8398C157.258 15.4078 157.85 14.7918 158.282 13.9918C158.714 13.1918 158.93 12.2638 158.93 11.2078ZM170.589 4.41576C172.157 4.41576 173.437 4.90376 174.429 5.87976C175.421 6.83976 175.917 8.23976 175.917 10.0798V17.7598H174.261V10.2718C174.261 8.84777 173.901 7.75977 173.181 7.00777C172.477 6.25576 171.509 5.87976 170.277 5.87976C169.013 5.87976 168.005 6.27976 167.253 7.07977C166.501 7.87977 166.125 9.05577 166.125 10.6078V17.7598H164.445V4.65577H166.125V6.88777C166.541 6.08777 167.141 5.47976 167.925 5.06376C168.709 4.63176 169.597 4.41576 170.589 4.41576ZM179.849 0.983764H181.793L179.681 6.16777H178.457L179.849 0.983764ZM186.551 6.07177V14.2078C186.551 15.0078 186.703 15.5598 187.007 15.8638C187.311 16.1678 187.847 16.3198 188.615 16.3198H190.151V17.7598H188.351C187.167 17.7598 186.287 17.4878 185.711 16.9438C185.135 16.3838 184.847 15.4718 184.847 14.2078V6.07177H183.023V4.65577H184.847V1.36776H186.551V4.65577H190.151V6.07177H186.551ZM198.74 11.1838C198.74 9.83977 199.012 8.66377 199.556 7.65576C200.1 6.63177 200.844 5.84776 201.788 5.30376C202.748 4.74376 203.828 4.46377 205.028 4.46377C206.18 4.46377 207.22 4.74376 208.148 5.30376C209.076 5.86376 209.756 6.59176 210.188 7.48776V-0.000234604H211.868V17.7598H210.188V14.8318C209.788 15.7438 209.132 16.4958 208.22 17.0878C207.308 17.6638 206.236 17.9518 205.004 17.9518C203.804 17.9518 202.724 17.6718 201.764 17.1118C200.82 16.5518 200.076 15.7598 199.532 14.7358C199.004 13.7118 198.74 12.5278 198.74 11.1838ZM210.188 11.2078C210.188 10.1518 209.972 9.22377 209.54 8.42376C209.108 7.62377 208.516 7.00777 207.764 6.57577C207.028 6.14376 206.212 5.92776 205.316 5.92776C204.388 5.92776 203.556 6.13577 202.82 6.55177C202.084 6.96777 201.5 7.57577 201.068 8.37576C200.652 9.15977 200.444 10.0958 200.444 11.1838C200.444 12.2558 200.652 13.1998 201.068 14.0158C201.5 14.8158 202.084 15.4318 202.82 15.8638C203.556 16.2798 204.388 16.4878 205.316 16.4878C206.212 16.4878 207.028 16.2718 207.764 15.8398C208.516 15.4078 209.108 14.7918 209.54 13.9918C209.972 13.1918 210.188 12.2638 210.188 11.2078ZM227.559 10.5358C227.559 11.1118 227.543 11.5518 227.511 11.8558H216.639C216.687 12.8478 216.927 13.6958 217.359 14.3998C217.791 15.1038 218.359 15.6398 219.063 16.0078C219.767 16.3598 220.535 16.5358 221.367 16.5358C222.455 16.5358 223.367 16.2718 224.103 15.7438C224.855 15.2158 225.351 14.5038 225.591 13.6078H227.367C227.047 14.8878 226.359 15.9358 225.303 16.7518C224.263 17.5518 222.951 17.9518 221.367 17.9518C220.135 17.9518 219.031 17.6798 218.055 17.1358C217.079 16.5758 216.311 15.7918 215.751 14.7838C215.207 13.7598 214.935 12.5678 214.935 11.2078C214.935 9.84777 215.207 8.65577 215.751 7.63177C216.295 6.60776 217.055 5.82376 218.031 5.27976C219.007 4.73576 220.119 4.46377 221.367 4.46377C222.615 4.46377 223.703 4.73576 224.631 5.27976C225.575 5.82376 226.295 6.55976 226.791 7.48776C227.303 8.39977 227.559 9.41577 227.559 10.5358ZM225.855 10.4878C225.871 9.51177 225.671 8.67977 225.255 7.99177C224.855 7.30377 224.303 6.78377 223.599 6.43176C222.895 6.07977 222.127 5.90377 221.295 5.90377C220.047 5.90377 218.983 6.30377 218.103 7.10376C217.223 7.90376 216.735 9.03177 216.639 10.4878H225.855ZM229.865 11.2078C229.865 9.84777 230.137 8.66377 230.681 7.65576C231.225 6.63177 231.977 5.84776 232.937 5.30376C233.897 4.74376 234.993 4.46377 236.225 4.46377C237.841 4.46377 239.169 4.86377 240.209 5.66377C241.265 6.46377 241.945 7.55176 242.249 8.92776H240.449C240.225 7.98377 239.737 7.24777 238.985 6.71977C238.249 6.17577 237.329 5.90377 236.225 5.90377C235.345 5.90377 234.553 6.10377 233.849 6.50377C233.145 6.90376 232.585 7.50376 232.169 8.30377C231.769 9.08776 231.569 10.0558 231.569 11.2078C231.569 12.3598 231.769 13.3358 232.169 14.1358C232.585 14.9358 233.145 15.5358 233.849 15.9358C234.553 16.3358 235.345 16.5358 236.225 16.5358C237.329 16.5358 238.249 16.2718 238.985 15.7438C239.737 15.1998 240.225 14.4478 240.449 13.4878H242.249C241.945 14.8318 241.265 15.9118 240.209 16.7278C239.153 17.5438 237.825 17.9518 236.225 17.9518C234.993 17.9518 233.897 17.6798 232.937 17.1358C231.977 16.5758 231.225 15.7918 230.681 14.7838C230.137 13.7598 229.865 12.5678 229.865 11.2078ZM251.088 17.9518C249.856 17.9518 248.744 17.6798 247.752 17.1358C246.776 16.5758 246 15.7918 245.424 14.7838C244.864 13.7598 244.584 12.5678 244.584 11.2078C244.584 9.84777 244.872 8.66377 245.448 7.65576C246.024 6.63177 246.808 5.84776 247.8 5.30376C248.792 4.74376 249.904 4.46377 251.136 4.46377C252.368 4.46377 253.48 4.74376 254.472 5.30376C255.48 5.84776 256.264 6.63177 256.824 7.65576C257.4 8.66377 257.688 9.84777 257.688 11.2078C257.688 12.5518 257.4 13.7358 256.824 14.7598C256.248 15.7838 255.456 16.5758 254.448 17.1358C253.44 17.6798 252.32 17.9518 251.088 17.9518ZM251.088 16.4878C251.952 16.4878 252.752 16.2958 253.488 15.9118C254.224 15.5118 254.816 14.9198 255.264 14.1358C255.728 13.3358 255.96 12.3598 255.96 11.2078C255.96 10.0558 255.736 9.08776 255.288 8.30377C254.84 7.50376 254.248 6.91176 253.512 6.52777C252.776 6.12776 251.976 5.92776 251.112 5.92776C250.248 5.92776 249.448 6.12776 248.712 6.52777C247.976 6.91176 247.384 7.50376 246.936 8.30377C246.504 9.08776 246.288 10.0558 246.288 11.2078C246.288 12.3598 246.504 13.3358 246.936 14.1358C247.384 14.9198 247.968 15.5118 248.688 15.9118C249.424 16.2958 250.224 16.4878 251.088 16.4878ZM259.982 11.1838C259.982 9.83977 260.254 8.66377 260.798 7.65576C261.342 6.63177 262.086 5.84776 263.03 5.30376C263.99 4.74376 265.07 4.46377 266.27 4.46377C267.422 4.46377 268.462 4.74376 269.39 5.30376C270.318 5.86376 270.998 6.59176 271.43 7.48776V-0.000234604H273.11V17.7598H271.43V14.8318C271.03 15.7438 270.374 16.4958 269.462 17.0878C268.55 17.6638 267.478 17.9518 266.246 17.9518C265.046 17.9518 263.966 17.6718 263.006 17.1118C262.062 16.5518 261.318 15.7598 260.774 14.7358C260.246 13.7118 259.982 12.5278 259.982 11.1838ZM271.43 11.2078C271.43 10.1518 271.214 9.22377 270.782 8.42376C270.35 7.62377 269.758 7.00777 269.006 6.57577C268.27 6.14376 267.454 5.92776 266.558 5.92776C265.63 5.92776 264.798 6.13577 264.062 6.55177C263.326 6.96777 262.742 7.57577 262.31 8.37576C261.894 9.15977 261.686 10.0958 261.686 11.1838C261.686 12.2558 261.894 13.1998 262.31 14.0158C262.742 14.8158 263.326 15.4318 264.062 15.8638C264.798 16.2798 265.63 16.4878 266.558 16.4878C267.454 16.4878 268.27 16.2718 269.006 15.8398C269.758 15.4078 270.35 14.7918 270.782 13.9918C271.214 13.1918 271.43 12.2638 271.43 11.2078ZM288.801 10.5358C288.801 11.1118 288.785 11.5518 288.753 11.8558H277.881C277.929 12.8478 278.169 13.6958 278.601 14.3998C279.033 15.1038 279.601 15.6398 280.305 16.0078C281.009 16.3598 281.777 16.5358 282.609 16.5358C283.697 16.5358 284.609 16.2718 285.345 15.7438C286.097 15.2158 286.593 14.5038 286.833 13.6078H288.609C288.289 14.8878 287.601 15.9358 286.545 16.7518C285.505 17.5518 284.193 17.9518 282.609 17.9518C281.377 17.9518 280.273 17.6798 279.297 17.1358C278.321 16.5758 277.553 15.7918 276.993 14.7838C276.449 13.7598 276.177 12.5678 276.177 11.2078C276.177 9.84777 276.449 8.65577 276.993 7.63177C277.537 6.60776 278.297 5.82376 279.273 5.27976C280.249 4.73576 281.361 4.46377 282.609 4.46377C283.857 4.46377 284.945 4.73576 285.873 5.27976C286.817 5.82376 287.537 6.55976 288.033 7.48776C288.545 8.39977 288.801 9.41577 288.801 10.5358ZM287.097 10.4878C287.113 9.51177 286.913 8.67977 286.497 7.99177C286.097 7.30377 285.545 6.78377 284.841 6.43176C284.137 6.07977 283.369 5.90377 282.537 5.90377C281.289 5.90377 280.225 6.30377 279.345 7.10376C278.465 7.90376 277.977 9.03177 277.881 10.4878H287.097ZM3.52783 46.0718V54.2078C3.52783 55.0078 3.67983 55.5598 3.98383 55.8638C4.28783 56.1678 4.82383 56.3198 5.59183 56.3198H7.12783V57.7598H5.32783C4.14383 57.7598 3.26383 57.4878 2.68783 56.9438C2.11183 56.3838 1.82383 55.4718 1.82383 54.2078V46.0718H-0.00017187V44.6558H1.82383V41.3678H3.52783V44.6558H7.12783V46.0718H3.52783ZM16.1385 44.4158C17.1305 44.4158 18.0185 44.6238 18.8025 45.0398C19.6025 45.4558 20.2265 46.0958 20.6745 46.9598C21.1385 47.8078 21.3705 48.8478 21.3705 50.0798V57.7598H19.7145V50.2718C19.7145 48.8478 19.3545 47.7598 18.6345 47.0078C17.9305 46.2558 16.9625 45.8798 15.7305 45.8798C14.4665 45.8798 13.4585 46.2798 12.7065 47.0798C11.9545 47.8798 11.5785 49.0558 11.5785 50.6078V57.7598H9.89852V39.9998H11.5785V46.8878C11.9945 46.1038 12.6025 45.4958 13.4025 45.0638C14.2185 44.6318 15.1305 44.4158 16.1385 44.4158ZM36.942 50.5358C36.942 51.1118 36.926 51.5518 36.894 51.8558H26.022C26.07 52.8478 26.31 53.6958 26.742 54.3998C27.174 55.1038 27.742 55.6398 28.446 56.0078C29.15 56.3598 29.918 56.5358 30.75 56.5358C31.838 56.5358 32.75 56.2718 33.486 55.7438C34.238 55.2158 34.734 54.5038 34.974 53.6078H36.75C36.43 54.8878 35.742 55.9358 34.686 56.7518C33.646 57.5518 32.334 57.9518 30.75 57.9518C29.518 57.9518 28.414 57.6798 27.438 57.1358C26.462 56.5758 25.694 55.7918 25.134 54.7838C24.59 53.7598 24.318 52.5678 24.318 51.2078C24.318 49.8478 24.59 48.6558 25.134 47.6318C25.678 46.6078 26.438 45.8238 27.414 45.2798C28.39 44.7358 29.502 44.4638 30.75 44.4638C31.998 44.4638 33.086 44.7358 34.014 45.2798C34.958 45.8238 35.678 46.5598 36.174 47.4878C36.686 48.3998 36.942 49.4158 36.942 50.5358ZM35.238 50.4878C35.254 49.5118 35.054 48.6798 34.638 47.9918C34.238 47.3038 33.686 46.7838 32.982 46.4318C32.278 46.0798 31.51 45.9038 30.678 45.9038C29.43 45.9038 28.366 46.3038 27.486 47.1038C26.606 47.9038 26.118 49.0318 26.022 50.4878H35.238ZM45.8336 51.1838C45.8336 49.8398 46.1056 48.6638 46.6496 47.6558C47.1936 46.6318 47.9376 45.8478 48.8816 45.3038C49.8416 44.7438 50.9216 44.4638 52.1216 44.4638C53.2736 44.4638 54.3136 44.7438 55.2416 45.3038C56.1696 45.8638 56.8496 46.5918 57.2816 47.4878V39.9998H58.9616V57.7598H57.2816V54.8318C56.8816 55.7438 56.2256 56.4958 55.3136 57.0878C54.4016 57.6638 53.3296 57.9518 52.0976 57.9518C50.8976 57.9518 49.8176 57.6718 48.8576 57.1118C47.9136 56.5518 47.1696 55.7598 46.6256 54.7358C46.0976 53.7118 45.8336 52.5278 45.8336 51.1838ZM57.2816 51.2078C57.2816 50.1518 57.0656 49.2238 56.6336 48.4238C56.2016 47.6238 55.6096 47.0078 54.8576 46.5758C54.1216 46.1438 53.3056 45.9278 52.4096 45.9278C51.4816 45.9278 50.6496 46.1358 49.9136 46.5518C49.1776 46.9678 48.5936 47.5758 48.1616 48.3758C47.7456 49.1598 47.5376 50.0958 47.5376 51.1838C47.5376 52.2558 47.7456 53.1998 48.1616 54.0158C48.5936 54.8158 49.1776 55.4318 49.9136 55.8638C50.6496 56.2798 51.4816 56.4878 52.4096 56.4878C53.3056 56.4878 54.1216 56.2718 54.8576 55.8398C55.6096 55.4078 56.2016 54.7918 56.6336 53.9918C57.0656 53.1918 57.2816 52.2638 57.2816 51.2078ZM63.637 42.1838C63.301 42.1838 63.013 42.0638 62.773 41.8238C62.533 41.5838 62.413 41.2878 62.413 40.9358C62.413 40.5838 62.533 40.2958 62.773 40.0718C63.013 39.8318 63.301 39.7118 63.637 39.7118C63.973 39.7118 64.261 39.8318 64.501 40.0718C64.741 40.2958 64.861 40.5838 64.861 40.9358C64.861 41.2878 64.741 41.5838 64.501 41.8238C64.261 42.0638 63.973 42.1838 63.637 42.1838ZM64.477 44.6558V57.7598H62.797V44.6558H64.477ZM73.4413 46.0718H70.3933V57.7598H68.7133V46.0718H66.8893V44.6558H68.7133V43.7438C68.7133 42.3198 69.0733 41.2718 69.7933 40.5998C70.5293 39.9278 71.7133 39.5918 73.3453 39.5918V41.0318C72.2573 41.0318 71.4893 41.2398 71.0413 41.6558C70.6093 42.0718 70.3933 42.7678 70.3933 43.7438V44.6558H73.4413V46.0718ZM81.246 46.0718H78.198V57.7598H76.518V46.0718H74.694V44.6558H76.518V43.7438C76.518 42.3198 76.878 41.2718 77.598 40.5998C78.334 39.9278 79.518 39.5918 81.15 39.5918V41.0318C80.062 41.0318 79.294 41.2398 78.846 41.6558C78.414 42.0718 78.198 42.7678 78.198 43.7438V44.6558H81.246V46.0718ZM95.7467 50.5358C95.7467 51.1118 95.7307 51.5518 95.6987 51.8558H84.8267C84.8747 52.8478 85.1147 53.6958 85.5467 54.3998C85.9787 55.1038 86.5467 55.6398 87.2507 56.0078C87.9547 56.3598 88.7227 56.5358 89.5547 56.5358C90.6427 56.5358 91.5547 56.2718 92.2907 55.7438C93.0427 55.2158 93.5387 54.5038 93.7787 53.6078H95.5547C95.2347 54.8878 94.5467 55.9358 93.4907 56.7518C92.4507 57.5518 91.1387 57.9518 89.5547 57.9518C88.3227 57.9518 87.2187 57.6798 86.2427 57.1358C85.2667 56.5758 84.4987 55.7918 83.9387 54.7838C83.3947 53.7598 83.1227 52.5678 83.1227 51.2078C83.1227 49.8478 83.3947 48.6558 83.9387 47.6318C84.4827 46.6078 85.2427 45.8238 86.2187 45.2798C87.1947 44.7358 88.3067 44.4638 89.5547 44.4638C90.8027 44.4638 91.8907 44.7358 92.8187 45.2798C93.7627 45.8238 94.4827 46.5598 94.9787 47.4878C95.4907 48.3998 95.7467 49.4158 95.7467 50.5358ZM94.0427 50.4878C94.0587 49.5118 93.8587 48.6798 93.4427 47.9918C93.0427 47.3038 92.4907 46.7838 91.7867 46.4318C91.0827 46.0798 90.3147 45.9038 89.4827 45.9038C88.2347 45.9038 87.1707 46.3038 86.2907 47.1038C85.4107 47.9038 84.9227 49.0318 84.8267 50.4878H94.0427ZM100.5 46.9838C100.868 46.1678 101.428 45.5358 102.18 45.0878C102.948 44.6398 103.884 44.4158 104.988 44.4158V46.1678H104.532C103.316 46.1678 102.34 46.4958 101.604 47.1518C100.868 47.8078 100.5 48.9038 100.5 50.4398V57.7598H98.8204V44.6558H100.5V46.9838ZM119.372 50.5358C119.372 51.1118 119.356 51.5518 119.324 51.8558H108.452C108.5 52.8478 108.74 53.6958 109.172 54.3998C109.604 55.1038 110.172 55.6398 110.876 56.0078C111.58 56.3598 112.348 56.5358 113.18 56.5358C114.268 56.5358 115.18 56.2718 115.916 55.7438C116.668 55.2158 117.164 54.5038 117.404 53.6078H119.18C118.86 54.8878 118.172 55.9358 117.116 56.7518C116.076 57.5518 114.764 57.9518 113.18 57.9518C111.948 57.9518 110.844 57.6798 109.868 57.1358C108.892 56.5758 108.124 55.7918 107.564 54.7838C107.02 53.7598 106.748 52.5678 106.748 51.2078C106.748 49.8478 107.02 48.6558 107.564 47.6318C108.108 46.6078 108.868 45.8238 109.844 45.2798C110.82 44.7358 111.932 44.4638 113.18 44.4638C114.428 44.4638 115.516 44.7358 116.444 45.2798C117.388 45.8238 118.108 46.5598 118.604 47.4878C119.116 48.3998 119.372 49.4158 119.372 50.5358ZM117.668 50.4878C117.684 49.5118 117.484 48.6798 117.068 47.9918C116.668 47.3038 116.116 46.7838 115.412 46.4318C114.708 46.0798 113.94 45.9038 113.108 45.9038C111.86 45.9038 110.796 46.3038 109.916 47.1038C109.036 47.9038 108.548 49.0318 108.452 50.4878H117.668ZM128.589 44.4158C130.157 44.4158 131.437 44.9038 132.429 45.8798C133.421 46.8398 133.917 48.2398 133.917 50.0798V57.7598H132.261V50.2718C132.261 48.8478 131.901 47.7598 131.181 47.0078C130.477 46.2558 129.509 45.8798 128.277 45.8798C127.013 45.8798 126.005 46.2798 125.253 47.0798C124.501 47.8798 124.125 49.0558 124.125 50.6078V57.7598H122.445V44.6558H124.125V46.8878C124.541 46.0878 125.141 45.4798 125.925 45.0638C126.709 44.6318 127.597 44.4158 128.589 44.4158ZM136.865 51.2078C136.865 49.8478 137.137 48.6638 137.681 47.6558C138.225 46.6318 138.977 45.8478 139.937 45.3038C140.897 44.7438 141.993 44.4638 143.225 44.4638C144.841 44.4638 146.169 44.8638 147.209 45.6638C148.265 46.4638 148.945 47.5518 149.249 48.9278H147.449C147.225 47.9838 146.737 47.2478 145.985 46.7198C145.249 46.1758 144.329 45.9038 143.225 45.9038C142.345 45.9038 141.553 46.1038 140.849 46.5038C140.145 46.9038 139.585 47.5038 139.169 48.3038C138.769 49.0878 138.569 50.0558 138.569 51.2078C138.569 52.3598 138.769 53.3358 139.169 54.1358C139.585 54.9358 140.145 55.5358 140.849 55.9358C141.553 56.3358 142.345 56.5358 143.225 56.5358C144.329 56.5358 145.249 56.2718 145.985 55.7438C146.737 55.1998 147.225 54.4478 147.449 53.4878H149.249C148.945 54.8318 148.265 55.9118 147.209 56.7278C146.153 57.5438 144.825 57.9518 143.225 57.9518C141.993 57.9518 140.897 57.6798 139.937 57.1358C138.977 56.5758 138.225 55.7918 137.681 54.7838C137.137 53.7598 136.865 52.5678 136.865 51.2078ZM164.208 50.5358C164.208 51.1118 164.192 51.5518 164.16 51.8558H153.288C153.336 52.8478 153.576 53.6958 154.008 54.3998C154.44 55.1038 155.008 55.6398 155.712 56.0078C156.416 56.3598 157.184 56.5358 158.016 56.5358C159.104 56.5358 160.016 56.2718 160.752 55.7438C161.504 55.2158 162 54.5038 162.24 53.6078H164.016C163.696 54.8878 163.008 55.9358 161.952 56.7518C160.912 57.5518 159.6 57.9518 158.016 57.9518C156.784 57.9518 155.68 57.6798 154.704 57.1358C153.728 56.5758 152.96 55.7918 152.4 54.7838C151.856 53.7598 151.584 52.5678 151.584 51.2078C151.584 49.8478 151.856 48.6558 152.4 47.6318C152.944 46.6078 153.704 45.8238 154.68 45.2798C155.656 44.7358 156.768 44.4638 158.016 44.4638C159.264 44.4638 160.352 44.7358 161.28 45.2798C162.224 45.8238 162.944 46.5598 163.44 47.4878C163.952 48.3998 164.208 49.4158 164.208 50.5358ZM162.504 50.4878C162.52 49.5118 162.32 48.6798 161.904 47.9918C161.504 47.3038 160.952 46.7838 160.248 46.4318C159.544 46.0798 158.776 45.9038 157.944 45.9038C156.696 45.9038 155.632 46.3038 154.752 47.1038C153.872 47.9038 153.384 49.0318 153.288 50.4878H162.504ZM173.099 51.1838C173.099 49.8398 173.363 48.6638 173.891 47.6558C174.435 46.6318 175.179 45.8478 176.123 45.3038C177.083 44.7438 178.163 44.4638 179.363 44.4638C180.611 44.4638 181.683 44.7518 182.579 45.3278C183.491 45.9038 184.147 46.6398 184.547 47.5358V44.6558H186.227V57.7598H184.547V54.8558C184.131 55.7518 183.467 56.4958 182.555 57.0878C181.659 57.6638 180.587 57.9518 179.339 57.9518C178.155 57.9518 177.083 57.6718 176.123 57.1118C175.179 56.5518 174.435 55.7598 173.891 54.7358C173.363 53.7118 173.099 52.5278 173.099 51.1838ZM184.547 51.2078C184.547 50.1518 184.331 49.2238 183.899 48.4238C183.467 47.6238 182.875 47.0078 182.123 46.5758C181.387 46.1438 180.571 45.9278 179.675 45.9278C178.747 45.9278 177.915 46.1358 177.179 46.5518C176.443 46.9678 175.859 47.5758 175.427 48.3758C175.011 49.1598 174.803 50.0958 174.803 51.1838C174.803 52.2558 175.011 53.1998 175.427 54.0158C175.859 54.8158 176.443 55.4318 177.179 55.8638C177.915 56.2798 178.747 56.4878 179.675 56.4878C180.571 56.4878 181.387 56.2718 182.123 55.8398C182.875 55.4078 183.467 54.7918 183.899 53.9918C184.331 53.1918 184.547 52.2638 184.547 51.2078ZM196.207 44.4158C197.775 44.4158 199.055 44.9038 200.047 45.8798C201.039 46.8398 201.535 48.2398 201.535 50.0798V57.7598H199.879V50.2718C199.879 48.8478 199.519 47.7598 198.799 47.0078C198.095 46.2558 197.127 45.8798 195.895 45.8798C194.631 45.8798 193.623 46.2798 192.871 47.0798C192.119 47.8798 191.743 49.0558 191.743 50.6078V57.7598H190.063V44.6558H191.743V46.8878C192.159 46.0878 192.759 45.4798 193.543 45.0638C194.327 44.6318 195.215 44.4158 196.207 44.4158ZM204.482 51.1838C204.482 49.8398 204.754 48.6638 205.298 47.6558C205.842 46.6318 206.586 45.8478 207.53 45.3038C208.49 44.7438 209.57 44.4638 210.77 44.4638C211.922 44.4638 212.962 44.7438 213.89 45.3038C214.818 45.8638 215.498 46.5918 215.93 47.4878V39.9998H217.61V57.7598H215.93V54.8318C215.53 55.7438 214.874 56.4958 213.962 57.0878C213.05 57.6638 211.978 57.9518 210.746 57.9518C209.546 57.9518 208.466 57.6718 207.506 57.1118C206.562 56.5518 205.818 55.7598 205.274 54.7358C204.746 53.7118 204.482 52.5278 204.482 51.1838ZM215.93 51.2078C215.93 50.1518 215.714 49.2238 215.282 48.4238C214.85 47.6238 214.258 47.0078 213.506 46.5758C212.77 46.1438 211.954 45.9278 211.058 45.9278C210.13 45.9278 209.298 46.1358 208.562 46.5518C207.826 46.9678 207.242 47.5758 206.81 48.3758C206.394 49.1598 206.186 50.0958 206.186 51.1838C206.186 52.2558 206.394 53.1998 206.81 54.0158C207.242 54.8158 207.826 55.4318 208.562 55.8638C209.298 56.2798 210.13 56.4878 211.058 56.4878C211.954 56.4878 212.77 56.2718 213.506 55.8398C214.258 55.4078 214.85 54.7918 215.282 53.9918C215.714 53.1918 215.93 52.2638 215.93 51.2078ZM233.527 44.4638C234.759 44.4638 235.831 44.7518 236.743 45.3278C237.655 45.9038 238.311 46.6318 238.711 47.5118V44.6558H240.391V58.0958C240.391 59.2958 240.127 60.3598 239.599 61.2878C239.087 62.2158 238.367 62.9278 237.439 63.4238C236.511 63.9358 235.455 64.1918 234.271 64.1918C232.591 64.1918 231.191 63.7918 230.071 62.9918C228.967 62.1918 228.279 61.1038 228.007 59.7278H229.663C229.951 60.6398 230.495 61.3678 231.295 61.9118C232.111 62.4558 233.103 62.7278 234.271 62.7278C235.119 62.7278 235.879 62.5438 236.551 62.1758C237.223 61.8238 237.751 61.2958 238.135 60.5918C238.519 59.8878 238.711 59.0558 238.711 58.0958V54.8558C238.295 55.7518 237.631 56.4958 236.719 57.0878C235.823 57.6638 234.759 57.9518 233.527 57.9518C232.327 57.9518 231.247 57.6718 230.287 57.1118C229.343 56.5518 228.599 55.7598 228.055 54.7358C227.527 53.7118 227.263 52.5278 227.263 51.1838C227.263 49.8398 227.527 48.6638 228.055 47.6558C228.599 46.6318 229.343 45.8478 230.287 45.3038C231.247 44.7438 232.327 44.4638 233.527 44.4638ZM238.711 51.2078C238.711 50.1518 238.495 49.2238 238.063 48.4238C237.631 47.6238 237.039 47.0078 236.287 46.5758C235.551 46.1438 234.735 45.9278 233.839 45.9278C232.911 45.9278 232.079 46.1358 231.343 46.5518C230.607 46.9678 230.023 47.5758 229.591 48.3758C229.175 49.1598 228.967 50.0958 228.967 51.1838C228.967 52.2558 229.175 53.1998 229.591 54.0158C230.023 54.8158 230.607 55.4318 231.343 55.8638C232.079 56.2798 232.911 56.4878 233.839 56.4878C234.735 56.4878 235.551 56.2718 236.287 55.8398C237.039 55.4078 237.631 54.7918 238.063 53.9918C238.495 53.1918 238.711 52.2638 238.711 51.2078ZM243.459 51.1838C243.459 49.8398 243.723 48.6638 244.251 47.6558C244.795 46.6318 245.539 45.8478 246.483 45.3038C247.443 44.7438 248.523 44.4638 249.723 44.4638C250.971 44.4638 252.043 44.7518 252.939 45.3278C253.851 45.9038 254.507 46.6398 254.907 47.5358V44.6558H256.587V57.7598H254.907V54.8558C254.491 55.7518 253.827 56.4958 252.915 57.0878C252.019 57.6638 250.947 57.9518 249.699 57.9518C248.515 57.9518 247.443 57.6718 246.483 57.1118C245.539 56.5518 244.795 55.7598 244.251 54.7358C243.723 53.7118 243.459 52.5278 243.459 51.1838ZM254.907 51.2078C254.907 50.1518 254.691 49.2238 254.259 48.4238C253.827 47.6238 253.235 47.0078 252.483 46.5758C251.747 46.1438 250.931 45.9278 250.035 45.9278C249.107 45.9278 248.275 46.1358 247.539 46.5518C246.803 46.9678 246.219 47.5758 245.787 48.3758C245.371 49.1598 245.163 50.0958 245.163 51.1838C245.163 52.2558 245.371 53.1998 245.787 54.0158C246.219 54.8158 246.803 55.4318 247.539 55.8638C248.275 56.2798 249.107 56.4878 250.035 56.4878C250.931 56.4878 251.747 56.2718 252.483 55.8398C253.235 55.4078 253.827 54.7918 254.259 53.9918C254.691 53.1918 254.907 52.2638 254.907 51.2078ZM265.078 56.1278L269.494 44.6558H271.27L266.014 57.7598H264.118L258.862 44.6558H260.662L265.078 56.1278ZM285.403 50.5358C285.403 51.1118 285.387 51.5518 285.355 51.8558H274.483C274.531 52.8478 274.771 53.6958 275.203 54.3998C275.635 55.1038 276.203 55.6398 276.907 56.0078C277.611 56.3598 278.379 56.5358 279.211 56.5358C280.299 56.5358 281.211 56.2718 281.947 55.7438C282.699 55.2158 283.195 54.5038 283.435 53.6078H285.211C284.891 54.8878 284.203 55.9358 283.147 56.7518C282.107 57.5518 280.795 57.9518 279.211 57.9518C277.979 57.9518 276.875 57.6798 275.899 57.1358C274.923 56.5758 274.155 55.7918 273.595 54.7838C273.051 53.7598 272.779 52.5678 272.779 51.2078C272.779 49.8478 273.051 48.6558 273.595 47.6318C274.139 46.6078 274.899 45.8238 275.875 45.2798C276.851 44.7358 277.963 44.4638 279.211 44.4638C280.459 44.4638 281.547 44.7358 282.475 45.2798C283.419 45.8238 284.139 46.5598 284.635 47.4878C285.147 48.3998 285.403 49.4158 285.403 50.5358ZM283.699 50.4878C283.715 49.5118 283.515 48.6798 283.099 47.9918C282.699 47.3038 282.147 46.7838 281.443 46.4318C280.739 46.0798 279.971 45.9038 279.139 45.9038C277.891 45.9038 276.827 46.3038 275.947 47.1038C275.067 47.9038 274.579 49.0318 274.483 50.4878H283.699ZM12.6958 84.6558V97.7598H11.0158V95.4558C10.6318 96.2718 10.0398 96.8958 9.23983 97.3278C8.43983 97.7598 7.54383 97.9758 6.55183 97.9758C4.98383 97.9758 3.70383 97.4958 2.71183 96.5358C1.71983 95.5598 1.22383 94.1518 1.22383 92.3118V84.6558H2.87983V92.1198C2.87983 93.5438 3.23183 94.6318 3.93583 95.3838C4.65583 96.1358 5.63183 96.5118 6.86383 96.5118C8.12783 96.5118 9.13583 96.1118 9.88783 95.3118C10.6398 94.5118 11.0158 93.3358 11.0158 91.7838V84.6558H12.6958ZM18.1873 87.5358C18.6033 86.6558 19.2593 85.9278 20.1553 85.3518C21.0673 84.7598 22.1473 84.4638 23.3953 84.4638C24.5793 84.4638 25.6433 84.7438 26.5873 85.3038C27.5473 85.8478 28.2913 86.6318 28.8193 87.6558C29.3633 88.6638 29.6353 89.8398 29.6353 91.1838C29.6353 92.5278 29.3633 93.7118 28.8193 94.7358C28.2913 95.7598 27.5473 96.5518 26.5873 97.1118C25.6433 97.6718 24.5793 97.9518 23.3953 97.9518C22.1633 97.9518 21.0913 97.6638 20.1793 97.0878C19.2673 96.4958 18.6033 95.7598 18.1873 94.8798V103.952H16.5313V84.6558H18.1873V87.5358ZM27.9313 91.1838C27.9313 90.0958 27.7153 89.1598 27.2833 88.3758C26.8673 87.5758 26.2913 86.9678 25.5553 86.5518C24.8193 86.1358 23.9873 85.9278 23.0593 85.9278C22.1633 85.9278 21.3393 86.1438 20.5873 86.5758C19.8513 87.0078 19.2673 87.6238 18.8353 88.4238C18.4033 89.2238 18.1873 90.1518 18.1873 91.2078C18.1873 92.2638 18.4033 93.1918 18.8353 93.9918C19.2673 94.7918 19.8513 95.4078 20.5873 95.8398C21.3393 96.2718 22.1633 96.4878 23.0593 96.4878C23.9873 96.4878 24.8193 96.2798 25.5553 95.8638C26.2913 95.4318 26.8673 94.8158 27.2833 94.0158C27.7153 93.1998 27.9313 92.2558 27.9313 91.1838ZM38.5446 91.2078C38.5446 89.8478 38.8166 88.6638 39.3606 87.6558C39.9046 86.6318 40.6566 85.8478 41.6166 85.3038C42.5766 84.7438 43.6726 84.4638 44.9046 84.4638C46.5206 84.4638 47.8486 84.8638 48.8886 85.6638C49.9446 86.4638 50.6246 87.5518 50.9286 88.9278H49.1286C48.9046 87.9838 48.4166 87.2478 47.6646 86.7198C46.9286 86.1758 46.0086 85.9038 44.9046 85.9038C44.0246 85.9038 43.2326 86.1038 42.5286 86.5038C41.8246 86.9038 41.2646 87.5038 40.8486 88.3038C40.4486 89.0878 40.2486 90.0558 40.2486 91.2078C40.2486 92.3598 40.4486 93.3358 40.8486 94.1358C41.2646 94.9358 41.8246 95.5358 42.5286 95.9358C43.2326 96.3358 44.0246 96.5358 44.9046 96.5358C46.0086 96.5358 46.9286 96.2718 47.6646 95.7438C48.4166 95.1998 48.9046 94.4478 49.1286 93.4878H50.9286C50.6246 94.8318 49.9446 95.9118 48.8886 96.7278C47.8326 97.5438 46.5046 97.9518 44.9046 97.9518C43.6726 97.9518 42.5766 97.6798 41.6166 97.1358C40.6566 96.5758 39.9046 95.7918 39.3606 94.7838C38.8166 93.7598 38.5446 92.5678 38.5446 91.2078ZM60.2713 84.4158C61.2633 84.4158 62.1513 84.6238 62.9353 85.0398C63.7353 85.4558 64.3593 86.0958 64.8073 86.9598C65.2713 87.8078 65.5033 88.8478 65.5033 90.0798V97.7598H63.8473V90.2718C63.8473 88.8478 63.4873 87.7598 62.7673 87.0078C62.0633 86.2558 61.0953 85.8798 59.8633 85.8798C58.5993 85.8798 57.5913 86.2798 56.8393 87.0798C56.0873 87.8798 55.7113 89.0558 55.7113 90.6078V97.7598H54.0313V79.9998H55.7113V86.8878C56.1273 86.1038 56.7353 85.4958 57.5353 85.0638C58.3513 84.6318 59.2633 84.4158 60.2713 84.4158ZM74.9548 97.9518C73.7228 97.9518 72.6108 97.6798 71.6188 97.1358C70.6428 96.5758 69.8668 95.7918 69.2908 94.7838C68.7308 93.7598 68.4508 92.5678 68.4508 91.2078C68.4508 89.8478 68.7388 88.6638 69.3148 87.6558C69.8908 86.6318 70.6748 85.8478 71.6668 85.3038C72.6588 84.7438 73.7708 84.4638 75.0028 84.4638C76.2348 84.4638 77.3468 84.7438 78.3388 85.3038C79.3468 85.8478 80.1308 86.6318 80.6908 87.6558C81.2668 88.6638 81.5548 89.8478 81.5548 91.2078C81.5548 92.5518 81.2668 93.7358 80.6908 94.7598C80.1148 95.7838 79.3228 96.5758 78.3148 97.1358C77.3068 97.6798 76.1868 97.9518 74.9548 97.9518ZM74.9548 96.4878C75.8188 96.4878 76.6188 96.2958 77.3548 95.9118C78.0908 95.5118 78.6828 94.9198 79.1308 94.1358C79.5948 93.3358 79.8268 92.3598 79.8268 91.2078C79.8268 90.0558 79.6028 89.0878 79.1548 88.3038C78.7068 87.5038 78.1148 86.9118 77.3788 86.5278C76.6428 86.1278 75.8428 85.9278 74.9788 85.9278C74.1148 85.9278 73.3148 86.1278 72.5788 86.5278C71.8428 86.9118 71.2508 87.5038 70.8028 88.3038C70.3708 89.0878 70.1548 90.0558 70.1548 91.2078C70.1548 92.3598 70.3708 93.3358 70.8028 94.1358C71.2508 94.9198 71.8348 95.5118 72.5548 95.9118C73.2908 96.2958 74.0908 96.4878 74.9548 96.4878ZM90.3533 97.9518C89.1213 97.9518 88.0093 97.6798 87.0173 97.1358C86.0413 96.5758 85.2653 95.7918 84.6893 94.7838C84.1293 93.7598 83.8493 92.5678 83.8493 91.2078C83.8493 89.8478 84.1373 88.6638 84.7133 87.6558C85.2893 86.6318 86.0733 85.8478 87.0653 85.3038C88.0573 84.7438 89.1693 84.4638 90.4013 84.4638C91.6333 84.4638 92.7453 84.7438 93.7373 85.3038C94.7453 85.8478 95.5293 86.6318 96.0893 87.6558C96.6653 88.6638 96.9533 89.8478 96.9533 91.2078C96.9533 92.5518 96.6653 93.7358 96.0893 94.7598C95.5133 95.7838 94.7213 96.5758 93.7133 97.1358C92.7053 97.6798 91.5853 97.9518 90.3533 97.9518ZM90.3533 96.4878C91.2173 96.4878 92.0173 96.2958 92.7533 95.9118C93.4893 95.5118 94.0813 94.9198 94.5293 94.1358C94.9933 93.3358 95.2253 92.3598 95.2253 91.2078C95.2253 90.0558 95.0013 89.0878 94.5533 88.3038C94.1053 87.5038 93.5133 86.9118 92.7773 86.5278C92.0413 86.1278 91.2413 85.9278 90.3773 85.9278C89.5133 85.9278 88.7133 86.1278 87.9773 86.5278C87.2413 86.9118 86.6493 87.5038 86.2013 88.3038C85.7693 89.0878 85.5533 90.0558 85.5533 91.2078C85.5533 92.3598 85.7693 93.3358 86.2013 94.1358C86.6493 94.9198 87.2333 95.5118 87.9533 95.9118C88.6893 96.2958 89.4893 96.4878 90.3533 96.4878ZM104.528 97.9518C103.024 97.9518 101.792 97.6078 100.832 96.9198C99.8877 96.2158 99.3597 95.2638 99.2477 94.0638H100.976C101.056 94.7998 101.4 95.3998 102.008 95.8638C102.632 96.3118 103.464 96.5358 104.504 96.5358C105.416 96.5358 106.128 96.3198 106.64 95.8878C107.168 95.4558 107.432 94.9198 107.432 94.2798C107.432 93.8318 107.288 93.4638 107 93.1758C106.712 92.8878 106.344 92.6638 105.896 92.5038C105.464 92.3278 104.872 92.1438 104.12 91.9518C103.144 91.6958 102.352 91.4398 101.744 91.1838C101.136 90.9278 100.616 90.5518 100.184 90.0558C99.7677 89.5438 99.5597 88.8638 99.5597 88.0158C99.5597 87.3758 99.7517 86.7838 100.136 86.2398C100.52 85.6958 101.064 85.2638 101.768 84.9438C102.472 84.6238 103.272 84.4638 104.168 84.4638C105.576 84.4638 106.712 84.8238 107.576 85.5438C108.44 86.2478 108.904 87.2238 108.968 88.4718H107.288C107.24 87.7038 106.936 87.0878 106.376 86.6238C105.832 86.1438 105.08 85.9038 104.12 85.9038C103.272 85.9038 102.584 86.1038 102.056 86.5038C101.528 86.9038 101.264 87.3998 101.264 87.9918C101.264 88.5038 101.416 88.9278 101.72 89.2638C102.04 89.5838 102.432 89.8398 102.896 90.0318C103.36 90.2078 103.984 90.4078 104.768 90.6318C105.712 90.8878 106.464 91.1358 107.024 91.3758C107.584 91.6158 108.064 91.9678 108.464 92.4318C108.864 92.8958 109.072 93.5118 109.088 94.2798C109.088 94.9838 108.896 95.6158 108.512 96.1758C108.128 96.7198 107.592 97.1518 106.904 97.4718C106.216 97.7918 105.424 97.9518 104.528 97.9518ZM113.09 82.1838C112.754 82.1838 112.466 82.0638 112.226 81.8238C111.986 81.5838 111.866 81.2878 111.866 80.9358C111.866 80.5838 111.986 80.2958 112.226 80.0718C112.466 79.8318 112.754 79.7118 113.09 79.7118C113.426 79.7118 113.714 79.8318 113.954 80.0718C114.194 80.2958 114.314 80.5838 114.314 80.9358C114.314 81.2878 114.194 81.5838 113.954 81.8238C113.714 82.0638 113.426 82.1838 113.09 82.1838ZM113.93 84.6558V97.7598H112.25V84.6558H113.93ZM123.878 84.4158C125.446 84.4158 126.726 84.9038 127.718 85.8798C128.71 86.8398 129.206 88.2398 129.206 90.0798V97.7598H127.55V90.2718C127.55 88.8478 127.19 87.7598 126.47 87.0078C125.766 86.2558 124.798 85.8798 123.566 85.8798C122.302 85.8798 121.294 86.2798 120.542 87.0798C119.79 87.8798 119.414 89.0558 119.414 90.6078V97.7598H117.734V84.6558H119.414V86.8878C119.83 86.0878 120.43 85.4798 121.214 85.0638C121.998 84.6318 122.886 84.4158 123.878 84.4158ZM138.418 84.4638C139.65 84.4638 140.722 84.7518 141.634 85.3278C142.546 85.9038 143.202 86.6318 143.602 87.5118V84.6558H145.282V98.0958C145.282 99.2958 145.018 100.36 144.49 101.288C143.978 102.216 143.258 102.928 142.33 103.424C141.402 103.936 140.346 104.192 139.162 104.192C137.482 104.192 136.082 103.792 134.962 102.992C133.858 102.192 133.17 101.104 132.898 99.7278H134.554C134.842 100.64 135.386 101.368 136.186 101.912C137.002 102.456 137.994 102.728 139.162 102.728C140.01 102.728 140.77 102.544 141.442 102.176C142.114 101.824 142.642 101.296 143.026 100.592C143.41 99.8878 143.602 99.0558 143.602 98.0958V94.8558C143.186 95.7518 142.522 96.4958 141.61 97.0878C140.714 97.6638 139.65 97.9518 138.418 97.9518C137.218 97.9518 136.138 97.6718 135.178 97.1118C134.234 96.5518 133.49 95.7598 132.946 94.7358C132.418 93.7118 132.154 92.5278 132.154 91.1838C132.154 89.8398 132.418 88.6638 132.946 87.6558C133.49 86.6318 134.234 85.8478 135.178 85.3038C136.138 84.7438 137.218 84.4638 138.418 84.4638ZM143.602 91.2078C143.602 90.1518 143.386 89.2238 142.954 88.4238C142.522 87.6238 141.93 87.0078 141.178 86.5758C140.442 86.1438 139.626 85.9278 138.73 85.9278C137.802 85.9278 136.97 86.1358 136.234 86.5518C135.498 86.9678 134.914 87.5758 134.482 88.3758C134.066 89.1598 133.858 90.0958 133.858 91.1838C133.858 92.2558 134.066 93.1998 134.482 94.0158C134.914 94.8158 135.498 95.4318 136.234 95.8638C136.97 96.2798 137.802 96.4878 138.73 96.4878C139.626 96.4878 140.442 96.2718 141.178 95.8398C141.93 95.4078 142.522 94.7918 142.954 93.9918C143.386 93.1918 143.602 92.2638 143.602 91.2078Z" fill="#0D0D0D"/>
</svg>
