<svg width="147" height="54" viewBox="0 0 147 54" fill="none" xmlns="http://www.w3.org/2000/svg">
<path d="M67.8521 1.07934L67.852 0.07934L67.8521 1.07934ZM67.8521 31.5794L68.75 31.1392L67.8521 31.5794ZM140.352 53.079L146.126 43.079H134.579L140.352 53.079ZM0.852051 31.5794L1.70429 32.1025C1.88464 31.8087 2.06579 31.5178 2.24772 31.2297L1.40223 30.6958L0.556739 30.1618C0.37024 30.4571 0.184592 30.7552 -0.000186086 31.0562L0.852051 31.5794ZM2.5172 28.9796L3.34859 29.5353C3.72944 28.9655 4.11346 28.4075 4.50048 27.8611L3.68444 27.2831L2.8684 26.7051C2.47086 27.2664 2.0766 27.8392 1.6858 28.4239L2.5172 28.9796ZM4.8845 25.6375L5.68415 26.238C6.09647 25.6889 6.51192 25.1523 6.9303 24.6278L6.14859 24.0042L5.36688 23.3805C4.93623 23.9204 4.50883 24.4724 4.08486 25.037L4.8845 25.6375ZM7.44984 22.4222L8.21244 23.0691C8.65215 22.5507 9.09482 22.0451 9.54024 21.552L8.79812 20.8817L8.05601 20.2114C7.59662 20.7201 7.1403 21.2413 6.68725 21.7754L7.44984 22.4222ZM10.2027 19.376L10.9228 20.0698C11.3937 19.5811 11.8674 19.1056 12.3436 18.643L11.6468 17.9257L10.95 17.2085C10.4579 17.6865 9.96869 18.1776 9.48256 18.6821L10.2027 19.376ZM13.141 16.5224L13.813 17.2629C14.3176 16.8049 14.8247 16.3607 15.334 15.9297L14.6881 15.1663L14.0422 14.4029C13.5151 14.8488 12.9906 15.3084 12.4689 15.7819L13.141 16.5224ZM16.2756 13.8705L16.8941 14.6563C17.4256 14.238 17.9592 13.8334 18.4948 13.4421L17.9048 12.6346L17.3148 11.8272C16.7601 12.2326 16.2074 12.6516 15.6571 13.0847L16.2756 13.8705ZM19.5888 11.4507L20.1489 12.2791C20.7108 11.8991 21.2745 11.5331 21.8396 11.1804L21.3102 10.3321L20.7809 9.48368C20.1951 9.84916 19.611 10.2285 19.0286 10.6222L19.5888 11.4507ZM23.0684 9.27931L23.5663 10.1465C24.1524 9.81006 24.7396 9.48731 25.3277 9.17773L24.8618 8.29286L24.396 7.40798C23.7866 7.72881 23.1779 8.06332 22.5705 8.41207L23.0684 9.27931ZM26.6988 7.36837L27.1319 8.26968C27.7429 7.97607 28.3543 7.69599 28.9658 7.42883L28.5655 6.51247L28.1651 5.5961C27.5319 5.87276 26.8985 6.16287 26.2656 6.46706L26.6988 7.36837ZM30.4598 5.72478L30.8273 6.6548C31.4568 6.40605 32.086 6.17033 32.7144 5.94699L32.3795 5.00473L32.0446 4.06248C31.3947 4.29346 30.7438 4.53732 30.0923 4.79476L30.4598 5.72478ZM34.3219 4.35149L34.6246 5.30458C35.2709 5.09933 35.9159 4.90653 36.5592 4.72544L36.2882 3.76285L36.0173 2.80027C35.3532 2.9872 34.6871 3.18632 34.0192 3.39839L34.3219 4.35149ZM38.274 3.23819L38.514 4.20896C39.1734 4.04592 39.8304 3.89457 40.4845 3.75409L40.2745 2.77639L40.0645 1.79868C39.3909 1.94335 38.7139 2.09932 38.034 2.26742L38.274 3.23819ZM42.2874 2.37528L42.4685 3.35875C43.1376 3.23558 43.803 3.12316 44.464 3.02061L44.3107 2.03243L44.1574 1.04425C43.4785 1.14958 42.7946 1.26512 42.1064 1.3918L42.2874 2.37528ZM46.3424 1.74518L46.4693 2.73709C47.146 2.65051 47.8174 2.57359 48.4827 2.50536L48.3807 1.51058L48.2787 0.515798C47.5974 0.58566 46.9095 0.664468 46.2155 0.753265L46.3424 1.74518ZM50.4242 1.32543L50.5029 2.32233C51.1858 2.26839 51.8614 2.22286 52.5288 2.18459L52.4716 1.18623L52.4143 0.187867C51.7334 0.226914 51.0435 0.273407 50.3454 0.328538L50.4242 1.32543ZM54.5217 1.08909L54.5595 2.08838C55.2481 2.06236 55.9267 2.04318 56.5944 2.02947L56.5738 1.02968L56.5533 0.0298868C55.8752 0.0438129 55.1851 0.0633147 54.484 0.0898036L54.5217 1.08909ZM58.6269 1.00297L58.6329 2.00295C59.3276 1.99881 60.0085 1.99939 60.6745 2.00297L60.6799 1.00299L60.6853 0.00300241C60.0131 -0.000612974 59.3246 -0.00120544 58.621 0.00298971L58.6269 1.00297ZM62.7309 1.02223L62.7183 2.02215C63.4203 2.031 64.101 2.04129 64.7622 2.05071L64.7765 1.05081L64.7907 0.0509136C64.1317 0.0415221 63.4477 0.0311822 62.7435 0.0223085L62.7309 1.02223ZM66.8358 1.07514L66.8281 2.07511C67.1767 2.07779 67.5182 2.07935 67.8521 2.07934L67.8521 1.07934L67.852 0.07934C67.5243 0.0793468 67.1881 0.0778165 66.8434 0.0751695L66.8358 1.07514ZM67.8521 1.07934L67.8521 2.07934C68.1871 2.07933 68.5168 2.08387 68.8412 2.09282L68.8688 1.0932L68.8964 0.0935826C68.5533 0.0841101 68.2051 0.0793326 67.852 0.07934L67.8521 1.07934ZM70.8106 1.20235L70.7247 2.19866C71.3814 2.25527 72.0139 2.33146 72.6227 2.42602L72.7762 1.43786L72.9297 0.449706C72.2743 0.347928 71.5967 0.266412 70.8965 0.20605L70.8106 1.20235ZM74.6813 1.80711L74.4527 2.78064C75.082 2.92836 75.6825 3.09762 76.2551 3.28672L76.5687 2.33715L76.8822 1.38758C76.2517 1.17937 75.5944 0.994277 74.9098 0.833568L74.6813 1.80711ZM78.4065 3.0465L77.999 3.95967C78.5787 4.21843 79.1249 4.50024 79.6391 4.80283L80.1462 3.94099L80.6534 3.07915C80.0733 2.73779 79.4605 2.42186 78.8141 2.13334L78.4065 3.0465ZM81.7666 5.0312L81.1581 5.82479C81.6517 6.2032 82.1093 6.60462 82.5327 7.02638L83.2384 6.31789L83.9442 5.6094C83.4596 5.12677 82.937 4.6685 82.375 4.23761L81.7666 5.0312ZM84.5317 7.78829L83.7389 8.39782C84.1139 8.88549 84.4534 9.39393 84.759 9.92032L85.6238 9.41821L86.4886 8.9161C86.1408 8.31703 85.7534 7.73664 85.3245 7.17876L84.5317 7.78829ZM86.5013 11.1714L85.5816 11.564C85.8225 12.1284 86.0308 12.7085 86.2078 13.3014L87.166 13.0153L88.1242 12.7292C87.9265 12.067 87.6928 11.4155 87.421 10.7788L86.5013 11.1714ZM87.6274 14.9205L86.6447 15.1061C86.7595 15.7141 86.8451 16.3314 86.9029 16.9548L87.8986 16.8626L88.8943 16.7704C88.831 16.087 88.737 15.4074 88.61 14.735L87.6274 14.9205ZM87.994 18.8219L86.994 18.828C86.9978 19.4536 86.9758 20.0817 86.9294 20.7092L87.9267 20.783L88.9239 20.8567C88.9741 20.1778 88.9981 19.4965 88.9939 18.8158L87.994 18.8219ZM87.7079 22.7332L86.719 22.5847C86.6252 23.2092 86.5086 23.8295 86.3708 24.4423L87.3464 24.6618L88.322 24.8812C88.4703 24.2222 88.5958 23.5545 88.6968 22.8816L87.7079 22.7332ZM86.8481 26.5589L85.8905 26.2706C85.7073 26.8793 85.5036 27.4763 85.2815 28.0583L86.2157 28.4149L87.1499 28.7716C87.3894 28.1444 87.6085 27.5018 87.8056 26.8472L86.8481 26.5589ZM85.4485 30.2188L84.5439 29.7925C84.2716 30.3703 83.9812 30.9266 83.6751 31.4577L84.5414 31.9571L85.4078 32.4566C85.7424 31.8761 86.0582 31.2709 86.3531 30.6451L85.4485 30.2188ZM83.4845 33.6104L82.6689 33.0318C82.2988 33.5533 81.9137 34.038 81.5169 34.4813L82.262 35.1483L83.0071 35.8152C83.4578 35.3116 83.8896 34.7675 84.3 34.1891L83.4845 33.6104ZM80.8541 36.5193L80.212 35.7528C79.733 36.154 79.2469 36.4917 78.7589 36.7622L79.2437 37.6369L79.7285 38.5115C80.3405 38.1723 80.9311 37.7594 81.4963 37.2859L80.8541 36.5193ZM77.435 38.3656L77.1903 37.396C76.6479 37.5329 76.1073 37.5829 75.5706 37.5413L75.4934 38.5383L75.4162 39.5354C76.1829 39.5947 76.941 39.5217 77.6798 39.3351L77.435 38.3656ZM73.6042 38.0682L73.9969 37.1485C73.5192 36.9446 73.0318 36.6568 72.5392 36.2708L71.9224 37.0579L71.3056 37.8451C71.923 38.3289 72.5596 38.7095 73.2115 38.9879L73.6042 38.0682ZM70.5037 35.702L71.2549 35.0419C70.8858 34.6219 70.5174 34.1421 70.1521 33.5976L69.3217 34.1548L68.4913 34.712C68.9001 35.3212 69.3208 35.8708 69.7524 36.362L70.5037 35.702ZM68.322 32.4919L69.2014 32.0158C69.0497 31.7358 68.8992 31.4437 68.75 31.1392L67.8521 31.5794L66.9541 32.0195C67.1148 32.3472 67.2776 32.6633 67.4426 32.968L68.322 32.4919ZM67.8521 31.5794L68.75 31.1392C68.6041 30.8417 68.4732 30.5503 68.3567 30.265L67.4309 30.6432L66.5052 31.0215C66.6398 31.3507 66.7894 31.6834 66.9541 32.0195L67.8521 31.5794ZM66.8369 28.7948L67.8115 28.5707C67.6723 27.9655 67.6037 27.3925 67.5976 26.8499L66.5976 26.8611L65.5977 26.8724C65.6055 27.5686 65.6934 28.2845 65.8623 29.0189L66.8369 28.7948ZM66.8243 24.9206L67.7936 25.1667C67.9322 24.6207 68.1436 24.0988 68.4248 23.5991L67.5534 23.1086L66.6819 22.6182C66.3177 23.2652 66.0389 23.9509 65.8551 24.6744L66.8243 24.9206ZM68.704 21.5274L69.4447 22.1994C69.8261 21.779 70.2659 21.3748 70.7628 20.9876L70.1482 20.1987L69.5336 19.4099C68.9561 19.8599 68.4301 20.3412 67.9634 20.8555L68.704 21.5274ZM71.7821 19.0945L72.2902 19.9558C72.8001 19.655 73.3479 19.3684 73.9314 19.0962L73.5088 18.19L73.0861 17.2837C72.4499 17.5804 71.8446 17.8966 71.274 18.2332L71.7821 19.0945ZM75.3084 17.4351L75.6615 18.3707C76.2377 18.1533 76.8394 17.948 77.4647 17.7548L77.1696 16.7993L76.8744 15.8439C76.2131 16.0482 75.5726 16.2666 74.9554 16.4995L75.3084 17.4351ZM79.0772 16.2643L79.3234 17.2335C79.9239 17.081 80.5415 16.9384 81.1747 16.8057L80.9696 15.827L80.7646 14.8482C80.1054 14.9864 79.4603 15.1352 78.8311 15.2951L79.0772 16.2643ZM82.9029 15.4599L83.0716 16.4456C83.6972 16.3385 84.3352 16.2402 84.9844 16.1507L84.8478 15.1601L84.7113 14.1695C84.0415 14.2618 83.382 14.3634 82.7341 14.4743L82.9029 15.4599ZM86.7875 14.9217L86.8953 15.9159C87.534 15.8466 88.1817 15.7853 88.8373 15.7317L88.7559 14.735L88.6745 13.7384C88.0019 13.7933 87.3365 13.8563 86.6796 13.9276L86.7875 14.9217ZM90.7013 14.6001L90.7586 15.5985C91.401 15.5616 92.0497 15.5319 92.7036 15.5093L92.669 14.5099L92.6344 13.5105C91.9657 13.5336 91.3019 13.564 90.644 13.6018L90.7013 14.6001ZM94.6269 14.4631L94.6403 15.463C95.2849 15.4545 95.9335 15.4525 96.5853 15.4571L96.5923 14.4571L96.5993 13.4571C95.9342 13.4524 95.272 13.4545 94.6136 13.4632L94.6269 14.4631ZM98.5543 14.4901L98.5277 15.4897C99.1736 15.5069 99.8217 15.5303 100.471 15.5598L100.517 14.5609L100.562 13.5619C99.9001 13.5318 99.2394 13.5079 98.5808 13.4904L98.5543 14.4901ZM102.477 14.6684L102.413 15.6664C103.059 15.7079 103.706 15.7554 104.353 15.8088L104.435 14.8122L104.517 13.8156C103.859 13.7611 103.199 13.7127 102.541 13.6705L102.477 14.6684ZM106.389 14.9917L106.288 15.9867C106.935 16.0521 107.58 16.1233 108.223 16.2005L108.342 15.2076L108.461 14.2147C107.806 14.1361 107.148 14.0635 106.489 13.9968L106.389 14.9917ZM110.285 15.4589L110.147 16.4494C110.793 16.5391 111.436 16.6347 112.075 16.7361L112.232 15.7485L112.389 14.7609C111.737 14.6574 111.081 14.5599 110.423 14.4684L110.285 15.4589ZM114.159 16.0739L113.983 17.0582C114.627 17.1737 115.267 17.295 115.9 17.4223L116.097 16.4418L116.294 15.4614C115.647 15.3314 114.993 15.2074 114.336 15.0896L114.159 16.0739ZM118.011 16.8479L117.792 17.8238C118.431 17.9668 119.063 18.1159 119.686 18.271L119.927 17.3005L120.169 16.3301C119.53 16.1711 118.883 16.0184 118.229 15.8721L118.011 16.8479ZM121.825 17.7982L121.559 18.7621C122.187 18.9357 122.806 19.1155 123.413 19.3016L123.706 18.3455L123.999 17.3894C123.373 17.1976 122.737 17.0126 122.091 16.8342L121.825 17.7982ZM125.582 18.952L125.26 19.8985C125.873 20.1077 126.473 20.3236 127.058 20.546L127.413 19.6113L127.769 18.6766C127.161 18.4456 126.54 18.2219 125.905 18.0055L125.582 18.952ZM129.247 20.3507L128.854 21.2701C129.456 21.5278 130.039 21.7929 130.6 22.0651L131.036 21.1654L131.473 20.2658C130.882 19.9788 130.27 19.7007 129.64 19.4313L129.247 20.3507ZM132.763 22.0624L132.276 22.9359C132.848 23.255 133.391 23.5821 133.902 23.9168L134.45 23.0801L134.998 22.2434C134.444 21.8806 133.86 21.5291 133.25 21.1889L132.763 22.0624ZM136.051 24.2305L135.43 25.0141C135.935 25.4148 136.395 25.8233 136.807 26.2388L137.517 25.5347L138.227 24.8307C137.753 24.3529 137.233 23.8917 136.673 23.447L136.051 24.2305ZM138.785 27.0251L137.971 27.6065C138.327 28.1045 138.614 28.6081 138.832 29.1166L139.751 28.722L140.67 28.3274C140.39 27.6742 140.029 27.0462 139.598 26.4437L138.785 27.0251ZM140.283 30.5959L139.293 30.7364C139.332 31.0137 139.352 31.2944 139.352 31.579H140.352H141.352C141.352 31.2001 141.325 30.8254 141.273 30.4554L140.283 30.5959ZM140.352 31.579H139.352V32.654H140.352H141.352V31.579H140.352ZM140.352 34.804H139.352V36.954H140.352H141.352V34.804H140.352ZM140.352 39.104H139.352V41.254H140.352H141.352V39.104H140.352ZM140.352 43.404H139.352V45.554H140.352H141.352V43.404H140.352ZM140.352 47.704H139.352V49.854H140.352H141.352V47.704H140.352Z" fill="#3A7D6B"/>
</svg>
